<svg width="295" height="330" viewBox="0 0 295 330" fill="none" xmlns="http://www.w3.org/2000/svg">
  <path opacity="0.75"
    d="M63.5 120C63.5 49.2 115 38 146 38H147C178 38 229.5 49.2 229.5 120C219 120 219.5 120 214.5 97C204 97 204 97 198.5 78.5C186.667 77.1667 159.8 74.5 147 74.5H146C133.2 74.5 106.333 77.1667 94.5 78.5C89 97 89 97 78.5 97C73.5 120 74 120 63.5 120Z"
    fill="#161515" />
  <path
    d="M92.7877 16.1776C78.7502 29.8358 70.8681 61.9907 70.3496 81.5227C87.8308 79.549 107.849 75.1062 147.35 75.1062C184.105 75.1062 200.753 79.267 222.746 81.2407C222.227 61.7087 214.53 30.7842 200.493 17.1261C197.015 17.6003 190.867 20.0663 186.694 26.1366C185.825 21.1997 181.725 12.0042 171.861 2.8988C166.802 3.68922 152.883 7.64125 146.054 17.1261C139.225 7.64125 126.308 3.68922 121.25 2.8988C111.386 12.0042 107.884 19.7883 107.884 26.1366C103.711 20.0663 96.2655 16.6518 92.7877 16.1776Z"
    fill="#161515" />
</svg>
