<svg width="295" height="318" viewBox="0 0 295 318" fill="none" xmlns="http://www.w3.org/2000/svg">
  <path fill-rule="evenodd"
    d="M41.9934 125.975C37.9882 132.812 34.8012 138.253 33.5 141C29 150.5 19.5 173 26.5 191.5C30.1308 201.096 36.0483 205.445 40.9036 209.014C45.4092 212.326 49 214.965 49 220.5C49 225.248 45.3344 230.594 41.4527 236.254C35.9335 244.302 29.9774 252.987 33.5 261.5C38.3 273.1 55.5 280.667 63.5 283C62.5 280.667 61.1 274.1 63.5 266.5C67 276.333 78 296.2 94 297C91.8267 288.91 88.5512 273.753 88.2798 262.516C91.1842 264.767 94.3677 266.53 97.5 267C96.3333 264 94.7 256.7 97.5 251.5C107.167 255.167 130 262.6 144 263L148 251.5L152 263C166 262.6 188.833 255.167 198.5 251.5C201.3 256.7 199.667 264 198.5 267C201.632 266.53 204.816 264.767 207.72 262.516C207.449 273.753 204.173 288.91 202 297C218 296.2 229 276.333 232.5 266.5C234.9 274.1 233.5 280.667 232.5 283C240.5 280.667 257.7 273.1 262.5 261.5C266.023 252.987 260.066 244.302 254.547 236.254C253.248 234.359 251.972 232.499 250.85 230.685L247 220.5C247 214.965 250.591 212.326 255.096 209.014C255.722 208.554 256.366 208.081 257.02 207.585C261.44 204.236 266.337 199.858 269.5 191.5C276.5 173 267 150.5 262.5 141C258 131.5 245.5 103 232 69.5C220.09 39.9456 210 22 145 22C144.128 22 143.016 21.9591 141.702 21.9108C126.445 21.3495 83.8501 19.7826 70.5 69.5C66.6288 83.917 51.8391 109.166 41.9934 125.975ZM196.565 190.789C197.205 186.105 198.758 181.448 202 176.5C205.111 171.751 208.598 167.967 211.811 164.481C218.407 157.324 223.845 151.423 222.5 141C209.3 126.2 195 85.5 189.5 67C185.9 72.2 188 85.5 189.5 91.5C179.5 91.5 165 79.1667 159 73C159.8 78.6 165 87.6667 167.5 91.5C133.5 92.7 123 68.6667 122 56.5C109.5 85 102 101 83.5 99C83.5 104.757 81.3084 111.748 78.9327 119.325C76.7693 126.225 74.4532 133.613 73.5 141C72.1674 151.328 77.7164 157.216 84.3784 164.285C87.7146 167.825 91.33 171.662 94.5 176.5C98.1568 182.081 99.5911 187.292 99.972 192.589C104.147 194.895 108.027 196.719 111.194 198C116.028 200 129.894 204 146.694 204C163.494 204 177.361 200 182.194 198C186.145 196.402 191.206 193.959 196.565 190.789Z"
    fill="#161515" />
</svg>
