<svg width="295" height="330" viewBox="0 0 295 330" fill="none" xmlns="http://www.w3.org/2000/svg">
  <path d="M226.655 70.4222C226.439 70.252 226.22 70.1101 226 70C226.178 70.1269 226.399 70.2708 226.655 70.4222Z"
    fill="#161515" />
  <path
    d="M124 90C128.4 87.6 133.5 77.6667 135.5 73C138 78.6667 144 90 148 90C152 90 157.5 77.4 157.5 73C159.5 77.6667 164.6 87.6 169 90C172 87.5 178.4 81.8 180 79C181.5 83.6667 185 93.3 187 94.5C189.833 93.1667 196 89.8 198 87C199.5 91.3334 203.5 100.7 207.5 103.5C209.5 102.667 214 100.5 216 98.5C216 103.5 216.6 114.1 219 116.5C220.833 115.833 224.8 114.2 226 113C226.833 114.667 228.7 118.2 229.5 119C230.5 120 237 112.5 231.5 94.5C233.167 96.1667 237.3 99.7 240.5 100.5C238.5 96.8334 234.4 89 234 87C233.528 84.6376 230.376 73.3456 226.655 70.4222C226.399 70.2708 226.178 70.1269 226 70C226.22 70.1101 226.439 70.252 226.655 70.4222C228.085 71.2649 230.626 72.3391 233 72C230.5 69.1667 225.3 62.9 224.5 60.5C223.5 57.5 214 42.5 207.5 42.5C209 42.3334 212.4 41.4 214 39C207.5 38.8334 193.6 37.8 190 35C185.5 31.5 165.5 27.5 157.5 28C156.667 28 154.6 27.5 153 25.5C153 26.7 151.333 27.6667 150.5 28C150.5 25.6 147.833 23 146.5 22C144.5 23.2 143 26.1667 142.5 27.5C141.3 27.1 140.333 26 140 25.5C138.4 27.5 136.333 28 135.5 28C127.5 27.5 107.5 31.5 103 35C99.4 37.8 85.5 38.8334 79 39C80.6 41.4 84 42.3334 85.5 42.5C79 42.5 69.5 57.5 68.5 60.5C67.7 62.9 62.5 69.1667 60 72C62.3736 72.3391 64.9149 71.2649 66.3446 70.4222C66.5613 70.252 66.7799 70.1101 67 70C66.8224 70.1269 66.6014 70.2708 66.3446 70.4222C62.6239 73.3456 59.4725 84.6376 59 87C58.6 89 54.5 96.8334 52.5 100.5C55.7 99.7 59.8333 96.1667 61.5 94.5C56 112.5 62.5 120 63.5 119C64.3 118.2 66.1667 114.667 67 113C68.2 114.2 72.1667 115.833 74 116.5C76.4 114.1 77 103.5 77 98.5C79 100.5 83.5 102.667 85.5 103.5C89.5 100.7 93.5 91.3334 95 87C97 89.8 103.167 93.1667 106 94.5C108 93.3 111.5 83.6667 113 79C114.6 81.8 121 87.5 124 90Z"
    fill="#161515" />
</svg>
