<svg width="295" height="331" viewBox="0 0 295 331" fill="none" xmlns="http://www.w3.org/2000/svg">
  <path opacity="0.75"
    d="M63.5 119.552C63.5 48.7519 115 37.5519 146 37.5519H147C178 37.5519 229.5 48.7519 229.5 119.552C219 119.552 219.5 119.552 214.5 96.5519C204 96.5519 204 96.5519 198.5 78.0519C186.667 76.7185 159.8 74.0519 147 74.0519H146C133.2 74.0519 106.333 76.7185 94.5 78.0519C89 96.5519 89 96.5519 78.5 96.5519C73.5 119.552 74 119.552 63.5 119.552Z"
    fill="#161515" />
  <path
    d="M49 63.0454C50.9949 83.1805 58.3095 99.106 64.9591 104.552H76.4297L78.4246 97.0454C83.9105 97.0454 88.8977 100.136 94.3836 80.7077C109.678 79.5302 141.164 77.1753 144.754 77.1753C161.545 77.764 195.724 79.2947 198.118 80.7077C202.606 93.0714 203.604 97.9285 214.077 97.0454L216.072 104.552H228.041C234.691 99.106 242.005 83.1805 244 63.0454C239.678 61.2792 229.138 57.7467 221.558 57.7467C220.726 46.8549 217.169 23.5701 209.588 17.5649C202.44 18.0064 186.547 20.0376 180.164 24.6298C180.164 22.422 148.744 2.55188 144.754 2.55188C141.563 2.55188 122.146 17.2705 112.836 24.6298C106.453 20.0376 90.5601 18.0064 83.4118 17.5649C75.8312 23.5701 72.2737 46.8549 71.4425 57.7467C63.8619 57.7467 53.3223 61.2792 49 63.0454Z"
    fill="#161515" />
</svg>
