<svg width="262" height="153" viewBox="0 0 262 153" fill="none" xmlns="http://www.w3.org/2000/svg">
  <path
    d="M167 11.5C114.2 11.5 97.3333 38.1667 95.5 51.5C90 49 76.9 45.5 68.5 51.5C58 59 43.5 74 37 76C37 82.5 39.5 90 43.5 91.5C47.5 93 22.5 100 21.5 107.5C22.6667 111.667 25.7 120.2 28.5 121C32 122 34 119 37 117C35.6667 118.833 32.8 123.3 32 126.5C31 130.5 38.5 138 43.5 137C45.5 133.8 51 128.667 53.5 126.5C56.6667 126.5 64.1 125.4 68.5 121C62.9 108.2 74.8333 84 81.5 73.5C79.8333 76.8333 76.6 84.2 77 87C77.4 89.8 85.5 91.1667 89.5 91.5C93.1 91.5 96 71.1667 97 61C112.667 72.5 145 94.7 149 91.5C154 87.5 157 82.5 157.5 78C158 73.5 145.5 72.5 142 68.5C152.833 71 175.9 74.5 181.5 68.5C201 78 216.703 103.758 219 109.5C225 124.5 230.5 134.167 235.5 143.5C239 148.5 254 135 257 133C257.4 130.6 247.833 117.333 243 111C246.5 112.5 246.5 114.5 249 115C251.5 115.5 260.5 109.5 263.5 107.5C264.7 98.7 252.667 84.1667 246.5 78C249 78 252 72 254 64.5C247 56 222 46.5 224.5 46.5C227 46.5 232.5 38.5 233 34C233.5 29.5 203 11.5 167 11.5Z"
    fill="#161515"
    transform="translate(-11.5, -1.5)"
  />
</svg>
