<svg width="295" height="331" viewBox="0 0 295 331" fill="none" xmlns="http://www.w3.org/2000/svg">
  <path
    fill-rule="evenodd"
    d="M62.2489 56.5C87.4489 31.3 129.082 25 146.749 25H147.749C165.416 25 207.049 31.3 232.249 56.5C260.945 85.1963 250.221 95.6346 245.438 100.29C244.971 100.744 244.56 101.144 244.249 101.5C241.728 104.381 246.989 107.262 252.931 110.517C255.24 111.781 257.651 113.101 259.749 114.5C267.249 119.5 274.749 132.5 263.249 141C251.749 149.5 253.749 153.5 256.749 155.5C257.53 156.021 259.09 156.372 261.111 156.827C266.857 158.12 276.331 160.253 282.249 169.5C290.249 182 276.749 212 244.249 219C216.301 225.02 198.706 224.384 190.51 224.087C189.175 224.039 188.089 224 187.249 224H147.749H146.749H107.249C106.409 224 105.323 224.039 103.988 224.087C95.7921 224.384 78.197 225.02 50.2489 219C17.7489 212 4.24892 182 12.2489 169.5C18.1667 160.253 27.6412 158.12 33.3866 156.827C35.4082 156.372 36.9681 156.021 37.7489 155.5C40.7489 153.5 42.7489 149.5 31.2489 141C19.7489 132.5 27.2489 119.5 34.7489 114.5C36.847 113.101 39.2581 111.781 41.5663 110.517C47.5092 107.262 52.7698 104.381 50.2489 101.5C49.9374 101.144 49.5269 100.744 49.0596 100.29C44.277 95.6346 33.5526 85.1963 62.2489 56.5ZM214.626 177.5C210.337 175.088 208.739 168.97 208.5 165.26C213.5 168.76 215.5 168.76 221 161.76C226.5 154.76 232 143.76 221 136.76C210 129.76 210.5 120.26 213 115.26C213.54 114.18 214.126 113.241 214.678 112.356C216.685 109.14 218.244 106.641 215.5 100.76C214.13 97.8231 210.613 96.343 206.99 94.8185C201.362 92.4496 195.479 89.9738 197 81.7599C199 70.9599 188.167 61.9265 182.5 58.7599C160.1 44.7599 149.5 52.9265 147 58.7598V59C144.5 53.1667 133.9 45 111.5 59C105.833 62.1667 95 71.2 97 82C98.5211 90.2139 92.6383 92.6898 87.0097 95.0586C83.3874 96.5831 79.8705 98.0633 78.5 101C75.7555 106.881 77.3151 109.38 79.3216 112.596C79.874 113.481 80.4603 114.421 81 115.5C83.5 120.5 84 130 73 137C62 144 67.5 155 73 162C78.5 169 80.5 169 85.5 165.5C85.2565 169.274 83.6081 175.537 79.152 177.861C89.7213 187.571 102.901 194.645 111.194 198C116.028 200 129.894 204 146.694 204C163.494 204 177.361 200 182.194 198C190.59 194.604 203.993 187.396 214.626 177.5Z"
    fill="#161515"
  />
</svg>
