<svg width="270" height="173" viewBox="0 0 270 173" fill="none" xmlns="http://www.w3.org/2000/svg">
  <path
    fill-rule="evenodd"
    d="M93.7738 51.6367C91.4593 42.3718 81.6445 25.6322 58.5 25.6322C28.5 25.6322 20.5 58.6322 20.5 83.1322C20.5 96.4303 27.5706 102.363 34.9157 108.526C39.9227 112.728 45.0573 117.036 48.1667 123.857C51.9458 121.215 56.7589 119.632 62 119.632C62.6102 119.632 63.2147 119.654 63.8124 119.696L63.823 119.632L63.5 119.632C63.5 83.7765 76.7086 63.2069 93.7738 51.6367ZM74.726 174.089C70.1176 169.096 66.3534 163.539 64.2496 157.534C63.51 157.599 62.7595 157.632 62 157.632C52.202 157.632 43.9 152.1 41.0527 144.456C33.9936 150.346 25.4819 149.129 20.5 148.132C27.0786 163.536 46.8493 189.32 74.726 174.089Z"
    fill="#161515"
    transform="translate(-10.5, -15.63)"
  />
  <path
    fill-rule="evenodd"
    d="M197.53 50.5241C200.324 41.0961 210.255 25.6322 232.5 25.6322C262.5 25.6322 270.5 58.6322 270.5 83.1322C270.5 96.4303 263.429 102.363 256.084 108.526C251.321 112.523 246.443 116.616 243.302 122.878C239.79 120.829 235.557 119.632 231 119.632C230.513 119.632 230.029 119.646 229.55 119.673C229.533 119.573 229.517 119.474 229.5 119.374C229.434 82.5009 215.367 61.844 197.53 50.5241ZM217.878 174.925C244.908 188.329 264.048 163.239 270.5 148.132C265.872 149.058 258.197 150.174 251.471 145.606C248.252 152.649 240.3 157.632 231 157.632C230.369 157.632 229.745 157.609 229.128 157.564C226.904 163.895 222.835 169.728 217.878 174.925Z"
    fill="#161515"
    transform="translate(-10.5, -15.63)"
  />
  <path
    d="M62.5 119.632C99.7 119.232 136.833 90.1322 150 75.6322C149.5 82.2989 146.4 96.4322 138 99.6322C148.167 100.799 170.3 99.3322 177.5 84.1322C184 93.6322 203.5 114.032 229.5 119.632C229.5 75.6322 208.5 32.1322 146.5 32.1322C88.5 32.1322 62.5 66.6322 62.5 119.632Z"
    fill="#161515"
    transform="translate(-10.5, -15.63)"
  />
</svg>
