<svg width="288" height="140" viewBox="0 0 288 140" fill="none" xmlns="http://www.w3.org/2000/svg">
  <path
    fill-rule="evenodd"
    d="M187.66 43.8999C185.228 34.8613 175.365 24.5 148 24.5C102.5 24.5 77.5 47.5 68.5 58C65.8441 61.0985 62.0562 66.7224 57.7529 73.1114C47.4737 88.3729 34.2539 108 26.5 108C20.5 108 17 107.5 11.5 105C13.6667 116.5 22.2 140.5 39 144.5C39.5935 144.641 40.173 144.775 40.7387 144.901C40.2568 143.337 40 141.694 40 140C40 129.507 49.8497 121 62 121C62.6102 121 63.2147 121.021 63.8124 121.064C63.8161 121.041 63.8198 121.019 63.8235 120.997C63.8818 120.999 63.9407 121 64 121C80.4 121 88.8334 94.6666 91 81.5C91.8334 85.5 102.6 96.3 137 95.5C158.969 94.9891 172.726 82.5556 180.539 70.2067C184.284 79.0358 196.465 85.5 209.5 85.5C210.333 97.3333 215.5 121 229.5 121C229.515 121 229.529 121 229.543 121C229.546 121.013 229.548 121.027 229.55 121.041C230.029 121.014 230.513 121 231 121C243.15 121 253 129.507 253 140C253 141.544 252.787 143.045 252.384 144.482C269.135 140.429 277.646 116.483 279.81 105C274.31 107.5 270.81 108 264.81 108C257.574 108 248.392 91.9908 240.393 78.0452L240.392 78.045C236.231 70.7898 232.39 64.0932 229.31 60.5C224.721 54.1872 204.035 33.733 187.66 43.8999Z"
    fill="#161515"
    transform="translate(-1.5, -14.5)"
  />
</svg>
