<svg width="295" height="269" viewBox="0 0 295 269" fill="none" xmlns="http://www.w3.org/2000/svg">
  <path
    d="M146.5 92.5C91.5 92.5 92.5 91.5 92.5 62C91.3334 73.8334 92.5 105 76 100L63.5 119.5C63.5 84.5 74.5 30 146.5 30C218.5 30 230 84.5 230 119.5L217.5 100C201 104 202.167 73.8333 201 62C201 91.5 201.5 92.5 146.5 92.5Z"
    fill="#161515" />
  <path fill-rule="evenodd"
    d="M55.6037 156.184C57.6278 156.715 59.7753 157 62 157C62.7595 157 63.51 156.967 64.2496 156.902C66.5287 163.407 70.7565 169.387 75.8951 174.693C73.3438 177.674 69.7226 179.502 65.8819 179.58C69.1305 183.722 69.8077 189.781 67.1364 195.089C64.0774 201.168 57.6119 204.307 51.6515 203.056C57.7622 209.747 55.1894 220.808 53 226.5C48.6667 226.833 39.909 225.78 36 223.5C30 220 28.5 217.5 25 211C28.8684 206.272 37.5403 198.366 44.9806 199.29C41.1331 195.158 40.1626 188.627 43.018 182.952C45.5866 177.848 50.5569 174.817 55.6133 174.717C52.9934 171.45 51.8189 166.916 52.8022 162.306C53.2957 159.993 54.2774 157.919 55.6037 156.184Z"
    fill="#161515" />
  <path fill-rule="evenodd"
    d="M218.268 173.881C223.048 168.788 226.963 163.096 229.128 156.932C229.745 156.977 230.37 157 231 157C233.757 157 236.395 156.562 238.827 155.762C240.469 157.637 241.683 159.982 242.251 162.644C243.234 167.255 242.06 171.788 239.44 175.055C244.496 175.155 249.467 178.187 252.035 183.291C254.891 188.965 253.92 195.496 250.073 199.628C257.513 198.704 266.185 206.61 270.053 211.338C266.553 217.838 265.053 220.338 259.053 223.838C255.144 226.119 246.387 227.172 242.053 226.838C239.864 221.146 237.291 210.085 243.402 203.395C237.441 204.645 230.976 201.506 227.917 195.428C225.246 190.119 225.923 184.061 229.171 179.919C224.859 179.831 220.823 177.537 218.268 173.881Z"
    fill="#161515" />
</svg>
