<svg width="186" height="118" viewBox="0 0 186 118" fill="none" xmlns="http://www.w3.org/2000/svg">
  <path
    opacity="0.75"
    d="M63.5 121C63.5 50.2 115 39 146 39H147C178 39 229.5 50.2 229.5 121C219 121 219.5 121 214.5 98C204 98 204 98 198.5 79.5C186.667 78.1667 159.8 75.5 147 75.5H146C133.2 75.5 106.333 78.1667 94.5 79.5C89 98 89 98 78.5 98C73.5 121 74 121 63.5 121Z"
    fill="#161515"
    transform="translate(-53.5, -13)"
  />
  <path
    d="M71.5 79C66.3333 76 59.1 65.8 71.5 49C86.6261 28.5066 132.227 23.2505 146.5 23.0089C146.147 23.0029 145.814 23 145.5 23H147.5C147.186 23 146.853 23.0029 146.5 23.0089C160.773 23.2505 206.374 28.5066 221.5 49C233.9 65.8 226.667 76 221.5 79C218.5 85.6667 210.9 98.9 204.5 98.5C200 95.8333 190.3 89.1 187.5 83.5C184.667 86.8333 177.4 94 171 96C167.333 93.3333 159.6 87.1 158 83.5C155.833 87.8333 150.7 96.5 147.5 96.5C144.3 96.5 137.833 87.8333 135 83.5C133.4 87.1 125.667 93.3333 122 96C115.6 94 108.333 86.8333 105.5 83.5C102.7 89.1 93 95.8333 88.5 98.5C82.1 98.9 74.5 85.6667 71.5 79Z"
    fill="#161515"
    transform="translate(-53.5, -13)"
  />
</svg>
