<svg width="295" height="331" viewBox="0 0 295 331" fill="none" xmlns="http://www.w3.org/2000/svg">
  <path opacity="0.75"
    d="M63.5 119C63.5 48.2 115 37 146 37H147C178 37 229.5 48.2 229.5 119C219 119 219.5 119 214.5 96C204 96 204 96 198.5 77.5C186.667 76.1667 159.8 73.5 147 73.5H146C133.2 73.5 106.333 76.1667 94.5 77.5C89 96 89 96 78.5 96C73.5 119 74 119 63.5 119Z"
    fill="#161515" />
  <path
    d="M59.6639 53.221C65.6872 59.347 67.8623 77.0442 69.2008 83C86.4342 79.7385 122.407 74.9171 146.5 74.9171C170.593 74.9171 206.566 79.7385 223.799 83C225.138 77.0442 226.666 58.6354 233.336 53.221C241 47 237.5 45.5 232.332 40.884C227.009 36.1294 221.791 31.9503 217.274 44.2873C216.772 43.2947 216.795 41.2436 218 37.5C219.506 32.8204 227.5 30 215.768 23.8674C203.062 17.2254 204.51 21.1934 202 28C200.494 29.7017 198.602 34.9282 196.192 34.9282C196.36 33.5101 197.697 29.9934 198.5 27.2707C199.504 23.8674 205.5 18 196.192 13C185.304 7.15079 187.5 9 180.13 27.2707C179.628 25.7109 179 22.5 179 19C179 13.232 185.245 7.62535 170.593 7.27624C159 7 158.547 8 158.547 16.2099C158.547 22.3883 157.877 25.0018 157.041 25.5691C156.539 24.7182 155.111 22.1673 155.5 18.7624C156.5 10 159.238 6 147.504 6C134.955 6 138 10.5 138 16.21C138 18.724 137.13 23.442 135.959 25.5691C135.123 25.0019 133.65 22.3359 134.453 16.21C135.457 8.55249 137.002 5.94407 122.407 7.27625C109 8.5 114.5 12 114 18.7624C113.767 21.9203 113.372 25.7109 112.87 27.2707C107.85 7.27627 107 7.27625 95.3019 13.2321C83.9168 19.0285 93.4961 25.5967 94.5 29C95.3031 31.7227 96.6404 33.5102 96.8077 34.9282C94.3984 34.9282 91.5058 30.7017 90 29C87.4903 22.1934 87.4638 18.7348 77.2319 23.8674C67 29 71.9942 32.3204 73.5 37C74.7047 40.7436 76.228 43.2947 75.7261 44.2873C71.2086 31.9503 66.6911 37.0553 60.6678 40.884C54.6445 44.7127 52.1348 45.5636 59.6639 53.221Z"
    fill="#161515" />
</svg>
