<svg width="213" height="163" viewBox="0 0 213 163" fill="none" xmlns="http://www.w3.org/2000/svg">
  <mask id="mask0" style="mask-type: alpha" maskUnits="userSpaceOnUse" x="21" y="8" width="173" height="151">
    <path
      d="M153.458 62.7899C153.122 60.9163 152.935 60.0091 153 60.5C153.118 61.391 153.272 62.1478 153.458 62.7899Z"
      fill="black"
    />
    <path
      d="M80.5001 9.99997C48.5001 -2.57492e-05 30.3335 39.7899 32.5001 49.2899C31.6668 49.9565 30.0001 50.2899 31.0001 52.2899C31.5001 55.7899 36.3384 61.6792 39.0001 63.5C41.5001 65.2101 48.0001 67 51.0001 68C52.2001 68.8 52.8334 67 53.0001 66C56.5249 66 59.6654 67.553 61.0426 62.7899C61.3776 60.9162 61.5652 60.0091 61.5001 60.5V69.5C48.1526 82 21 118.5 21 148.5C21 152.5 32 154.5 32 150.5C32 154.5 42.5 156.5 42.5 152.5C42.5 156.5 53 156.5 53 152.5C53 156.5 64.0001 158.5 64.0001 154.5C64.0001 158.5 75 159 75 155C75 159 85.5 159 85.5 155C85.5 159 96.5001 159.5 96.5001 155.5C96.5001 159.5 108 159.5 108 155.5C108 159.5 119 159.5 119 155.5C119 159.5 129 159 129 155C129 159 139.5 158.5 139.5 154.5C139.5 158.5 150.5 158.5 150.5 154.5C150.5 158.5 161.5 156.5 161.5 152.5C161.5 156.5 172 156.5 172 152.5C172 156.5 182.5 154.5 182.5 150.5C182.5 154.5 193.5 152.5 193.5 148.5C193.5 114.9 166.805 81 153.458 70L153 60.5C152.935 60.0091 153.122 60.9163 153.458 62.7899C154.835 67.5531 157.975 66 161.5 66C161.667 67 162.3 68.8 163.5 68C166.5 67 173 65.2102 175.5 63.5C178.162 61.6793 183 55.7899 183.5 52.2899C184.5 50.2899 182.833 49.9566 182 49.2899C184.167 39.7899 166 2.00272e-05 134 10C127.833 12.5 121.5 17.5 107 17.5C92.5 17.5 86.6667 12.5 80.5001 9.99997Z"
      fill="black"
    />
  </mask>
  <g mask="url(#mask0)">
    <rect width="213" height="163" fill="#149547" />
  </g>
</svg>
