<svg width="213" height="163" viewBox="0 0 213 163" fill="none" xmlns="http://www.w3.org/2000/svg">
  <mask id="mask0" style="mask-type:alpha" maskUnits="userSpaceOnUse" x="4" y="9" width="207" height="103">
    <path fill-rule="evenodd"
      d="M79.8232 9.70329C79.4017 10.2582 79 10.9929 79 11.5C68.9999 8.5 41.6 31.7 34 44.5C30.0297 51.1867 25.0115 55.6029 20.6242 59.4639C14.5136 64.8414 9.62684 69.1419 10.5 77C8.16662 78.8333 3.69995 83 4.49995 85C7.83328 88.8333 15.4999 96.7 19.4999 97.5C23.4999 97.5 26.8333 92.8333 27.9999 90.5C32.4999 92 47.1999 80.2 49.9999 75C52.7999 69.8 58.8333 63.1667 61.5 60.5C56.6666 71.1667 49.0999 93.5 57.4999 97.5C56.8333 100.833 56.1999 108.7 56.9999 109.5C70.9999 111.5 99.5999 111.5 106 111.5C112.4 111.5 149.5 111 158.5 109.5C159.3 108.7 158.167 100.833 157.5 97.5C165.9 93.5 158.333 71.1667 153.5 60.5C156.167 63.1667 162.2 69.8 165 75C167.8 80.2 182.5 92 187 90.5C188.167 92.8333 191.5 97.5 195.5 97.5C199.5 96.7 207.167 88.8333 210.5 85C211.3 83 206.833 78.8333 204.5 77C205.373 69.1419 200.486 64.8414 194.376 59.4639C189.988 55.6029 184.97 51.1867 181 44.5C173.4 31.7 146 8.5 136 11.5C136 10.961 134.865 10.1647 133.972 9.60059C127.21 11.3248 117.566 13 106.694 13C96.0382 13 86.5623 11.3907 79.8232 9.70329Z"
      fill="black" />
  </mask>
  <g mask="url(#mask0)">
    <rect width="213" height="163" fill="#DF3C3C" />
    <g filter="url(#filter0_ddd)">
      <path
        d="M52.5 113L85.4999 116.5C90.2999 106.9 84.1666 37.3333 85.4999 10L75.9999 2L26.5 45.5C20.1667 53.5 3.6 81.2 2 86L20 102L49.5 84L52.5 113Z"
        fill="url(#paint0_linear)" />
    </g>
    <g filter="url(#filter1_ddd)">
      <path
        d="M52.5 113L85.4999 116.5C90.2999 106.9 84.1666 37.3333 85.4999 10L75.9999 2L26.5 45.5C20.1667 53.5 3.6 81.2 2 86L20 102L49.5 84L52.5 113Z"
        fill="url(#paint1_linear)" />
    </g>
    <g filter="url(#filter2_ddd)">
      <path
        d="M162.866 113L129.866 116.5C125.066 106.9 131.2 37.3333 129.866 10L139.366 2L188.866 45.5C195.2 53.5 211.766 81.2 213.366 86L195.366 102L165.866 84L162.866 113Z"
        fill="url(#paint2_linear)" />
    </g>
    <g filter="url(#filter3_di)">
      <path
        d="M118.512 36.7787C117.565 34.844 114.534 35.2555 113.174 35.7863C112.132 36.1928 107.989 38.7244 109.173 41.1428C110.12 43.0776 113.358 42.2302 114.858 41.5646C116.471 40.7754 119.459 38.7134 118.512 36.7787Z"
        fill="#FED97B" />
    </g>
    <g filter="url(#filter4_di)">
      <path
        d="M96.1017 36.7787C97.0487 34.844 100.079 35.2555 101.44 35.7863C102.481 36.1928 106.624 38.7244 105.44 41.1428C104.493 43.0776 101.255 42.2302 99.7548 41.5646C98.1425 40.7754 95.1547 38.7134 96.1017 36.7787Z"
        fill="#FED97B" />
    </g>
    <g filter="url(#filter5_di)">
      <path
        d="M93.5656 30.3083C94.7257 28.4934 97.6901 29.2456 98.9815 29.9272C99.9703 30.449 103.799 33.4338 102.349 35.7025C101.189 37.5175 98.0683 36.3086 96.6528 35.4774C95.1404 34.5106 92.4055 32.1233 93.5656 30.3083Z"
        fill="#FED97B" />
    </g>
    <g filter="url(#filter6_di)">
      <path
        d="M91.5471 23.26C93.1269 21.7957 95.8063 23.2703 96.8844 24.2552C97.7099 25.0092 100.664 28.8621 98.6891 30.6925C97.1093 32.1568 94.3934 30.2009 93.233 29.04C92.0127 27.7234 89.9672 24.7243 91.5471 23.26Z"
        fill="#FED97B" />
    </g>
    <g filter="url(#filter7_di)">
      <path
        d="M90.7465 16.5359C92.5539 15.364 94.9409 17.2759 95.8343 18.4309C96.5183 19.3153 98.7684 23.6174 96.5091 25.0823C94.7017 26.2542 92.3612 23.8619 91.4169 22.5192C90.4403 21.013 88.9391 17.7077 90.7465 16.5359Z"
        fill="#FED97B" />
    </g>
    <g filter="url(#filter8_di)">
      <path
        d="M90.2546 9.72795C92.2513 8.91974 94.2329 11.2493 94.8913 12.5527C95.3954 13.5506 96.7895 18.2012 94.2936 19.2114C92.2969 20.0196 90.4521 17.2272 89.7793 15.7299C89.1058 14.066 88.2579 10.5362 90.2546 9.72795Z"
        fill="#FED97B" />
    </g>
    <g filter="url(#filter9_d)">
      <path d="M105 38L107.538 44L110 38H105Z" fill="#FBCC54" />
      <path d="M105 38L107.538 44L110 38H105Z" stroke="#FBCC54" stroke-width="3" stroke-linejoin="round" />
    </g>
    <circle cx="107.5" cy="54.5" r="11.5" fill="#FFDA7C" />
    <circle cx="107.5" cy="54.5" r="11.5" fill="#FFDA7C" />
    <circle cx="107.5" cy="54.5" r="11.5" fill="#FFDA7C" />
    <g filter="url(#filter10_di)">
      <circle cx="107.5" cy="54.5" r="6.5" fill="#FBCC54" />
    </g>
    <g filter="url(#filter11_di)">
      <path
        d="M121.048 30.3083C119.888 28.4934 116.923 29.2456 115.632 29.9272C114.643 30.449 110.814 33.4338 112.264 35.7025C113.424 37.5175 116.545 36.3086 117.96 35.4774C119.473 34.5106 122.208 32.1233 121.048 30.3083Z"
        fill="#FED97B" />
    </g>
    <g filter="url(#filter12_di)">
      <path
        d="M123.066 23.26C121.486 21.7957 118.807 23.2703 117.729 24.2552C116.903 25.0092 113.949 28.8621 115.924 30.6925C117.504 32.1568 120.22 30.2009 121.38 29.04C122.601 27.7234 124.646 24.7243 123.066 23.26Z"
        fill="#FED97B" />
    </g>
    <g filter="url(#filter13_di)">
      <path
        d="M123.867 16.5359C122.059 15.364 119.672 17.2759 118.779 18.4309C118.095 19.3153 115.845 23.6174 118.104 25.0823C119.912 26.2542 122.252 23.8619 123.196 22.5192C124.173 21.013 125.674 17.7077 123.867 16.5359Z"
        fill="#FED97B" />
    </g>
    <g filter="url(#filter14_di)">
      <path
        d="M124.359 9.72795C122.362 8.91974 120.38 11.2493 119.722 12.5527C119.218 13.5506 117.824 18.2012 120.32 19.2114C122.316 20.0196 124.161 17.2272 124.834 15.7299C125.507 14.066 126.355 10.5362 124.359 9.72795Z"
        fill="#FED97B" />
    </g>
    <path d="M28 90.5C23.2 90.1 14.3333 81.3333 10.5 77H9L3 84.5L17.5 98.5L26.5 96.5L28 90.5Z" fill="#3E3635" />
    <path d="M187 90.5C191.8 90.1 200.667 81.3333 204.5 77H206L212 84.5L197.5 98.5L188.5 96.5L187 90.5Z"
      fill="#3E3635" />
    <path
      d="M129 113C128.6 111 128.167 103.167 128 99.5C132 100.7 149.333 98.6667 157.5 97.5L158.5 98L159.5 110.5C149.5 112.167 129.4 115 129 113Z"
      fill="#3E3635" />
    <path
      d="M86.5 112C87.3 110.4 87.5 102 87.5 98C83.9 98.8 66 98 57.5 97.5L56 98.5L56.5 110C66.1667 111.333 85.7 113.6 86.5 112Z"
      fill="#3E3635" />
  </g>
  <defs>
    <filter id="filter0_ddd" x="-2" y="2" width="93.3662" height="122.5" filterUnits="userSpaceOnUse"
      color-interpolation-filters="sRGB">
      <feFlood flood-opacity="0" result="BackgroundImageFix" />
      <feColorMatrix in="SourceAlpha" type="matrix" values="0 0 0 0 0 0 0 0 0 0 0 0 0 0 0 0 0 0 127 0"
        result="hardAlpha" />
      <feOffset dy="4" />
      <feGaussianBlur stdDeviation="2" />
      <feColorMatrix type="matrix" values="0 0 0 0 0.733333 0 0 0 0 0.143611 0 0 0 0 0.143611 0 0 0 0.8 0" />
      <feBlend mode="normal" in2="BackgroundImageFix" result="effect1_dropShadow" />
      <feColorMatrix in="SourceAlpha" type="matrix" values="0 0 0 0 0 0 0 0 0 0 0 0 0 0 0 0 0 0 127 0"
        result="hardAlpha" />
      <feOffset dy="4" />
      <feGaussianBlur stdDeviation="2" />
      <feColorMatrix type="matrix" values="0 0 0 0 0.733333 0 0 0 0 0.143611 0 0 0 0 0.143611 0 0 0 0.8 0" />
      <feBlend mode="normal" in2="effect1_dropShadow" result="effect2_dropShadow" />
      <feColorMatrix in="SourceAlpha" type="matrix" values="0 0 0 0 0 0 0 0 0 0 0 0 0 0 0 0 0 0 127 0"
        result="hardAlpha" />
      <feOffset dy="4" />
      <feGaussianBlur stdDeviation="2" />
      <feColorMatrix type="matrix" values="0 0 0 0 0.733333 0 0 0 0 0.143611 0 0 0 0 0.143611 0 0 0 0.8 0" />
      <feBlend mode="normal" in2="effect2_dropShadow" result="effect3_dropShadow" />
      <feBlend mode="normal" in="SourceGraphic" in2="effect3_dropShadow" result="shape" />
    </filter>
    <filter id="filter1_ddd" x="-2" y="2" width="93.3662" height="122.5" filterUnits="userSpaceOnUse"
      color-interpolation-filters="sRGB">
      <feFlood flood-opacity="0" result="BackgroundImageFix" />
      <feColorMatrix in="SourceAlpha" type="matrix" values="0 0 0 0 0 0 0 0 0 0 0 0 0 0 0 0 0 0 127 0"
        result="hardAlpha" />
      <feOffset dy="4" />
      <feGaussianBlur stdDeviation="2" />
      <feColorMatrix type="matrix" values="0 0 0 0 0.733333 0 0 0 0 0.143611 0 0 0 0 0.143611 0 0 0 0.8 0" />
      <feBlend mode="normal" in2="BackgroundImageFix" result="effect1_dropShadow" />
      <feColorMatrix in="SourceAlpha" type="matrix" values="0 0 0 0 0 0 0 0 0 0 0 0 0 0 0 0 0 0 127 0"
        result="hardAlpha" />
      <feOffset dy="4" />
      <feGaussianBlur stdDeviation="2" />
      <feColorMatrix type="matrix" values="0 0 0 0 0.733333 0 0 0 0 0.143611 0 0 0 0 0.143611 0 0 0 0.8 0" />
      <feBlend mode="normal" in2="effect1_dropShadow" result="effect2_dropShadow" />
      <feColorMatrix in="SourceAlpha" type="matrix" values="0 0 0 0 0 0 0 0 0 0 0 0 0 0 0 0 0 0 127 0"
        result="hardAlpha" />
      <feOffset dy="4" />
      <feGaussianBlur stdDeviation="2" />
      <feColorMatrix type="matrix" values="0 0 0 0 0.733333 0 0 0 0 0.143611 0 0 0 0 0.143611 0 0 0 0.8 0" />
      <feBlend mode="normal" in2="effect2_dropShadow" result="effect3_dropShadow" />
      <feBlend mode="normal" in="SourceGraphic" in2="effect3_dropShadow" result="shape" />
    </filter>
    <filter id="filter2_ddd" x="124" y="2" width="93.3662" height="122.5" filterUnits="userSpaceOnUse"
      color-interpolation-filters="sRGB">
      <feFlood flood-opacity="0" result="BackgroundImageFix" />
      <feColorMatrix in="SourceAlpha" type="matrix" values="0 0 0 0 0 0 0 0 0 0 0 0 0 0 0 0 0 0 127 0"
        result="hardAlpha" />
      <feOffset dy="4" />
      <feGaussianBlur stdDeviation="2" />
      <feColorMatrix type="matrix" values="0 0 0 0 0.733333 0 0 0 0 0.143611 0 0 0 0 0.143611 0 0 0 0.8 0" />
      <feBlend mode="normal" in2="BackgroundImageFix" result="effect1_dropShadow" />
      <feColorMatrix in="SourceAlpha" type="matrix" values="0 0 0 0 0 0 0 0 0 0 0 0 0 0 0 0 0 0 127 0"
        result="hardAlpha" />
      <feOffset dy="4" />
      <feGaussianBlur stdDeviation="2" />
      <feColorMatrix type="matrix" values="0 0 0 0 0.733333 0 0 0 0 0.143611 0 0 0 0 0.143611 0 0 0 0.8 0" />
      <feBlend mode="normal" in2="effect1_dropShadow" result="effect2_dropShadow" />
      <feColorMatrix in="SourceAlpha" type="matrix" values="0 0 0 0 0 0 0 0 0 0 0 0 0 0 0 0 0 0 127 0"
        result="hardAlpha" />
      <feOffset dy="4" />
      <feGaussianBlur stdDeviation="2" />
      <feColorMatrix type="matrix" values="0 0 0 0 0.733333 0 0 0 0 0.143611 0 0 0 0 0.143611 0 0 0 0.8 0" />
      <feBlend mode="normal" in2="effect2_dropShadow" result="effect3_dropShadow" />
      <feBlend mode="normal" in="SourceGraphic" in2="effect3_dropShadow" result="shape" />
    </filter>
    <filter id="filter3_di" x="106.962" y="34.3446" width="13.7305" height="10.9906" filterUnits="userSpaceOnUse"
      color-interpolation-filters="sRGB">
      <feFlood flood-opacity="0" result="BackgroundImageFix" />
      <feColorMatrix in="SourceAlpha" type="matrix" values="0 0 0 0 0 0 0 0 0 0 0 0 0 0 0 0 0 0 127 0"
        result="hardAlpha" />
      <feOffset dy="1" />
      <feGaussianBlur stdDeviation="1" />
      <feColorMatrix type="matrix" values="0 0 0 0 0.904167 0 0 0 0 0.36355 0 0 0 0 0.244878 0 0 0 0.1 0" />
      <feBlend mode="normal" in2="BackgroundImageFix" result="effect1_dropShadow" />
      <feBlend mode="normal" in="SourceGraphic" in2="effect1_dropShadow" result="shape" />
      <feColorMatrix in="SourceAlpha" type="matrix" values="0 0 0 0 0 0 0 0 0 0 0 0 0 0 0 0 0 0 127 0"
        result="hardAlpha" />
      <feOffset />
      <feGaussianBlur stdDeviation="1.5" />
      <feComposite in2="hardAlpha" operator="arithmetic" k2="-1" k3="1" />
      <feColorMatrix type="matrix" values="0 0 0 0 1 0 0 0 0 0.841916 0 0 0 0 0.45 0 0 0 1 0" />
      <feBlend mode="normal" in2="shape" result="effect2_innerShadow" />
    </filter>
    <filter id="filter4_di" x="93.9204" y="34.3446" width="13.7305" height="10.9906" filterUnits="userSpaceOnUse"
      color-interpolation-filters="sRGB">
      <feFlood flood-opacity="0" result="BackgroundImageFix" />
      <feColorMatrix in="SourceAlpha" type="matrix" values="0 0 0 0 0 0 0 0 0 0 0 0 0 0 0 0 0 0 127 0"
        result="hardAlpha" />
      <feOffset dy="1" />
      <feGaussianBlur stdDeviation="1" />
      <feColorMatrix type="matrix" values="0 0 0 0 0.904167 0 0 0 0 0.36355 0 0 0 0 0.244878 0 0 0 0.1 0" />
      <feBlend mode="normal" in2="BackgroundImageFix" result="effect1_dropShadow" />
      <feBlend mode="normal" in="SourceGraphic" in2="effect1_dropShadow" result="shape" />
      <feColorMatrix in="SourceAlpha" type="matrix" values="0 0 0 0 0 0 0 0 0 0 0 0 0 0 0 0 0 0 127 0"
        result="hardAlpha" />
      <feOffset />
      <feGaussianBlur stdDeviation="1.5" />
      <feComposite in2="hardAlpha" operator="arithmetic" k2="-1" k3="1" />
      <feColorMatrix type="matrix" values="0 0 0 0 1 0 0 0 0 0.841916 0 0 0 0 0.45 0 0 0 1 0" />
      <feBlend mode="normal" in2="shape" result="effect2_innerShadow" />
    </filter>
    <filter id="filter5_di" x="91.2866" y="28.1765" width="13.3867" height="11.4718" filterUnits="userSpaceOnUse"
      color-interpolation-filters="sRGB">
      <feFlood flood-opacity="0" result="BackgroundImageFix" />
      <feColorMatrix in="SourceAlpha" type="matrix" values="0 0 0 0 0 0 0 0 0 0 0 0 0 0 0 0 0 0 127 0"
        result="hardAlpha" />
      <feOffset dy="1" />
      <feGaussianBlur stdDeviation="1" />
      <feColorMatrix type="matrix" values="0 0 0 0 0.904167 0 0 0 0 0.36355 0 0 0 0 0.244878 0 0 0 0.1 0" />
      <feBlend mode="normal" in2="BackgroundImageFix" result="effect1_dropShadow" />
      <feBlend mode="normal" in="SourceGraphic" in2="effect1_dropShadow" result="shape" />
      <feColorMatrix in="SourceAlpha" type="matrix" values="0 0 0 0 0 0 0 0 0 0 0 0 0 0 0 0 0 0 127 0"
        result="hardAlpha" />
      <feOffset />
      <feGaussianBlur stdDeviation="1.5" />
      <feComposite in2="hardAlpha" operator="arithmetic" k2="-1" k3="1" />
      <feColorMatrix type="matrix" values="0 0 0 0 1 0 0 0 0 0.841916 0 0 0 0 0.45 0 0 0 1 0" />
      <feBlend mode="normal" in2="shape" result="effect2_innerShadow" />
    </filter>
    <filter id="filter6_di" x="88.9717" y="21.6431" width="12.3853" height="12.5723" filterUnits="userSpaceOnUse"
      color-interpolation-filters="sRGB">
      <feFlood flood-opacity="0" result="BackgroundImageFix" />
      <feColorMatrix in="SourceAlpha" type="matrix" values="0 0 0 0 0 0 0 0 0 0 0 0 0 0 0 0 0 0 127 0"
        result="hardAlpha" />
      <feOffset dy="1" />
      <feGaussianBlur stdDeviation="1" />
      <feColorMatrix type="matrix" values="0 0 0 0 0.904167 0 0 0 0 0.36355 0 0 0 0 0.244878 0 0 0 0.1 0" />
      <feBlend mode="normal" in2="BackgroundImageFix" result="effect1_dropShadow" />
      <feBlend mode="normal" in="SourceGraphic" in2="effect1_dropShadow" result="shape" />
      <feColorMatrix in="SourceAlpha" type="matrix" values="0 0 0 0 0 0 0 0 0 0 0 0 0 0 0 0 0 0 127 0"
        result="hardAlpha" />
      <feOffset />
      <feGaussianBlur stdDeviation="1.5" />
      <feComposite in2="hardAlpha" operator="arithmetic" k2="-1" k3="1" />
      <feColorMatrix type="matrix" values="0 0 0 0 1 0 0 0 0 0.841916 0 0 0 0 0.45 0 0 0 1 0" />
      <feBlend mode="normal" in2="shape" result="effect2_innerShadow" />
    </filter>
    <filter id="filter7_di" x="87.8999" y="15.1693" width="11.5918" height="13.2267" filterUnits="userSpaceOnUse"
      color-interpolation-filters="sRGB">
      <feFlood flood-opacity="0" result="BackgroundImageFix" />
      <feColorMatrix in="SourceAlpha" type="matrix" values="0 0 0 0 0 0 0 0 0 0 0 0 0 0 0 0 0 0 127 0"
        result="hardAlpha" />
      <feOffset dy="1" />
      <feGaussianBlur stdDeviation="1" />
      <feColorMatrix type="matrix" values="0 0 0 0 0.904167 0 0 0 0 0.36355 0 0 0 0 0.244878 0 0 0 0.1 0" />
      <feBlend mode="normal" in2="BackgroundImageFix" result="effect1_dropShadow" />
      <feBlend mode="normal" in="SourceGraphic" in2="effect1_dropShadow" result="shape" />
      <feColorMatrix in="SourceAlpha" type="matrix" values="0 0 0 0 0 0 0 0 0 0 0 0 0 0 0 0 0 0 127 0"
        result="hardAlpha" />
      <feOffset />
      <feGaussianBlur stdDeviation="1.5" />
      <feComposite in2="hardAlpha" operator="arithmetic" k2="-1" k3="1" />
      <feColorMatrix type="matrix" values="0 0 0 0 1 0 0 0 0 0.841916 0 0 0 0 0.45 0 0 0 1 0" />
      <feBlend mode="normal" in2="shape" result="effect2_innerShadow" />
    </filter>
    <filter id="filter8_di" x="87.0107" y="8.56154" width="10.7251" height="13.7938" filterUnits="userSpaceOnUse"
      color-interpolation-filters="sRGB">
      <feFlood flood-opacity="0" result="BackgroundImageFix" />
      <feColorMatrix in="SourceAlpha" type="matrix" values="0 0 0 0 0 0 0 0 0 0 0 0 0 0 0 0 0 0 127 0"
        result="hardAlpha" />
      <feOffset dy="1" />
      <feGaussianBlur stdDeviation="1" />
      <feColorMatrix type="matrix" values="0 0 0 0 0.904167 0 0 0 0 0.36355 0 0 0 0 0.244878 0 0 0 0.1 0" />
      <feBlend mode="normal" in2="BackgroundImageFix" result="effect1_dropShadow" />
      <feBlend mode="normal" in="SourceGraphic" in2="effect1_dropShadow" result="shape" />
      <feColorMatrix in="SourceAlpha" type="matrix" values="0 0 0 0 0 0 0 0 0 0 0 0 0 0 0 0 0 0 127 0"
        result="hardAlpha" />
      <feOffset />
      <feGaussianBlur stdDeviation="1.5" />
      <feComposite in2="hardAlpha" operator="arithmetic" k2="-1" k3="1" />
      <feColorMatrix type="matrix" values="0 0 0 0 1 0 0 0 0 0.841916 0 0 0 0 0.45 0 0 0 1 0" />
      <feBlend mode="normal" in2="shape" result="effect2_innerShadow" />
    </filter>
    <filter id="filter9_d" x="102.5" y="36.5" width="10" height="12" filterUnits="userSpaceOnUse"
      color-interpolation-filters="sRGB">
      <feFlood flood-opacity="0" result="BackgroundImageFix" />
      <feColorMatrix in="SourceAlpha" type="matrix" values="0 0 0 0 0 0 0 0 0 0 0 0 0 0 0 0 0 0 127 0"
        result="hardAlpha" />
      <feOffset dy="2" />
      <feGaussianBlur stdDeviation="0.5" />
      <feColorMatrix type="matrix" values="0 0 0 0 0.85 0 0 0 0 0.674204 0 0 0 0 0.2975 0 0 0 0.3 0" />
      <feBlend mode="normal" in2="BackgroundImageFix" result="effect1_dropShadow" />
      <feBlend mode="normal" in="SourceGraphic" in2="effect1_dropShadow" result="shape" />
    </filter>
    <filter id="filter10_di" x="97" y="44" width="21" height="21" filterUnits="userSpaceOnUse"
      color-interpolation-filters="sRGB">
      <feFlood flood-opacity="0" result="BackgroundImageFix" />
      <feColorMatrix in="SourceAlpha" type="matrix" values="0 0 0 0 0 0 0 0 0 0 0 0 0 0 0 0 0 0 127 0"
        result="hardAlpha" />
      <feOffset />
      <feGaussianBlur stdDeviation="2" />
      <feColorMatrix type="matrix" values="0 0 0 0 0.878431 0 0 0 0 0.701961 0 0 0 0 0.25098 0 0 0 0.5 0" />
      <feBlend mode="normal" in2="BackgroundImageFix" result="effect1_dropShadow" />
      <feBlend mode="normal" in="SourceGraphic" in2="effect1_dropShadow" result="shape" />
      <feColorMatrix in="SourceAlpha" type="matrix" values="0 0 0 0 0 0 0 0 0 0 0 0 0 0 0 0 0 0 127 0"
        result="hardAlpha" />
      <feOffset />
      <feGaussianBlur stdDeviation="2" />
      <feComposite in2="hardAlpha" operator="arithmetic" k2="-1" k3="1" />
      <feColorMatrix type="matrix" values="0 0 0 0 0.6375 0 0 0 0 0.47165 0 0 0 0 0.0478125 0 0 0 0.25 0" />
      <feBlend mode="normal" in2="shape" result="effect2_innerShadow" />
    </filter>
    <filter id="filter11_di" x="109.94" y="28.1765" width="13.3867" height="11.4718" filterUnits="userSpaceOnUse"
      color-interpolation-filters="sRGB">
      <feFlood flood-opacity="0" result="BackgroundImageFix" />
      <feColorMatrix in="SourceAlpha" type="matrix" values="0 0 0 0 0 0 0 0 0 0 0 0 0 0 0 0 0 0 127 0"
        result="hardAlpha" />
      <feOffset dy="1" />
      <feGaussianBlur stdDeviation="1" />
      <feColorMatrix type="matrix" values="0 0 0 0 0.904167 0 0 0 0 0.36355 0 0 0 0 0.244878 0 0 0 0.1 0" />
      <feBlend mode="normal" in2="BackgroundImageFix" result="effect1_dropShadow" />
      <feBlend mode="normal" in="SourceGraphic" in2="effect1_dropShadow" result="shape" />
      <feColorMatrix in="SourceAlpha" type="matrix" values="0 0 0 0 0 0 0 0 0 0 0 0 0 0 0 0 0 0 127 0"
        result="hardAlpha" />
      <feOffset />
      <feGaussianBlur stdDeviation="1.5" />
      <feComposite in2="hardAlpha" operator="arithmetic" k2="-1" k3="1" />
      <feColorMatrix type="matrix" values="0 0 0 0 1 0 0 0 0 0.841916 0 0 0 0 0.45 0 0 0 1 0" />
      <feBlend mode="normal" in2="shape" result="effect2_innerShadow" />
    </filter>
    <filter id="filter12_di" x="113.256" y="21.6431" width="12.3853" height="12.5723" filterUnits="userSpaceOnUse"
      color-interpolation-filters="sRGB">
      <feFlood flood-opacity="0" result="BackgroundImageFix" />
      <feColorMatrix in="SourceAlpha" type="matrix" values="0 0 0 0 0 0 0 0 0 0 0 0 0 0 0 0 0 0 127 0"
        result="hardAlpha" />
      <feOffset dy="1" />
      <feGaussianBlur stdDeviation="1" />
      <feColorMatrix type="matrix" values="0 0 0 0 0.904167 0 0 0 0 0.36355 0 0 0 0 0.244878 0 0 0 0.1 0" />
      <feBlend mode="normal" in2="BackgroundImageFix" result="effect1_dropShadow" />
      <feBlend mode="normal" in="SourceGraphic" in2="effect1_dropShadow" result="shape" />
      <feColorMatrix in="SourceAlpha" type="matrix" values="0 0 0 0 0 0 0 0 0 0 0 0 0 0 0 0 0 0 127 0"
        result="hardAlpha" />
      <feOffset />
      <feGaussianBlur stdDeviation="1.5" />
      <feComposite in2="hardAlpha" operator="arithmetic" k2="-1" k3="1" />
      <feColorMatrix type="matrix" values="0 0 0 0 1 0 0 0 0 0.841916 0 0 0 0 0.45 0 0 0 1 0" />
      <feBlend mode="normal" in2="shape" result="effect2_innerShadow" />
    </filter>
    <filter id="filter13_di" x="115.122" y="15.1693" width="11.5918" height="13.2267" filterUnits="userSpaceOnUse"
      color-interpolation-filters="sRGB">
      <feFlood flood-opacity="0" result="BackgroundImageFix" />
      <feColorMatrix in="SourceAlpha" type="matrix" values="0 0 0 0 0 0 0 0 0 0 0 0 0 0 0 0 0 0 127 0"
        result="hardAlpha" />
      <feOffset dy="1" />
      <feGaussianBlur stdDeviation="1" />
      <feColorMatrix type="matrix" values="0 0 0 0 0.904167 0 0 0 0 0.36355 0 0 0 0 0.244878 0 0 0 0.1 0" />
      <feBlend mode="normal" in2="BackgroundImageFix" result="effect1_dropShadow" />
      <feBlend mode="normal" in="SourceGraphic" in2="effect1_dropShadow" result="shape" />
      <feColorMatrix in="SourceAlpha" type="matrix" values="0 0 0 0 0 0 0 0 0 0 0 0 0 0 0 0 0 0 127 0"
        result="hardAlpha" />
      <feOffset />
      <feGaussianBlur stdDeviation="1.5" />
      <feComposite in2="hardAlpha" operator="arithmetic" k2="-1" k3="1" />
      <feColorMatrix type="matrix" values="0 0 0 0 1 0 0 0 0 0.841916 0 0 0 0 0.45 0 0 0 1 0" />
      <feBlend mode="normal" in2="shape" result="effect2_innerShadow" />
    </filter>
    <filter id="filter14_di" x="116.877" y="8.56154" width="10.7251" height="13.7938" filterUnits="userSpaceOnUse"
      color-interpolation-filters="sRGB">
      <feFlood flood-opacity="0" result="BackgroundImageFix" />
      <feColorMatrix in="SourceAlpha" type="matrix" values="0 0 0 0 0 0 0 0 0 0 0 0 0 0 0 0 0 0 127 0"
        result="hardAlpha" />
      <feOffset dy="1" />
      <feGaussianBlur stdDeviation="1" />
      <feColorMatrix type="matrix" values="0 0 0 0 0.904167 0 0 0 0 0.36355 0 0 0 0 0.244878 0 0 0 0.1 0" />
      <feBlend mode="normal" in2="BackgroundImageFix" result="effect1_dropShadow" />
      <feBlend mode="normal" in="SourceGraphic" in2="effect1_dropShadow" result="shape" />
      <feColorMatrix in="SourceAlpha" type="matrix" values="0 0 0 0 0 0 0 0 0 0 0 0 0 0 0 0 0 0 127 0"
        result="hardAlpha" />
      <feOffset />
      <feGaussianBlur stdDeviation="1.5" />
      <feComposite in2="hardAlpha" operator="arithmetic" k2="-1" k3="1" />
      <feColorMatrix type="matrix" values="0 0 0 0 1 0 0 0 0 0.841916 0 0 0 0 0.45 0 0 0 1 0" />
      <feBlend mode="normal" in2="shape" result="effect2_innerShadow" />
    </filter>
    <linearGradient id="paint0_linear" x1="49.5" y1="117" x2="73" y2="10" gradientUnits="userSpaceOnUse">
      <stop stop-color="#413C3B" />
      <stop offset="1" stop-color="#635957" />
    </linearGradient>
    <linearGradient id="paint1_linear" x1="49.5" y1="117" x2="73" y2="10" gradientUnits="userSpaceOnUse">
      <stop stop-color="#413C3B" />
      <stop offset="1" stop-color="#635957" />
    </linearGradient>
    <linearGradient id="paint2_linear" x1="165.866" y1="117" x2="142.366" y2="10" gradientUnits="userSpaceOnUse">
      <stop stop-color="#413C3B" />
      <stop offset="1" stop-color="#635957" />
    </linearGradient>
  </defs>
</svg>
