<svg width="134" height="59" viewBox="0 0 134 59" fill="none" xmlns="http://www.w3.org/2000/svg">
  <path
    d="M44.0255 25.3967L44.0254 25.3968L44.0225 25.3878C40.9723 15.9517 30.6283 10.8004 20.8829 13.9505C11.1375 17.1007 5.76598 27.3321 8.81617 36.7682L8.82448 36.7939L8.83139 36.82C9.56938 39.6094 11.348 42.7857 14.6734 45.1085C17.9901 47.4253 22.9342 48.9546 30.1158 48.3004C33.438 47.9978 37.6045 47.1689 41.0899 46.1068C42.8333 45.5756 44.3758 44.9951 45.5448 44.4079C46.1296 44.1142 46.5989 43.8297 46.9465 43.563C47.3051 43.288 47.4742 43.0773 47.5391 42.9504C47.6095 42.8129 47.6894 42.5274 47.7222 42.0361C47.7539 41.5622 47.7375 40.9726 47.6745 40.2825C47.5484 38.903 47.2447 37.2126 46.842 35.4144C46.0378 31.8227 44.8625 27.9048 44.0255 25.3967Z"
    fill="white"
    stroke="#8C501D"
    stroke-width="2"
  />
  <path
    d="M32.6931 12.9552C38.3481 14.7622 43.0412 19.1006 44.974 25.0802C46.6625 30.1394 49.7174 40.8875 48.4295 43.4057C47.5701 45.0861 42.7671 46.8713 37.6487 48.057C28.422 47.859 21 39.8776 21 30.0608C21 22.0819 25.9031 15.3155 32.6931 12.9552Z"
    fill="#8C501D"
  />
  <line x1="3.22474" y1="22.2929" x2="9.0203" y2="23.8458" stroke="#8C501D" stroke-width="2" stroke-linecap="round" />
  <line x1="7.41108" y1="14.9059" x2="11.9265" y2="18.857" stroke="#8C501D" stroke-width="2" stroke-linecap="round" />
  <path
    d="M90.1717 25.3967L90.1717 25.3968L90.1746 25.3878C93.2248 15.9517 103.569 10.8004 113.314 13.9505C123.06 17.1007 128.431 27.3321 125.381 36.7682L125.373 36.7939L125.366 36.82C124.628 39.6094 122.849 42.7857 119.524 45.1085C116.207 47.4253 111.263 48.9546 104.081 48.3004C100.759 47.9978 96.5927 47.1689 93.1073 46.1068C91.3638 45.5756 89.8213 44.9951 88.6523 44.4079C88.0676 44.1142 87.5983 43.8297 87.2506 43.563C86.8921 43.288 86.7229 43.0773 86.658 42.9504C86.5877 42.8129 86.5078 42.5274 86.4749 42.0361C86.4432 41.5622 86.4596 40.9726 86.5227 40.2825C86.6487 38.903 86.9525 37.2126 87.3551 35.4144C88.1594 31.8227 89.3347 27.9048 90.1717 25.3967Z"
    fill="white"
    stroke="#8C501D"
    stroke-width="2"
  />
  <path
    d="M111.512 12.4399C103.796 14.1435 98 21.3854 98 30.0607C98 39.9112 105.473 47.9136 114.744 48.0587C124.312 44.5245 127.104 37.4398 127.14 32.2481C127.725 22.6635 120.911 14.2945 111.512 12.4399Z"
    fill="#8C501D"
  />
  <line
    x1="1"
    y1="-1"
    x2="7"
    y2="-1"
    transform="matrix(-0.752577 0.658505 0.658505 0.752577 128.021 15)"
    stroke="#8C501D"
    stroke-width="2"
    stroke-linecap="round"
  />
  <line
    x1="1"
    y1="-1"
    x2="7"
    y2="-1"
    transform="matrix(-0.965926 0.258819 0.258819 0.965926 132.021 23)"
    stroke="#8C501D"
    stroke-width="2"
    stroke-linecap="round"
  />
</svg>
