<svg width="213" height="163" viewBox="0 0 213 163" fill="none" xmlns="http://www.w3.org/2000/svg">
  <mask id="mask0" style="mask-type:alpha" maskUnits="userSpaceOnUse" x="30" y="8" width="154" height="106">
    <path
      d="M153.268 62.3891C152.933 60.5155 152.745 59.6083 152.81 60.0992C152.928 60.9902 153.082 61.747 153.268 62.3891Z"
      fill="black" />
    <path
      d="M79.81 9.59926C47.81 -0.400737 29.6434 39.3892 31.8101 48.8892C30.9768 49.5558 29.3101 49.8892 30.3101 51.8892C30.81 55.3892 35.6483 61.2785 38.31 63.0993C40.81 64.8094 47.31 66.5993 50.31 67.5993C51.51 68.3993 52.1433 66.5993 52.31 65.5993C55.8348 65.5993 58.9753 67.1523 60.3526 62.3892C60.6876 60.5155 60.8752 59.6084 60.81 60.0993C60.6918 60.9902 60.5382 61.7471 60.3526 62.3892C58.7741 71.217 53.9228 101.5 56.81 108.099L57.81 113.099C59.31 113.099 63.31 114.599 63.31 110.599C63.31 114.599 74.31 114.599 74.31 110.599C74.31 114.599 84.81 114.599 84.81 110.599C84.81 114.599 95.31 114.599 95.31 110.599C95.31 114.599 106.31 114.599 106.31 110.599C106.31 114.599 117.81 114.599 117.81 110.599C117.81 114.599 128.81 114.599 128.81 110.599C128.81 114.599 139.81 114.599 139.81 110.599C139.81 114.599 150.31 114.599 150.31 110.599C150.31 114.599 154.31 113.099 155.81 113.099L156.81 108.099C159.697 101.5 154.846 71.2169 153.268 62.3891C153.082 61.747 152.928 60.9902 152.81 60.0992C152.745 59.6083 152.933 60.5155 153.268 62.3891C154.645 67.1523 157.785 65.5992 161.31 65.5992C161.477 66.5992 162.11 68.3992 163.31 67.5992C166.31 66.5992 172.81 64.8093 175.31 63.0992C177.972 61.2785 182.81 55.3891 183.31 51.8891C184.31 49.8891 182.643 49.5558 181.81 48.8891C183.977 39.3891 165.81 -0.400783 133.81 9.59922C127.643 12.0992 121.31 17.0993 106.81 17.0993C92.31 17.0993 85.9767 12.0993 79.81 9.59926Z"
      fill="black" />
  </mask>
  <g mask="url(#mask0)">
    <rect width="213" height="163" fill="#FF53A5" />
    <ellipse cx="72" cy="49" rx="4" ry="5" fill="#FFFAF1" />
    <ellipse cx="78" cy="55" rx="4" ry="5" transform="rotate(90 78 55)" fill="#FFFAF1" />
    <ellipse cx="72" cy="61" rx="4" ry="5" transform="rotate(-180 72 61)" fill="#FFFAF1" />
    <ellipse cx="66" cy="55" rx="4" ry="5" transform="rotate(-90 66 55)" fill="#FFFAF1" />
    <circle cx="72" cy="55" r="3" fill="#FFC453" />
    <ellipse cx="42" cy="49" rx="4" ry="5" fill="#FFFAF1" />
    <ellipse cx="48" cy="55" rx="4" ry="5" transform="rotate(90 48 55)" fill="#FFFAF1" />
    <ellipse cx="42" cy="61" rx="4" ry="5" transform="rotate(-180 42 61)" fill="#FFFAF1" />
    <ellipse cx="36" cy="55" rx="4" ry="5" transform="rotate(-90 36 55)" fill="#FFFAF1" />
    <circle cx="42" cy="55" r="3" fill="#FFC453" />
    <ellipse cx="102" cy="49" rx="4" ry="5" fill="#FFFAF1" />
    <ellipse cx="108" cy="55" rx="4" ry="5" transform="rotate(90 108 55)" fill="#FFFAF1" />
    <ellipse cx="102" cy="61" rx="4" ry="5" transform="rotate(-180 102 61)" fill="#FFFAF1" />
    <ellipse cx="96" cy="55" rx="4" ry="5" transform="rotate(-90 96 55)" fill="#FFFAF1" />
    <circle cx="102" cy="55" r="3" fill="#FFC453" />
    <ellipse cx="132" cy="49" rx="4" ry="5" fill="#FFFAF1" />
    <ellipse cx="138" cy="55" rx="4" ry="5" transform="rotate(90 138 55)" fill="#FFFAF1" />
    <ellipse cx="132" cy="61" rx="4" ry="5" transform="rotate(-180 132 61)" fill="#FFFAF1" />
    <ellipse cx="126" cy="55" rx="4" ry="5" transform="rotate(-90 126 55)" fill="#FFFAF1" />
    <circle cx="132" cy="55" r="3" fill="#FFC453" />
    <ellipse cx="162" cy="49" rx="4" ry="5" fill="#FFFAF1" />
    <ellipse cx="168" cy="55" rx="4" ry="5" transform="rotate(90 168 55)" fill="#FFFAF1" />
    <ellipse cx="162" cy="61" rx="4" ry="5" transform="rotate(-180 162 61)" fill="#FFFAF1" />
    <ellipse cx="156" cy="55" rx="4" ry="5" transform="rotate(-90 156 55)" fill="#FFFAF1" />
    <circle cx="162" cy="55" r="3" fill="#FFC453" />
    <ellipse cx="72" cy="49" rx="4" ry="5" fill="#FFFAF1" />
    <ellipse cx="78" cy="55" rx="4" ry="5" transform="rotate(90 78 55)" fill="#FFFAF1" />
    <ellipse cx="72" cy="61" rx="4" ry="5" transform="rotate(-180 72 61)" fill="#FFFAF1" />
    <ellipse cx="66" cy="55" rx="4" ry="5" transform="rotate(-90 66 55)" fill="#FFFAF1" />
    <circle cx="72" cy="55" r="3" fill="#FFC453" />
    <ellipse cx="72" cy="7" rx="4" ry="5" transform="rotate(-180 72 7)" fill="#FFFAF1" />
    <ellipse cx="72" cy="103" rx="4" ry="5" fill="#FFFAF1" />
    <ellipse cx="78" cy="109" rx="4" ry="5" transform="rotate(90 78 109)" fill="#FFFAF1" />
    <ellipse cx="72" cy="115" rx="4" ry="5" transform="rotate(-180 72 115)" fill="#FFFAF1" />
    <ellipse cx="66" cy="109" rx="4" ry="5" transform="rotate(-90 66 109)" fill="#FFFAF1" />
    <circle cx="72" cy="109" r="3" fill="#FFC453" />
    <ellipse cx="42" cy="49" rx="4" ry="5" fill="#FFFAF1" />
    <ellipse cx="48" cy="55" rx="4" ry="5" transform="rotate(90 48 55)" fill="#FFFAF1" />
    <ellipse cx="42" cy="61" rx="4" ry="5" transform="rotate(-180 42 61)" fill="#FFFAF1" />
    <ellipse cx="36" cy="55" rx="4" ry="5" transform="rotate(-90 36 55)" fill="#FFFAF1" />
    <circle cx="42" cy="55" r="3" fill="#FFC453" />
    <ellipse cx="42" cy="103" rx="4" ry="5" fill="#FFFAF1" />
    <ellipse cx="48" cy="109" rx="4" ry="5" transform="rotate(90 48 109)" fill="#FFFAF1" />
    <ellipse cx="42" cy="115" rx="4" ry="5" transform="rotate(-180 42 115)" fill="#FFFAF1" />
    <ellipse cx="36" cy="109" rx="4" ry="5" transform="rotate(-90 36 109)" fill="#FFFAF1" />
    <circle cx="42" cy="109" r="3" fill="#FFC453" />
    <ellipse cx="102" cy="49" rx="4" ry="5" fill="#FFFAF1" />
    <ellipse cx="108" cy="55" rx="4" ry="5" transform="rotate(90 108 55)" fill="#FFFAF1" />
    <ellipse cx="102" cy="61" rx="4" ry="5" transform="rotate(-180 102 61)" fill="#FFFAF1" />
    <ellipse cx="96" cy="55" rx="4" ry="5" transform="rotate(-90 96 55)" fill="#FFFAF1" />
    <circle cx="102" cy="55" r="3" fill="#FFC453" />
    <ellipse cx="102" cy="103" rx="4" ry="5" fill="#FFFAF1" />
    <ellipse cx="108" cy="109" rx="4" ry="5" transform="rotate(90 108 109)" fill="#FFFAF1" />
    <ellipse cx="102" cy="115" rx="4" ry="5" transform="rotate(-180 102 115)" fill="#FFFAF1" />
    <ellipse cx="96" cy="109" rx="4" ry="5" transform="rotate(-90 96 109)" fill="#FFFAF1" />
    <circle cx="102" cy="109" r="3" fill="#FFC453" />
    <ellipse cx="132" cy="49" rx="4" ry="5" fill="#FFFAF1" />
    <ellipse cx="138" cy="55" rx="4" ry="5" transform="rotate(90 138 55)" fill="#FFFAF1" />
    <ellipse cx="132" cy="61" rx="4" ry="5" transform="rotate(-180 132 61)" fill="#FFFAF1" />
    <ellipse cx="126" cy="55" rx="4" ry="5" transform="rotate(-90 126 55)" fill="#FFFAF1" />
    <circle cx="132" cy="55" r="3" fill="#FFC453" />
    <ellipse cx="186" cy="55" rx="4" ry="5" transform="rotate(-90 186 55)" fill="#FFFAF1" />
    <ellipse cx="132" cy="103" rx="4" ry="5" fill="#FFFAF1" />
    <ellipse cx="138" cy="109" rx="4" ry="5" transform="rotate(90 138 109)" fill="#FFFAF1" />
    <ellipse cx="132" cy="115" rx="4" ry="5" transform="rotate(-180 132 115)" fill="#FFFAF1" />
    <ellipse cx="126" cy="109" rx="4" ry="5" transform="rotate(-90 126 109)" fill="#FFFAF1" />
    <circle cx="132" cy="109" r="3" fill="#FFC453" />
    <ellipse cx="162" cy="49" rx="4" ry="5" fill="#FFFAF1" />
    <ellipse cx="168" cy="55" rx="4" ry="5" transform="rotate(90 168 55)" fill="#FFFAF1" />
    <ellipse cx="162" cy="61" rx="4" ry="5" transform="rotate(-180 162 61)" fill="#FFFAF1" />
    <ellipse cx="156" cy="55" rx="4" ry="5" transform="rotate(-90 156 55)" fill="#FFFAF1" />
    <circle cx="162" cy="55" r="3" fill="#FFC453" />
    <ellipse cx="162" cy="103" rx="4" ry="5" fill="#FFFAF1" />
    <ellipse cx="168" cy="109" rx="4" ry="5" transform="rotate(90 168 109)" fill="#FFFAF1" />
    <ellipse cx="162" cy="115" rx="4" ry="5" transform="rotate(-180 162 115)" fill="#FFFAF1" />
    <ellipse cx="156" cy="109" rx="4" ry="5" transform="rotate(-90 156 109)" fill="#FFFAF1" />
    <circle cx="162" cy="109" r="3" fill="#FFC453" />
    <ellipse cx="87" cy="76" rx="4" ry="5" fill="#FFFAF1" />
    <ellipse cx="93" cy="82" rx="4" ry="5" transform="rotate(90 93 82)" fill="#FFFAF1" />
    <ellipse cx="87" cy="88" rx="4" ry="5" transform="rotate(-180 87 88)" fill="#FFFAF1" />
    <ellipse cx="81" cy="82" rx="4" ry="5" transform="rotate(-90 81 82)" fill="#FFFAF1" />
    <circle cx="87" cy="82" r="3" fill="#FFC453" />
    <ellipse cx="87" cy="22" rx="4" ry="5" fill="#FFFAF1" />
    <ellipse cx="93" cy="28" rx="4" ry="5" transform="rotate(90 93 28)" fill="#FFFAF1" />
    <ellipse cx="87" cy="34" rx="4" ry="5" transform="rotate(-180 87 34)" fill="#FFFAF1" />
    <ellipse cx="81" cy="28" rx="4" ry="5" transform="rotate(-90 81 28)" fill="#FFFAF1" />
    <circle cx="87" cy="28" r="3" fill="#FFC453" />
    <ellipse cx="57" cy="76" rx="4" ry="5" fill="#FFFAF1" />
    <ellipse cx="63" cy="82" rx="4" ry="5" transform="rotate(90 63 82)" fill="#FFFAF1" />
    <ellipse cx="57" cy="88" rx="4" ry="5" transform="rotate(-180 57 88)" fill="#FFFAF1" />
    <ellipse cx="51" cy="82" rx="4" ry="5" transform="rotate(-90 51 82)" fill="#FFFAF1" />
    <circle cx="57" cy="82" r="3" fill="#FFC453" />
    <ellipse cx="57" cy="22" rx="4" ry="5" fill="#FFFAF1" />
    <ellipse cx="63" cy="28" rx="4" ry="5" transform="rotate(90 63 28)" fill="#FFFAF1" />
    <ellipse cx="57" cy="34" rx="4" ry="5" transform="rotate(-180 57 34)" fill="#FFFAF1" />
    <ellipse cx="51" cy="28" rx="4" ry="5" transform="rotate(-90 51 28)" fill="#FFFAF1" />
    <circle cx="57" cy="28" r="3" fill="#FFC453" />
    <ellipse cx="117" cy="76" rx="4" ry="5" fill="#FFFAF1" />
    <ellipse cx="123" cy="82" rx="4" ry="5" transform="rotate(90 123 82)" fill="#FFFAF1" />
    <ellipse cx="117" cy="88" rx="4" ry="5" transform="rotate(-180 117 88)" fill="#FFFAF1" />
    <ellipse cx="111" cy="82" rx="4" ry="5" transform="rotate(-90 111 82)" fill="#FFFAF1" />
    <circle cx="117" cy="82" r="3" fill="#FFC453" />
    <ellipse cx="117" cy="22" rx="4" ry="5" fill="#FFFAF1" />
    <ellipse cx="123" cy="28" rx="4" ry="5" transform="rotate(90 123 28)" fill="#FFFAF1" />
    <ellipse cx="117" cy="34" rx="4" ry="5" transform="rotate(-180 117 34)" fill="#FFFAF1" />
    <ellipse cx="111" cy="28" rx="4" ry="5" transform="rotate(-90 111 28)" fill="#FFFAF1" />
    <circle cx="117" cy="28" r="3" fill="#FFC453" />
    <ellipse cx="147" cy="76" rx="4" ry="5" fill="#FFFAF1" />
    <ellipse cx="153" cy="82" rx="4" ry="5" transform="rotate(90 153 82)" fill="#FFFAF1" />
    <ellipse cx="147" cy="88" rx="4" ry="5" transform="rotate(-180 147 88)" fill="#FFFAF1" />
    <ellipse cx="141" cy="82" rx="4" ry="5" transform="rotate(-90 141 82)" fill="#FFFAF1" />
    <circle cx="147" cy="82" r="3" fill="#FFC453" />
    <ellipse cx="147" cy="22" rx="4" ry="5" fill="#FFFAF1" />
    <ellipse cx="153" cy="28" rx="4" ry="5" transform="rotate(90 153 28)" fill="#FFFAF1" />
    <ellipse cx="147" cy="34" rx="4" ry="5" transform="rotate(-180 147 34)" fill="#FFFAF1" />
    <ellipse cx="141" cy="28" rx="4" ry="5" transform="rotate(-90 141 28)" fill="#FFFAF1" />
    <circle cx="147" cy="28" r="3" fill="#FFC453" />
    <ellipse cx="177" cy="76" rx="4" ry="5" fill="#FFFAF1" />
    <ellipse cx="183" cy="82" rx="4" ry="5" transform="rotate(90 183 82)" fill="#FFFAF1" />
    <ellipse cx="177" cy="88" rx="4" ry="5" transform="rotate(-180 177 88)" fill="#FFFAF1" />
    <ellipse cx="171" cy="82" rx="4" ry="5" transform="rotate(-90 171 82)" fill="#FFFAF1" />
    <circle cx="177" cy="82" r="3" fill="#FFC453" />
    <ellipse cx="177" cy="22" rx="4" ry="5" fill="#FFFAF1" />
    <ellipse cx="183" cy="28" rx="4" ry="5" transform="rotate(90 183 28)" fill="#FFFAF1" />
    <ellipse cx="177" cy="34" rx="4" ry="5" transform="rotate(-180 177 34)" fill="#FFFAF1" />
    <ellipse cx="171" cy="28" rx="4" ry="5" transform="rotate(-90 171 28)" fill="#FFFAF1" />
    <circle cx="177" cy="28" r="3" fill="#FFC453" />
  </g>
</svg>
