<svg width="213" height="163" viewBox="0 0 213 163" fill="none" xmlns="http://www.w3.org/2000/svg">
  <mask id="mask0" style="mask-type:alpha" maskUnits="userSpaceOnUse" x="30" y="8" width="155" height="106">
    <path
      d="M153.957 62.7899C153.622 60.9162 153.435 60.0091 153.5 60.5C153.618 61.3909 153.772 62.1478 153.957 62.7899Z"
      fill="black" />
    <path
      d="M80.4999 10C48.4999 2.00272e-05 30.3333 39.7899 32.5 49.2899C31.6667 49.9566 30 50.2899 31 52.2899C31.5 55.7899 36.3382 61.6793 39 63.5C41.5 65.2102 47.9999 67 50.9999 68C52.1999 68.8 52.8333 67 52.9999 66C56.5248 66 59.6652 67.5531 61.0425 62.7899C61.3775 60.9163 61.5651 60.0091 61.5 60.5C61.3818 61.391 61.2282 62.1478 61.0425 62.7899C59.464 71.6177 54.6127 101.901 57.4999 108.5L58.4999 113.5C59.9999 113.5 63.9999 115 63.9999 111C63.9999 115 74.9999 115 74.9999 111C74.9999 115 85.4999 115 85.4999 111C85.4999 115 95.9999 115 95.9999 111C95.9999 115 107 115 107 111C107 115 118.5 115 118.5 111C118.5 115 129.5 115 129.5 111C129.5 115 140.5 115 140.5 111C140.5 115 151 115 151 111C151 115 155 113.5 156.5 113.5L157.5 108.5C160.387 101.901 155.536 71.6177 153.957 62.7899C153.772 62.1478 153.618 61.3909 153.5 60.5C153.435 60.0091 153.622 60.9162 153.957 62.7899C155.335 67.5531 158.475 66 162 66C162.167 67 162.8 68.8 164 68C167 67 173.5 65.2101 176 63.5C178.662 61.6792 183.5 55.7899 184 52.2899C185 50.2899 183.333 49.9565 182.5 49.2899C184.667 39.7899 166.5 -2.57492e-05 134.5 9.99997C128.333 12.5 118 18 107.5 24C97.5 18 86.6666 12.5 80.4999 10Z"
      fill="black" />
  </mask>
  <g mask="url(#mask0)">
    <rect width="213" height="163" fill="#FFABAB" />
    <g filter="url(#filter0_d)">
      <path
        d="M63.8958 4.53469C69.5908 -2.10939 95.5343 14.4217 107.794 23.5178C108.287 25.1813 108.322 28.2712 104.525 27.3221C104.723 29.2995 104.17 32.7797 100.373 30.8814C100.772 33.091 99.6659 35.9058 95.6272 33.2543C95.0339 35.0339 89.9976 36.6752 89.9976 31.6184C88.4157 33.144 85.1332 34.6902 84.6586 28.67C83.0782 29.721 79.917 30.5178 79.9152 25.2974C78.204 26.2861 74.9981 26.9584 75.8641 21.7381C74.2476 22.3055 71.2518 22.3211 72.2009 17.8435C70.5165 18.153 67.475 17.7042 68.7844 13.433C67.2839 13.6307 64.6595 13.0771 66.1657 9.28046C64.4204 9.28046 61.523 8.3313 63.8958 4.53469Z"
        fill="#FFC9C9" />
      <path
        d="M151.029 4.53469C145.334 -2.10939 119.391 14.4217 107.131 23.5178C106.638 25.1813 106.603 28.2712 110.4 27.3221C110.202 29.2995 110.755 32.7797 114.552 30.8814C114.153 33.091 115.259 35.9058 119.298 33.2543C119.891 35.0339 124.927 36.6752 124.927 31.6184C126.509 33.144 129.792 34.6902 130.266 28.67C131.847 29.721 135.008 30.5178 135.01 25.2974C136.721 26.2861 139.927 26.9584 139.061 21.7381C140.677 22.3055 143.673 22.3211 142.724 17.8435C144.409 18.153 147.45 17.7042 146.141 13.433C147.641 13.6307 150.266 13.0771 148.759 9.28046C150.505 9.28046 153.402 8.3313 151.029 4.53469Z"
        fill="#FFC9C9" />
    </g>
    <g filter="url(#filter1_d)">
      <path d="M98 108C95.2 109.6 68.8333 108.667 56 108L57 114.5H98C99.1667 111.667 100.8 106.4 98 108Z"
        fill="#FFC9C9" />
    </g>
    <g filter="url(#filter2_d)">
      <path
        d="M120.546 108C123.346 109.6 149.713 108.667 162.546 108L161.546 114.5H120.546C119.379 111.667 117.746 106.4 120.546 108Z"
        fill="#FFC9C9" />
    </g>
    <g filter="url(#filter3_d)">
      <path
        d="M119.5 103.232C118.3 102.032 113.167 105.732 110 108.732V116.232C112.667 117.399 117.3 119.232 120.5 119.232C125 116.232 121 104.732 119.5 103.232Z"
        fill="#FFC9C9" />
    </g>
    <g filter="url(#filter4_d)">
      <path
        d="M118.5 84.2319C117.3 83.0319 112.167 86.7319 109 89.7319V97.2319C111.667 98.3986 116.3 100.232 119.5 100.232C124 97.232 120 85.7319 118.5 84.2319Z"
        fill="#FFC9C9" />
    </g>
    <g filter="url(#filter5_d)">
      <path
        d="M116.5 62.2319C115.3 61.0319 110.167 64.7319 107 67.7319V75.2319C109.667 76.3986 114.3 78.232 117.5 78.232C122 75.232 118 63.7319 116.5 62.2319Z"
        fill="#FFC9C9" />
    </g>
    <g filter="url(#filter6_d)">
      <path
        d="M114.305 41.8451C112.942 40.8347 108.409 45.2496 105.718 48.6829L106.821 56.1013C109.63 56.8629 114.483 57.9947 117.648 57.5239C121.658 53.8945 116.01 43.1081 114.305 41.8451Z"
        fill="#FFC9C9" />
    </g>
    <g filter="url(#filter7_d)">
      <path
        d="M121 55.2917C119.8 54.0917 114.167 56.7917 111 59.7917C111 60.5917 111.5 64.3569 111.5 66.5236C114.167 67.6903 117.8 68.7917 121 68.7917C125.5 65.7917 122.5 56.7917 121 55.2917Z"
        fill="#FFC9C9" />
    </g>
    <g filter="url(#filter8_d)">
      <path
        d="M119.08 49.7674C118.11 50.7245 113.559 48.571 111 46.1782C111 45.5402 111.404 42.5371 111.404 40.809C113.559 39.8784 116.494 39 119.08 39C122.716 41.3927 120.292 48.571 119.08 49.7674Z"
        fill="#FFC9C9" />
    </g>
    <g filter="url(#filter9_d)">
      <path
        d="M123.5 93.2319C122.3 92.0319 117.167 95.7319 114 98.7319V106.232C116.667 107.399 121.3 109.232 124.5 109.232C129 106.232 125 94.7319 123.5 93.2319Z"
        fill="#FFC9C9" />
    </g>
    <g filter="url(#filter10_d)">
      <path
        d="M122 75.2917C120.8 74.0917 115.167 76.7917 112 79.7917C112 80.5917 112.5 84.3569 112.5 86.5236C115.167 87.6903 118.8 88.7917 122 88.7917C126.5 85.7917 123.5 76.7917 122 75.2917Z"
        fill="#FFC9C9" />
    </g>
    <g filter="url(#filter11_d)">
      <path
        d="M96.0745 103.232C97.2745 102.032 102.408 105.732 105.574 108.732V116.232C102.908 117.399 98.2745 119.232 95.0745 119.232C90.5745 116.232 94.5745 104.732 96.0745 103.232Z"
        fill="#FFC9C9" />
    </g>
    <g filter="url(#filter12_d)">
      <path
        d="M97.0745 84.2319C98.2745 83.0319 103.408 86.7319 106.574 89.7319V97.2319C103.908 98.3986 99.2745 100.232 96.0745 100.232C91.5745 97.232 95.5745 85.7319 97.0745 84.2319Z"
        fill="#FFC9C9" />
    </g>
    <g filter="url(#filter13_d)">
      <path
        d="M99.0745 62.2319C100.274 61.0319 105.408 64.7319 108.574 67.7319V75.2319C105.908 76.3986 101.274 78.232 98.0745 78.232C93.5745 75.232 97.5745 63.7319 99.0745 62.2319Z"
        fill="#FFC9C9" />
    </g>
    <g filter="url(#filter14_d)">
      <path
        d="M101.269 41.8451C102.633 40.8347 107.166 45.2496 109.857 48.6829L108.753 56.1013C105.944 56.8629 101.091 57.9947 97.9262 57.5239C93.9165 53.8945 99.5648 43.1081 101.269 41.8451Z"
        fill="#FFC9C9" />
    </g>
    <g filter="url(#filter15_d)">
      <path
        d="M94.5745 55.2917C95.7745 54.0917 101.408 56.7917 104.574 59.7917C104.574 60.5917 104.074 64.3569 104.074 66.5236C101.408 67.6903 97.7745 68.7917 94.5745 68.7917C90.0745 65.7917 93.0745 56.7917 94.5745 55.2917Z"
        fill="#FFC9C9" />
    </g>
    <g filter="url(#filter16_d)">
      <path
        d="M96.4948 49.7674C97.4643 50.7245 102.016 48.571 104.574 46.1782C104.574 45.5402 104.17 42.5371 104.17 40.809C102.016 39.8784 99.0803 39 96.4948 39C92.8589 41.3927 95.2828 48.571 96.4948 49.7674Z"
        fill="#FFC9C9" />
    </g>
    <g filter="url(#filter17_d)">
      <path
        d="M92.0745 93.2319C93.2745 92.0319 98.4078 95.7319 101.574 98.7319V106.232C98.9078 107.399 94.2745 109.232 91.0745 109.232C86.5745 106.232 90.5745 94.7319 92.0745 93.2319Z"
        fill="#FFC9C9" />
    </g>
    <g filter="url(#filter18_d)">
      <path
        d="M93.5745 75.2917C94.7745 74.0917 100.408 76.7917 103.574 79.7917C103.574 80.5917 103.074 84.3569 103.074 86.5236C100.408 87.6903 96.7745 88.7917 93.5745 88.7917C89.0745 85.7917 92.0745 76.7917 93.5745 75.2917Z"
        fill="#FFC9C9" />
    </g>
    <g filter="url(#filter19_d)">
      <path d="M100.5 120.5C96.8999 113.7 102 56 105 28H110.5C113.5 56 118.6 113.7 115 120.5H100.5Z" fill="#FFC9C9" />
    </g>
    <g filter="url(#filter20_d)">
      <path
        d="M112 27.0727C112 28.5273 109.985 29.2675 107.5 29.2675C105.015 29.2675 103 28.5273 103 27.0727C103 25.6181 105.015 24 107.5 24C109.985 24 112 25.6181 112 27.0727Z"
        fill="#A32B5D" />
      <path
        d="M94.5001 69.6514C92.1001 66.8421 100.167 41.2656 104.5 28.8285C105 27.8043 106.1 26.3704 106.5 28.8285C106.9 31.2867 102.333 58.5312 100 71.8462C98.8 72.5485 95.8334 70.6757 94.5001 69.6514Z"
        fill="#A32B5D" />
      <path
        d="M86 37.1687C86 34.0082 98.3333 28.8285 104.5 26.6337L105.5 27.9506C106.3 29.7064 98.5 40.2414 93 44.192C90 44.192 86 40.3292 86 37.1687Z"
        fill="#A32B5D" />
      <path
        d="M121.025 69.6514C123.425 66.8421 115.358 41.2656 111.025 28.8285C110.525 27.8043 109.425 26.3704 109.025 28.8285C108.625 31.2867 113.191 58.5312 115.525 71.8462C116.725 72.5485 119.691 70.6757 121.025 69.6514Z"
        fill="#A32B5D" />
      <path
        d="M129.525 37.1687C129.525 34.0082 117.191 28.8285 111.025 26.6337L110.025 27.9506C109.225 29.7064 117.025 40.2414 122.525 44.192C125.525 44.192 129.525 40.3292 129.525 37.1687Z"
        fill="#A32B5D" />
    </g>
    <g filter="url(#filter21_d)">
      <circle cx="108" cy="47" r="2" fill="#FFECEC" />
    </g>
    <g filter="url(#filter22_d)">
      <circle cx="108" cy="64" r="2" fill="#FFECEC" />
    </g>
    <g filter="url(#filter23_d)">
      <circle cx="108" cy="81" r="2" fill="#FFECEC" />
    </g>
    <g filter="url(#filter24_d)">
      <circle cx="108" cy="98" r="2" fill="#FFECEC" />
    </g>
    <g filter="url(#filter25_d)">
      <path d="M41.5 61C38.3 59 34.1667 52.1667 32.5 49L29 52L37.5 64.5L52 69L54 67L53 66C50.5 65.1667 44.7 63 41.5 61Z"
        fill="#FFC9C9" />
    </g>
    <g filter="url(#filter26_d)">
      <path
        d="M173.5 61C176.7 59 180.833 52.1667 182.5 49L186 52L177.5 64.5L163 69L161 67L162 66C164.5 65.1667 170.3 63 173.5 61Z"
        fill="#FFC9C9" />
    </g>
  </g>
  <defs>
    <filter id="filter0_d" x="60" y="1" width="94.925" height="38" filterUnits="userSpaceOnUse"
      color-interpolation-filters="sRGB">
      <feFlood flood-opacity="0" result="BackgroundImageFix" />
      <feColorMatrix in="SourceAlpha" type="matrix" values="0 0 0 0 0 0 0 0 0 0 0 0 0 0 0 0 0 0 127 0"
        result="hardAlpha" />
      <feOffset dy="1" />
      <feGaussianBlur stdDeviation="1.5" />
      <feColorMatrix type="matrix" values="0 0 0 0 0.891667 0 0 0 0 0.390104 0 0 0 0 0.390104 0 0 0 0.4 0" />
      <feBlend mode="normal" in2="BackgroundImageFix" result="effect1_dropShadow" />
      <feBlend mode="normal" in="SourceGraphic" in2="effect1_dropShadow" result="shape" />
    </filter>
    <filter id="filter1_d" x="53" y="104.704" width="49.5461" height="12.7964" filterUnits="userSpaceOnUse"
      color-interpolation-filters="sRGB">
      <feFlood flood-opacity="0" result="BackgroundImageFix" />
      <feColorMatrix in="SourceAlpha" type="matrix" values="0 0 0 0 0 0 0 0 0 0 0 0 0 0 0 0 0 0 127 0"
        result="hardAlpha" />
      <feOffset />
      <feGaussianBlur stdDeviation="1.5" />
      <feColorMatrix type="matrix" values="0 0 0 0 0.933333 0 0 0 0 0.388889 0 0 0 0 0.388889 0 0 0 0.6 0" />
      <feBlend mode="normal" in2="BackgroundImageFix" result="effect1_dropShadow" />
      <feBlend mode="normal" in="SourceGraphic" in2="effect1_dropShadow" result="shape" />
    </filter>
    <filter id="filter2_d" x="116" y="104.704" width="49.5461" height="12.7964" filterUnits="userSpaceOnUse"
      color-interpolation-filters="sRGB">
      <feFlood flood-opacity="0" result="BackgroundImageFix" />
      <feColorMatrix in="SourceAlpha" type="matrix" values="0 0 0 0 0 0 0 0 0 0 0 0 0 0 0 0 0 0 127 0"
        result="hardAlpha" />
      <feOffset />
      <feGaussianBlur stdDeviation="1.5" />
      <feColorMatrix type="matrix" values="0 0 0 0 0.933333 0 0 0 0 0.388889 0 0 0 0 0.388889 0 0 0 0.6 0" />
      <feBlend mode="normal" in2="BackgroundImageFix" result="effect1_dropShadow" />
      <feBlend mode="normal" in="SourceGraphic" in2="effect1_dropShadow" result="shape" />
    </filter>
    <filter id="filter3_d" x="106" y="101" width="20.5745" height="24.2319" filterUnits="userSpaceOnUse"
      color-interpolation-filters="sRGB">
      <feFlood flood-opacity="0" result="BackgroundImageFix" />
      <feColorMatrix in="SourceAlpha" type="matrix" values="0 0 0 0 0 0 0 0 0 0 0 0 0 0 0 0 0 0 127 0"
        result="hardAlpha" />
      <feOffset dy="2" />
      <feGaussianBlur stdDeviation="2" />
      <feColorMatrix type="matrix" values="0 0 0 0 0.8875 0 0 0 0 0.292135 0 0 0 0 0.292135 0 0 0 0.3 0" />
      <feBlend mode="normal" in2="BackgroundImageFix" result="effect1_dropShadow" />
      <feBlend mode="normal" in="SourceGraphic" in2="effect1_dropShadow" result="shape" />
    </filter>
    <filter id="filter4_d" x="105" y="82" width="20.5745" height="24.2319" filterUnits="userSpaceOnUse"
      color-interpolation-filters="sRGB">
      <feFlood flood-opacity="0" result="BackgroundImageFix" />
      <feColorMatrix in="SourceAlpha" type="matrix" values="0 0 0 0 0 0 0 0 0 0 0 0 0 0 0 0 0 0 127 0"
        result="hardAlpha" />
      <feOffset dy="2" />
      <feGaussianBlur stdDeviation="2" />
      <feColorMatrix type="matrix" values="0 0 0 0 0.8875 0 0 0 0 0.292135 0 0 0 0 0.292135 0 0 0 0.3 0" />
      <feBlend mode="normal" in2="BackgroundImageFix" result="effect1_dropShadow" />
      <feBlend mode="normal" in="SourceGraphic" in2="effect1_dropShadow" result="shape" />
    </filter>
    <filter id="filter5_d" x="103" y="60" width="20.5745" height="24.2319" filterUnits="userSpaceOnUse"
      color-interpolation-filters="sRGB">
      <feFlood flood-opacity="0" result="BackgroundImageFix" />
      <feColorMatrix in="SourceAlpha" type="matrix" values="0 0 0 0 0 0 0 0 0 0 0 0 0 0 0 0 0 0 127 0"
        result="hardAlpha" />
      <feOffset dy="2" />
      <feGaussianBlur stdDeviation="2" />
      <feColorMatrix type="matrix" values="0 0 0 0 0.8875 0 0 0 0 0.292135 0 0 0 0 0.292135 0 0 0 0.3 0" />
      <feBlend mode="normal" in2="BackgroundImageFix" result="effect1_dropShadow" />
      <feBlend mode="normal" in="SourceGraphic" in2="effect1_dropShadow" result="shape" />
    </filter>
    <filter id="filter6_d" x="101.718" y="39.6983" width="21.3396" height="23.9366" filterUnits="userSpaceOnUse"
      color-interpolation-filters="sRGB">
      <feFlood flood-opacity="0" result="BackgroundImageFix" />
      <feColorMatrix in="SourceAlpha" type="matrix" values="0 0 0 0 0 0 0 0 0 0 0 0 0 0 0 0 0 0 127 0"
        result="hardAlpha" />
      <feOffset dy="2" />
      <feGaussianBlur stdDeviation="2" />
      <feColorMatrix type="matrix" values="0 0 0 0 0.8875 0 0 0 0 0.292135 0 0 0 0 0.292135 0 0 0 0.3 0" />
      <feBlend mode="normal" in2="BackgroundImageFix" result="effect1_dropShadow" />
      <feBlend mode="normal" in="SourceGraphic" in2="effect1_dropShadow" result="shape" />
    </filter>
    <filter id="filter7_d" x="107" y="53" width="20.3767" height="21.7917" filterUnits="userSpaceOnUse"
      color-interpolation-filters="sRGB">
      <feFlood flood-opacity="0" result="BackgroundImageFix" />
      <feColorMatrix in="SourceAlpha" type="matrix" values="0 0 0 0 0 0 0 0 0 0 0 0 0 0 0 0 0 0 127 0"
        result="hardAlpha" />
      <feOffset dy="2" />
      <feGaussianBlur stdDeviation="2" />
      <feColorMatrix type="matrix" values="0 0 0 0 0.8875 0 0 0 0 0.292135 0 0 0 0 0.292135 0 0 0 0.3 0" />
      <feBlend mode="normal" in2="BackgroundImageFix" result="effect1_dropShadow" />
      <feBlend mode="normal" in="SourceGraphic" in2="effect1_dropShadow" result="shape" />
    </filter>
    <filter id="filter8_d" x="107" y="37" width="18" height="19" filterUnits="userSpaceOnUse"
      color-interpolation-filters="sRGB">
      <feFlood flood-opacity="0" result="BackgroundImageFix" />
      <feColorMatrix in="SourceAlpha" type="matrix" values="0 0 0 0 0 0 0 0 0 0 0 0 0 0 0 0 0 0 127 0"
        result="hardAlpha" />
      <feOffset dy="2" />
      <feGaussianBlur stdDeviation="2" />
      <feColorMatrix type="matrix" values="0 0 0 0 0.8875 0 0 0 0 0.292135 0 0 0 0 0.292135 0 0 0 0.3 0" />
      <feBlend mode="normal" in2="BackgroundImageFix" result="effect1_dropShadow" />
      <feBlend mode="normal" in="SourceGraphic" in2="effect1_dropShadow" result="shape" />
    </filter>
    <filter id="filter9_d" x="110" y="91" width="20.5745" height="24.2319" filterUnits="userSpaceOnUse"
      color-interpolation-filters="sRGB">
      <feFlood flood-opacity="0" result="BackgroundImageFix" />
      <feColorMatrix in="SourceAlpha" type="matrix" values="0 0 0 0 0 0 0 0 0 0 0 0 0 0 0 0 0 0 127 0"
        result="hardAlpha" />
      <feOffset dy="2" />
      <feGaussianBlur stdDeviation="2" />
      <feColorMatrix type="matrix" values="0 0 0 0 0.8875 0 0 0 0 0.292135 0 0 0 0 0.292135 0 0 0 0.3 0" />
      <feBlend mode="normal" in2="BackgroundImageFix" result="effect1_dropShadow" />
      <feBlend mode="normal" in="SourceGraphic" in2="effect1_dropShadow" result="shape" />
    </filter>
    <filter id="filter10_d" x="108" y="73" width="20.3767" height="21.7917" filterUnits="userSpaceOnUse"
      color-interpolation-filters="sRGB">
      <feFlood flood-opacity="0" result="BackgroundImageFix" />
      <feColorMatrix in="SourceAlpha" type="matrix" values="0 0 0 0 0 0 0 0 0 0 0 0 0 0 0 0 0 0 127 0"
        result="hardAlpha" />
      <feOffset dy="2" />
      <feGaussianBlur stdDeviation="2" />
      <feColorMatrix type="matrix" values="0 0 0 0 0.8875 0 0 0 0 0.292135 0 0 0 0 0.292135 0 0 0 0.3 0" />
      <feBlend mode="normal" in2="BackgroundImageFix" result="effect1_dropShadow" />
      <feBlend mode="normal" in="SourceGraphic" in2="effect1_dropShadow" result="shape" />
    </filter>
    <filter id="filter11_d" x="89" y="101" width="20.5745" height="24.2319" filterUnits="userSpaceOnUse"
      color-interpolation-filters="sRGB">
      <feFlood flood-opacity="0" result="BackgroundImageFix" />
      <feColorMatrix in="SourceAlpha" type="matrix" values="0 0 0 0 0 0 0 0 0 0 0 0 0 0 0 0 0 0 127 0"
        result="hardAlpha" />
      <feOffset dy="2" />
      <feGaussianBlur stdDeviation="2" />
      <feColorMatrix type="matrix" values="0 0 0 0 0.8875 0 0 0 0 0.292135 0 0 0 0 0.292135 0 0 0 0.3 0" />
      <feBlend mode="normal" in2="BackgroundImageFix" result="effect1_dropShadow" />
      <feBlend mode="normal" in="SourceGraphic" in2="effect1_dropShadow" result="shape" />
    </filter>
    <filter id="filter12_d" x="90" y="82" width="20.5745" height="24.2319" filterUnits="userSpaceOnUse"
      color-interpolation-filters="sRGB">
      <feFlood flood-opacity="0" result="BackgroundImageFix" />
      <feColorMatrix in="SourceAlpha" type="matrix" values="0 0 0 0 0 0 0 0 0 0 0 0 0 0 0 0 0 0 127 0"
        result="hardAlpha" />
      <feOffset dy="2" />
      <feGaussianBlur stdDeviation="2" />
      <feColorMatrix type="matrix" values="0 0 0 0 0.8875 0 0 0 0 0.292135 0 0 0 0 0.292135 0 0 0 0.3 0" />
      <feBlend mode="normal" in2="BackgroundImageFix" result="effect1_dropShadow" />
      <feBlend mode="normal" in="SourceGraphic" in2="effect1_dropShadow" result="shape" />
    </filter>
    <filter id="filter13_d" x="92" y="60" width="20.5745" height="24.2319" filterUnits="userSpaceOnUse"
      color-interpolation-filters="sRGB">
      <feFlood flood-opacity="0" result="BackgroundImageFix" />
      <feColorMatrix in="SourceAlpha" type="matrix" values="0 0 0 0 0 0 0 0 0 0 0 0 0 0 0 0 0 0 127 0"
        result="hardAlpha" />
      <feOffset dy="2" />
      <feGaussianBlur stdDeviation="2" />
      <feColorMatrix type="matrix" values="0 0 0 0 0.8875 0 0 0 0 0.292135 0 0 0 0 0.292135 0 0 0 0.3 0" />
      <feBlend mode="normal" in2="BackgroundImageFix" result="effect1_dropShadow" />
      <feBlend mode="normal" in="SourceGraphic" in2="effect1_dropShadow" result="shape" />
    </filter>
    <filter id="filter14_d" x="92.5171" y="39.6983" width="21.3396" height="23.9366" filterUnits="userSpaceOnUse"
      color-interpolation-filters="sRGB">
      <feFlood flood-opacity="0" result="BackgroundImageFix" />
      <feColorMatrix in="SourceAlpha" type="matrix" values="0 0 0 0 0 0 0 0 0 0 0 0 0 0 0 0 0 0 127 0"
        result="hardAlpha" />
      <feOffset dy="2" />
      <feGaussianBlur stdDeviation="2" />
      <feColorMatrix type="matrix" values="0 0 0 0 0.8875 0 0 0 0 0.292135 0 0 0 0 0.292135 0 0 0 0.3 0" />
      <feBlend mode="normal" in2="BackgroundImageFix" result="effect1_dropShadow" />
      <feBlend mode="normal" in="SourceGraphic" in2="effect1_dropShadow" result="shape" />
    </filter>
    <filter id="filter15_d" x="88.1978" y="53" width="20.3767" height="21.7917" filterUnits="userSpaceOnUse"
      color-interpolation-filters="sRGB">
      <feFlood flood-opacity="0" result="BackgroundImageFix" />
      <feColorMatrix in="SourceAlpha" type="matrix" values="0 0 0 0 0 0 0 0 0 0 0 0 0 0 0 0 0 0 127 0"
        result="hardAlpha" />
      <feOffset dy="2" />
      <feGaussianBlur stdDeviation="2" />
      <feColorMatrix type="matrix" values="0 0 0 0 0.8875 0 0 0 0 0.292135 0 0 0 0 0.292135 0 0 0 0.3 0" />
      <feBlend mode="normal" in2="BackgroundImageFix" result="effect1_dropShadow" />
      <feBlend mode="normal" in="SourceGraphic" in2="effect1_dropShadow" result="shape" />
    </filter>
    <filter id="filter16_d" x="90.5745" y="37" width="18" height="19" filterUnits="userSpaceOnUse"
      color-interpolation-filters="sRGB">
      <feFlood flood-opacity="0" result="BackgroundImageFix" />
      <feColorMatrix in="SourceAlpha" type="matrix" values="0 0 0 0 0 0 0 0 0 0 0 0 0 0 0 0 0 0 127 0"
        result="hardAlpha" />
      <feOffset dy="2" />
      <feGaussianBlur stdDeviation="2" />
      <feColorMatrix type="matrix" values="0 0 0 0 0.8875 0 0 0 0 0.292135 0 0 0 0 0.292135 0 0 0 0.3 0" />
      <feBlend mode="normal" in2="BackgroundImageFix" result="effect1_dropShadow" />
      <feBlend mode="normal" in="SourceGraphic" in2="effect1_dropShadow" result="shape" />
    </filter>
    <filter id="filter17_d" x="85" y="91" width="20.5745" height="24.2319" filterUnits="userSpaceOnUse"
      color-interpolation-filters="sRGB">
      <feFlood flood-opacity="0" result="BackgroundImageFix" />
      <feColorMatrix in="SourceAlpha" type="matrix" values="0 0 0 0 0 0 0 0 0 0 0 0 0 0 0 0 0 0 127 0"
        result="hardAlpha" />
      <feOffset dy="2" />
      <feGaussianBlur stdDeviation="2" />
      <feColorMatrix type="matrix" values="0 0 0 0 0.8875 0 0 0 0 0.292135 0 0 0 0 0.292135 0 0 0 0.3 0" />
      <feBlend mode="normal" in2="BackgroundImageFix" result="effect1_dropShadow" />
      <feBlend mode="normal" in="SourceGraphic" in2="effect1_dropShadow" result="shape" />
    </filter>
    <filter id="filter18_d" x="87.1978" y="73" width="20.3767" height="21.7917" filterUnits="userSpaceOnUse"
      color-interpolation-filters="sRGB">
      <feFlood flood-opacity="0" result="BackgroundImageFix" />
      <feColorMatrix in="SourceAlpha" type="matrix" values="0 0 0 0 0 0 0 0 0 0 0 0 0 0 0 0 0 0 127 0"
        result="hardAlpha" />
      <feOffset dy="2" />
      <feGaussianBlur stdDeviation="2" />
      <feColorMatrix type="matrix" values="0 0 0 0 0.8875 0 0 0 0 0.292135 0 0 0 0 0.292135 0 0 0 0.3 0" />
      <feBlend mode="normal" in2="BackgroundImageFix" result="effect1_dropShadow" />
      <feBlend mode="normal" in="SourceGraphic" in2="effect1_dropShadow" result="shape" />
    </filter>
    <filter id="filter19_d" x="94.2617" y="23" width="26.9766" height="102.5" filterUnits="userSpaceOnUse"
      color-interpolation-filters="sRGB">
      <feFlood flood-opacity="0" result="BackgroundImageFix" />
      <feColorMatrix in="SourceAlpha" type="matrix" values="0 0 0 0 0 0 0 0 0 0 0 0 0 0 0 0 0 0 127 0"
        result="hardAlpha" />
      <feOffset />
      <feGaussianBlur stdDeviation="2.5" />
      <feColorMatrix type="matrix" values="0 0 0 0 0.8625 0 0 0 0 0.355781 0 0 0 0 0.355781 0 0 0 0.3 0" />
      <feBlend mode="normal" in2="BackgroundImageFix" result="effect1_dropShadow" />
      <feBlend mode="normal" in="SourceGraphic" in2="effect1_dropShadow" result="shape" />
    </filter>
    <filter id="filter20_d" x="84" y="23" width="47.5247" height="52" filterUnits="userSpaceOnUse"
      color-interpolation-filters="sRGB">
      <feFlood flood-opacity="0" result="BackgroundImageFix" />
      <feColorMatrix in="SourceAlpha" type="matrix" values="0 0 0 0 0 0 0 0 0 0 0 0 0 0 0 0 0 0 127 0"
        result="hardAlpha" />
      <feOffset dy="1" />
      <feGaussianBlur stdDeviation="1" />
      <feColorMatrix type="matrix" values="0 0 0 0 0.6375 0 0 0 0 0.119531 0 0 0 0 0.335351 0 0 0 0.4 0" />
      <feBlend mode="normal" in2="BackgroundImageFix" result="effect1_dropShadow" />
      <feBlend mode="normal" in="SourceGraphic" in2="effect1_dropShadow" result="shape" />
    </filter>
    <filter id="filter21_d" x="105" y="44" width="8" height="8" filterUnits="userSpaceOnUse"
      color-interpolation-filters="sRGB">
      <feFlood flood-opacity="0" result="BackgroundImageFix" />
      <feColorMatrix in="SourceAlpha" type="matrix" values="0 0 0 0 0 0 0 0 0 0 0 0 0 0 0 0 0 0 127 0"
        result="hardAlpha" />
      <feOffset dx="1" dy="1" />
      <feGaussianBlur stdDeviation="1" />
      <feColorMatrix type="matrix" values="0 0 0 0 1 0 0 0 0 0.670588 0 0 0 0 0.670588 0 0 0 0.7 0" />
      <feBlend mode="normal" in2="BackgroundImageFix" result="effect1_dropShadow" />
      <feBlend mode="normal" in="SourceGraphic" in2="effect1_dropShadow" result="shape" />
    </filter>
    <filter id="filter22_d" x="105" y="61" width="8" height="8" filterUnits="userSpaceOnUse"
      color-interpolation-filters="sRGB">
      <feFlood flood-opacity="0" result="BackgroundImageFix" />
      <feColorMatrix in="SourceAlpha" type="matrix" values="0 0 0 0 0 0 0 0 0 0 0 0 0 0 0 0 0 0 127 0"
        result="hardAlpha" />
      <feOffset dx="1" dy="1" />
      <feGaussianBlur stdDeviation="1" />
      <feColorMatrix type="matrix" values="0 0 0 0 1 0 0 0 0 0.670588 0 0 0 0 0.670588 0 0 0 0.7 0" />
      <feBlend mode="normal" in2="BackgroundImageFix" result="effect1_dropShadow" />
      <feBlend mode="normal" in="SourceGraphic" in2="effect1_dropShadow" result="shape" />
    </filter>
    <filter id="filter23_d" x="105" y="78" width="8" height="8" filterUnits="userSpaceOnUse"
      color-interpolation-filters="sRGB">
      <feFlood flood-opacity="0" result="BackgroundImageFix" />
      <feColorMatrix in="SourceAlpha" type="matrix" values="0 0 0 0 0 0 0 0 0 0 0 0 0 0 0 0 0 0 127 0"
        result="hardAlpha" />
      <feOffset dx="1" dy="1" />
      <feGaussianBlur stdDeviation="1" />
      <feColorMatrix type="matrix" values="0 0 0 0 1 0 0 0 0 0.670588 0 0 0 0 0.670588 0 0 0 0.7 0" />
      <feBlend mode="normal" in2="BackgroundImageFix" result="effect1_dropShadow" />
      <feBlend mode="normal" in="SourceGraphic" in2="effect1_dropShadow" result="shape" />
    </filter>
    <filter id="filter24_d" x="105" y="95" width="8" height="8" filterUnits="userSpaceOnUse"
      color-interpolation-filters="sRGB">
      <feFlood flood-opacity="0" result="BackgroundImageFix" />
      <feColorMatrix in="SourceAlpha" type="matrix" values="0 0 0 0 0 0 0 0 0 0 0 0 0 0 0 0 0 0 127 0"
        result="hardAlpha" />
      <feOffset dx="1" dy="1" />
      <feGaussianBlur stdDeviation="1" />
      <feColorMatrix type="matrix" values="0 0 0 0 1 0 0 0 0 0.670588 0 0 0 0 0.670588 0 0 0 0.7 0" />
      <feBlend mode="normal" in2="BackgroundImageFix" result="effect1_dropShadow" />
      <feBlend mode="normal" in="SourceGraphic" in2="effect1_dropShadow" result="shape" />
    </filter>
    <filter id="filter25_d" x="26" y="43" width="33" height="28" filterUnits="userSpaceOnUse"
      color-interpolation-filters="sRGB">
      <feFlood flood-opacity="0" result="BackgroundImageFix" />
      <feColorMatrix in="SourceAlpha" type="matrix" values="0 0 0 0 0 0 0 0 0 0 0 0 0 0 0 0 0 0 127 0"
        result="hardAlpha" />
      <feOffset dx="1" dy="-2" />
      <feGaussianBlur stdDeviation="2" />
      <feColorMatrix type="matrix" values="0 0 0 0 0.95 0 0 0 0 0.395833 0 0 0 0 0.395833 0 0 0 0.3 0" />
      <feBlend mode="normal" in2="BackgroundImageFix" result="effect1_dropShadow" />
      <feBlend mode="normal" in="SourceGraphic" in2="effect1_dropShadow" result="shape" />
    </filter>
    <filter id="filter26_d" x="158" y="43" width="33" height="28" filterUnits="userSpaceOnUse"
      color-interpolation-filters="sRGB">
      <feFlood flood-opacity="0" result="BackgroundImageFix" />
      <feColorMatrix in="SourceAlpha" type="matrix" values="0 0 0 0 0 0 0 0 0 0 0 0 0 0 0 0 0 0 127 0"
        result="hardAlpha" />
      <feOffset dx="1" dy="-2" />
      <feGaussianBlur stdDeviation="2" />
      <feColorMatrix type="matrix" values="0 0 0 0 0.95 0 0 0 0 0.395833 0 0 0 0 0.395833 0 0 0 0.3 0" />
      <feBlend mode="normal" in2="BackgroundImageFix" result="effect1_dropShadow" />
      <feBlend mode="normal" in="SourceGraphic" in2="effect1_dropShadow" result="shape" />
    </filter>
  </defs>
</svg>
