<svg width="213" height="163" viewBox="0 0 213 163" fill="none" xmlns="http://www.w3.org/2000/svg">
  <mask id="mask0" style="mask-type: alpha" maskUnits="userSpaceOnUse" x="30" y="8" width="155" height="106">
    <path
      d="M153.957 62.7899C153.622 60.9162 153.435 60.0091 153.5 60.5C153.618 61.3909 153.772 62.1478 153.957 62.7899Z"
      fill="black"
    />
    <path
      d="M80.4999 10C48.4999 2.00272e-05 30.3333 39.7899 32.5 49.2899C31.6667 49.9566 30 50.2899 31 52.2899C31.5 55.7899 36.3382 61.6793 39 63.5C41.5 65.2102 47.9999 67 50.9999 68C52.1999 68.8 52.8333 67 52.9999 66C56.5248 66 59.6652 67.5531 61.0425 62.7899C61.3775 60.9163 61.5651 60.0091 61.5 60.5C61.3818 61.391 61.2282 62.1478 61.0425 62.7899C59.464 71.6177 54.6127 101.901 57.4999 108.5L58.4999 113.5C59.9999 113.5 63.9999 115 63.9999 111C63.9999 115 74.9999 115 74.9999 111C74.9999 115 85.4999 115 85.4999 111C85.4999 115 95.9999 115 95.9999 111C95.9999 115 107 115 107 111C107 115 118.5 115 118.5 111C118.5 115 129.5 115 129.5 111C129.5 115 140.5 115 140.5 111C140.5 115 151 115 151 111C151 115 155 113.5 156.5 113.5L157.5 108.5C160.387 101.901 155.536 71.6177 153.957 62.7899C153.772 62.1478 153.618 61.3909 153.5 60.5C153.435 60.0091 153.622 60.9162 153.957 62.7899C155.335 67.5531 158.475 66 162 66C162.167 67 162.8 68.8 164 68C167 67 173.5 65.2101 176 63.5C178.662 61.6792 183.5 55.7899 184 52.2899C185 50.2899 183.333 49.9565 182.5 49.2899C184.667 39.7899 166.5 -2.57492e-05 134.5 9.99997C128.333 12.5 122 17.5 107.5 17.5C93 17.5 86.6666 12.5 80.4999 10Z"
      fill="black"
    />
  </mask>
  <g mask="url(#mask0)">
    <rect width="213" height="163" fill="#FFABDD" />
  </g>
</svg>
