<svg width="213" height="163" viewBox="0 0 213 163" fill="none" xmlns="http://www.w3.org/2000/svg">
  <mask id="mask0" style="mask-type:alpha" maskUnits="userSpaceOnUse" x="30" y="8" width="155" height="106">
    <path
      d="M153.957 62.7899C153.622 60.9162 153.435 60.0091 153.5 60.5C153.618 61.3909 153.772 62.1478 153.957 62.7899Z"
      fill="black" />
    <path
      d="M80.4999 10C48.4999 2.00272e-05 30.3333 39.7899 32.5 49.2899C31.6667 49.9566 30 50.2899 31 52.2899C31.5 55.7899 36.3382 61.6793 39 63.5C41.5 65.2102 47.9999 67 50.9999 68C52.1999 68.8 52.8333 67 52.9999 66C56.5248 66 59.6652 67.5531 61.0425 62.7899C61.3775 60.9163 61.5651 60.0091 61.5 60.5C61.3818 61.391 61.2282 62.1478 61.0425 62.7899C59.464 71.6177 54.6127 101.901 57.4999 108.5L58.4999 113.5C59.9999 113.5 63.9999 115 63.9999 111C63.9999 115 74.9999 115 74.9999 111C74.9999 115 85.4999 115 85.4999 111C85.4999 115 95.9999 115 95.9999 111C95.9999 115 107 115 107 111C107 115 118.5 115 118.5 111C118.5 115 129.5 115 129.5 111C129.5 115 140.5 115 140.5 111C140.5 115 151 115 151 111C151 115 155 113.5 156.5 113.5L157.5 108.5C160.387 101.901 155.536 71.6177 153.957 62.7899C153.772 62.1478 153.618 61.3909 153.5 60.5C153.435 60.0091 153.622 60.9162 153.957 62.7899C155.335 67.5531 158.475 66 162 66C162.167 67 162.8 68.8 164 68C167 67 173.5 65.2101 176 63.5C178.662 61.6792 183.5 55.7899 184 52.2899C185 50.2899 183.333 49.9565 182.5 49.2899C184.667 39.7899 166.5 -2.57492e-05 134.5 9.99997C128.333 12.5 118 14.5 107.5 20.5C97.5 14.5 86.6666 12.5 80.4999 10Z"
      fill="black" />
  </mask>
  <g mask="url(#mask0)">
    <rect width="213" height="163" fill="#BFE4FF" />
    <g filter="url(#filter0_d)">
      <path d="M96.5002 120C92.1002 113.2 98.3335 48.1667 102 16.5H113C116.667 48.1667 122.9 113.2 118.5 120H96.5002Z"
        fill="url(#paint0_linear)" />
    </g>
    <g filter="url(#filter1_d)">
      <path
        d="M92.1021 28.8793C91.4307 28.7574 92.7624 25.2425 93.5122 23.5003L97.6697 22.0879C98.6493 23.8551 100.479 27.6261 99.9601 28.5722C99.3119 29.7549 92.9414 29.0317 92.1021 28.8793Z"
        fill="#EDF7FF" />
    </g>
    <g filter="url(#filter2_d)">
      <path
        d="M81.601 26.5268C81.0101 26.1854 83.4501 23.3263 84.744 21.9395L89.1342 22.0134C89.4598 24.0075 89.9089 28.1747 89.1014 28.8903C88.092 29.7847 82.3395 26.9535 81.601 26.5268Z"
        fill="#EDF7FF" />
    </g>
    <g filter="url(#filter3_d)">
      <path
        d="M71.9843 22.7748C71.3934 22.4334 73.8334 19.5744 75.1273 18.1875L79.5176 18.2614C79.8431 20.2556 80.2922 24.4227 79.4847 25.1383C78.4753 26.0328 72.7228 23.2016 71.9843 22.7748Z"
        fill="#EDF7FF" />
    </g>
    <g filter="url(#filter4_d)">
      <path
        d="M62.9843 19.7748C62.3934 19.4334 64.8334 16.5744 66.1273 15.1875L70.5176 15.2614C70.8431 17.2556 71.2922 21.4227 70.4847 22.1383C69.4753 23.0328 63.7228 20.2016 62.9843 19.7748Z"
        fill="#EDF7FF" />
    </g>
    <g filter="url(#filter5_d)">
      <path
        d="M55.9323 13.6192C55.4567 13.1299 58.5827 11.0429 60.2052 10.0605L64.4096 11.3265C64.1801 13.334 63.4781 17.4661 62.5063 17.9349C61.2916 18.5209 56.5268 14.2309 55.9323 13.6192Z"
        fill="#EDF7FF" />
    </g>
    <g filter="url(#filter6_d)">
      <path
        d="M102.144 27.2084C101.483 27.3793 101.218 23.6299 101.169 21.7338L104.351 18.7085C105.981 19.9022 109.223 22.5587 109.149 23.6351C109.056 24.9806 102.969 26.9949 102.144 27.2084Z"
        fill="#EDF7FF" />
    </g>
    <g filter="url(#filter7_d)">
      <path
        d="M59.5001 18.5962C59.1001 18.1962 61.6668 16.4295 63.0001 15.5962L66.5 16.5962C66.3333 18.2629 65.8 21.6962 65 22.0962C64 22.5962 60.0001 19.0962 59.5001 18.5962Z"
        fill="#EDF7FF" />
    </g>
    <g filter="url(#filter8_d)">
      <path
        d="M52.0418 13.0962C51.6418 12.6962 54.2085 10.9295 55.5418 10.0962L59.0417 11.0962C58.8751 12.7629 58.3417 16.1962 57.5417 16.5962C56.5417 17.0962 52.5418 13.5962 52.0418 13.0962Z"
        fill="#EDF7FF" />
    </g>
    <g filter="url(#filter9_d)">
      <path
        d="M68.0532 22.7621C67.5845 22.4454 69.7687 20.2233 70.9195 19.1518L74.5456 19.4687C74.6986 21.1366 74.8273 24.6088 74.1179 25.1535C73.2311 25.8343 68.6391 23.158 68.0532 22.7621Z"
        fill="#EDF7FF" />
    </g>
    <g filter="url(#filter10_d)">
      <path
        d="M87.5056 30.1399C86.961 29.987 88.7456 24.8795 89.5 23.5L92.6293 24.9681C93.3002 26.5029 94.5165 29.7575 94.0149 30.4981C93.3879 31.4237 88.1864 30.3309 87.5056 30.1399Z"
        fill="#EDF7FF" />
    </g>
    <g filter="url(#filter11_d)">
      <path
        d="M76.6285 26.6492C76.1817 26.3023 79.76 22.2444 80.9788 21.251L84 22C84.0428 23.6744 83.2663 28.938 82.5225 29.4348C81.5928 30.0558 77.187 27.0828 76.6285 26.6492Z"
        fill="#EDF7FF" />
    </g>
    <g filter="url(#filter12_d)">
      <path
        d="M99.4896 30.5583C98.933 30.6593 98.9429 27.5434 99.0174 25.9728L101.833 23.6657C103.108 24.7521 105.626 27.146 105.499 28.0314C105.34 29.1381 100.185 30.4322 99.4896 30.5583Z"
        fill="#EDF7FF" />
    </g>
    <g filter="url(#filter13_d)">
      <path
        d="M123.016 28.8793C123.687 28.7574 122.356 25.2425 121.606 23.5003L117.448 22.0879C116.469 23.8551 114.639 27.6261 115.158 28.5722C115.806 29.7549 122.177 29.0317 123.016 28.8793Z"
        fill="#EDF7FF" />
    </g>
    <g filter="url(#filter14_d)">
      <path
        d="M133.517 26.5268C134.108 26.1854 131.668 23.3263 130.374 21.9395L125.984 22.0134C125.658 24.0075 125.209 28.1747 126.017 28.8903C127.026 29.7847 132.779 26.9535 133.517 26.5268Z"
        fill="#EDF7FF" />
    </g>
    <g filter="url(#filter15_d)">
      <path
        d="M143.134 22.7748C143.725 22.4334 141.285 19.5744 139.991 18.1875L135.601 18.2614C135.275 20.2556 134.826 24.4227 135.633 25.1383C136.643 26.0328 142.395 23.2016 143.134 22.7748Z"
        fill="#EDF7FF" />
    </g>
    <g filter="url(#filter16_d)">
      <path
        d="M152.134 19.7748C152.725 19.4334 150.285 16.5744 148.991 15.1875L144.601 15.2614C144.275 17.2556 143.826 21.4227 144.633 22.1383C145.643 23.0328 151.395 20.2016 152.134 19.7748Z"
        fill="#EDF7FF" />
    </g>
    <g filter="url(#filter17_d)">
      <path
        d="M159.186 13.6192C159.661 13.1299 156.535 11.0429 154.913 10.0605L150.709 11.3265C150.938 13.334 151.64 17.4661 152.612 17.9349C153.827 18.5209 158.591 14.2309 159.186 13.6192Z"
        fill="#EDF7FF" />
    </g>
    <g filter="url(#filter18_d)">
      <path
        d="M112.974 27.2084C113.635 27.3793 113.9 23.6299 113.95 21.7338L110.767 18.7085C109.137 19.9022 105.895 22.5587 105.969 23.6351C106.062 24.9806 112.149 26.9949 112.974 27.2084Z"
        fill="#EDF7FF" />
    </g>
    <g filter="url(#filter19_d)">
      <path
        d="M155.618 18.5962C156.018 18.1962 153.451 16.4295 152.118 15.5962L148.618 16.5962C148.785 18.2629 149.318 21.6962 150.118 22.0962C151.118 22.5962 155.118 19.0962 155.618 18.5962Z"
        fill="#EDF7FF" />
    </g>
    <g filter="url(#filter20_d)">
      <path
        d="M163.076 13.0962C163.476 12.6962 160.91 10.9295 159.576 10.0962L156.076 11.0962C156.243 12.7629 156.776 16.1962 157.576 16.5962C158.576 17.0962 162.576 13.5962 163.076 13.0962Z"
        fill="#EDF7FF" />
    </g>
    <g filter="url(#filter21_d)">
      <path
        d="M147.065 22.7621C147.534 22.4454 145.349 20.2233 144.199 19.1518L140.573 19.4687C140.42 21.1366 140.291 24.6088 141 25.1535C141.887 25.8343 146.479 23.158 147.065 22.7621Z"
        fill="#EDF7FF" />
    </g>
    <g filter="url(#filter22_d)">
      <path
        d="M127.613 30.1399C128.157 29.987 126.373 24.8795 125.618 23.5L122.489 24.9681C121.818 26.5029 120.602 29.7575 121.103 30.4981C121.73 31.4237 126.932 30.3309 127.613 30.1399Z"
        fill="#EDF7FF" />
    </g>
    <g filter="url(#filter23_d)">
      <path
        d="M138.49 26.6492C138.936 26.3023 135.358 22.2444 134.139 21.251L131.118 22C131.075 23.6744 131.852 28.938 132.596 29.4348C133.525 30.0558 137.931 27.0828 138.49 26.6492Z"
        fill="#EDF7FF" />
    </g>
    <g filter="url(#filter24_d)">
      <path
        d="M115.629 30.5583C116.185 30.6593 116.175 27.5434 116.101 25.9728L113.285 23.6657C112.01 24.7521 109.492 27.146 109.619 28.0314C109.778 29.1381 114.933 30.4322 115.629 30.5583Z"
        fill="#EDF7FF" />
    </g>
    <g filter="url(#filter25_d)">
      <path d="M159.5 11.5C143.9 20.7 111.5 33 107.5 20.5L109 18L146.5 5.5C150 6.83333 157.5 9.9 159.5 11.5Z"
        fill="#F0F9FF" />
      <path d="M55.5 11.5C71.1 20.7 103.5 33 107.5 20.5L106 18L68.5 5.5C65 6.83333 57.5 9.9 55.5 11.5Z"
        fill="#F0F9FF" />
    </g>
    <g filter="url(#filter26_i)">
      <path
        d="M53.5 66.5C46.3 64.9 35 56.5 32 48.5C31.1667 49 29.4 50.1 29 50.5C29.8 63.7 45 68.3333 52.5 69L53.5 66.5Z"
        fill="#BFE4FF" />
    </g>
    <g filter="url(#filter27_i)">
      <path
        d="M161 66.5C168.2 64.9 179.5 56.5 182.5 48.5C183.333 49 185.1 50.1 185.5 50.5C184.7 63.7 169.5 68.3333 162 69L161 66.5Z"
        fill="#BFE4FF" />
    </g>
    <g filter="url(#filter28_d)">
      <circle cx="107.5" cy="36.5" r="3.5" fill="#F7FCFF" />
    </g>
    <g filter="url(#filter29_d)">
      <circle cx="107.5" cy="55.5" r="3.5" fill="#F7FCFF" />
    </g>
    <g filter="url(#filter30_d)">
      <circle cx="107.5" cy="74.5" r="3.5" fill="#F7FCFF" />
    </g>
    <g filter="url(#filter31_d)">
      <circle cx="107.5" cy="93.5" r="3.5" fill="#F7FCFF" />
    </g>
    <g style="mix-blend-mode:multiply" opacity="0.5" filter="url(#filter32_i)">
      <path
        d="M107 106.5C97.8 106.5 67.1667 105.167 53 104.5L58 116.5H156.5L162 104.5C147.5 105.167 116.2 106.5 107 106.5Z"
        fill="#BFE4FF" />
    </g>
  </g>
  <defs>
    <filter id="filter0_d" x="90.9868" y="12.5" width="33.0266" height="111.5" filterUnits="userSpaceOnUse"
      color-interpolation-filters="sRGB">
      <feFlood flood-opacity="0" result="BackgroundImageFix" />
      <feColorMatrix in="SourceAlpha" type="matrix" values="0 0 0 0 0 0 0 0 0 0 0 0 0 0 0 0 0 0 127 0"
        result="hardAlpha" />
      <feOffset />
      <feGaussianBlur stdDeviation="2" />
      <feColorMatrix type="matrix" values="0 0 0 0 0.662745 0 0 0 0 0.858824 0 0 0 0 1 0 0 0 0.7 0" />
      <feBlend mode="normal" in2="BackgroundImageFix" result="effect1_dropShadow" />
      <feBlend mode="normal" in="SourceGraphic" in2="effect1_dropShadow" result="shape" />
    </filter>
    <filter id="filter1_d" x="88.9187" y="19.0879" width="14.1323" height="13.1497" filterUnits="userSpaceOnUse"
      color-interpolation-filters="sRGB">
      <feFlood flood-opacity="0" result="BackgroundImageFix" />
      <feColorMatrix in="SourceAlpha" type="matrix" values="0 0 0 0 0 0 0 0 0 0 0 0 0 0 0 0 0 0 127 0"
        result="hardAlpha" />
      <feOffset />
      <feGaussianBlur stdDeviation="1.5" />
      <feColorMatrix type="matrix" values="0 0 0 0 0.553681 0 0 0 0 0.806891 0 0 0 0 0.991667 0 0 0 0.4 0" />
      <feBlend mode="normal" in2="BackgroundImageFix" result="effect1_dropShadow" />
      <feBlend mode="normal" in="SourceGraphic" in2="effect1_dropShadow" result="shape" />
    </filter>
    <filter id="filter2_d" x="78.5103" y="18.9395" width="14.0459" height="13.1244" filterUnits="userSpaceOnUse"
      color-interpolation-filters="sRGB">
      <feFlood flood-opacity="0" result="BackgroundImageFix" />
      <feColorMatrix in="SourceAlpha" type="matrix" values="0 0 0 0 0 0 0 0 0 0 0 0 0 0 0 0 0 0 127 0"
        result="hardAlpha" />
      <feOffset />
      <feGaussianBlur stdDeviation="1.5" />
      <feColorMatrix type="matrix" values="0 0 0 0 0.553681 0 0 0 0 0.806891 0 0 0 0 0.991667 0 0 0 0.4 0" />
      <feBlend mode="normal" in2="BackgroundImageFix" result="effect1_dropShadow" />
      <feBlend mode="normal" in="SourceGraphic" in2="effect1_dropShadow" result="shape" />
    </filter>
    <filter id="filter3_d" x="68.8936" y="15.1875" width="14.0459" height="13.1244" filterUnits="userSpaceOnUse"
      color-interpolation-filters="sRGB">
      <feFlood flood-opacity="0" result="BackgroundImageFix" />
      <feColorMatrix in="SourceAlpha" type="matrix" values="0 0 0 0 0 0 0 0 0 0 0 0 0 0 0 0 0 0 127 0"
        result="hardAlpha" />
      <feOffset />
      <feGaussianBlur stdDeviation="1.5" />
      <feColorMatrix type="matrix" values="0 0 0 0 0.553681 0 0 0 0 0.806891 0 0 0 0 0.991667 0 0 0 0.4 0" />
      <feBlend mode="normal" in2="BackgroundImageFix" result="effect1_dropShadow" />
      <feBlend mode="normal" in="SourceGraphic" in2="effect1_dropShadow" result="shape" />
    </filter>
    <filter id="filter4_d" x="59.8936" y="12.1875" width="14.0459" height="13.1244" filterUnits="userSpaceOnUse"
      color-interpolation-filters="sRGB">
      <feFlood flood-opacity="0" result="BackgroundImageFix" />
      <feColorMatrix in="SourceAlpha" type="matrix" values="0 0 0 0 0 0 0 0 0 0 0 0 0 0 0 0 0 0 127 0"
        result="hardAlpha" />
      <feOffset />
      <feGaussianBlur stdDeviation="1.5" />
      <feColorMatrix type="matrix" values="0 0 0 0 0.553681 0 0 0 0 0.806891 0 0 0 0 0.991667 0 0 0 0.4 0" />
      <feBlend mode="normal" in2="BackgroundImageFix" result="effect1_dropShadow" />
      <feBlend mode="normal" in="SourceGraphic" in2="effect1_dropShadow" result="shape" />
    </filter>
    <filter id="filter5_d" x="52.8835" y="7.06053" width="14.5261" height="13.9292" filterUnits="userSpaceOnUse"
      color-interpolation-filters="sRGB">
      <feFlood flood-opacity="0" result="BackgroundImageFix" />
      <feColorMatrix in="SourceAlpha" type="matrix" values="0 0 0 0 0 0 0 0 0 0 0 0 0 0 0 0 0 0 127 0"
        result="hardAlpha" />
      <feOffset />
      <feGaussianBlur stdDeviation="1.5" />
      <feColorMatrix type="matrix" values="0 0 0 0 0.553681 0 0 0 0 0.806891 0 0 0 0 0.991667 0 0 0 0.4 0" />
      <feBlend mode="normal" in2="BackgroundImageFix" result="effect1_dropShadow" />
      <feBlend mode="normal" in="SourceGraphic" in2="effect1_dropShadow" result="shape" />
    </filter>
    <filter id="filter6_d" x="98.1687" y="15.7085" width="13.9814" height="14.5056" filterUnits="userSpaceOnUse"
      color-interpolation-filters="sRGB">
      <feFlood flood-opacity="0" result="BackgroundImageFix" />
      <feColorMatrix in="SourceAlpha" type="matrix" values="0 0 0 0 0 0 0 0 0 0 0 0 0 0 0 0 0 0 127 0"
        result="hardAlpha" />
      <feOffset />
      <feGaussianBlur stdDeviation="1.5" />
      <feColorMatrix type="matrix" values="0 0 0 0 0.553681 0 0 0 0 0.806891 0 0 0 0 0.991667 0 0 0 0.4 0" />
      <feBlend mode="normal" in2="BackgroundImageFix" result="effect1_dropShadow" />
      <feBlend mode="normal" in="SourceGraphic" in2="effect1_dropShadow" result="shape" />
    </filter>
    <filter id="filter7_d" x="56.4583" y="12.5962" width="13.0417" height="12.5487" filterUnits="userSpaceOnUse"
      color-interpolation-filters="sRGB">
      <feFlood flood-opacity="0" result="BackgroundImageFix" />
      <feColorMatrix in="SourceAlpha" type="matrix" values="0 0 0 0 0 0 0 0 0 0 0 0 0 0 0 0 0 0 127 0"
        result="hardAlpha" />
      <feOffset />
      <feGaussianBlur stdDeviation="1.5" />
      <feColorMatrix type="matrix" values="0 0 0 0 0.553681 0 0 0 0 0.806891 0 0 0 0 0.991667 0 0 0 0.4 0" />
      <feBlend mode="normal" in2="BackgroundImageFix" result="effect1_dropShadow" />
      <feBlend mode="normal" in="SourceGraphic" in2="effect1_dropShadow" result="shape" />
    </filter>
    <filter id="filter8_d" x="49" y="7.09619" width="13.0417" height="12.5487" filterUnits="userSpaceOnUse"
      color-interpolation-filters="sRGB">
      <feFlood flood-opacity="0" result="BackgroundImageFix" />
      <feColorMatrix in="SourceAlpha" type="matrix" values="0 0 0 0 0 0 0 0 0 0 0 0 0 0 0 0 0 0 127 0"
        result="hardAlpha" />
      <feOffset />
      <feGaussianBlur stdDeviation="1.5" />
      <feColorMatrix type="matrix" values="0 0 0 0 0.553681 0 0 0 0 0.806891 0 0 0 0 0.991667 0 0 0 0.4 0" />
      <feBlend mode="normal" in2="BackgroundImageFix" result="effect1_dropShadow" />
      <feBlend mode="normal" in="SourceGraphic" in2="effect1_dropShadow" result="shape" />
    </filter>
    <filter id="filter9_d" x="64.9883" y="16.1518" width="12.6772" height="12.112" filterUnits="userSpaceOnUse"
      color-interpolation-filters="sRGB">
      <feFlood flood-opacity="0" result="BackgroundImageFix" />
      <feColorMatrix in="SourceAlpha" type="matrix" values="0 0 0 0 0 0 0 0 0 0 0 0 0 0 0 0 0 0 127 0"
        result="hardAlpha" />
      <feOffset />
      <feGaussianBlur stdDeviation="1.5" />
      <feColorMatrix type="matrix" values="0 0 0 0 0.553681 0 0 0 0 0.806891 0 0 0 0 0.991667 0 0 0 0.4 0" />
      <feBlend mode="normal" in2="BackgroundImageFix" result="effect1_dropShadow" />
      <feBlend mode="normal" in="SourceGraphic" in2="effect1_dropShadow" result="shape" />
    </filter>
    <filter id="filter10_d" x="84.4038" y="20.5" width="12.7292" height="13.3654" filterUnits="userSpaceOnUse"
      color-interpolation-filters="sRGB">
      <feFlood flood-opacity="0" result="BackgroundImageFix" />
      <feColorMatrix in="SourceAlpha" type="matrix" values="0 0 0 0 0 0 0 0 0 0 0 0 0 0 0 0 0 0 127 0"
        result="hardAlpha" />
      <feOffset />
      <feGaussianBlur stdDeviation="1.5" />
      <feColorMatrix type="matrix" values="0 0 0 0 0.553681 0 0 0 0 0.806891 0 0 0 0 0.991667 0 0 0 0.4 0" />
      <feBlend mode="normal" in2="BackgroundImageFix" result="effect1_dropShadow" />
      <feBlend mode="normal" in="SourceGraphic" in2="effect1_dropShadow" result="shape" />
    </filter>
    <filter id="filter11_d" x="73.5901" y="18.251" width="13.4116" height="14.2687" filterUnits="userSpaceOnUse"
      color-interpolation-filters="sRGB">
      <feFlood flood-opacity="0" result="BackgroundImageFix" />
      <feColorMatrix in="SourceAlpha" type="matrix" values="0 0 0 0 0 0 0 0 0 0 0 0 0 0 0 0 0 0 127 0"
        result="hardAlpha" />
      <feOffset />
      <feGaussianBlur stdDeviation="1.5" />
      <feColorMatrix type="matrix" values="0 0 0 0 0.553681 0 0 0 0 0.806891 0 0 0 0 0.991667 0 0 0 0.4 0" />
      <feBlend mode="normal" in2="BackgroundImageFix" result="effect1_dropShadow" />
      <feBlend mode="normal" in="SourceGraphic" in2="effect1_dropShadow" result="shape" />
    </filter>
    <filter id="filter12_d" x="95.981" y="20.6657" width="12.5227" height="12.895" filterUnits="userSpaceOnUse"
      color-interpolation-filters="sRGB">
      <feFlood flood-opacity="0" result="BackgroundImageFix" />
      <feColorMatrix in="SourceAlpha" type="matrix" values="0 0 0 0 0 0 0 0 0 0 0 0 0 0 0 0 0 0 127 0"
        result="hardAlpha" />
      <feOffset />
      <feGaussianBlur stdDeviation="1.5" />
      <feColorMatrix type="matrix" values="0 0 0 0 0.553681 0 0 0 0 0.806891 0 0 0 0 0.991667 0 0 0 0.4 0" />
      <feBlend mode="normal" in2="BackgroundImageFix" result="effect1_dropShadow" />
      <feBlend mode="normal" in="SourceGraphic" in2="effect1_dropShadow" result="shape" />
    </filter>
    <filter id="filter13_d" x="112.067" y="19.0879" width="14.1323" height="13.1497" filterUnits="userSpaceOnUse"
      color-interpolation-filters="sRGB">
      <feFlood flood-opacity="0" result="BackgroundImageFix" />
      <feColorMatrix in="SourceAlpha" type="matrix" values="0 0 0 0 0 0 0 0 0 0 0 0 0 0 0 0 0 0 127 0"
        result="hardAlpha" />
      <feOffset />
      <feGaussianBlur stdDeviation="1.5" />
      <feColorMatrix type="matrix" values="0 0 0 0 0.553681 0 0 0 0 0.806891 0 0 0 0 0.991667 0 0 0 0.4 0" />
      <feBlend mode="normal" in2="BackgroundImageFix" result="effect1_dropShadow" />
      <feBlend mode="normal" in="SourceGraphic" in2="effect1_dropShadow" result="shape" />
    </filter>
    <filter id="filter14_d" x="122.562" y="18.9395" width="14.0459" height="13.1244" filterUnits="userSpaceOnUse"
      color-interpolation-filters="sRGB">
      <feFlood flood-opacity="0" result="BackgroundImageFix" />
      <feColorMatrix in="SourceAlpha" type="matrix" values="0 0 0 0 0 0 0 0 0 0 0 0 0 0 0 0 0 0 127 0"
        result="hardAlpha" />
      <feOffset />
      <feGaussianBlur stdDeviation="1.5" />
      <feColorMatrix type="matrix" values="0 0 0 0 0.553681 0 0 0 0 0.806891 0 0 0 0 0.991667 0 0 0 0.4 0" />
      <feBlend mode="normal" in2="BackgroundImageFix" result="effect1_dropShadow" />
      <feBlend mode="normal" in="SourceGraphic" in2="effect1_dropShadow" result="shape" />
    </filter>
    <filter id="filter15_d" x="132.179" y="15.1875" width="14.0459" height="13.1244" filterUnits="userSpaceOnUse"
      color-interpolation-filters="sRGB">
      <feFlood flood-opacity="0" result="BackgroundImageFix" />
      <feColorMatrix in="SourceAlpha" type="matrix" values="0 0 0 0 0 0 0 0 0 0 0 0 0 0 0 0 0 0 127 0"
        result="hardAlpha" />
      <feOffset />
      <feGaussianBlur stdDeviation="1.5" />
      <feColorMatrix type="matrix" values="0 0 0 0 0.553681 0 0 0 0 0.806891 0 0 0 0 0.991667 0 0 0 0.4 0" />
      <feBlend mode="normal" in2="BackgroundImageFix" result="effect1_dropShadow" />
      <feBlend mode="normal" in="SourceGraphic" in2="effect1_dropShadow" result="shape" />
    </filter>
    <filter id="filter16_d" x="141.179" y="12.1875" width="14.0459" height="13.1244" filterUnits="userSpaceOnUse"
      color-interpolation-filters="sRGB">
      <feFlood flood-opacity="0" result="BackgroundImageFix" />
      <feColorMatrix in="SourceAlpha" type="matrix" values="0 0 0 0 0 0 0 0 0 0 0 0 0 0 0 0 0 0 127 0"
        result="hardAlpha" />
      <feOffset />
      <feGaussianBlur stdDeviation="1.5" />
      <feColorMatrix type="matrix" values="0 0 0 0 0.553681 0 0 0 0 0.806891 0 0 0 0 0.991667 0 0 0 0.4 0" />
      <feBlend mode="normal" in2="BackgroundImageFix" result="effect1_dropShadow" />
      <feBlend mode="normal" in="SourceGraphic" in2="effect1_dropShadow" result="shape" />
    </filter>
    <filter id="filter17_d" x="147.708" y="7.06053" width="14.5261" height="13.9292" filterUnits="userSpaceOnUse"
      color-interpolation-filters="sRGB">
      <feFlood flood-opacity="0" result="BackgroundImageFix" />
      <feColorMatrix in="SourceAlpha" type="matrix" values="0 0 0 0 0 0 0 0 0 0 0 0 0 0 0 0 0 0 127 0"
        result="hardAlpha" />
      <feOffset />
      <feGaussianBlur stdDeviation="1.5" />
      <feColorMatrix type="matrix" values="0 0 0 0 0.553681 0 0 0 0 0.806891 0 0 0 0 0.991667 0 0 0 0.4 0" />
      <feBlend mode="normal" in2="BackgroundImageFix" result="effect1_dropShadow" />
      <feBlend mode="normal" in="SourceGraphic" in2="effect1_dropShadow" result="shape" />
    </filter>
    <filter id="filter18_d" x="102.968" y="15.7085" width="13.9814" height="14.5056" filterUnits="userSpaceOnUse"
      color-interpolation-filters="sRGB">
      <feFlood flood-opacity="0" result="BackgroundImageFix" />
      <feColorMatrix in="SourceAlpha" type="matrix" values="0 0 0 0 0 0 0 0 0 0 0 0 0 0 0 0 0 0 127 0"
        result="hardAlpha" />
      <feOffset />
      <feGaussianBlur stdDeviation="1.5" />
      <feColorMatrix type="matrix" values="0 0 0 0 0.553681 0 0 0 0 0.806891 0 0 0 0 0.991667 0 0 0 0.4 0" />
      <feBlend mode="normal" in2="BackgroundImageFix" result="effect1_dropShadow" />
      <feBlend mode="normal" in="SourceGraphic" in2="effect1_dropShadow" result="shape" />
    </filter>
    <filter id="filter19_d" x="145.618" y="12.5962" width="13.0417" height="12.5487" filterUnits="userSpaceOnUse"
      color-interpolation-filters="sRGB">
      <feFlood flood-opacity="0" result="BackgroundImageFix" />
      <feColorMatrix in="SourceAlpha" type="matrix" values="0 0 0 0 0 0 0 0 0 0 0 0 0 0 0 0 0 0 127 0"
        result="hardAlpha" />
      <feOffset />
      <feGaussianBlur stdDeviation="1.5" />
      <feColorMatrix type="matrix" values="0 0 0 0 0.553681 0 0 0 0 0.806891 0 0 0 0 0.991667 0 0 0 0.4 0" />
      <feBlend mode="normal" in2="BackgroundImageFix" result="effect1_dropShadow" />
      <feBlend mode="normal" in="SourceGraphic" in2="effect1_dropShadow" result="shape" />
    </filter>
    <filter id="filter20_d" x="153.076" y="7.09619" width="13.0417" height="12.5487" filterUnits="userSpaceOnUse"
      color-interpolation-filters="sRGB">
      <feFlood flood-opacity="0" result="BackgroundImageFix" />
      <feColorMatrix in="SourceAlpha" type="matrix" values="0 0 0 0 0 0 0 0 0 0 0 0 0 0 0 0 0 0 127 0"
        result="hardAlpha" />
      <feOffset />
      <feGaussianBlur stdDeviation="1.5" />
      <feColorMatrix type="matrix" values="0 0 0 0 0.553681 0 0 0 0 0.806891 0 0 0 0 0.991667 0 0 0 0.4 0" />
      <feBlend mode="normal" in2="BackgroundImageFix" result="effect1_dropShadow" />
      <feBlend mode="normal" in="SourceGraphic" in2="effect1_dropShadow" result="shape" />
    </filter>
    <filter id="filter21_d" x="137.453" y="16.1518" width="12.6772" height="12.112" filterUnits="userSpaceOnUse"
      color-interpolation-filters="sRGB">
      <feFlood flood-opacity="0" result="BackgroundImageFix" />
      <feColorMatrix in="SourceAlpha" type="matrix" values="0 0 0 0 0 0 0 0 0 0 0 0 0 0 0 0 0 0 127 0"
        result="hardAlpha" />
      <feOffset />
      <feGaussianBlur stdDeviation="1.5" />
      <feColorMatrix type="matrix" values="0 0 0 0 0.553681 0 0 0 0 0.806891 0 0 0 0 0.991667 0 0 0 0.4 0" />
      <feBlend mode="normal" in2="BackgroundImageFix" result="effect1_dropShadow" />
      <feBlend mode="normal" in="SourceGraphic" in2="effect1_dropShadow" result="shape" />
    </filter>
    <filter id="filter22_d" x="117.985" y="20.5" width="12.7292" height="13.3654" filterUnits="userSpaceOnUse"
      color-interpolation-filters="sRGB">
      <feFlood flood-opacity="0" result="BackgroundImageFix" />
      <feColorMatrix in="SourceAlpha" type="matrix" values="0 0 0 0 0 0 0 0 0 0 0 0 0 0 0 0 0 0 127 0"
        result="hardAlpha" />
      <feOffset />
      <feGaussianBlur stdDeviation="1.5" />
      <feColorMatrix type="matrix" values="0 0 0 0 0.553681 0 0 0 0 0.806891 0 0 0 0 0.991667 0 0 0 0.4 0" />
      <feBlend mode="normal" in2="BackgroundImageFix" result="effect1_dropShadow" />
      <feBlend mode="normal" in="SourceGraphic" in2="effect1_dropShadow" result="shape" />
    </filter>
    <filter id="filter23_d" x="128.116" y="18.251" width="13.4116" height="14.2687" filterUnits="userSpaceOnUse"
      color-interpolation-filters="sRGB">
      <feFlood flood-opacity="0" result="BackgroundImageFix" />
      <feColorMatrix in="SourceAlpha" type="matrix" values="0 0 0 0 0 0 0 0 0 0 0 0 0 0 0 0 0 0 127 0"
        result="hardAlpha" />
      <feOffset />
      <feGaussianBlur stdDeviation="1.5" />
      <feColorMatrix type="matrix" values="0 0 0 0 0.553681 0 0 0 0 0.806891 0 0 0 0 0.991667 0 0 0 0.4 0" />
      <feBlend mode="normal" in2="BackgroundImageFix" result="effect1_dropShadow" />
      <feBlend mode="normal" in="SourceGraphic" in2="effect1_dropShadow" result="shape" />
    </filter>
    <filter id="filter24_d" x="106.615" y="20.6657" width="12.5227" height="12.895" filterUnits="userSpaceOnUse"
      color-interpolation-filters="sRGB">
      <feFlood flood-opacity="0" result="BackgroundImageFix" />
      <feColorMatrix in="SourceAlpha" type="matrix" values="0 0 0 0 0 0 0 0 0 0 0 0 0 0 0 0 0 0 127 0"
        result="hardAlpha" />
      <feOffset />
      <feGaussianBlur stdDeviation="1.5" />
      <feColorMatrix type="matrix" values="0 0 0 0 0.553681 0 0 0 0 0.806891 0 0 0 0 0.991667 0 0 0 0.4 0" />
      <feBlend mode="normal" in2="BackgroundImageFix" result="effect1_dropShadow" />
      <feBlend mode="normal" in="SourceGraphic" in2="effect1_dropShadow" result="shape" />
    </filter>
    <filter id="filter25_d" x="52.5" y="3.5" width="110" height="26.3081" filterUnits="userSpaceOnUse"
      color-interpolation-filters="sRGB">
      <feFlood flood-opacity="0" result="BackgroundImageFix" />
      <feColorMatrix in="SourceAlpha" type="matrix" values="0 0 0 0 0 0 0 0 0 0 0 0 0 0 0 0 0 0 127 0"
        result="hardAlpha" />
      <feOffset dy="1" />
      <feGaussianBlur stdDeviation="1.5" />
      <feColorMatrix type="matrix" values="0 0 0 0 0.6625 0 0 0 0 0.858371 0 0 0 0 1 0 0 0 0.4 0" />
      <feBlend mode="normal" in2="BackgroundImageFix" result="effect1_dropShadow" />
      <feBlend mode="normal" in="SourceGraphic" in2="effect1_dropShadow" result="shape" />
    </filter>
    <filter id="filter26_i" x="29" y="48.5" width="24.5" height="20.5" filterUnits="userSpaceOnUse"
      color-interpolation-filters="sRGB">
      <feFlood flood-opacity="0" result="BackgroundImageFix" />
      <feBlend mode="normal" in="SourceGraphic" in2="BackgroundImageFix" result="shape" />
      <feColorMatrix in="SourceAlpha" type="matrix" values="0 0 0 0 0 0 0 0 0 0 0 0 0 0 0 0 0 0 127 0"
        result="hardAlpha" />
      <feOffset />
      <feGaussianBlur stdDeviation="2" />
      <feComposite in2="hardAlpha" operator="arithmetic" k2="-1" k3="1" />
      <feColorMatrix type="matrix" values="0 0 0 0 0.546701 0 0 0 0 0.798135 0 0 0 0 0.979167 0 0 0 0.7 0" />
      <feBlend mode="normal" in2="shape" result="effect1_innerShadow" />
    </filter>
    <filter id="filter27_i" x="161" y="48.5" width="24.5" height="20.5" filterUnits="userSpaceOnUse"
      color-interpolation-filters="sRGB">
      <feFlood flood-opacity="0" result="BackgroundImageFix" />
      <feBlend mode="normal" in="SourceGraphic" in2="BackgroundImageFix" result="shape" />
      <feColorMatrix in="SourceAlpha" type="matrix" values="0 0 0 0 0 0 0 0 0 0 0 0 0 0 0 0 0 0 127 0"
        result="hardAlpha" />
      <feOffset />
      <feGaussianBlur stdDeviation="2" />
      <feComposite in2="hardAlpha" operator="arithmetic" k2="-1" k3="1" />
      <feColorMatrix type="matrix" values="0 0 0 0 0.546701 0 0 0 0 0.798135 0 0 0 0 0.979167 0 0 0 0.7 0" />
      <feBlend mode="normal" in2="shape" result="effect1_innerShadow" />
    </filter>
    <filter id="filter28_d" x="103" y="32" width="11" height="11" filterUnits="userSpaceOnUse"
      color-interpolation-filters="sRGB">
      <feFlood flood-opacity="0" result="BackgroundImageFix" />
      <feColorMatrix in="SourceAlpha" type="matrix" values="0 0 0 0 0 0 0 0 0 0 0 0 0 0 0 0 0 0 127 0"
        result="hardAlpha" />
      <feOffset dx="1" dy="1" />
      <feGaussianBlur stdDeviation="1" />
      <feColorMatrix type="matrix" values="0 0 0 0 0.63375 0 0 0 0 0.831035 0 0 0 0 0.975 0 0 0 0.6 0" />
      <feBlend mode="normal" in2="BackgroundImageFix" result="effect1_dropShadow" />
      <feBlend mode="normal" in="SourceGraphic" in2="effect1_dropShadow" result="shape" />
    </filter>
    <filter id="filter29_d" x="103" y="51" width="11" height="11" filterUnits="userSpaceOnUse"
      color-interpolation-filters="sRGB">
      <feFlood flood-opacity="0" result="BackgroundImageFix" />
      <feColorMatrix in="SourceAlpha" type="matrix" values="0 0 0 0 0 0 0 0 0 0 0 0 0 0 0 0 0 0 127 0"
        result="hardAlpha" />
      <feOffset dx="1" dy="1" />
      <feGaussianBlur stdDeviation="1" />
      <feColorMatrix type="matrix" values="0 0 0 0 0.63375 0 0 0 0 0.831035 0 0 0 0 0.975 0 0 0 0.6 0" />
      <feBlend mode="normal" in2="BackgroundImageFix" result="effect1_dropShadow" />
      <feBlend mode="normal" in="SourceGraphic" in2="effect1_dropShadow" result="shape" />
    </filter>
    <filter id="filter30_d" x="103" y="70" width="11" height="11" filterUnits="userSpaceOnUse"
      color-interpolation-filters="sRGB">
      <feFlood flood-opacity="0" result="BackgroundImageFix" />
      <feColorMatrix in="SourceAlpha" type="matrix" values="0 0 0 0 0 0 0 0 0 0 0 0 0 0 0 0 0 0 127 0"
        result="hardAlpha" />
      <feOffset dx="1" dy="1" />
      <feGaussianBlur stdDeviation="1" />
      <feColorMatrix type="matrix" values="0 0 0 0 0.63375 0 0 0 0 0.831035 0 0 0 0 0.975 0 0 0 0.6 0" />
      <feBlend mode="normal" in2="BackgroundImageFix" result="effect1_dropShadow" />
      <feBlend mode="normal" in="SourceGraphic" in2="effect1_dropShadow" result="shape" />
    </filter>
    <filter id="filter31_d" x="103" y="89" width="11" height="11" filterUnits="userSpaceOnUse"
      color-interpolation-filters="sRGB">
      <feFlood flood-opacity="0" result="BackgroundImageFix" />
      <feColorMatrix in="SourceAlpha" type="matrix" values="0 0 0 0 0 0 0 0 0 0 0 0 0 0 0 0 0 0 127 0"
        result="hardAlpha" />
      <feOffset dx="1" dy="1" />
      <feGaussianBlur stdDeviation="1" />
      <feColorMatrix type="matrix" values="0 0 0 0 0.63375 0 0 0 0 0.831035 0 0 0 0 0.975 0 0 0 0.6 0" />
      <feBlend mode="normal" in2="BackgroundImageFix" result="effect1_dropShadow" />
      <feBlend mode="normal" in="SourceGraphic" in2="effect1_dropShadow" result="shape" />
    </filter>
    <filter id="filter32_i" x="53" y="104.5" width="109" height="16" filterUnits="userSpaceOnUse"
      color-interpolation-filters="sRGB">
      <feFlood flood-opacity="0" result="BackgroundImageFix" />
      <feBlend mode="normal" in="SourceGraphic" in2="BackgroundImageFix" result="shape" />
      <feColorMatrix in="SourceAlpha" type="matrix" values="0 0 0 0 0 0 0 0 0 0 0 0 0 0 0 0 0 0 127 0"
        result="hardAlpha" />
      <feOffset dy="4" />
      <feGaussianBlur stdDeviation="2" />
      <feComposite in2="hardAlpha" operator="arithmetic" k2="-1" k3="1" />
      <feColorMatrix type="matrix" values="0 0 0 0 0.654167 0 0 0 0 0.854102 0 0 0 0 1 0 0 0 0.7 0" />
      <feBlend mode="normal" in2="shape" result="effect1_innerShadow" />
    </filter>
    <linearGradient id="paint0_linear" x1="107.5" y1="16.5" x2="107.5" y2="120" gradientUnits="userSpaceOnUse">
      <stop stop-color="#D5EEFF" />
      <stop offset="1" stop-color="#F0F9FF" />
    </linearGradient>
  </defs>
</svg>
