<svg width="134" height="59" viewBox="0 0 134 59" fill="none" xmlns="http://www.w3.org/2000/svg">
  <path fill-rule="evenodd"
    d="M33 44C40.1797 44 46 38.1797 46 31C46 29.9904 45.8849 29.0076 45.6671 28.0641C42.3311 25.0661 35.8407 21 27.7971 21C26.6421 21 25.5134 21.0838 24.4166 21.2363C21.7088 23.6187 20 27.1098 20 31C20 38.1797 25.8203 44 33 44Z"
    fill="black" />
  <path d="M7 29C9.77295 26 17.8145 20 27.7971 20C37.7797 20 45.4251 26 48 29" stroke="#8C501D" stroke-width="4"
    stroke-linecap="round" />
  <path fill-rule="evenodd"
    d="M112 44C119.18 44 125 38.1797 125 31C125 29.9904 124.885 29.0076 124.667 28.0641C121.331 25.0661 114.841 21 106.797 21C105.642 21 104.513 21.0838 103.417 21.2363C100.709 23.6187 99 27.1098 99 31C99 38.1797 104.82 44 112 44Z"
    fill="black" />
  <path d="M86 29C88.7729 26 96.8145 20 106.797 20C116.78 20 124.425 26 127 29" stroke="#8C501D" stroke-width="4"
    stroke-linecap="round" />
  <path d="M6.5 29C5.5 28.8333 3.4 27.8 3 25" stroke="#8C501D" stroke-width="4" stroke-linecap="round" />
  <path d="M127 29C128 28.8333 130.1 27.8 130.5 25" stroke="#8C501D" stroke-width="4" stroke-linecap="round" />
</svg>
