<svg width="213" height="163" viewBox="0 0 213 163" fill="none" xmlns="http://www.w3.org/2000/svg">
  <mask id="mask0" style="mask-type: alpha" maskUnits="userSpaceOnUse" x="3" y="10" width="209" height="154">
    <path
      d="M41 38.3815C51.1212 25.5 71 10.8815 82.5 10.8815C88.6667 13.3815 93 17.5 107.5 17.5C122 17.5 126.333 13.3815 132.5 10.8815C144 10.8815 164.665 26.5 174 38.3815C185 52.3815 209.5 80 211.5 82C210.5 84.1667 207.6 89.2 204 92C200.4 94.8 189.5 102.5 187 102.5C177.167 89 156.7 61.7 153.5 60.5C159 92 170 156.7 170 163.5H45.5C44.7 155.9 55.8333 91.6667 61.5 60.5C58.3 61.7 37.8333 89 28 102.5C25.5 102.5 14.6 94.8 11 92C7.4 89.2 4.5 84.1667 3.5 82C5.5 80 30 52.3815 41 38.3815Z"
      fill="black"
    />
  </mask>
  <g mask="url(#mask0)">
    <rect width="213" height="163" fill="#FFA63E" />
  </g>
</svg>
