<svg width="213" height="164" viewBox="0 0 213 164" fill="none" xmlns="http://www.w3.org/2000/svg">
  <mask id="mask0" style="mask-type: alpha" maskUnits="userSpaceOnUse" x="3" y="10" width="209" height="154">
    <path
      d="M41 38.3815C51.1212 25.5 71 10.8815 82.5 10.8815C88.6667 13.3815 93 17.5 107.5 17.5C122 17.5 126.333 13.3815 132.5 10.8815C144 10.8815 164.665 26.5 174 38.3815C185 52.3815 209.5 80 211.5 82C210.5 84.1667 207.6 89.2 204 92C200.4 94.8 189.5 102.5 187 102.5C177.167 89 156.7 61.7 153.5 60.5C159 92 170 156.7 170 163.5H139.5C136 156.667 128 140.5 124 130.5H90.5C86.5 140.5 78.5 156.667 75 163.5H45.5C44.7 155.9 55.8333 91.6667 61.5 60.5C58.3 61.7 37.8333 89 28 102.5C25.5 102.5 14.6 94.8 11 92C7.4 89.2 4.5 84.1667 3.5 82C5.5 80 30 52.3815 41 38.3815Z"
      fill="black"
    />
  </mask>
  <g mask="url(#mask0)">
    <rect width="213" height="163" fill="#FFE3BA" />
    <g filter="url(#filter0_f)">
      <path
        d="M98.7993 41.3603C100.143 35.4967 93.7616 38.5098 91.6625 41.3602C90.5848 42.8238 90.4833 44 91.2427 46.2467C95.6087 48.8528 98.0996 44.075 98.7993 41.3603Z"
        fill="#FFEBCD"
      />
      <path
        d="M89.3208 41.3603C87.2217 38.5098 80.8407 35.4967 82.184 41.3603C82.8837 44.075 85.3746 48.8528 89.7406 46.2467C90.5 44 90.3985 42.8238 89.3208 41.3603Z"
        fill="#FFEBCD"
      />
      <path
        d="M98.7993 32.3603C100.143 26.4967 93.7616 29.5098 91.6625 32.3602C90.5848 33.8238 90.4833 35 91.2427 37.2467C95.6087 39.8528 98.0996 35.075 98.7993 32.3603Z"
        fill="#FFEBCD"
      />
      <path
        d="M89.3208 32.3603C87.2217 29.5098 80.8407 26.4967 82.184 32.3603C82.8837 35.075 85.3746 39.8528 89.7406 37.2467C90.5 35 90.3985 33.8238 89.3208 32.3603Z"
        fill="#FFEBCD"
      />
      <path
        d="M98.7993 23.3603C100.143 17.4967 93.7616 20.5098 91.6625 23.3602C90.5848 24.8238 90.4833 26 91.2427 28.2467C95.6087 30.8528 98.0996 26.075 98.7993 23.3603Z"
        fill="#FFEBCD"
      />
      <path
        d="M89.3208 23.3603C87.2217 20.5098 80.8407 17.4967 82.184 23.3603C82.8837 26.075 85.3746 30.8528 89.7406 28.2467C90.5 26 90.3985 24.8238 89.3208 23.3603Z"
        fill="#FFEBCD"
      />
      <path
        d="M98.7993 14.3603C100.143 8.4967 93.7616 11.5098 91.6625 14.3602C90.5848 15.8238 90.4833 17 91.2427 19.2467C95.6087 21.8528 98.0996 17.075 98.7993 14.3603Z"
        fill="#FFEBCD"
      />
      <path
        d="M89.3208 14.3603C87.2217 11.5098 80.8407 8.49673 82.184 14.3603C82.8837 17.075 85.3746 21.8528 89.7406 19.2467C90.5 17 90.3985 15.8238 89.3208 14.3603Z"
        fill="#FFEBCD"
      />
      <path
        d="M98.7993 50.3603C100.143 44.4967 93.7616 47.5098 91.6625 50.3602C90.5848 51.8238 90.4833 53 91.2427 55.2467C95.6087 57.8528 98.0996 53.075 98.7993 50.3603Z"
        fill="#FFEBCD"
      />
      <path
        d="M89.3208 50.3603C87.2217 47.5098 80.8407 44.4967 82.184 50.3603C82.8837 53.075 85.3746 57.8528 89.7406 55.2467C90.5 53 90.3985 51.8238 89.3208 50.3603Z"
        fill="#FFEBCD"
      />
      <path
        d="M98.7993 59.3603C100.143 53.4967 93.7616 56.5098 91.6625 59.3602C90.5848 60.8238 90.4833 62 91.2427 64.2467C95.6087 66.8528 98.0996 62.075 98.7993 59.3603Z"
        fill="#FFEBCD"
      />
      <path
        d="M89.3208 59.3603C87.2217 56.5098 80.8407 53.4967 82.184 59.3603C82.8837 62.075 85.3746 66.8528 89.7406 64.2467C90.5 62 90.3985 60.8238 89.3208 59.3603Z"
        fill="#FFEBCD"
      />
      <path
        d="M98.7993 68.3603C100.143 62.4967 93.7616 65.5098 91.6625 68.3602C90.5848 69.8238 90.4833 71 91.2427 73.2467C95.6087 75.8528 98.0996 71.075 98.7993 68.3603Z"
        fill="#FFEBCD"
      />
      <path
        d="M89.3208 68.3603C87.2217 65.5098 80.8407 62.4967 82.184 68.3603C82.8837 71.075 85.3746 75.8528 89.7406 73.2467C90.5 71 90.3985 69.8238 89.3208 68.3603Z"
        fill="#FFEBCD"
      />
      <path
        d="M116.799 41.3603C118.143 35.4967 111.762 38.5098 109.663 41.3602C108.585 42.8238 108.483 44 109.243 46.2467C113.609 48.8528 116.1 44.075 116.799 41.3603Z"
        fill="#FFEBCD"
      />
      <path
        d="M107.321 41.3603C105.222 38.5098 98.8407 35.4967 100.184 41.3603C100.884 44.075 103.375 48.8528 107.741 46.2467C108.5 44 108.399 42.8238 107.321 41.3603Z"
        fill="#FFEBCD"
      />
      <path
        d="M116.799 32.3603C118.143 26.4967 111.762 29.5098 109.663 32.3602C108.585 33.8238 108.483 35 109.243 37.2467C113.609 39.8528 116.1 35.075 116.799 32.3603Z"
        fill="#FFEBCD"
      />
      <path
        d="M107.321 32.3603C105.222 29.5098 98.8407 26.4967 100.184 32.3603C100.884 35.075 103.375 39.8528 107.741 37.2467C108.5 35 108.399 33.8238 107.321 32.3603Z"
        fill="#FFEBCD"
      />
      <path
        d="M116.799 23.3603C118.143 17.4967 111.762 20.5098 109.663 23.3602C108.585 24.8238 108.483 26 109.243 28.2467C113.609 30.8528 116.1 26.075 116.799 23.3603Z"
        fill="#FFEBCD"
      />
      <path
        d="M107.321 23.3603C105.222 20.5098 98.8407 17.4967 100.184 23.3603C100.884 26.075 103.375 30.8528 107.741 28.2467C108.5 26 108.399 24.8238 107.321 23.3603Z"
        fill="#FFEBCD"
      />
      <path
        d="M116.799 14.3603C118.143 8.4967 111.762 11.5098 109.663 14.3602C108.585 15.8238 108.483 17 109.243 19.2467C113.609 21.8528 116.1 17.075 116.799 14.3603Z"
        fill="#FFEBCD"
      />
      <path
        d="M107.321 14.3603C105.222 11.5098 98.8407 8.49673 100.184 14.3603C100.884 17.075 103.375 21.8528 107.741 19.2467C108.5 17 108.399 15.8238 107.321 14.3603Z"
        fill="#FFEBCD"
      />
      <path
        d="M116.799 50.3603C118.143 44.4967 111.762 47.5098 109.663 50.3602C108.585 51.8238 108.483 53 109.243 55.2467C113.609 57.8528 116.1 53.075 116.799 50.3603Z"
        fill="#FFEBCD"
      />
      <path
        d="M107.321 50.3603C105.222 47.5098 98.8407 44.4967 100.184 50.3603C100.884 53.075 103.375 57.8528 107.741 55.2467C108.5 53 108.399 51.8238 107.321 50.3603Z"
        fill="#FFEBCD"
      />
      <path
        d="M116.799 59.3603C118.143 53.4967 111.762 56.5098 109.663 59.3602C108.585 60.8238 108.483 62 109.243 64.2467C113.609 66.8528 116.1 62.075 116.799 59.3603Z"
        fill="#FFEBCD"
      />
      <path
        d="M107.321 59.3603C105.222 56.5098 98.8407 53.4967 100.184 59.3603C100.884 62.075 103.375 66.8528 107.741 64.2467C108.5 62 108.399 60.8238 107.321 59.3603Z"
        fill="#FFEBCD"
      />
      <path
        d="M116.799 68.3603C118.143 62.4967 111.762 65.5098 109.663 68.3602C108.585 69.8238 108.483 71 109.243 73.2467C113.609 75.8528 116.1 71.075 116.799 68.3603Z"
        fill="#FFEBCD"
      />
      <path
        d="M107.321 68.3603C105.222 65.5098 98.8407 62.4967 100.184 68.3603C100.884 71.075 103.375 75.8528 107.741 73.2467C108.5 71 108.399 69.8238 107.321 68.3603Z"
        fill="#FFEBCD"
      />
      <path
        d="M116.799 77.3603C118.143 71.4967 111.762 74.5098 109.663 77.3602C108.585 78.8238 108.483 80 109.243 82.2467C113.609 84.8528 116.1 80.075 116.799 77.3603Z"
        fill="#FFEBCD"
      />
      <path
        d="M107.321 77.3603C105.222 74.5098 98.8407 71.4967 100.184 77.3603C100.884 80.075 103.375 84.8528 107.741 82.2467C108.5 80 108.399 78.8238 107.321 77.3603Z"
        fill="#FFEBCD"
      />
      <path
        d="M116.799 86.3603C118.143 80.4967 111.762 83.5098 109.663 86.3602C108.585 87.8238 108.483 89 109.243 91.2467C113.609 93.8528 116.1 89.075 116.799 86.3603Z"
        fill="#FFEBCD"
      />
      <path
        d="M107.321 86.3603C105.222 83.5098 98.8407 80.4967 100.184 86.3603C100.884 89.075 103.375 93.8528 107.741 91.2467C108.5 89 108.399 87.8238 107.321 86.3603Z"
        fill="#FFEBCD"
      />
      <path
        d="M116.799 95.3603C118.143 89.4967 111.762 92.5098 109.663 95.3602C108.585 96.8238 108.483 98 109.243 100.247C113.609 102.853 116.1 98.075 116.799 95.3603Z"
        fill="#FFEBCD"
      />
      <path
        d="M107.321 95.3603C105.222 92.5098 98.8407 89.4967 100.184 95.3603C100.884 98.075 103.375 102.853 107.741 100.247C108.5 98 108.399 96.8238 107.321 95.3603Z"
        fill="#FFEBCD"
      />
      <path
        d="M116.799 104.36C118.143 98.4967 111.762 101.51 109.663 104.36C108.585 105.824 108.483 107 109.243 109.247C113.609 111.853 116.1 107.075 116.799 104.36Z"
        fill="#FFEBCD"
      />
      <path
        d="M107.321 104.36C105.222 101.51 98.8407 98.4967 100.184 104.36C100.884 107.075 103.375 111.853 107.741 109.247C108.5 107 108.399 105.824 107.321 104.36Z"
        fill="#FFEBCD"
      />
      <path
        d="M116.799 113.36C118.143 107.497 111.762 110.51 109.663 113.36C108.585 114.824 108.483 116 109.243 118.247C113.609 120.853 116.1 116.075 116.799 113.36Z"
        fill="#FFEBCD"
      />
      <path
        d="M107.321 113.36C105.222 110.51 98.8407 107.497 100.184 113.36C100.884 116.075 103.375 120.853 107.741 118.247C108.5 116 108.399 114.824 107.321 113.36Z"
        fill="#FFEBCD"
      />
      <path
        d="M116.799 122.36C118.143 116.497 111.762 119.51 109.663 122.36C108.585 123.824 108.483 125 109.243 127.247C113.609 129.853 116.1 125.075 116.799 122.36Z"
        fill="#FFEBCD"
      />
      <path
        d="M107.321 122.36C105.222 119.51 98.8407 116.497 100.184 122.36C100.884 125.075 103.375 129.853 107.741 127.247C108.5 125 108.399 123.824 107.321 122.36Z"
        fill="#FFEBCD"
      />
      <path
        d="M99.7993 113.36C101.143 107.497 94.7616 110.51 92.6625 113.36C91.5848 114.824 91.4833 116 92.2427 118.247C96.6087 120.853 99.0996 116.075 99.7993 113.36Z"
        fill="#FFEBCD"
      />
      <path
        d="M90.3208 113.36C88.2217 110.51 81.8407 107.497 83.184 113.36C83.8837 116.075 86.3746 120.853 90.7406 118.247C91.5 116 91.3985 114.824 90.3208 113.36Z"
        fill="#FFEBCD"
      />
      <path
        d="M99.7993 122.36C101.143 116.497 94.7616 119.51 92.6625 122.36C91.5848 123.824 91.4833 125 92.2427 127.247C96.6087 129.853 99.0996 125.075 99.7993 122.36Z"
        fill="#FFEBCD"
      />
      <path
        d="M90.3208 122.36C88.2217 119.51 81.8407 116.497 83.184 122.36C83.8837 125.075 86.3746 129.853 90.7406 127.247C91.5 125 91.3985 123.824 90.3208 122.36Z"
        fill="#FFEBCD"
      />
      <path
        d="M133.799 113.36C135.143 107.497 128.762 110.51 126.663 113.36C125.585 114.824 125.483 116 126.243 118.247C130.609 120.853 133.1 116.075 133.799 113.36Z"
        fill="#FFEBCD"
      />
      <path
        d="M124.321 113.36C122.222 110.51 115.841 107.497 117.184 113.36C117.884 116.075 120.375 120.853 124.741 118.247C125.5 116 125.399 114.824 124.321 113.36Z"
        fill="#FFEBCD"
      />
      <path
        d="M133.799 122.36C135.143 116.497 128.762 119.51 126.663 122.36C125.585 123.824 125.483 125 126.243 127.247C130.609 129.853 133.1 125.075 133.799 122.36Z"
        fill="#FFEBCD"
      />
      <path
        d="M124.321 122.36C122.222 119.51 115.841 116.497 117.184 122.36C117.884 125.075 120.375 129.853 124.741 127.247C125.5 125 125.399 123.824 124.321 122.36Z"
        fill="#FFEBCD"
      />
      <path
        d="M134.799 41.3603C136.143 35.4967 129.762 38.5098 127.663 41.3602C126.585 42.8238 126.483 44 127.243 46.2467C131.609 48.8528 134.1 44.075 134.799 41.3603Z"
        fill="#FFEBCD"
      />
      <path
        d="M125.321 41.3603C123.222 38.5098 116.841 35.4967 118.184 41.3603C118.884 44.075 121.375 48.8528 125.741 46.2467C126.5 44 126.399 42.8238 125.321 41.3603Z"
        fill="#FFEBCD"
      />
      <path
        d="M134.799 32.3603C136.143 26.4967 129.762 29.5098 127.663 32.3602C126.585 33.8238 126.483 35 127.243 37.2467C131.609 39.8528 134.1 35.075 134.799 32.3603Z"
        fill="#FFEBCD"
      />
      <path
        d="M125.321 32.3603C123.222 29.5098 116.841 26.4967 118.184 32.3603C118.884 35.075 121.375 39.8528 125.741 37.2467C126.5 35 126.399 33.8238 125.321 32.3603Z"
        fill="#FFEBCD"
      />
      <path
        d="M134.799 23.3603C136.143 17.4967 129.762 20.5098 127.663 23.3602C126.585 24.8238 126.483 26 127.243 28.2467C131.609 30.8528 134.1 26.075 134.799 23.3603Z"
        fill="#FFEBCD"
      />
      <path
        d="M125.321 23.3603C123.222 20.5098 116.841 17.4967 118.184 23.3603C118.884 26.075 121.375 30.8528 125.741 28.2467C126.5 26 126.399 24.8238 125.321 23.3603Z"
        fill="#FFEBCD"
      />
      <path
        d="M134.799 14.3603C136.143 8.4967 129.762 11.5098 127.663 14.3602C126.585 15.8238 126.483 17 127.243 19.2467C131.609 21.8528 134.1 17.075 134.799 14.3603Z"
        fill="#FFEBCD"
      />
      <path
        d="M125.321 14.3603C123.222 11.5098 116.841 8.49673 118.184 14.3603C118.884 17.075 121.375 21.8528 125.741 19.2467C126.5 17 126.399 15.8238 125.321 14.3603Z"
        fill="#FFEBCD"
      />
      <path
        d="M134.799 50.3603C136.143 44.4967 129.762 47.5098 127.663 50.3602C126.585 51.8238 126.483 53 127.243 55.2467C131.609 57.8528 134.1 53.075 134.799 50.3603Z"
        fill="#FFEBCD"
      />
      <path
        d="M125.321 50.3603C123.222 47.5098 116.841 44.4967 118.184 50.3603C118.884 53.075 121.375 57.8528 125.741 55.2467C126.5 53 126.399 51.8238 125.321 50.3603Z"
        fill="#FFEBCD"
      />
      <path
        d="M134.799 59.3603C136.143 53.4967 129.762 56.5098 127.663 59.3602C126.585 60.8238 126.483 62 127.243 64.2467C131.609 66.8528 134.1 62.075 134.799 59.3603Z"
        fill="#FFEBCD"
      />
      <path
        d="M125.321 59.3603C123.222 56.5098 116.841 53.4967 118.184 59.3603C118.884 62.075 121.375 66.8528 125.741 64.2467C126.5 62 126.399 60.8238 125.321 59.3603Z"
        fill="#FFEBCD"
      />
      <path
        d="M134.799 68.3603C136.143 62.4967 129.762 65.5098 127.663 68.3602C126.585 69.8238 126.483 71 127.243 73.2467C131.609 75.8528 134.1 71.075 134.799 68.3603Z"
        fill="#FFEBCD"
      />
      <path
        d="M125.321 68.3603C123.222 65.5098 116.841 62.4967 118.184 68.3603C118.884 71.075 121.375 75.8528 125.741 73.2467C126.5 71 126.399 69.8238 125.321 68.3603Z"
        fill="#FFEBCD"
      />
    </g>
    <g filter="url(#filter1_i)">
      <path
        d="M106.5 22C121.3 22 131.333 17.3333 134.5 15V9.5H81.5L83 16C84.6667 18 91.7 22 106.5 22Z"
        fill="#FFEBCD"
      />
    </g>
    <g filter="url(#filter2_i)">
      <rect x="87" y="125" width="40" height="7" fill="#FFEBCD" />
    </g>
    <g filter="url(#filter3_d)">
      <mask id="mask1" style="mask-type: alpha" maskUnits="userSpaceOnUse" x="3" y="10" width="96" height="154">
        <path
          fill-rule="evenodd"
          d="M83.0456 11.1087C91.3503 30.9762 96.0046 70.0547 98.5 100C95.8893 122.751 86.2306 141.792 78.0325 157.954C77.0752 159.842 76.1378 161.69 75.2338 163.5H45.5C44.7 155.9 55.8333 91.6667 61.5 60.5C58.3 61.7 37.8333 89 28 102.5C25.5 102.5 14.6 94.8 11 92C7.4 89.2 4.5 84.1667 3.5 82C5.5 80 30 52.3815 41 38.3815C51.1212 25.5 71 10.8815 82.5 10.8815C82.6834 10.9559 82.8651 11.0317 83.0456 11.1087ZM59.5026 21.2777C58.7692 30.2274 58.38 44.8815 61.6963 45.6185C63.7138 45.6185 66.2402 43.5832 68.5055 41.7583C70.7313 39.9651 72.7051 38.375 73.6963 39.1185C74.6536 39.8364 73.0907 41.1272 71.3653 42.5521C69.4861 44.1041 67.4143 45.8151 68.1963 47.1185C68.4973 47.6201 69.6038 49.7327 71.2449 52.8661C77.5879 64.977 91.9184 92.3383 98.6051 100.888C98.6364 100.632 98.6668 100.376 98.6963 100.118C96.2009 70.1732 91.5466 31.0946 83.2418 11.2272C83.0614 11.1501 82.8797 11.0743 82.6963 11C76.4637 11 67.7702 15.2937 59.5026 21.2777Z"
          fill="#52422A"
        />
      </mask>
      <g mask="url(#mask1)">
        <path
          d="M98.5 100C96 70 91.3333 30.8333 83 11L72.5 3.5L2.5 63V94.5L40.5 169.5L70.5 173.5C78.8333 154.333 95 130.5 98.5 100Z"
          fill="#52422A"
        />
        <rect x="71" y="8" width="12" height="158" fill="#FFE0B0" fill-opacity="0.3" />
        <rect x="47" y="17" width="12" height="149" fill="#FFE0B0" fill-opacity="0.3" />
        <rect x="23" y="42" width="12" height="64" fill="#FFE0B0" fill-opacity="0.3" />
        <rect x="-1" y="63" width="12" height="39" fill="#FFE0B0" fill-opacity="0.3" />
        <rect x="95" y="59" width="12" height="62" fill="#FFE0B0" fill-opacity="0.3" />
        <rect x="102" y="105" width="12" height="61" transform="rotate(90 102 105)" fill="#FFE0B0" fill-opacity="0.3" />
        <rect x="105" y="81" width="12" height="108" transform="rotate(90 105 81)" fill="#FFE0B0" fill-opacity="0.3" />
        <rect x="98" y="57" width="12" height="88" transform="rotate(90 98 57)" fill="#FFE0B0" fill-opacity="0.3" />
        <rect x="97" y="33" width="12" height="64" transform="rotate(90 97 33)" fill="#FFE0B0" fill-opacity="0.3" />
        <rect x="97" y="9" width="12" height="45" transform="rotate(90 97 9)" fill="#FFE0B0" fill-opacity="0.3" />
        <rect x="97" y="129" width="12" height="62" transform="rotate(90 97 129)" fill="#FFE0B0" fill-opacity="0.3" />
        <rect x="97" y="153" width="12" height="62" transform="rotate(90 97 153)" fill="#FFE0B0" fill-opacity="0.3" />
        <rect x="64" y="13" width="2" height="154" fill="#E1305A" fill-opacity="0.5" />
        <rect x="99" y="62" width="2" height="85" transform="rotate(90 99 62)" fill="#E1305A" fill-opacity="0.5" />
        <rect x="99" y="110" width="2" height="50" transform="rotate(90 99 110)" fill="#E1305A" fill-opacity="0.5" />
        <rect x="83" y="158" width="2" height="41" transform="rotate(90 83 158)" fill="#E1305A" fill-opacity="0.5" />
        <rect x="89" y="14" width="2" height="29" transform="rotate(90 89 14)" fill="#E1305A" fill-opacity="0.5" />
        <rect x="28" y="47" width="2" height="60" fill="#E1305A" fill-opacity="0.5" />
      </g>
      <g filter="url(#filter4_d)">
        <mask id="mask2" style="mask-type: alpha" maskUnits="userSpaceOnUse" x="59" y="11" width="40" height="90">
          <path
            fill-rule="evenodd"
            d="M59.5026 21.2777C58.7692 30.2274 58.38 44.8815 61.6963 45.6185C63.7138 45.6185 66.2402 43.5832 68.5055 41.7583C70.7313 39.9651 72.7051 38.375 73.6963 39.1185C74.6536 39.8364 73.0907 41.1272 71.3653 42.5521C69.4861 44.1041 67.4143 45.8151 68.1963 47.1185C68.4973 47.6201 69.6037 49.7327 71.2449 52.8661C77.5879 64.977 91.9184 92.3383 98.6051 100.888C98.6364 100.632 98.6668 100.376 98.6963 100.118C96.2009 70.1732 91.5466 31.0946 83.2418 11.2272C83.0614 11.1501 82.8797 11.0743 82.6963 11C76.4637 11 67.7702 15.2937 59.5026 21.2777Z"
            fill="#52422A"
          />
        </mask>
        <g mask="url(#mask2)">
          <path
            fill-rule="evenodd"
            d="M59.5026 21.2777C58.7692 30.2274 58.38 44.8815 61.6963 45.6185C63.7138 45.6185 66.2402 43.5832 68.5055 41.7583C70.7313 39.9651 72.7051 38.375 73.6963 39.1185C74.6536 39.8364 73.0907 41.1272 71.3653 42.5521C69.4861 44.1041 67.4143 45.8151 68.1963 47.1185C68.4973 47.6201 69.6037 49.7327 71.2449 52.8661C77.5879 64.977 91.9184 92.3383 98.6051 100.888C98.6364 100.632 98.6668 100.376 98.6963 100.118C96.2009 70.1732 91.5466 31.0946 83.2418 11.2272C83.0614 11.1501 82.8797 11.0743 82.6963 11C76.4637 11 67.7702 15.2937 59.5026 21.2777Z"
            fill="#52422A"
          />
          <rect
            x="73.9536"
            y="10.0719"
            width="12"
            height="52.0281"
            transform="rotate(-25.2654 73.9536 10.0719)"
            fill="#FFE0B0"
            fill-opacity="0.3"
          />
          <rect
            x="52.291"
            y="20.4032"
            width="12"
            height="106.977"
            transform="rotate(-25.2654 52.291 20.4032)"
            fill="#FFE0B0"
            fill-opacity="0.3"
          />
          <rect
            x="99.0601"
            y="66.2153"
            width="12"
            height="28.742"
            transform="rotate(64.7346 99.0601 66.2153)"
            fill="#FFE0B0"
            fill-opacity="0.3"
          />
          <rect
            x="120.702"
            y="29.4626"
            width="12"
            height="63.9225"
            transform="rotate(64.7346 120.702 29.4626)"
            fill="#FFE0B0"
            fill-opacity="0.3"
          />
          <rect
            x="93.5005"
            y="15.7618"
            width="12"
            height="44.8155"
            transform="rotate(64.7346 93.5005 15.7618)"
            fill="#FFE0B0"
            fill-opacity="0.3"
          />
          <rect
            x="133.954"
            y="76.2855"
            width="12"
            height="62"
            transform="rotate(64.7346 133.954 76.2855)"
            fill="#FFE0B0"
            fill-opacity="0.3"
          />
          <rect
            x="67.9526"
            y="13.757"
            width="2"
            height="74.7907"
            transform="rotate(-25.2654 67.9526 13.757)"
            fill="#E1305A"
            fill-opacity="0.5"
          />
          <rect
            x="91.0737"
            y="22.4361"
            width="2"
            height="38.2444"
            transform="rotate(64.7346 91.0737 22.4361)"
            fill="#E1305A"
            fill-opacity="0.5"
          />
          <rect
            x="98.4219"
            y="72.0454"
            width="2"
            height="17.6765"
            transform="rotate(64.7346 98.4219 72.0454)"
            fill="#E1305A"
            fill-opacity="0.5"
          />
        </g>
      </g>
    </g>
    <g filter="url(#filter5_d)">
      <mask id="mask3" style="mask-type: alpha" maskUnits="userSpaceOnUse" x="116" y="10" width="96" height="154">
        <path
          fill-rule="evenodd"
          d="M131.651 11.1087C123.346 30.9762 118.692 70.0547 116.196 100C118.807 122.751 128.466 141.792 136.664 157.954C137.621 159.842 138.559 161.69 139.463 163.5H169.196C169.996 155.9 158.863 91.6667 153.196 60.5C156.396 61.7 176.863 89 186.696 102.5C189.196 102.5 200.096 94.8 203.696 92C207.296 89.2 210.196 84.1667 211.196 82C209.196 80 184.696 52.3815 173.696 38.3815C163.575 25.5 143.696 10.8815 132.196 10.8815C132.013 10.9559 131.831 11.0317 131.651 11.1087ZM155.194 21.2777C155.927 30.2274 156.316 44.8815 153 45.6185C150.982 45.6185 148.456 43.5832 146.191 41.7583C143.965 39.9651 141.991 38.375 141 39.1185C140.043 39.8364 141.606 41.1272 143.331 42.5521C145.21 44.1041 147.282 45.8151 146.5 47.1185C146.199 47.6201 145.093 49.7327 143.451 52.8661C137.108 64.977 122.778 92.3383 116.091 100.888C116.06 100.632 116.03 100.376 116 100.118C118.495 70.1732 123.15 31.0946 131.454 11.2272C131.635 11.1501 131.817 11.0743 132 11C138.233 11 146.926 15.2937 155.194 21.2777Z"
          fill="#52422A"
        />
      </mask>
      <g mask="url(#mask3)">
        <path
          d="M116.196 100C118.696 70 123.363 30.8333 131.696 11L142.196 3.5L212.196 63V94.5L174.196 169.5L144.196 173.5C135.863 154.333 119.696 130.5 116.196 100Z"
          fill="#52422A"
        />
        <rect width="12" height="158" transform="matrix(-1 0 0 1 143.696 8)" fill="#FFE0B0" fill-opacity="0.3" />
        <rect width="12" height="149" transform="matrix(-1 0 0 1 167.696 17)" fill="#FFE0B0" fill-opacity="0.3" />
        <rect width="12" height="64" transform="matrix(-1 0 0 1 191.696 42)" fill="#FFE0B0" fill-opacity="0.3" />
        <rect width="12" height="39" transform="matrix(-1 0 0 1 215.696 63)" fill="#FFE0B0" fill-opacity="0.3" />
        <rect width="12" height="62" transform="matrix(-1 0 0 1 119.696 59)" fill="#FFE0B0" fill-opacity="0.3" />
        <rect
          width="12"
          height="61"
          transform="matrix(4.37114e-08 1 1 -4.37114e-08 112.696 105)"
          fill="#FFE0B0"
          fill-opacity="0.3"
        />
        <rect
          width="12"
          height="108"
          transform="matrix(4.37114e-08 1 1 -4.37114e-08 109.696 81)"
          fill="#FFE0B0"
          fill-opacity="0.3"
        />
        <rect
          width="12"
          height="88"
          transform="matrix(4.37114e-08 1 1 -4.37114e-08 116.696 57)"
          fill="#FFE0B0"
          fill-opacity="0.3"
        />
        <rect
          width="12"
          height="64"
          transform="matrix(4.37114e-08 1 1 -4.37114e-08 117.696 33)"
          fill="#FFE0B0"
          fill-opacity="0.3"
        />
        <rect
          width="12"
          height="45"
          transform="matrix(4.37114e-08 1 1 -4.37114e-08 117.696 9)"
          fill="#FFE0B0"
          fill-opacity="0.3"
        />
        <rect
          width="12"
          height="62"
          transform="matrix(4.37114e-08 1 1 -4.37114e-08 117.696 129)"
          fill="#FFE0B0"
          fill-opacity="0.3"
        />
        <rect
          width="12"
          height="62"
          transform="matrix(4.37114e-08 1 1 -4.37114e-08 117.696 153)"
          fill="#FFE0B0"
          fill-opacity="0.3"
        />
        <rect width="2" height="154" transform="matrix(-1 0 0 1 150.696 13)" fill="#E1305A" fill-opacity="0.5" />
        <rect
          width="2"
          height="85"
          transform="matrix(4.37114e-08 1 1 -4.37114e-08 115.696 62)"
          fill="#E1305A"
          fill-opacity="0.5"
        />
        <rect
          width="2"
          height="50"
          transform="matrix(4.37114e-08 1 1 -4.37114e-08 115.696 110)"
          fill="#E1305A"
          fill-opacity="0.5"
        />
        <rect
          width="2"
          height="41"
          transform="matrix(4.37114e-08 1 1 -4.37114e-08 131.696 158)"
          fill="#E1305A"
          fill-opacity="0.5"
        />
        <rect
          width="2"
          height="29"
          transform="matrix(4.37114e-08 1 1 -4.37114e-08 125.696 14)"
          fill="#E1305A"
          fill-opacity="0.5"
        />
        <rect width="2" height="60" transform="matrix(-1 0 0 1 186.696 47)" fill="#E1305A" fill-opacity="0.5" />
      </g>
      <g filter="url(#filter6_d)">
        <mask id="mask4" style="mask-type: alpha" maskUnits="userSpaceOnUse" x="116" y="11" width="40" height="90">
          <path
            fill-rule="evenodd"
            d="M155.194 21.2777C155.927 30.2274 156.316 44.8815 153 45.6185C150.982 45.6185 148.456 43.5832 146.191 41.7583C143.965 39.9651 141.991 38.375 141 39.1185C140.043 39.8364 141.606 41.1272 143.331 42.5521C145.21 44.1041 147.282 45.8151 146.5 47.1185C146.199 47.6201 145.093 49.7327 143.451 52.8661C137.108 64.977 122.778 92.3383 116.091 100.888C116.06 100.632 116.029 100.376 116 100.118C118.495 70.1732 123.15 31.0946 131.454 11.2272C131.635 11.1501 131.817 11.0743 132 11C138.233 11 146.926 15.2937 155.194 21.2777Z"
            fill="#52422A"
          />
        </mask>
        <g mask="url(#mask4)">
          <path
            fill-rule="evenodd"
            d="M155.194 21.2777C155.927 30.2274 156.316 44.8815 153 45.6185C150.982 45.6185 148.456 43.5832 146.191 41.7583C143.965 39.9651 141.991 38.375 141 39.1185C140.043 39.8364 141.606 41.1272 143.331 42.5521C145.21 44.1041 147.282 45.8151 146.5 47.1185C146.199 47.6201 145.093 49.7327 143.451 52.8661C137.108 64.977 122.778 92.3383 116.091 100.888C116.06 100.632 116.029 100.376 116 100.118C118.495 70.1732 123.15 31.0946 131.454 11.2272C131.635 11.1501 131.817 11.0743 132 11C138.233 11 146.926 15.2937 155.194 21.2777Z"
            fill="#52422A"
          />
          <rect
            width="12"
            height="52.0281"
            transform="matrix(-0.904341 -0.426812 -0.426812 0.904341 140.743 10.0719)"
            fill="#FFE0B0"
            fill-opacity="0.3"
          />
          <rect
            width="12"
            height="106.977"
            transform="matrix(-0.904341 -0.426812 -0.426812 0.904341 162.405 20.4032)"
            fill="#FFE0B0"
            fill-opacity="0.3"
          />
          <rect
            width="12"
            height="28.742"
            transform="matrix(-0.426812 0.904341 0.904341 0.426812 115.636 66.2153)"
            fill="#FFE0B0"
            fill-opacity="0.3"
          />
          <rect
            width="12"
            height="63.9225"
            transform="matrix(-0.426812 0.904341 0.904341 0.426812 93.9946 29.4626)"
            fill="#FFE0B0"
            fill-opacity="0.3"
          />
          <rect
            width="12"
            height="44.8155"
            transform="matrix(-0.426812 0.904341 0.904341 0.426812 121.196 15.7618)"
            fill="#FFE0B0"
            fill-opacity="0.3"
          />
          <rect
            width="12"
            height="62"
            transform="matrix(-0.426812 0.904341 0.904341 0.426812 80.7422 76.2855)"
            fill="#FFE0B0"
            fill-opacity="0.3"
          />
          <rect
            width="2"
            height="74.7907"
            transform="matrix(-0.904341 -0.426812 -0.426812 0.904341 146.744 13.757)"
            fill="#E1305A"
            fill-opacity="0.5"
          />
          <rect
            width="2"
            height="38.2445"
            transform="matrix(-0.426812 0.904341 0.904341 0.426812 123.623 22.4361)"
            fill="#E1305A"
            fill-opacity="0.5"
          />
          <rect
            width="2"
            height="17.6765"
            transform="matrix(-0.426812 0.904341 0.904341 0.426812 116.274 72.0454)"
            fill="#E1305A"
            fill-opacity="0.5"
          />
        </g>
      </g>
    </g>
    <g filter="url(#filter7_d)">
      <circle cx="89.5746" cy="103.048" r="4.10198" fill="#2C271F" />
    </g>
    <g filter="url(#filter8_d)">
      <circle cx="84.9467" cy="123.031" r="4.10198" fill="#2C271F" />
    </g>
  </g>
  <defs>
    <filter
      id="filter0_f"
      x="80.2"
      y="9.2"
      width="56.5834"
      height="120.6"
      filterUnits="userSpaceOnUse"
      color-interpolation-filters="sRGB"
    >
      <feFlood flood-opacity="0" result="BackgroundImageFix" />
      <feBlend mode="normal" in="SourceGraphic" in2="BackgroundImageFix" result="shape" />
      <feGaussianBlur stdDeviation="0.9" result="effect1_foregroundBlur" />
    </filter>
    <filter
      id="filter1_i"
      x="81.5"
      y="5.5"
      width="53"
      height="16.5"
      filterUnits="userSpaceOnUse"
      color-interpolation-filters="sRGB"
    >
      <feFlood flood-opacity="0" result="BackgroundImageFix" />
      <feBlend mode="normal" in="SourceGraphic" in2="BackgroundImageFix" result="shape" />
      <feColorMatrix
        in="SourceAlpha"
        type="matrix"
        values="0 0 0 0 0 0 0 0 0 0 0 0 0 0 0 0 0 0 127 0"
        result="hardAlpha"
      />
      <feOffset dy="-4" />
      <feGaussianBlur stdDeviation="2" />
      <feComposite in2="hardAlpha" operator="arithmetic" k2="-1" k3="1" />
      <feColorMatrix type="matrix" values="0 0 0 0 0.983333 0 0 0 0 0.853647 0 0 0 0 0.66375 0 0 0 1 0" />
      <feBlend mode="normal" in2="shape" result="effect1_innerShadow" />
    </filter>
    <filter
      id="filter2_i"
      x="87"
      y="125"
      width="40"
      height="11"
      filterUnits="userSpaceOnUse"
      color-interpolation-filters="sRGB"
    >
      <feFlood flood-opacity="0" result="BackgroundImageFix" />
      <feBlend mode="normal" in="SourceGraphic" in2="BackgroundImageFix" result="shape" />
      <feColorMatrix
        in="SourceAlpha"
        type="matrix"
        values="0 0 0 0 0 0 0 0 0 0 0 0 0 0 0 0 0 0 127 0"
        result="hardAlpha"
      />
      <feOffset dy="4" />
      <feGaussianBlur stdDeviation="2" />
      <feComposite in2="hardAlpha" operator="arithmetic" k2="-1" k3="1" />
      <feColorMatrix type="matrix" values="0 0 0 0 0.983333 0 0 0 0 0.853647 0 0 0 0 0.66375 0 0 0 1 0" />
      <feBlend mode="normal" in2="shape" result="effect1_innerShadow" />
    </filter>
    <filter
      id="filter3_d"
      x="2.5"
      y="9.88155"
      width="101.196"
      height="158.618"
      filterUnits="userSpaceOnUse"
      color-interpolation-filters="sRGB"
    >
      <feFlood flood-opacity="0" result="BackgroundImageFix" />
      <feColorMatrix
        in="SourceAlpha"
        type="matrix"
        values="0 0 0 0 0 0 0 0 0 0 0 0 0 0 0 0 0 0 127 0"
        result="hardAlpha"
      />
      <feOffset dx="2" dy="2" />
      <feGaussianBlur stdDeviation="1.5" />
      <feColorMatrix type="matrix" values="0 0 0 0 0.708333 0 0 0 0 0.577788 0 0 0 0 0.386632 0 0 0 0.4 0" />
      <feBlend mode="normal" in2="BackgroundImageFix" result="effect1_dropShadow" />
      <feBlend mode="normal" in="SourceGraphic" in2="effect1_dropShadow" result="shape" />
    </filter>
    <filter
      id="filter4_d"
      x="55"
      y="10"
      width="45.6963"
      height="95.8883"
      filterUnits="userSpaceOnUse"
      color-interpolation-filters="sRGB"
    >
      <feFlood flood-opacity="0" result="BackgroundImageFix" />
      <feColorMatrix
        in="SourceAlpha"
        type="matrix"
        values="0 0 0 0 0 0 0 0 0 0 0 0 0 0 0 0 0 0 127 0"
        result="hardAlpha"
      />
      <feOffset dx="-1" dy="2" />
      <feGaussianBlur stdDeviation="1.5" />
      <feColorMatrix type="matrix" values="0 0 0 0 0.3125 0 0 0 0 0.232812 0 0 0 0 0.113281 0 0 0 0.9 0" />
      <feBlend mode="normal" in2="BackgroundImageFix" result="effect1_dropShadow" />
      <feBlend mode="normal" in="SourceGraphic" in2="effect1_dropShadow" result="shape" />
    </filter>
    <filter
      id="filter5_d"
      x="111"
      y="9.88155"
      width="101.196"
      height="158.618"
      filterUnits="userSpaceOnUse"
      color-interpolation-filters="sRGB"
    >
      <feFlood flood-opacity="0" result="BackgroundImageFix" />
      <feColorMatrix
        in="SourceAlpha"
        type="matrix"
        values="0 0 0 0 0 0 0 0 0 0 0 0 0 0 0 0 0 0 127 0"
        result="hardAlpha"
      />
      <feOffset dx="-2" dy="2" />
      <feGaussianBlur stdDeviation="1.5" />
      <feColorMatrix type="matrix" values="0 0 0 0 0.709804 0 0 0 0 0.576471 0 0 0 0 0.388235 0 0 0 0.4 0" />
      <feBlend mode="normal" in2="BackgroundImageFix" result="effect1_dropShadow" />
      <feBlend mode="normal" in="SourceGraphic" in2="effect1_dropShadow" result="shape" />
    </filter>
    <filter
      id="filter6_d"
      x="114"
      y="10"
      width="45.6963"
      height="95.8883"
      filterUnits="userSpaceOnUse"
      color-interpolation-filters="sRGB"
    >
      <feFlood flood-opacity="0" result="BackgroundImageFix" />
      <feColorMatrix
        in="SourceAlpha"
        type="matrix"
        values="0 0 0 0 0 0 0 0 0 0 0 0 0 0 0 0 0 0 127 0"
        result="hardAlpha"
      />
      <feOffset dx="1" dy="2" />
      <feGaussianBlur stdDeviation="1.5" />
      <feColorMatrix type="matrix" values="0 0 0 0 0.3125 0 0 0 0 0.232812 0 0 0 0 0.113281 0 0 0 0.9 0" />
      <feBlend mode="normal" in2="BackgroundImageFix" result="effect1_dropShadow" />
      <feBlend mode="normal" in="SourceGraphic" in2="effect1_dropShadow" result="shape" />
    </filter>
    <filter
      id="filter7_d"
      x="83.4727"
      y="97.9455"
      width="12.2041"
      height="12.2039"
      filterUnits="userSpaceOnUse"
      color-interpolation-filters="sRGB"
    >
      <feFlood flood-opacity="0" result="BackgroundImageFix" />
      <feColorMatrix
        in="SourceAlpha"
        type="matrix"
        values="0 0 0 0 0 0 0 0 0 0 0 0 0 0 0 0 0 0 127 0"
        result="hardAlpha"
      />
      <feOffset dy="1" />
      <feGaussianBlur stdDeviation="1" />
      <feColorMatrix type="matrix" values="0 0 0 0 0.0958333 0 0 0 0 0.0686806 0 0 0 0 0.0686806 0 0 0 0.3 0" />
      <feBlend mode="normal" in2="BackgroundImageFix" result="effect1_dropShadow" />
      <feBlend mode="normal" in="SourceGraphic" in2="effect1_dropShadow" result="shape" />
    </filter>
    <filter
      id="filter8_d"
      x="78.8447"
      y="117.93"
      width="12.2041"
      height="12.2039"
      filterUnits="userSpaceOnUse"
      color-interpolation-filters="sRGB"
    >
      <feFlood flood-opacity="0" result="BackgroundImageFix" />
      <feColorMatrix
        in="SourceAlpha"
        type="matrix"
        values="0 0 0 0 0 0 0 0 0 0 0 0 0 0 0 0 0 0 127 0"
        result="hardAlpha"
      />
      <feOffset dy="1" />
      <feGaussianBlur stdDeviation="1" />
      <feColorMatrix type="matrix" values="0 0 0 0 0.0958333 0 0 0 0 0.0686806 0 0 0 0 0.0686806 0 0 0 0.3 0" />
      <feBlend mode="normal" in2="BackgroundImageFix" result="effect1_dropShadow" />
      <feBlend mode="normal" in="SourceGraphic" in2="effect1_dropShadow" result="shape" />
    </filter>
  </defs>
</svg>
