<svg width="213" height="163" viewBox="0 0 213 163" fill="none" xmlns="http://www.w3.org/2000/svg">
  <mask id="mask0" style="mask-type:alpha" maskUnits="userSpaceOnUse" x="31" y="10" width="153" height="80">
    <path
      d="M31 45.5C37.8 31.5 69 10 80.5 10C86.6667 12.5 93 17.5 107.5 17.5C122 17.5 128 12.5 134 10C145.5 10 176.7 31.5 183.5 45.5C181.333 55 168 66.5 164 68.5C161 66.5 154.6 62.1 153 60.5C151 58.5 158 78 157.5 85.5C146.5 87.5 120.1 89.5 106.5 89.5C92.9 89.5 68 88 57 85.5C56.5 78 63.5 58.5 61.5 60.5C59.9 62.1 53.5 66.5 50.5 68.5C46.5 66.5 33.1667 55 31 45.5Z"
      fill="black" />
  </mask>
  <g mask="url(#mask0)">
    <rect width="213" height="163" fill="#C4FF9F" />
    <rect x="92" y="27" width="19" height="19" fill="#5CA642" />
    <rect x="130" y="27" width="19" height="19" fill="#5CA642" />
    <rect x="168" y="27" width="19" height="19" fill="#5CA642" />
    <rect x="54" y="27" width="19" height="19" fill="#5CA642" />
    <rect x="54" y="65" width="19" height="19" fill="#5CA642" />
    <rect x="73" y="8" width="19" height="19" fill="#5CA642" />
    <rect x="111" y="8" width="19" height="19" fill="#5CA642" />
    <rect x="149" y="8" width="19" height="19" fill="#5CA642" />
    <rect x="35" y="8" width="19" height="19" fill="#5CA642" />
    <rect x="111" y="46" width="19" height="19" fill="#5CA642" />
    <rect x="111" y="84" width="19" height="19" fill="#5CA642" />
    <rect x="149" y="46" width="19" height="19" fill="#5CA642" />
    <rect x="149" y="84" width="19" height="19" fill="#5CA642" />
    <rect x="16" y="27" width="19" height="19" fill="#5CA642" />
    <rect x="73" y="46" width="19" height="19" fill="#5CA642" />
    <rect x="73" y="84" width="19" height="19" fill="#5CA642" />
    <rect x="35" y="46" width="19" height="19" fill="#5CA642" />
    <rect x="130" y="65" width="19" height="19" fill="#5CA642" />
    <rect x="168" y="65" width="19" height="19" fill="#5CA642" />
    <rect x="92" y="65" width="19" height="19" fill="#5CA642" />
    <rect x="119" y="10" width="3" height="83" fill="#FFD029" fill-opacity="0.6" />
    <rect x="182" y="35" width="3.00001" height="152" transform="rotate(90 182 35)" fill="#FFD029" fill-opacity="0.6" />
    <rect x="164" y="73" width="3.00001" height="112" transform="rotate(90 164 73)" fill="#FFD029" fill-opacity="0.6" />
    <rect x="81" y="7" width="3" height="86" fill="#FFD029" fill-opacity="0.6" />
    <rect x="96" y="7" width="3" height="86" fill="#FF5D29" fill-opacity="0.6" />
    <rect x="134" y="7" width="3" height="86" fill="#FF5D29" fill-opacity="0.6" />
    <rect x="172" y="28" width="3" height="39" fill="#FF5D29" fill-opacity="0.6" />
    <rect x="58" y="7" width="3" height="86" fill="#FF5D29" fill-opacity="0.6" />
    <rect x="104" y="7" width="3" height="86" fill="#FF5D29" fill-opacity="0.6" />
    <rect x="184" y="50" width="3" height="164" transform="rotate(90 184 50)" fill="#FF5D29" fill-opacity="0.6" />
    <rect x="184" y="12" width="3" height="164" transform="rotate(90 184 12)" fill="#FF5D29" fill-opacity="0.6" />
    <rect x="184" y="88" width="3" height="164" transform="rotate(90 184 88)" fill="#FF5D29" fill-opacity="0.6" />
    <rect x="184" y="58" width="3" height="164" transform="rotate(90 184 58)" fill="#FF5D29" fill-opacity="0.6" />
    <rect x="184" y="20" width="3" height="164" transform="rotate(90 184 20)" fill="#FF5D29" fill-opacity="0.6" />
    <rect x="142" y="7" width="3" height="86" fill="#FF5D29" fill-opacity="0.6" />
    <rect x="180" y="28" width="3" height="39" fill="#FF5D29" fill-opacity="0.6" />
    <rect x="66" y="7" width="3" height="86" fill="#FF5D29" fill-opacity="0.6" />
    <rect x="43" y="27" width="3" height="43" fill="#FFD029" fill-opacity="0.6" />
    <rect x="157" y="17" width="3" height="53" fill="#FFD029" fill-opacity="0.6" />
    <path d="M80 10C82.6667 19.3333 93.9 33.9 107.5 17.5L80 10Z" fill="#FFFAE1" />
    <path d="M134 10C131.333 19.3333 121.1 33.9 107.5 17.5L134 10Z" fill="#FFFAE1" />
    <path d="M56 66C53.6 62.4 40 46.1667 33.5 38.5L29 45L37.5 62L49.5 70.5L56 66Z" fill="#FFFAE1" />
    <path d="M159 66C161.4 62.4 175 46.1667 181.5 38.5L186 45L177.5 62L165.5 70.5L159 66Z" fill="#FFFAE1" />
  </g>
</svg>
