<svg width="213" height="163" viewBox="0 0 213 163" fill="none" xmlns="http://www.w3.org/2000/svg">
  <mask id="mask0" style="mask-type: alpha" maskUnits="userSpaceOnUse" x="31" y="10" width="153" height="80">
    <path
      d="M31 45.5C37.8 31.5 69 10 80.5 10C86.6667 12.5 93 17.5 107.5 17.5C122 17.5 128 12.5 134 10C145.5 10 176.7 31.5 183.5 45.5C181.333 55 168 66.5 164 68.5C161 66.5 154.6 62.1 153 60.5C151 58.5 158 78 157.5 85.5C146.5 87.5 120.1 89.5 106.5 89.5C92.9 89.5 68 88 57 85.5C56.5 78 63.5 58.5 61.5 60.5C59.9 62.1 53.5 66.5 50.5 68.5C46.5 66.5 33.1667 55 31 45.5Z"
      fill="black"
    />
  </mask>
  <g mask="url(#mask0)">
    <rect width="213" height="163" fill="#303030" />
    <path d="M107 10V110" stroke="white" stroke-opacity="0.5" />
    <path
      d="M141 11C135.8 10.2 133.833 14.5 134 16.5C128.4 14.9 126 18.8333 125.5 21C119.9 18.2 117.5 22.1667 117 24.5C112.2 19.3 108.333 23.3333 107 26C105.667 23.3333 101.8 19.3 97 24.5C96.5 22.1667 94.1 18.2 88.5 21C88 18.8333 85.6 14.9 80 16.5C80.1667 14.5 78.2 10.2 73 11M148.5 14.5C142.9 14.1 141.333 20.8334 141.5 24C134.7 21.6 132.333 28 132 31.5C124.8 29.1 121 34.1667 120 37C113.6 32.2 108.667 35.6667 107 38C105.333 35.6667 100.4 32.2 94 37C93 34.1667 89.2 29.1 82 31.5C81.6667 28 79.3 21.6 72.5 24C72.6667 20.8334 71.1 14.1 65.5 14.5M158.5 20C149.7 19.2 149.167 28 150 32.5C142.4 32.1 139.167 39.6667 138.5 43.5C129.7 39.5 125.167 46.5 124 50.5C116 42.9 109.333 48.3334 107 52C104.667 48.3334 98 42.9 90 50.5C88.8333 46.5 84.3 39.5 75.5 43.5C74.8333 39.6667 71.6 32.1 64 32.5C64.8333 28 64.3 19.2 55.5 20M167.5 25.5C157.1 27.9 157.167 36.8333 158.5 41C148.1 40.2 144.833 49 144.5 53.5C132.9 50.3 128 57.8333 127 62C116.6 55.6 109.333 60.6667 107 64C104.667 60.6667 97.4 55.6 87 62C86 57.8333 81.1 50.3 69.5 53.5C69.1667 49 65.9 40.2 55.5 41C56.8333 36.8333 56.9 27.9 46.5 25.5M177 32.5C163.8 33.7 165.167 44.3333 167.5 49.5C153.1 48.7 151.167 60.5 152 66.5C137.2 60.1 131.833 71.8333 131 78.5C119.4 67.7 110.167 75.6667 107 81C103.833 75.6667 94.6 67.7 83 78.5C82.1667 71.8333 76.8 60.1 62 66.5C62.8333 60.5 60.9 48.7 46.5 49.5C48.8333 44.3333 50.2 33.7 37 32.5"
      stroke="white"
      stroke-opacity="0.5"
    />
    <path d="M113 10L138.882 106.593" stroke="white" stroke-opacity="0.5" />
    <path d="M120 11L170 97.6025" stroke="white" stroke-opacity="0.5" />
    <path d="M124 6L194.711 76.7107" stroke="white" stroke-opacity="0.5" />
    <path d="M100.711 10L74.8288 106.593" stroke="white" stroke-opacity="0.5" />
    <path d="M93.7107 11L43.7107 97.6025" stroke="white" stroke-opacity="0.5" />
    <path d="M89.7107 6L19 76.7107" stroke="white" stroke-opacity="0.5" />
  </g>
</svg>
