<svg width="213" height="163" viewBox="0 0 213 163" fill="none" xmlns="http://www.w3.org/2000/svg">
  <mask id="mask0" style="mask-type: alpha" maskUnits="userSpaceOnUse" x="31" y="10" width="153" height="80">
    <path
      d="M31 45.5C37.8 31.5 69 10 80.5 10C86.6667 12.5 93 17.5 107.5 17.5C122 17.5 128 12.5 134 10C145.5 10 176.7 31.5 183.5 45.5C181.333 55 168 66.5 164 68.5C161 66.5 154.6 62.1 153 60.5C151 58.5 158 78 157.5 85.5C146.5 87.5 120.1 89.5 106.5 89.5C92.9 89.5 68 88 57 85.5C56.5 78 63.5 58.5 61.5 60.5C59.9 62.1 53.5 66.5 50.5 68.5C46.5 66.5 33.1667 55 31 45.5Z"
      fill="black"
    />
  </mask>
  <g mask="url(#mask0)">
    <rect width="213" height="163" fill="#FE274E" />
    <path
      fill-rule="evenodd"
      d="M161 73V85.5L143.485 86.8219L142.5 74.9808C149.67 74.2659 156.347 73.5369 161 73Z"
      fill="#FFF1F4"
    />
    <path
      d="M108 77.5C105.133 77.5 101.113 77.3034 96.5 76.9858V88.6321L108 89.5L119.5 88.6321V76.9858C114.887 77.3034 110.867 77.5 108 77.5Z"
      fill="#FFF1F4"
    />
    <path
      d="M96.5 76.9858C89.5417 76.5066 81.2342 75.752 73.5 74.9808L72.5148 86.8219L96.5 88.6321V76.9858Z"
      fill="#FFF1F4"
    />
    <path d="M55 73V85.5L72.5148 86.8219L73.5 74.9808C66.3302 74.2659 59.653 73.5369 55 73Z" fill="#FFF1F4" />
    <path
      d="M143.485 86.8219L142.5 74.9808C134.766 75.752 126.458 76.5066 119.5 76.9858V88.6321L143.485 86.8219Z"
      fill="#FFF1F4"
    />
    <path
      fill-rule="evenodd"
      d="M161 75.5V88L143.485 89.3219L142.5 77.4808C149.67 76.7659 156.347 76.0369 161 75.5Z"
      fill="#3D9514"
    />
    <path
      d="M108 80C105.133 80 101.113 79.8034 96.5 79.4858V91.1321L108 92L119.5 91.1321V79.4858C114.887 79.8034 110.867 80 108 80Z"
      fill="#3D9514"
    />
    <path d="M55 75.5V88L72.5148 89.3219L73.5 77.4808C66.3302 76.7659 59.653 76.0369 55 75.5Z" fill="#3D9514" />
    <path
      d="M96.5 79.4858C89.5417 79.0066 81.2342 78.252 73.5 77.4808L72.5148 89.3219L96.5 91.1321V79.4858Z"
      fill="#87F262"
    />
    <path
      d="M143.485 89.3219L142.5 77.4808C134.766 78.252 126.458 79.0066 119.5 79.4858V91.1321L143.485 89.3219Z"
      fill="#87F262"
    />
    <path d="M79.4999 57.5C76 59 73.7999 64.8 76.9999 66C80.6 66 80.5 60.5 79.4999 57.5Z" fill="#9F293E" />
    <path
      d="M94.3154 49.7707C91.1165 51.8362 89.9199 57.923 93.2758 58.5695C96.8249 57.966 95.8042 52.5606 94.3154 49.7707Z"
      fill="#9F293E"
    />
    <path
      d="M121.016 49.7707C124.215 51.8362 125.412 57.923 122.056 58.5695C118.507 57.966 119.527 52.5606 121.016 49.7707Z"
      fill="#9F293E"
    />
    <path d="M135.599 57.5C139.099 59 141.299 64.8 138.099 66C134.499 66 134.599 60.5 135.599 57.5Z" fill="#9F293E" />
    <path
      d="M108.978 59.1406C105.893 61.373 105.021 67.5146 108.406 67.9822C111.919 67.1912 110.613 61.8476 108.978 59.1406Z"
      fill="#9F293E"
    />
    <path
      d="M55.5979 34.2435C46.4365 41.0175 45.8651 30.9414 46.7247 25.0566L67.2123 11.0699C74.6658 10.4652 73.5971 18.6317 68.7318 19.649C76.0739 25.6396 69.199 27.9143 64.8438 28.3028C69.9564 35.6472 57.4146 40.413 55.5979 34.2435Z"
      fill="#FFB3C0"
    />
  </g>
</svg>
