<svg width="173" height="125" viewBox="0 0 173 125" fill="none" xmlns="http://www.w3.org/2000/svg">
  <mask id="mask0" style="mask-type:alpha" maskUnits="userSpaceOnUse" x="31" y="10" width="153" height="105">
    <path
      d="M31 45.5C37.8 31.5 69 10 80.5 10C86.6667 12.5 93 17.5 107.5 17.5C122 17.5 128 12.5 134 10C145.5 10 176.7 31.5 183.5 45.5C181.333 55 168 66.5 164 68.5C161 66.5 154.6 62.1 153 60.5C151 58.5 158 103 157.5 110.5C146.5 112.5 120.1 114.5 106.5 114.5C92.9 114.5 68 113 57 110.5C56.5 103 63.5 58.5 61.5 60.5C59.9 62.1 53.5 66.5 50.5 68.5C46.5 66.5 33.1667 55 31 45.5Z"
      fill="black" />
  </mask>
  <g mask="url(#mask0)" transform="translate(-20)">
    <rect x="20" width="173" height="125" fill="#212121" />
    <path
      d="M52.5 117.5H158.5V98.0583C155.293 96.1896 151.441 95.2712 149 95C150 100 144.591 101.427 139.5 105.5C134.5 109.5 120.5 111 111.5 105.5C104.3 101.1 103.833 87.5 106.5 80C102 87 97 82.5 91.5 93.5C89.1 107.186 75.1667 113.536 68.5 115C67.1667 115.167 64.1 113.7 62.5 106.5C61.5864 102.389 58.7819 98.6256 55.8922 95.7499L52.5 117.5Z"
      fill="#FFA63E" />
    <path
      d="M81.0001 95C80.5001 102.5 64.0001 114 66.5001 98C68.1507 87.436 62.8764 81.3675 58.5474 78.7265L55.8923 95.7499C58.7821 98.6256 61.5865 102.389 62.5001 106.5C64.1001 113.7 67.1668 115.167 68.5001 115C75.1668 113.536 89.1001 107.186 91.5001 93.5C97.0001 82.5 102 87 106.5 80C103.833 87.5 100.3 103.6 107.5 108C116.5 113.5 134.728 111.834 140 108C145.5 104 150 100 149 95C151.441 95.2712 155.294 96.1896 158.5 98.0583V90.8123C155.212 87.5382 149.64 85.3453 146.5 84.5C146.5 86.5 138 104 123 101C111 98.6 111.333 90 113 86C120.2 72.8 114.667 64.1667 111 61.5C112 65.5 110.5 68 106.5 70C100 73.25 81.5001 87.5 81.0001 95Z"
      fill="#FF7E36" />
    <path
      d="M73.5001 75C71.9001 68.2 64.5001 64.1667 61.0001 63L58.5474 78.7265C62.8764 81.3675 68.1507 87.436 66.5001 98C64.0001 114 80.5001 102.5 81.0001 95C81.5001 87.5 100 73.25 106.5 70C110.5 68 112 65.5 111 61.5C114.667 64.1667 120.2 72.8 113 86C111.333 90 111 98.6 123 101C138 104 146.5 86.5 146.5 84.5C149.64 85.3453 155.212 87.5382 158.5 90.8122V77.5C154.5 63.5 143.167 62 138 63C143.2 67.4001 137.5 79.1667 134 84.5C128 90.5 119 87.0454 123 82.5C131.8 72.5 130.833 67.1666 128 59.4999C120.4 43.0999 113 45.5 101.5 43.5C105 61.5 93.4527 66.034 86.5001 71C79.5001 76 76.8334 84.1666 74.5001 90C72.5001 85.5 75.5001 83.5 73.5001 75Z"
      fill="#FF3636" />
  </g>
</svg>
