<svg width="213" height="163" viewBox="0 0 213 163" fill="none" xmlns="http://www.w3.org/2000/svg">
  <mask id="mask0" style="mask-type: alpha" maskUnits="userSpaceOnUse" x="4" y="9" width="207" height="103">
    <path
      fill-rule="evenodd"
      d="M79.8232 9.70329C79.4017 10.2582 79 10.9929 79 11.5C68.9999 8.5 41.6 31.7 34 44.5C30.0297 51.1867 25.0115 55.6029 20.6242 59.4639C14.5136 64.8414 9.62684 69.1419 10.5 77C8.16662 78.8333 3.69995 83 4.49995 85C7.83328 88.8333 15.4999 96.7 19.4999 97.5C23.4999 97.5 26.8333 92.8333 27.9999 90.5C32.4999 92 47.1999 80.2 49.9999 75C52.7999 69.8 58.8333 63.1667 61.5 60.5C56.6666 71.1667 49.0999 93.5 57.4999 97.5C56.8333 100.833 56.1999 108.7 56.9999 109.5C70.9999 111.5 99.5999 111.5 106 111.5C112.4 111.5 149.5 111 158.5 109.5C159.3 108.7 158.167 100.833 157.5 97.5C165.9 93.5 158.333 71.1667 153.5 60.5C156.167 63.1667 162.2 69.8 165 75C167.8 80.2 182.5 92 187 90.5C188.167 92.8333 191.5 97.5 195.5 97.5C199.5 96.7 207.167 88.8333 210.5 85C211.3 83 206.833 78.8333 204.5 77C205.373 69.1419 200.486 64.8414 194.376 59.4639C189.988 55.6029 184.97 51.1867 181 44.5C173.4 31.7 146 8.5 136 11.5C136 10.961 134.865 10.1647 133.972 9.60059C127.21 11.3248 117.566 13 106.694 13C96.0382 13 86.5623 11.3907 79.8232 9.70329Z"
      fill="black"
    />
  </mask>
  <g mask="url(#mask0)">
    <rect width="213" height="163" fill="#FBCD56" />
    <path
      d="M106.5 34L94 58.7273L106.5 82L119 58.7273L106.5 34Z"
      fill="#FFF5DD"
      stroke="#FFF5DD"
      stroke-width="2"
      stroke-linejoin="round"
    />
    <path
      d="M156.5 34L144 58.7273L156.5 82L169 58.7273L156.5 34Z"
      fill="#FFF5DD"
      stroke="#FFF5DD"
      stroke-width="2"
      stroke-linejoin="round"
    />
    <path
      d="M206.5 34L194 58.7273L206.5 82L219 58.7273L206.5 34Z"
      fill="#FFF5DD"
      stroke="#FFF5DD"
      stroke-width="2"
      stroke-linejoin="round"
    />
    <path
      d="M56.5 34L44 58.7273L56.5 82L69 58.7273L56.5 34Z"
      fill="#FFF5DD"
      stroke="#FFF5DD"
      stroke-width="2"
      stroke-linejoin="round"
    />
    <path
      d="M31.5 34L19 58.7273L31.5 82L44 58.7273L31.5 34Z"
      fill="#FFF5DD"
      stroke="#FFF5DD"
      stroke-width="2"
      stroke-linejoin="round"
    />
    <path
      d="M131.5 34L119 58.7273L131.5 82L144 58.7273L131.5 34Z"
      fill="#FFF5DD"
      stroke="#FFF5DD"
      stroke-width="2"
      stroke-linejoin="round"
    />
    <path
      d="M181.5 34L169 58.7273L181.5 82L194 58.7273L181.5 34Z"
      fill="#FFF5DD"
      stroke="#FFF5DD"
      stroke-width="2"
      stroke-linejoin="round"
    />
    <path
      d="M81.5 34L69 58.7273L81.5 82L94 58.7273L81.5 34Z"
      fill="#FFF5DD"
      stroke="#FFF5DD"
      stroke-width="2"
      stroke-linejoin="round"
    />
    <path
      d="M119.5 34L107 58.7273L119.5 82L132 58.7273L119.5 34Z"
      stroke="#709CDD"
      stroke-width="2"
      stroke-linejoin="round"
    />
    <path
      d="M169.5 34L157 58.7273L169.5 82L182 58.7273L169.5 34Z"
      stroke="#709CDD"
      stroke-width="2"
      stroke-linejoin="round"
    />
    <path
      d="M69.5 34L57 58.7273L69.5 82L82 58.7273L69.5 34Z"
      stroke="#709CDD"
      stroke-width="2"
      stroke-linejoin="round"
    />
    <path
      d="M44.5 34L32 58.7273L44.5 82L57 58.7273L44.5 34Z"
      stroke="#709CDD"
      stroke-width="2"
      stroke-linejoin="round"
    />
    <path
      d="M19.5 34L7 58.7273L19.5 82L32 58.7273L19.5 34Z"
      stroke="#709CDD"
      stroke-width="2"
      stroke-linejoin="round"
    />
    <path
      d="M144.5 34L132 58.7273L144.5 82L157 58.7273L144.5 34Z"
      stroke="#709CDD"
      stroke-width="2"
      stroke-linejoin="round"
    />
    <path
      d="M194.5 34L182 58.7273L194.5 82L207 58.7273L194.5 34Z"
      stroke="#709CDD"
      stroke-width="2"
      stroke-linejoin="round"
    />
    <path
      d="M94.5 34L82 58.7273L94.5 82L107 58.7273L94.5 34Z"
      stroke="#709CDD"
      stroke-width="2"
      stroke-linejoin="round"
    />
    <g filter="url(#filter0_d)">
      <path
        d="M107.5 26C93.9 26 76.5 17 69.5 12.5L77 9.5H138L147.5 12.5C139.833 17 121.1 26 107.5 26Z"
        fill="#FFC32B"
      />
    </g>
    <g filter="url(#filter1_i)">
      <path
        d="M107.5 101.5C91.1 101.5 67.3333 99.1667 57.5 98L54 112.5H161.5L157.5 98C147.667 99.1667 123.9 101.5 107.5 101.5Z"
        fill="#FFC32B"
      />
    </g>
    <g filter="url(#filter2_i)">
      <path d="M1.5 86.5L10 76.5C14.6667 80.6667 24.8 89.3 28 90.5L21 102L1.5 86.5Z" fill="#FFC32B" />
    </g>
    <g filter="url(#filter3_i)">
      <path d="M213.5 86.5L205 76.5C200.333 80.6667 190.2 89.3 187 90.5L194 102L213.5 86.5Z" fill="#FFC32B" />
    </g>
    <g filter="url(#filter4_f)">
      <path
        d="M108 19.5V26M102.5 19.5L101 26M97.5 18.5L95 24M92 17L88.5 22M87 15.5L83.5 19.5M82 13L78 17.5M78 11.5L73 14.5M112 19.5L113.5 26M117 18.5L119.5 24M122.5 17L126 22M127.5 15.5L131.5 20M132.5 13L137 18M136.5 11.5L142.5 15.5"
        stroke="#EAA800"
      />
    </g>
    <g filter="url(#filter5_f)">
      <path
        d="M60 98.5V112.5M67 99V112.5M74 100V113M81 100.5V113M88 101V113M95 101V113M102.5 101.5V113M110 101.5V113M118 101.5V112.5M127 101V112.5M134.5 100.5V112.5M142 99.5V112.5M149.5 98.5V112.5M156.5 98L157 112"
        stroke="#EAA800"
      />
    </g>
    <g filter="url(#filter6_f)">
      <path d="M12.5 78.5L5.5 86.5M16 82L9.5 90M20 85.5L13.5 94M24 88.5L18 97" stroke="#EAA800" />
    </g>
    <g filter="url(#filter7_f)">
      <path d="M201.5 79L208.5 87M198 82.5L204.5 90.5M194 86L200.5 94.5M190 89L196 97.5" stroke="#EAA800" />
    </g>
    <g filter="url(#filter8_i)">
      <path
        d="M106.5 19.5C94.9 19.5 82.6667 13.8333 78 11L79.5 8.5H133.5L137 11C131.833 13.8333 118.1 19.5 106.5 19.5Z"
        fill="#FFF5DD"
      />
    </g>
  </g>
  <defs>
    <filter
      id="filter0_d"
      x="67.5"
      y="8.5"
      width="82"
      height="20.5"
      filterUnits="userSpaceOnUse"
      color-interpolation-filters="sRGB"
    >
      <feFlood flood-opacity="0" result="BackgroundImageFix" />
      <feColorMatrix
        in="SourceAlpha"
        type="matrix"
        values="0 0 0 0 0 0 0 0 0 0 0 0 0 0 0 0 0 0 127 0"
        result="hardAlpha"
      />
      <feOffset dy="1" />
      <feGaussianBlur stdDeviation="1" />
      <feColorMatrix type="matrix" values="0 0 0 0 0.958333 0 0 0 0 0.723249 0 0 0 0 0.123785 0 0 0 0.8 0" />
      <feBlend mode="normal" in2="BackgroundImageFix" result="effect1_dropShadow" />
      <feBlend mode="normal" in="SourceGraphic" in2="effect1_dropShadow" result="shape" />
    </filter>
    <filter
      id="filter1_i"
      x="54"
      y="98"
      width="107.5"
      height="14.5"
      filterUnits="userSpaceOnUse"
      color-interpolation-filters="sRGB"
    >
      <feFlood flood-opacity="0" result="BackgroundImageFix" />
      <feBlend mode="normal" in="SourceGraphic" in2="BackgroundImageFix" result="shape" />
      <feColorMatrix
        in="SourceAlpha"
        type="matrix"
        values="0 0 0 0 0 0 0 0 0 0 0 0 0 0 0 0 0 0 127 0"
        result="hardAlpha"
      />
      <feOffset />
      <feGaussianBlur stdDeviation="1.5" />
      <feComposite in2="hardAlpha" operator="arithmetic" k2="-1" k3="1" />
      <feColorMatrix type="matrix" values="0 0 0 0 0.8375 0 0 0 0 0.631915 0 0 0 0 0.104688 0 0 0 0.8 0" />
      <feBlend mode="normal" in2="shape" result="effect1_innerShadow" />
    </filter>
    <filter
      id="filter2_i"
      x="1.5"
      y="76.5"
      width="26.5"
      height="26.5"
      filterUnits="userSpaceOnUse"
      color-interpolation-filters="sRGB"
    >
      <feFlood flood-opacity="0" result="BackgroundImageFix" />
      <feBlend mode="normal" in="SourceGraphic" in2="BackgroundImageFix" result="shape" />
      <feColorMatrix
        in="SourceAlpha"
        type="matrix"
        values="0 0 0 0 0 0 0 0 0 0 0 0 0 0 0 0 0 0 127 0"
        result="hardAlpha"
      />
      <feOffset dy="1" />
      <feGaussianBlur stdDeviation="1" />
      <feComposite in2="hardAlpha" operator="arithmetic" k2="-1" k3="1" />
      <feColorMatrix type="matrix" values="0 0 0 0 0.958333 0 0 0 0 0.723249 0 0 0 0 0.123785 0 0 0 0.8 0" />
      <feBlend mode="normal" in2="shape" result="effect1_innerShadow" />
    </filter>
    <filter
      id="filter3_i"
      x="187"
      y="76.5"
      width="26.5"
      height="26.5"
      filterUnits="userSpaceOnUse"
      color-interpolation-filters="sRGB"
    >
      <feFlood flood-opacity="0" result="BackgroundImageFix" />
      <feBlend mode="normal" in="SourceGraphic" in2="BackgroundImageFix" result="shape" />
      <feColorMatrix
        in="SourceAlpha"
        type="matrix"
        values="0 0 0 0 0 0 0 0 0 0 0 0 0 0 0 0 0 0 127 0"
        result="hardAlpha"
      />
      <feOffset dy="1" />
      <feGaussianBlur stdDeviation="1" />
      <feComposite in2="hardAlpha" operator="arithmetic" k2="-1" k3="1" />
      <feColorMatrix type="matrix" values="0 0 0 0 0.958333 0 0 0 0 0.723249 0 0 0 0 0.123785 0 0 0 0.8 0" />
      <feBlend mode="normal" in2="shape" result="effect1_innerShadow" />
    </filter>
    <filter
      id="filter4_f"
      x="70.7427"
      y="9.07126"
      width="74.0347"
      height="19.0412"
      filterUnits="userSpaceOnUse"
      color-interpolation-filters="sRGB"
    >
      <feFlood flood-opacity="0" result="BackgroundImageFix" />
      <feBlend mode="normal" in="SourceGraphic" in2="BackgroundImageFix" result="shape" />
      <feGaussianBlur stdDeviation="1" result="effect1_foregroundBlur" />
    </filter>
    <filter
      id="filter5_f"
      x="57.5"
      y="95.9821"
      width="102"
      height="19.0179"
      filterUnits="userSpaceOnUse"
      color-interpolation-filters="sRGB"
    >
      <feFlood flood-opacity="0" result="BackgroundImageFix" />
      <feBlend mode="normal" in="SourceGraphic" in2="BackgroundImageFix" result="shape" />
      <feGaussianBlur stdDeviation="1" result="effect1_foregroundBlur" />
    </filter>
    <filter
      id="filter6_f"
      x="3.12378"
      y="76.1707"
      width="23.2847"
      height="23.1176"
      filterUnits="userSpaceOnUse"
      color-interpolation-filters="sRGB"
    >
      <feFlood flood-opacity="0" result="BackgroundImageFix" />
      <feBlend mode="normal" in="SourceGraphic" in2="BackgroundImageFix" result="shape" />
      <feGaussianBlur stdDeviation="1" result="effect1_foregroundBlur" />
    </filter>
    <filter
      id="filter7_f"
      x="187.591"
      y="76.6707"
      width="23.2852"
      height="23.1176"
      filterUnits="userSpaceOnUse"
      color-interpolation-filters="sRGB"
    >
      <feFlood flood-opacity="0" result="BackgroundImageFix" />
      <feBlend mode="normal" in="SourceGraphic" in2="BackgroundImageFix" result="shape" />
      <feGaussianBlur stdDeviation="1" result="effect1_foregroundBlur" />
    </filter>
    <filter
      id="filter8_i"
      x="78"
      y="7.5"
      width="59"
      height="12"
      filterUnits="userSpaceOnUse"
      color-interpolation-filters="sRGB"
    >
      <feFlood flood-opacity="0" result="BackgroundImageFix" />
      <feBlend mode="normal" in="SourceGraphic" in2="BackgroundImageFix" result="shape" />
      <feColorMatrix
        in="SourceAlpha"
        type="matrix"
        values="0 0 0 0 0 0 0 0 0 0 0 0 0 0 0 0 0 0 127 0"
        result="hardAlpha"
      />
      <feOffset dy="-1" />
      <feGaussianBlur stdDeviation="1" />
      <feComposite in2="hardAlpha" operator="arithmetic" k2="-1" k3="1" />
      <feColorMatrix type="matrix" values="0 0 0 0 0.941667 0 0 0 0 0.73274 0 0 0 0 0.192257 0 0 0 0.4 0" />
      <feBlend mode="normal" in2="shape" result="effect1_innerShadow" />
    </filter>
  </defs>
</svg>
