<svg width="213" height="163" viewBox="0 0 213 163" fill="none" xmlns="http://www.w3.org/2000/svg">
  <mask id="mask0" style="mask-type: alpha" maskUnits="userSpaceOnUse" x="4" y="9" width="207" height="103">
    <path
      fill-rule="evenodd"
      d="M79.8232 9.70329C79.4017 10.2582 79 10.9929 79 11.5C68.9999 8.5 41.6 31.7 34 44.5C30.0297 51.1867 25.0115 55.6029 20.6242 59.4639C14.5136 64.8414 9.62684 69.1419 10.5 77C8.16662 78.8333 3.69995 83 4.49995 85C7.83328 88.8333 15.4999 96.7 19.4999 97.5C23.4999 97.5 26.8333 92.8333 27.9999 90.5C32.4999 92 47.1999 80.2 49.9999 75C52.7999 69.8 58.8333 63.1667 61.5 60.5C56.6666 71.1667 49.0999 93.5 57.4999 97.5C56.8333 100.833 56.1999 108.7 56.9999 109.5C70.9999 111.5 99.5999 111.5 106 111.5C112.4 111.5 149.5 111 158.5 109.5C159.3 108.7 158.167 100.833 157.5 97.5C165.9 93.5 158.333 71.1667 153.5 60.5C156.167 63.1667 162.2 69.8 165 75C167.8 80.2 182.5 92 187 90.5C188.167 92.8333 191.5 97.5 195.5 97.5C199.5 96.7 207.167 88.8333 210.5 85C211.3 83 206.833 78.8333 204.5 77C205.373 69.1419 200.486 64.8414 194.376 59.4639C189.988 55.6029 184.97 51.1867 181 44.5C173.4 31.7 146 8.5 136 11.5C136 10.961 134.865 10.1647 133.972 9.60059C131.229 10.2999 128.012 10.9912 124.432 11.5659C118.83 13.1314 112.353 15.2767 107 20C102.815 15.5159 96.3657 13.3553 90.5379 11.8084C86.5001 11.2181 82.8801 10.4687 79.8232 9.70329Z"
      fill="black"
    />
  </mask>
  <g mask="url(#mask0)">
    <rect width="213" height="163" transform="matrix(-1 0 0 1 213 0)" fill="#7B853C" />
    <g filter="url(#filter0_dd)">
      <path
        d="M100 101.5C98.4 97.9 100.667 45 102 19C105.2 17.8 106.667 19.5 107 20.5V101.5C105.333 103 101.6 105.1 100 101.5Z"
        fill="#626F40"
      />
    </g>
    <g filter="url(#filter1_dd)">
      <path
        d="M114 101.5C115.6 97.9 113.333 45 112 19C108.8 17.8 107.333 19.5 107 20.5V101.5C108.667 103 112.4 105.1 114 101.5Z"
        fill="#626F40"
      />
    </g>
    <g filter="url(#filter2_dd)">
      <path
        d="M177.38 51.4429C177.079 50.3824 167.307 39.0468 162.459 33.5116C161.584 33.7732 161.579 34.3911 161.685 34.6674L175.928 52.5962C176.537 52.6536 177.681 52.5033 177.38 51.4429Z"
        fill="#626F40"
      />
    </g>
    <g filter="url(#filter3_dd)">
      <path
        d="M173.693 54.3716C172.728 53.8384 163.897 41.7558 159.602 35.7812C160.054 34.9883 160.657 35.123 160.902 35.2894L175.145 53.2182C175.063 53.8248 174.658 54.9048 173.693 54.3716Z"
        fill="#626F40"
      />
    </g>
    <path
      d="M107.5 99.5C95.5 99.5 69.1667 98.1667 57.5 97.5L49 96.5L57.5 113.5H159.5L164 96.5L157.5 97.5C145.833 98.1667 119.5 99.5 107.5 99.5Z"
      fill="#344432"
    />
    <g filter="url(#filter4_d)">
      <rect x="105" y="22" width="4" height="92" fill="url(#paint0_linear)" />
    </g>
    <g filter="url(#filter5_d)">
      <rect
        x="161.188"
        y="35.649"
        width="1"
        height="22"
        transform="rotate(-38.4633 161.188 35.649)"
        fill="url(#paint1_linear)"
      />
    </g>
    <g filter="url(#filter6_i)">
      <path
        d="M106.5 20C94.9 20 83.6667 14.3333 79 11.5L78.5 10L79.5 9H133.5L136.5 10L136 11.5C130.833 14.3333 118.1 20 106.5 20Z"
        fill="#344432"
      />
    </g>
    <g filter="url(#filter7_i)">
      <path d="M1 86L9.5 76C14.1667 80.1667 25.8 89.8 29 91L20.5 101.5L1 86Z" fill="#344432" />
    </g>
    <g filter="url(#filter8_i)">
      <path d="M213 86L205 76.5C200.333 80.6667 189.2 89.8 186 91L193.5 101.5L213 86Z" fill="#344432" />
    </g>
    <g filter="url(#filter9_d)">
      <rect x="104" y="20" width="6" height="7" rx="1" fill="#DCDCDC" />
    </g>
    <g filter="url(#filter10_d)">
      <rect
        x="161"
        y="36.3798"
        width="2.05389"
        height="2.3962"
        rx="1"
        transform="rotate(-42.2068 161 36.3798)"
        fill="#DCDCDC"
      />
    </g>
    <g filter="url(#filter11_d)">
      <path
        fill-rule="evenodd"
        d="M105.556 27C105.098 27 104.699 27.3111 104.587 27.7552L102.314 36.7552C102.155 37.3869 102.632 38 103.284 38H110.716C111.367 38 111.845 37.3869 111.685 36.7552L109.413 27.7552C109.301 27.3111 108.901 27 108.443 27H105.556ZM107 31C106.448 31 106 31.4477 106 32V35C106 35.5523 106.448 36 107 36C107.552 36 108 35.5523 108 35V32C108 31.4477 107.552 31 107 31Z"
        fill="#EFEFEF"
      />
    </g>
    <g filter="url(#filter12_d)">
      <path
        fill-rule="evenodd"
        d="M163.37 37.4648C163.039 37.7653 162.954 38.2525 163.164 38.6473L164.029 40.2706C164.335 40.8457 165.101 40.979 165.583 40.5413L166.217 39.9667C166.699 39.529 166.641 38.754 166.099 38.3933L164.567 37.375C164.195 37.1273 163.702 37.1643 163.37 37.4648ZM164.29 38.4791C164.15 38.6061 164.139 38.8226 164.266 38.9627L164.956 39.7233C165.083 39.8634 165.3 39.8739 165.44 39.7469C165.58 39.6199 165.59 39.4034 165.463 39.2634L164.773 38.5027C164.646 38.3627 164.43 38.3521 164.29 38.4791Z"
        fill="#EFEFEF"
      />
    </g>
    <g filter="url(#filter13_dd)">
      <path
        d="M37.4636 51.4429C37.7647 50.3824 47.5364 39.0468 52.3846 33.5116C53.2593 33.7732 53.2646 34.3911 53.1579 34.6674L38.9154 52.5962C38.306 52.6536 37.1624 52.5033 37.4636 51.4429Z"
        fill="#626F40"
      />
    </g>
    <g filter="url(#filter14_dd)">
      <path
        d="M41.1503 54.3716C42.1152 53.8384 50.9466 41.7558 55.2417 35.7812C54.789 34.9883 54.1859 35.123 53.9409 35.2894L39.6984 53.2182C39.7804 53.8248 40.1855 54.9048 41.1503 54.3716Z"
        fill="#626F40"
      />
    </g>
    <g filter="url(#filter15_d)">
      <rect
        width="1"
        height="22"
        transform="matrix(-0.783007 -0.622013 -0.622013 0.783007 53.6548 35.649)"
        fill="url(#paint2_linear)"
      />
    </g>
    <g filter="url(#filter16_d)">
      <rect
        width="2.05389"
        height="2.3962"
        rx="1"
        transform="matrix(-0.740725 -0.671809 -0.671809 0.740725 53.8433 36.3798)"
        fill="#DCDCDC"
      />
    </g>
    <g filter="url(#filter17_d)">
      <path
        fill-rule="evenodd"
        d="M51.4729 37.4648C51.8042 37.7653 51.8891 38.2525 51.6788 38.6473L50.8145 40.2706C50.5082 40.8457 49.7426 40.979 49.26 40.5413L48.6264 39.9667C48.1438 39.529 48.202 38.754 48.7446 38.3933L50.276 37.375C50.6484 37.1273 51.1416 37.1643 51.4729 37.4648ZM50.5534 38.4791C50.6934 38.6061 50.704 38.8226 50.577 38.9627L49.887 39.7233C49.76 39.8634 49.5435 39.8739 49.4035 39.7469C49.2635 39.6199 49.2529 39.4034 49.3799 39.2634L50.0698 38.5027C50.1968 38.3627 50.4133 38.3521 50.5534 38.4791Z"
        fill="#EFEFEF"
      />
    </g>
    <g filter="url(#filter18_f)">
      <path
        d="M61 100L60 112.5M68.5 100L67.5 113.5M75.5 100.5L75 114.5M83 101V115.5M91 101V115.5M99.5 101.5V115.5M153 100L154 112.5M145.5 100L146.5 113.5M138.5 100.5L139 114.5M131 101V115.5M123 101V115.5M114.5 101.5V115.5"
        stroke="#222621"
      />
    </g>
    <g filter="url(#filter19_d)">
      <path
        d="M76.4115 61C75.0617 61 67 76 67 80.5C67.8184 82.5 71.5011 83 73.1379 83C74.7747 83 82.1402 79 83.777 76C84.5953 72 82.9586 66 82.1402 64C81.3218 62 78.0482 61 76.4115 61Z"
        fill="#899F59"
      />
    </g>
    <g filter="url(#filter20_d)">
      <circle cx="77" cy="73" r="3" fill="#A7C46C" />
    </g>
    <g filter="url(#filter21_d)">
      <path
        d="M137.589 61C138.938 61 147 76 147 80.5C146.182 82.5 142.499 83 140.862 83C139.225 83 131.86 79 130.223 76C129.405 72 131.041 66 131.86 64C132.678 62 135.952 61 137.589 61Z"
        fill="#899F59"
      />
    </g>
    <g filter="url(#filter22_d)">
      <circle r="3" transform="matrix(-1 0 0 1 137 73)" fill="#A7C46C" />
    </g>
    <g filter="url(#filter23_f)">
      <path d="M12.5 79L5 87M16.5 82.5L8 92M21 86L12.5 95.5M25 89L17 97.5" stroke="#182516" />
    </g>
    <g filter="url(#filter24_f)">
      <path d="M203.5 79L211 87M199.5 82.5L208 92M195 86L203.5 95.5M191 89L199 97.5" stroke="#182516" />
    </g>
  </g>
  <defs>
    <filter
      id="filter0_dd"
      x="96.4497"
      y="15.5873"
      width="13.5503"
      height="90.9005"
      filterUnits="userSpaceOnUse"
      color-interpolation-filters="sRGB"
    >
      <feFlood flood-opacity="0" result="BackgroundImageFix" />
      <feColorMatrix
        in="SourceAlpha"
        type="matrix"
        values="0 0 0 0 0 0 0 0 0 0 0 0 0 0 0 0 0 0 127 0"
        result="hardAlpha"
      />
      <feOffset />
      <feGaussianBlur stdDeviation="1.5" />
      <feColorMatrix type="matrix" values="0 0 0 0 0.321569 0 0 0 0 0.423529 0 0 0 0 0.192157 0 0 0 0.3 0" />
      <feBlend mode="normal" in2="BackgroundImageFix" result="effect1_dropShadow" />
      <feColorMatrix
        in="SourceAlpha"
        type="matrix"
        values="0 0 0 0 0 0 0 0 0 0 0 0 0 0 0 0 0 0 127 0"
        result="hardAlpha"
      />
      <feOffset />
      <feGaussianBlur stdDeviation="1.5" />
      <feColorMatrix type="matrix" values="0 0 0 0 0.32215 0 0 0 0 0.425 0 0 0 0 0.19125 0 0 0 0.3 0" />
      <feBlend mode="normal" in2="effect1_dropShadow" result="effect2_dropShadow" />
      <feBlend mode="normal" in="SourceGraphic" in2="effect2_dropShadow" result="shape" />
    </filter>
    <filter
      id="filter1_dd"
      x="104"
      y="15.5873"
      width="13.5503"
      height="90.9005"
      filterUnits="userSpaceOnUse"
      color-interpolation-filters="sRGB"
    >
      <feFlood flood-opacity="0" result="BackgroundImageFix" />
      <feColorMatrix
        in="SourceAlpha"
        type="matrix"
        values="0 0 0 0 0 0 0 0 0 0 0 0 0 0 0 0 0 0 127 0"
        result="hardAlpha"
      />
      <feOffset />
      <feGaussianBlur stdDeviation="1.5" />
      <feColorMatrix type="matrix" values="0 0 0 0 0.321569 0 0 0 0 0.423529 0 0 0 0 0.192157 0 0 0 0.3 0" />
      <feBlend mode="normal" in2="BackgroundImageFix" result="effect1_dropShadow" />
      <feColorMatrix
        in="SourceAlpha"
        type="matrix"
        values="0 0 0 0 0 0 0 0 0 0 0 0 0 0 0 0 0 0 127 0"
        result="hardAlpha"
      />
      <feOffset />
      <feGaussianBlur stdDeviation="1.5" />
      <feColorMatrix type="matrix" values="0 0 0 0 0.32215 0 0 0 0 0.425 0 0 0 0 0.19125 0 0 0 0.3 0" />
      <feBlend mode="normal" in2="effect1_dropShadow" result="effect2_dropShadow" />
      <feBlend mode="normal" in="SourceGraphic" in2="effect2_dropShadow" result="shape" />
    </filter>
    <filter
      id="filter2_dd"
      x="158.638"
      y="30.5116"
      width="21.791"
      height="25.0952"
      filterUnits="userSpaceOnUse"
      color-interpolation-filters="sRGB"
    >
      <feFlood flood-opacity="0" result="BackgroundImageFix" />
      <feColorMatrix
        in="SourceAlpha"
        type="matrix"
        values="0 0 0 0 0 0 0 0 0 0 0 0 0 0 0 0 0 0 127 0"
        result="hardAlpha"
      />
      <feOffset />
      <feGaussianBlur stdDeviation="1.5" />
      <feColorMatrix type="matrix" values="0 0 0 0 0.321569 0 0 0 0 0.423529 0 0 0 0 0.192157 0 0 0 0.3 0" />
      <feBlend mode="normal" in2="BackgroundImageFix" result="effect1_dropShadow" />
      <feColorMatrix
        in="SourceAlpha"
        type="matrix"
        values="0 0 0 0 0 0 0 0 0 0 0 0 0 0 0 0 0 0 127 0"
        result="hardAlpha"
      />
      <feOffset />
      <feGaussianBlur stdDeviation="1.5" />
      <feColorMatrix type="matrix" values="0 0 0 0 0.32215 0 0 0 0 0.425 0 0 0 0 0.19125 0 0 0 0.3 0" />
      <feBlend mode="normal" in2="effect1_dropShadow" result="effect2_dropShadow" />
      <feBlend mode="normal" in="SourceGraphic" in2="effect2_dropShadow" result="shape" />
    </filter>
    <filter
      id="filter3_dd"
      x="156.602"
      y="32.1623"
      width="21.5435"
      height="25.3528"
      filterUnits="userSpaceOnUse"
      color-interpolation-filters="sRGB"
    >
      <feFlood flood-opacity="0" result="BackgroundImageFix" />
      <feColorMatrix
        in="SourceAlpha"
        type="matrix"
        values="0 0 0 0 0 0 0 0 0 0 0 0 0 0 0 0 0 0 127 0"
        result="hardAlpha"
      />
      <feOffset />
      <feGaussianBlur stdDeviation="1.5" />
      <feColorMatrix type="matrix" values="0 0 0 0 0.321569 0 0 0 0 0.423529 0 0 0 0 0.192157 0 0 0 0.3 0" />
      <feBlend mode="normal" in2="BackgroundImageFix" result="effect1_dropShadow" />
      <feColorMatrix
        in="SourceAlpha"
        type="matrix"
        values="0 0 0 0 0 0 0 0 0 0 0 0 0 0 0 0 0 0 127 0"
        result="hardAlpha"
      />
      <feOffset />
      <feGaussianBlur stdDeviation="1.5" />
      <feColorMatrix type="matrix" values="0 0 0 0 0.32215 0 0 0 0 0.425 0 0 0 0 0.19125 0 0 0 0.3 0" />
      <feBlend mode="normal" in2="effect1_dropShadow" result="effect2_dropShadow" />
      <feBlend mode="normal" in="SourceGraphic" in2="effect2_dropShadow" result="shape" />
    </filter>
    <filter
      id="filter4_d"
      x="102"
      y="20"
      width="10"
      height="98"
      filterUnits="userSpaceOnUse"
      color-interpolation-filters="sRGB"
    >
      <feFlood flood-opacity="0" result="BackgroundImageFix" />
      <feColorMatrix
        in="SourceAlpha"
        type="matrix"
        values="0 0 0 0 0 0 0 0 0 0 0 0 0 0 0 0 0 0 127 0"
        result="hardAlpha"
      />
      <feOffset dy="1" />
      <feGaussianBlur stdDeviation="1.5" />
      <feColorMatrix type="matrix" values="0 0 0 0 0.208761 0 0 0 0 0.320833 0 0 0 0 0.139028 0 0 0 0.3 0" />
      <feBlend mode="normal" in2="BackgroundImageFix" result="effect1_dropShadow" />
      <feBlend mode="normal" in="SourceGraphic" in2="effect1_dropShadow" result="shape" />
    </filter>
    <filter
      id="filter5_d"
      x="158.188"
      y="33.027"
      width="20.4673"
      height="23.8482"
      filterUnits="userSpaceOnUse"
      color-interpolation-filters="sRGB"
    >
      <feFlood flood-opacity="0" result="BackgroundImageFix" />
      <feColorMatrix
        in="SourceAlpha"
        type="matrix"
        values="0 0 0 0 0 0 0 0 0 0 0 0 0 0 0 0 0 0 127 0"
        result="hardAlpha"
      />
      <feOffset dy="1" />
      <feGaussianBlur stdDeviation="1.5" />
      <feColorMatrix type="matrix" values="0 0 0 0 0.208761 0 0 0 0 0.320833 0 0 0 0 0.139028 0 0 0 0.3 0" />
      <feBlend mode="normal" in2="BackgroundImageFix" result="effect1_dropShadow" />
      <feBlend mode="normal" in="SourceGraphic" in2="effect1_dropShadow" result="shape" />
    </filter>
    <filter
      id="filter6_i"
      x="78.5"
      y="8"
      width="58"
      height="12"
      filterUnits="userSpaceOnUse"
      color-interpolation-filters="sRGB"
    >
      <feFlood flood-opacity="0" result="BackgroundImageFix" />
      <feBlend mode="normal" in="SourceGraphic" in2="BackgroundImageFix" result="shape" />
      <feColorMatrix
        in="SourceAlpha"
        type="matrix"
        values="0 0 0 0 0 0 0 0 0 0 0 0 0 0 0 0 0 0 127 0"
        result="hardAlpha"
      />
      <feOffset dy="-1" />
      <feGaussianBlur stdDeviation="1" />
      <feComposite in2="hardAlpha" operator="arithmetic" k2="-1" k3="1" />
      <feColorMatrix type="matrix" values="0 0 0 0 0.0627451 0 0 0 0 0.105882 0 0 0 0 0.054902 0 0 0 0.4 0" />
      <feBlend mode="normal" in2="shape" result="effect1_innerShadow" />
    </filter>
    <filter
      id="filter7_i"
      x="1"
      y="76"
      width="28"
      height="26.5"
      filterUnits="userSpaceOnUse"
      color-interpolation-filters="sRGB"
    >
      <feFlood flood-opacity="0" result="BackgroundImageFix" />
      <feBlend mode="normal" in="SourceGraphic" in2="BackgroundImageFix" result="shape" />
      <feColorMatrix
        in="SourceAlpha"
        type="matrix"
        values="0 0 0 0 0 0 0 0 0 0 0 0 0 0 0 0 0 0 127 0"
        result="hardAlpha"
      />
      <feOffset dy="1" />
      <feGaussianBlur stdDeviation="1" />
      <feComposite in2="hardAlpha" operator="arithmetic" k2="-1" k3="1" />
      <feColorMatrix type="matrix" values="0 0 0 0 0.0609568 0 0 0 0 0.104167 0 0 0 0 0.0555556 0 0 0 1 0" />
      <feBlend mode="normal" in2="shape" result="effect1_innerShadow" />
    </filter>
    <filter
      id="filter8_i"
      x="186"
      y="76.5"
      width="27"
      height="26"
      filterUnits="userSpaceOnUse"
      color-interpolation-filters="sRGB"
    >
      <feFlood flood-opacity="0" result="BackgroundImageFix" />
      <feBlend mode="normal" in="SourceGraphic" in2="BackgroundImageFix" result="shape" />
      <feColorMatrix
        in="SourceAlpha"
        type="matrix"
        values="0 0 0 0 0 0 0 0 0 0 0 0 0 0 0 0 0 0 127 0"
        result="hardAlpha"
      />
      <feOffset dy="1" />
      <feGaussianBlur stdDeviation="1" />
      <feComposite in2="hardAlpha" operator="arithmetic" k2="-1" k3="1" />
      <feColorMatrix type="matrix" values="0 0 0 0 0.0627451 0 0 0 0 0.105882 0 0 0 0 0.054902 0 0 0 0.8 0" />
      <feBlend mode="normal" in2="shape" result="effect1_innerShadow" />
    </filter>
    <filter
      id="filter9_d"
      x="102"
      y="19"
      width="10"
      height="11"
      filterUnits="userSpaceOnUse"
      color-interpolation-filters="sRGB"
    >
      <feFlood flood-opacity="0" result="BackgroundImageFix" />
      <feColorMatrix
        in="SourceAlpha"
        type="matrix"
        values="0 0 0 0 0 0 0 0 0 0 0 0 0 0 0 0 0 0 127 0"
        result="hardAlpha"
      />
      <feOffset dy="1" />
      <feGaussianBlur stdDeviation="1" />
      <feColorMatrix type="matrix" values="0 0 0 0 0.182477 0 0 0 0 0.383333 0 0 0 0 0.0575 0 0 0 0.7 0" />
      <feBlend mode="normal" in2="BackgroundImageFix" result="effect1_dropShadow" />
      <feBlend mode="normal" in="SourceGraphic" in2="effect1_dropShadow" result="shape" />
    </filter>
    <filter
      id="filter10_d"
      x="159.413"
      y="34.4125"
      width="6.30615"
      height="6.32968"
      filterUnits="userSpaceOnUse"
      color-interpolation-filters="sRGB"
    >
      <feFlood flood-opacity="0" result="BackgroundImageFix" />
      <feColorMatrix
        in="SourceAlpha"
        type="matrix"
        values="0 0 0 0 0 0 0 0 0 0 0 0 0 0 0 0 0 0 127 0"
        result="hardAlpha"
      />
      <feOffset dy="1" />
      <feGaussianBlur stdDeviation="1" />
      <feColorMatrix type="matrix" values="0 0 0 0 0.182477 0 0 0 0 0.383333 0 0 0 0 0.0575 0 0 0 0.7 0" />
      <feBlend mode="normal" in2="BackgroundImageFix" result="effect1_dropShadow" />
      <feBlend mode="normal" in="SourceGraphic" in2="effect1_dropShadow" result="shape" />
    </filter>
    <filter
      id="filter11_d"
      x="100.283"
      y="26"
      width="13.4331"
      height="15"
      filterUnits="userSpaceOnUse"
      color-interpolation-filters="sRGB"
    >
      <feFlood flood-opacity="0" result="BackgroundImageFix" />
      <feColorMatrix
        in="SourceAlpha"
        type="matrix"
        values="0 0 0 0 0 0 0 0 0 0 0 0 0 0 0 0 0 0 127 0"
        result="hardAlpha"
      />
      <feOffset dy="1" />
      <feGaussianBlur stdDeviation="1" />
      <feColorMatrix type="matrix" values="0 0 0 0 0.429167 0 0 0 0 0.429167 0 0 0 0 0.429167 0 0 0 0.4 0" />
      <feBlend mode="normal" in2="BackgroundImageFix" result="effect1_dropShadow" />
      <feBlend mode="normal" in="SourceGraphic" in2="effect1_dropShadow" result="shape" />
    </filter>
    <filter
      id="filter12_d"
      x="161.05"
      y="36.2116"
      width="7.49512"
      height="7.58914"
      filterUnits="userSpaceOnUse"
      color-interpolation-filters="sRGB"
    >
      <feFlood flood-opacity="0" result="BackgroundImageFix" />
      <feColorMatrix
        in="SourceAlpha"
        type="matrix"
        values="0 0 0 0 0 0 0 0 0 0 0 0 0 0 0 0 0 0 127 0"
        result="hardAlpha"
      />
      <feOffset dy="1" />
      <feGaussianBlur stdDeviation="1" />
      <feColorMatrix type="matrix" values="0 0 0 0 0.429167 0 0 0 0 0.429167 0 0 0 0 0.429167 0 0 0 0.4 0" />
      <feBlend mode="normal" in2="BackgroundImageFix" result="effect1_dropShadow" />
      <feBlend mode="normal" in="SourceGraphic" in2="effect1_dropShadow" result="shape" />
    </filter>
    <filter
      id="filter13_dd"
      x="34.4141"
      y="30.5116"
      width="21.791"
      height="25.0952"
      filterUnits="userSpaceOnUse"
      color-interpolation-filters="sRGB"
    >
      <feFlood flood-opacity="0" result="BackgroundImageFix" />
      <feColorMatrix
        in="SourceAlpha"
        type="matrix"
        values="0 0 0 0 0 0 0 0 0 0 0 0 0 0 0 0 0 0 127 0"
        result="hardAlpha"
      />
      <feOffset />
      <feGaussianBlur stdDeviation="1.5" />
      <feColorMatrix type="matrix" values="0 0 0 0 0.321569 0 0 0 0 0.423529 0 0 0 0 0.192157 0 0 0 0.3 0" />
      <feBlend mode="normal" in2="BackgroundImageFix" result="effect1_dropShadow" />
      <feColorMatrix
        in="SourceAlpha"
        type="matrix"
        values="0 0 0 0 0 0 0 0 0 0 0 0 0 0 0 0 0 0 127 0"
        result="hardAlpha"
      />
      <feOffset />
      <feGaussianBlur stdDeviation="1.5" />
      <feColorMatrix type="matrix" values="0 0 0 0 0.32215 0 0 0 0 0.425 0 0 0 0 0.19125 0 0 0 0.3 0" />
      <feBlend mode="normal" in2="effect1_dropShadow" result="effect2_dropShadow" />
      <feBlend mode="normal" in="SourceGraphic" in2="effect2_dropShadow" result="shape" />
    </filter>
    <filter
      id="filter14_dd"
      x="36.6985"
      y="32.1623"
      width="21.5432"
      height="25.3528"
      filterUnits="userSpaceOnUse"
      color-interpolation-filters="sRGB"
    >
      <feFlood flood-opacity="0" result="BackgroundImageFix" />
      <feColorMatrix
        in="SourceAlpha"
        type="matrix"
        values="0 0 0 0 0 0 0 0 0 0 0 0 0 0 0 0 0 0 127 0"
        result="hardAlpha"
      />
      <feOffset />
      <feGaussianBlur stdDeviation="1.5" />
      <feColorMatrix type="matrix" values="0 0 0 0 0.321569 0 0 0 0 0.423529 0 0 0 0 0.192157 0 0 0 0.3 0" />
      <feBlend mode="normal" in2="BackgroundImageFix" result="effect1_dropShadow" />
      <feColorMatrix
        in="SourceAlpha"
        type="matrix"
        values="0 0 0 0 0 0 0 0 0 0 0 0 0 0 0 0 0 0 127 0"
        result="hardAlpha"
      />
      <feOffset />
      <feGaussianBlur stdDeviation="1.5" />
      <feColorMatrix type="matrix" values="0 0 0 0 0.32215 0 0 0 0 0.425 0 0 0 0 0.19125 0 0 0 0.3 0" />
      <feBlend mode="normal" in2="effect1_dropShadow" result="effect2_dropShadow" />
      <feBlend mode="normal" in="SourceGraphic" in2="effect2_dropShadow" result="shape" />
    </filter>
    <filter
      id="filter15_d"
      x="36.1875"
      y="33.027"
      width="20.4673"
      height="23.8482"
      filterUnits="userSpaceOnUse"
      color-interpolation-filters="sRGB"
    >
      <feFlood flood-opacity="0" result="BackgroundImageFix" />
      <feColorMatrix
        in="SourceAlpha"
        type="matrix"
        values="0 0 0 0 0 0 0 0 0 0 0 0 0 0 0 0 0 0 127 0"
        result="hardAlpha"
      />
      <feOffset dy="1" />
      <feGaussianBlur stdDeviation="1.5" />
      <feColorMatrix type="matrix" values="0 0 0 0 0.208761 0 0 0 0 0.320833 0 0 0 0 0.139028 0 0 0 0.3 0" />
      <feBlend mode="normal" in2="BackgroundImageFix" result="effect1_dropShadow" />
      <feBlend mode="normal" in="SourceGraphic" in2="effect1_dropShadow" result="shape" />
    </filter>
    <filter
      id="filter16_d"
      x="49.1245"
      y="34.4125"
      width="6.30615"
      height="6.32968"
      filterUnits="userSpaceOnUse"
      color-interpolation-filters="sRGB"
    >
      <feFlood flood-opacity="0" result="BackgroundImageFix" />
      <feColorMatrix
        in="SourceAlpha"
        type="matrix"
        values="0 0 0 0 0 0 0 0 0 0 0 0 0 0 0 0 0 0 127 0"
        result="hardAlpha"
      />
      <feOffset dy="1" />
      <feGaussianBlur stdDeviation="1" />
      <feColorMatrix type="matrix" values="0 0 0 0 0.182477 0 0 0 0 0.383333 0 0 0 0 0.0575 0 0 0 0.7 0" />
      <feBlend mode="normal" in2="BackgroundImageFix" result="effect1_dropShadow" />
      <feBlend mode="normal" in="SourceGraphic" in2="effect1_dropShadow" result="shape" />
    </filter>
    <filter
      id="filter17_d"
      x="46.2983"
      y="36.2116"
      width="7.49512"
      height="7.58914"
      filterUnits="userSpaceOnUse"
      color-interpolation-filters="sRGB"
    >
      <feFlood flood-opacity="0" result="BackgroundImageFix" />
      <feColorMatrix
        in="SourceAlpha"
        type="matrix"
        values="0 0 0 0 0 0 0 0 0 0 0 0 0 0 0 0 0 0 127 0"
        result="hardAlpha"
      />
      <feOffset dy="1" />
      <feGaussianBlur stdDeviation="1" />
      <feColorMatrix type="matrix" values="0 0 0 0 0.429167 0 0 0 0 0.429167 0 0 0 0 0.429167 0 0 0 0.4 0" />
      <feBlend mode="normal" in2="BackgroundImageFix" result="effect1_dropShadow" />
      <feBlend mode="normal" in="SourceGraphic" in2="effect1_dropShadow" result="shape" />
    </filter>
    <filter
      id="filter18_f"
      x="56.5015"
      y="96.9601"
      width="100.997"
      height="21.5399"
      filterUnits="userSpaceOnUse"
      color-interpolation-filters="sRGB"
    >
      <feFlood flood-opacity="0" result="BackgroundImageFix" />
      <feBlend mode="normal" in="SourceGraphic" in2="BackgroundImageFix" result="shape" />
      <feGaussianBlur stdDeviation="1.5" result="effect1_foregroundBlur" />
    </filter>
    <filter
      id="filter19_d"
      x="64"
      y="60"
      width="21"
      height="26"
      filterUnits="userSpaceOnUse"
      color-interpolation-filters="sRGB"
    >
      <feFlood flood-opacity="0" result="BackgroundImageFix" />
      <feColorMatrix
        in="SourceAlpha"
        type="matrix"
        values="0 0 0 0 0 0 0 0 0 0 0 0 0 0 0 0 0 0 127 0"
        result="hardAlpha"
      />
      <feOffset dx="-1" dy="1" />
      <feGaussianBlur stdDeviation="1" />
      <feColorMatrix type="matrix" values="0 0 0 0 0.357 0 0 0 0 0.495833 0 0 0 0 0.0619792 0 0 0 0.4 0" />
      <feBlend mode="normal" in2="BackgroundImageFix" result="effect1_dropShadow" />
      <feBlend mode="normal" in="SourceGraphic" in2="effect1_dropShadow" result="shape" />
    </filter>
    <filter
      id="filter20_d"
      x="72"
      y="69"
      width="10"
      height="10"
      filterUnits="userSpaceOnUse"
      color-interpolation-filters="sRGB"
    >
      <feFlood flood-opacity="0" result="BackgroundImageFix" />
      <feColorMatrix
        in="SourceAlpha"
        type="matrix"
        values="0 0 0 0 0 0 0 0 0 0 0 0 0 0 0 0 0 0 127 0"
        result="hardAlpha"
      />
      <feOffset dy="1" />
      <feGaussianBlur stdDeviation="1" />
      <feColorMatrix type="matrix" values="0 0 0 0 0.404534 0 0 0 0 0.595833 0 0 0 0 0.285504 0 0 0 0.8 0" />
      <feBlend mode="normal" in2="BackgroundImageFix" result="effect1_dropShadow" />
      <feBlend mode="normal" in="SourceGraphic" in2="effect1_dropShadow" result="shape" />
    </filter>
    <filter
      id="filter21_d"
      x="127"
      y="60"
      width="21"
      height="26"
      filterUnits="userSpaceOnUse"
      color-interpolation-filters="sRGB"
    >
      <feFlood flood-opacity="0" result="BackgroundImageFix" />
      <feColorMatrix
        in="SourceAlpha"
        type="matrix"
        values="0 0 0 0 0 0 0 0 0 0 0 0 0 0 0 0 0 0 127 0"
        result="hardAlpha"
      />
      <feOffset dx="-1" dy="1" />
      <feGaussianBlur stdDeviation="1" />
      <feColorMatrix type="matrix" values="0 0 0 0 0.357 0 0 0 0 0.495833 0 0 0 0 0.0619792 0 0 0 0.4 0" />
      <feBlend mode="normal" in2="BackgroundImageFix" result="effect1_dropShadow" />
      <feBlend mode="normal" in="SourceGraphic" in2="effect1_dropShadow" result="shape" />
    </filter>
    <filter
      id="filter22_d"
      x="132"
      y="69"
      width="10"
      height="10"
      filterUnits="userSpaceOnUse"
      color-interpolation-filters="sRGB"
    >
      <feFlood flood-opacity="0" result="BackgroundImageFix" />
      <feColorMatrix
        in="SourceAlpha"
        type="matrix"
        values="0 0 0 0 0 0 0 0 0 0 0 0 0 0 0 0 0 0 127 0"
        result="hardAlpha"
      />
      <feOffset dy="1" />
      <feGaussianBlur stdDeviation="1" />
      <feColorMatrix type="matrix" values="0 0 0 0 0.404534 0 0 0 0 0.595833 0 0 0 0 0.285504 0 0 0 0.8 0" />
      <feBlend mode="normal" in2="BackgroundImageFix" result="effect1_dropShadow" />
      <feBlend mode="normal" in="SourceGraphic" in2="effect1_dropShadow" result="shape" />
    </filter>
    <filter
      id="filter23_f"
      x="2.63525"
      y="76.658"
      width="24.7288"
      height="23.1846"
      filterUnits="userSpaceOnUse"
      color-interpolation-filters="sRGB"
    >
      <feFlood flood-opacity="0" result="BackgroundImageFix" />
      <feBlend mode="normal" in="SourceGraphic" in2="BackgroundImageFix" result="shape" />
      <feGaussianBlur stdDeviation="1" result="effect1_foregroundBlur" />
    </filter>
    <filter
      id="filter24_f"
      x="188.636"
      y="76.658"
      width="24.729"
      height="23.1846"
      filterUnits="userSpaceOnUse"
      color-interpolation-filters="sRGB"
    >
      <feFlood flood-opacity="0" result="BackgroundImageFix" />
      <feBlend mode="normal" in="SourceGraphic" in2="BackgroundImageFix" result="shape" />
      <feGaussianBlur stdDeviation="1" result="effect1_foregroundBlur" />
    </filter>
    <linearGradient id="paint0_linear" x1="107" y1="22" x2="107" y2="114" gradientUnits="userSpaceOnUse">
      <stop stop-color="#F0F0F0" />
      <stop offset="1" stop-color="#BEBEBE" />
    </linearGradient>
    <linearGradient id="paint1_linear" x1="161.688" y1="35.649" x2="161.688" y2="57.649" gradientUnits="userSpaceOnUse">
      <stop stop-color="#F0F0F0" />
      <stop offset="1" stop-color="#BEBEBE" />
    </linearGradient>
    <linearGradient id="paint2_linear" x1="0.5" y1="0" x2="0.5" y2="22" gradientUnits="userSpaceOnUse">
      <stop stop-color="#F0F0F0" />
      <stop offset="1" stop-color="#BEBEBE" />
    </linearGradient>
  </defs>
</svg>
