<svg width="213" height="163" viewBox="0 0 213 163" fill="none" xmlns="http://www.w3.org/2000/svg">
  <mask id="mask0" style="mask-type: alpha" maskUnits="userSpaceOnUse" x="4" y="9" width="207" height="103">
    <path
      fill-rule="evenodd"
      d="M79.8232 9.70329C79.4017 10.2582 79 10.9929 79 11.5C68.9999 8.5 41.6 31.7 34 44.5C30.0297 51.1867 25.0115 55.6029 20.6242 59.4639C14.5136 64.8414 9.62684 69.1419 10.5 77C8.16662 78.8333 3.69995 83 4.49995 85C7.83328 88.8333 15.4999 96.7 19.4999 97.5C23.4999 97.5 26.8333 92.8333 27.9999 90.5C32.4999 92 47.1999 80.2 49.9999 75C52.7999 69.8 58.8333 63.1667 61.5 60.5C56.6666 71.1667 49.0999 93.5 57.4999 97.5C56.8333 100.833 56.1999 108.7 56.9999 109.5C70.9999 111.5 99.5999 111.5 106 111.5C112.4 111.5 149.5 111 158.5 109.5C159.3 108.7 158.167 100.833 157.5 97.5C165.9 93.5 158.333 71.1667 153.5 60.5C156.167 63.1667 162.2 69.8 165 75C167.8 80.2 182.5 92 187 90.5C188.167 92.8333 191.5 97.5 195.5 97.5C199.5 96.7 207.167 88.8333 210.5 85C211.3 83 206.833 78.8333 204.5 77C205.373 69.1419 200.486 64.8414 194.376 59.4639C189.988 55.6029 184.97 51.1867 181 44.5C173.4 31.7 146 8.5 136 11.5C136 10.961 134.865 10.1647 133.972 9.60059C127.21 11.3248 117.566 13 106.694 13C96.0382 13 86.5623 11.3907 79.8232 9.70329Z"
      fill="black"
    />
  </mask>
  <g mask="url(#mask0)">
    <rect width="213" height="163" fill="#FFD1E7" />
    <mask id="mask1" style="mask-type: alpha" maskUnits="userSpaceOnUse" x="78" y="9" width="59" height="11">
      <path
        d="M106.5 20C94.9 20 83.6667 14.3333 79 11.5L78.5 10L79.5 9H133.5L136.5 10L136 11.5C130.833 14.3333 118.1 20 106.5 20Z"
        fill="#FF9BE3"
      />
    </mask>
    <g mask="url(#mask1)">
      <g filter="url(#filter0_i)">
        <path
          d="M106.5 20C94.9 20 83.6667 14.3333 79 11.5L78.5 10L79.5 9H133.5L136.5 10L136 11.5C130.833 14.3333 118.1 20 106.5 20Z"
          fill="#FF9BE3"
        />
      </g>
      <g filter="url(#filter1_f)">
        <path
          fill-rule="evenodd"
          d="M82.4641 10.1857L81.4641 12.6857L80.5 12L81.5356 9.81433L82.4641 10.1857ZM132.964 9.81433L133.964 12.3143L133.036 12.6857L132.036 10.1857L132.964 9.81433ZM97.4999 10V18.5L96.4999 18V10H97.4999ZM118 10V18L117 18.5V10H118ZM85.985 10.6213L85 14.5L84.2341 13.8118L85.0148 10.3788L85.985 10.6213ZM129.485 10.3788L130.5 14L129.485 14.3788L128.515 10.6213L129.485 10.3788ZM102.5 10.5V19.5L101.5 19L101.5 10.5H102.5ZM113 10.5V19L112 19.5V10.5H113ZM88.9999 16L88.0852 15.3509C88.0852 15.2581 88.0165 15.7793 88.0347 15.6578C88.0547 15.5242 88.0831 15.3586 88.1174 15.171C88.1861 14.7954 88.2807 14.3194 88.3851 13.8118C88.5942 12.7959 88.8448 11.6432 89.0118 10.8916L89.988 11.1085C89.8217 11.8569 89.5723 13.0042 89.3646 14.0133C89.2607 14.5182 89.1678 14.9859 89.1011 15.3509C89.0677 15.5337 89.0414 15.6875 89.0237 15.806C89.0148 15.8652 89.0084 15.9129 89.0044 15.9492C89.001 15.9807 89.0001 15.9964 88.9999 16ZM126.465 15.6578C126.483 15.7793 126.415 15.2581 126.415 15.3509L125.5 16C125.5 15.9964 125.499 15.9807 125.495 15.9492C125.491 15.9129 125.485 15.8652 125.476 15.806C125.458 15.6875 125.432 15.5337 125.399 15.3509C125.332 14.9859 125.239 14.5182 125.135 14.0133C124.928 13.0042 124.678 11.8569 124.512 11.1085L125.488 10.8916C125.655 11.6432 125.906 12.7959 126.115 13.8118C126.219 14.3194 126.314 14.7954 126.382 15.171C126.417 15.3586 126.445 15.5242 126.465 15.6578ZM108 19.5H107V11H108V19.5ZM93.4982 11.5415L92.9982 17.5415L92 17L92.5016 11.4585L93.4982 11.5415ZM121.998 11.4585L122.5 17H121.5L121.002 11.5415L121.998 11.4585Z"
          fill="#F964CF"
          fill-opacity="0.7"
        />
      </g>
    </g>
    <path
      d="M61.5001 60.5C79.0001 38 69.5 36.5 79.0001 11.5L76 1.5L26.5001 45C20.1667 53 7.10008 70.2 5.50008 75C3.90008 79.8 18.8334 89.3333 26.5001 93.5L46.5001 86C49.8334 79.1667 58.0271 64.9652 61.5001 60.5Z"
      fill="url(#paint0_linear)"
    />
    <path
      d="M153.5 61C136 38.5 145.5 37 136 12L139 2L188.5 45.5C194.833 53.5 207.9 70.7 209.5 75.5C211.1 80.3 196.167 89.8333 188.5 94L168.5 86.5C165.167 79.6667 156.973 65.4652 153.5 61Z"
      fill="url(#paint1_linear)"
    />
    <g filter="url(#filter2_i)">
      <path
        d="M107 101C90.6 101 66.8333 98.6667 57 97.5L53.5 112H161L157.5 97.5C147.667 98.6667 123.4 101 107 101Z"
        fill="#FF9BE3"
      />
    </g>
    <g filter="url(#filter3_i)">
      <path d="M1 86L9.5 76C14.1667 80.1667 25.8 89.8 29 91L20.5 101.5L1 86Z" fill="#FF9BE3" />
    </g>
    <g filter="url(#filter4_i)">
      <path d="M213 86L204.5 76C199.833 80.1667 189.7 88.8 186.5 90L193.5 101.5L213 86Z" fill="#FF9BE3" />
    </g>
    <g filter="url(#filter5_f)">
      <path
        d="M58 98.5V112.5M65 99V112.5M72 100V113M79 100.5V113M86 101V113M93 101V113M100.5 101.5V113M108 101.5V113M116 101.5V112.5M125 101V112.5M132.5 100.5V112.5M140 99.5V112.5M147.5 98.5V112.5M154.5 98L155 112"
        stroke="#F964CF"
      />
    </g>
    <g filter="url(#filter6_f)">
      <path d="M201.5 79L208.5 87M198 82.5L204.5 90.5M194 86L200.5 94.5M190 89L196 97.5" stroke="#F964CF" />
    </g>
    <g filter="url(#filter7_f)">
      <path d="M12 79L5 87M15.5 82.5L9 90.5M19.5 86L13 94.5M23.5 89L17.5 97.5" stroke="#F964CF" />
    </g>
    <g filter="url(#filter8_d)">
      <mask id="path-14-inside-1" fill="white">
        <path
          fill-rule="evenodd"
          d="M125.089 30.1936C123.813 28.8429 122.005 28 120 28C116.452 28 113.52 30.6397 113.062 34.0623C109.64 34.5205 107 37.452 107 41C107 44.866 110.134 48 114 48C115.217 48 116.361 47.6896 117.358 47.1437C117.41 47.2145 117.463 47.2843 117.518 47.353C117.184 48.1696 117 49.0633 117 50C117 53.866 120.134 57 124 57C126.863 57 129.325 55.2809 130.409 52.8185C130.92 52.9372 131.453 53 132 53C135.866 53 139 49.866 139 46C139 43.1953 137.351 40.7759 134.969 39.6589C135.623 38.5942 136 37.3412 136 36C136 32.134 132.866 29 129 29C127.551 29 126.206 29.44 125.089 30.1936Z"
        />
      </mask>
      <path
        fill-rule="evenodd"
        d="M125.089 30.1936C123.813 28.8429 122.005 28 120 28C116.452 28 113.52 30.6397 113.062 34.0623C109.64 34.5205 107 37.452 107 41C107 44.866 110.134 48 114 48C115.217 48 116.361 47.6896 117.358 47.1437C117.41 47.2145 117.463 47.2843 117.518 47.353C117.184 48.1696 117 49.0633 117 50C117 53.866 120.134 57 124 57C126.863 57 129.325 55.2809 130.409 52.8185C130.92 52.9372 131.453 53 132 53C135.866 53 139 49.866 139 46C139 43.1953 137.351 40.7759 134.969 39.6589C135.623 38.5942 136 37.3412 136 36C136 32.134 132.866 29 129 29C127.551 29 126.206 29.44 125.089 30.1936Z"
        fill="#FFF4F4"
      />
      <path
        d="M125.089 30.1936L123.635 31.5671C124.308 32.2787 125.396 32.399 126.208 31.8514L125.089 30.1936ZM113.062 34.0623L113.328 36.0446C114.222 35.9249 114.925 35.2216 115.045 34.3277L113.062 34.0623ZM117.358 47.1437L118.969 45.9586C118.375 45.1515 117.276 44.9082 116.397 45.3895L117.358 47.1437ZM117.518 47.353L119.369 48.1098C119.643 47.44 119.534 46.6747 119.083 46.1083L117.518 47.353ZM130.409 52.8185L130.862 50.8704C129.925 50.6528 128.967 51.1324 128.579 52.0124L130.409 52.8185ZM134.969 39.6589L133.265 38.612C132.967 39.0973 132.889 39.6865 133.053 40.2321C133.216 40.7777 133.604 41.2278 134.12 41.4696L134.969 39.6589ZM120 30C121.432 30 122.721 30.5996 123.635 31.5671L126.543 28.8201C124.905 27.0861 122.578 26 120 26V30ZM115.045 34.3277C115.372 31.8849 117.467 30 120 30V26C115.437 26 111.669 29.3944 111.08 33.7969L115.045 34.3277ZM109 41C109 38.4673 110.885 36.3716 113.328 36.0446L112.797 32.08C108.394 32.6694 105 36.4366 105 41H109ZM114 46C111.239 46 109 43.7614 109 41H105C105 45.9706 109.029 50 114 50V46ZM116.397 45.3895C115.687 45.7782 114.872 46 114 46V50C115.561 50 117.034 49.601 118.318 48.8978L116.397 45.3895ZM119.083 46.1083C119.044 46.0591 119.006 46.0092 118.969 45.9586L115.747 48.3288C115.813 48.4198 115.882 48.5094 115.952 48.5977L119.083 46.1083ZM119 50C119 49.3273 119.132 48.6903 119.369 48.1098L115.666 46.5963C115.236 47.6489 115 48.7994 115 50H119ZM124 55C121.239 55 119 52.7614 119 50H115C115 54.9706 119.029 59 124 59V55ZM128.579 52.0124C127.803 53.7755 126.042 55 124 55V59C127.684 59 130.847 56.7862 132.24 53.6246L128.579 52.0124ZM132 51C131.606 51 131.226 50.9549 130.862 50.8704L129.957 54.7666C130.615 54.9196 131.299 55 132 55V51ZM137 46C137 48.7614 134.761 51 132 51V55C136.971 55 141 50.9706 141 46H137ZM134.12 41.4696C135.825 42.2697 137 43.9997 137 46H141C141 42.391 138.876 39.2822 135.818 37.8481L134.12 41.4696ZM134 36C134 36.9611 133.731 37.8532 133.265 38.612L136.673 40.7058C137.515 39.3352 138 37.7212 138 36H134ZM129 31C131.761 31 134 33.2386 134 36H138C138 31.0294 133.971 27 129 27V31ZM126.208 31.8514C127.004 31.3138 127.963 31 129 31V27C127.14 27 125.407 27.5662 123.97 28.5358L126.208 31.8514Z"
        fill="#EBAC63"
        mask="url(#path-14-inside-1)"
      />
    </g>
    <g filter="url(#filter9_d)">
      <mask id="path-16-inside-2" fill="white">
        <path
          fill-rule="evenodd"
          d="M90.0451 88.3219C91.8444 88.7861 93.8236 88.5373 95.5209 87.4701C98.5246 85.5816 99.6013 81.7866 98.1674 78.6452C100.821 76.4355 101.495 72.5488 99.6068 69.5451C97.5491 66.2723 93.2278 65.2873 89.9549 67.345C88.9249 67.9926 88.1215 68.8644 87.5682 69.8572C87.4864 69.8249 87.4041 69.7943 87.3212 69.7652C87.1692 68.8962 86.8492 68.0417 86.3506 67.2487C84.2929 63.9759 79.9716 62.9908 76.6987 65.0486C74.2747 66.5727 73.1057 69.3383 73.4984 72.0001C73.0026 72.1716 72.5184 72.4019 72.0552 72.6931C68.7824 74.7508 67.7974 79.0722 69.8551 82.345C71.348 84.7194 74.0321 85.8896 76.643 85.5675C76.656 86.817 77.0037 88.0785 77.7176 89.2139C79.7753 92.4868 84.0966 93.4718 87.3695 91.414C88.5958 90.643 89.5009 89.5542 90.0451 88.3219Z"
        />
      </mask>
      <path
        fill-rule="evenodd"
        d="M90.0451 88.3219C91.8444 88.7861 93.8236 88.5373 95.5209 87.4701C98.5246 85.5816 99.6013 81.7866 98.1674 78.6452C100.821 76.4355 101.495 72.5488 99.6068 69.5451C97.5491 66.2723 93.2278 65.2873 89.9549 67.345C88.9249 67.9926 88.1215 68.8644 87.5682 69.8572C87.4864 69.8249 87.4041 69.7943 87.3212 69.7652C87.1692 68.8962 86.8492 68.0417 86.3506 67.2487C84.2929 63.9759 79.9716 62.9908 76.6987 65.0486C74.2747 66.5727 73.1057 69.3383 73.4984 72.0001C73.0026 72.1716 72.5184 72.4019 72.0552 72.6931C68.7824 74.7508 67.7974 79.0722 69.8551 82.345C71.348 84.7194 74.0321 85.8896 76.643 85.5675C76.656 86.817 77.0037 88.0785 77.7176 89.2139C79.7753 92.4868 84.0966 93.4718 87.3695 91.414C88.5958 90.643 89.5009 89.5542 90.0451 88.3219Z"
        fill="#FFF4F4"
      />
      <path
        d="M90.0451 88.3219L90.5447 86.3853C89.5967 86.1407 88.611 86.6184 88.2155 87.514L90.0451 88.3219ZM98.1674 78.6452L96.8876 77.1083C96.1945 77.6855 95.9735 78.6552 96.348 79.4757L98.1674 78.6452ZM87.5682 69.8572L86.8352 71.718C87.7674 72.0852 88.8275 71.706 89.3152 70.8308L87.5682 69.8572ZM87.3212 69.7652L85.3512 70.1099C85.4759 70.8226 85.9758 71.4124 86.6584 71.6521L87.3212 69.7652ZM73.4984 72.0001L74.1521 73.8903C75.0608 73.576 75.6173 72.6595 75.477 71.7082L73.4984 72.0001ZM76.643 85.5675L78.6429 85.5467C78.637 84.9772 78.3886 84.4373 77.96 84.0623C77.5315 83.6873 76.9633 83.5128 76.3982 83.5826L76.643 85.5675ZM94.4564 85.777C93.2439 86.5393 91.8335 86.7178 90.5447 86.3853L89.5454 90.2585C91.8552 90.8544 94.4034 90.5352 96.5855 89.1633L94.4564 85.777ZM96.348 79.4757C97.3713 81.7177 96.6005 84.4289 94.4564 85.777L96.5855 89.1633C100.449 86.7343 101.831 81.8555 99.9869 77.8148L96.348 79.4757ZM97.9137 70.6097C99.2618 72.7538 98.7815 75.5312 96.8876 77.1083L99.4472 80.1821C102.861 77.3399 103.729 72.3438 101.3 68.4806L97.9137 70.6097ZM91.0195 69.0382C93.3572 67.5684 96.4438 68.2719 97.9137 70.6097L101.3 68.4806C98.6543 64.2727 93.0983 63.0062 88.8904 65.6519L91.0195 69.0382ZM89.3152 70.8308C89.7092 70.124 90.2808 69.5026 91.0195 69.0382L88.8904 65.6519C87.569 66.4827 86.5339 67.6048 85.8212 68.8835L89.3152 70.8308ZM86.6584 71.6521C86.7178 71.673 86.7767 71.6949 86.8352 71.718L88.3013 67.9963C88.1962 67.9549 88.0904 67.9155 87.984 67.8782L86.6584 71.6521ZM84.6575 68.3133C85.0156 68.8828 85.2431 69.4922 85.3512 70.1099L89.2913 69.4204C89.0953 68.3002 88.6828 67.2006 88.0438 66.1842L84.6575 68.3133ZM77.7633 66.7418C80.101 65.2719 83.1877 65.9755 84.6575 68.3133L88.0438 66.1842C85.3981 61.9762 79.8421 60.7098 75.6342 63.3555L77.7633 66.7418ZM75.477 71.7082C75.1958 69.8024 76.0345 67.8287 77.7633 66.7418L75.6342 63.3555C72.515 65.3166 71.0156 68.8743 71.5198 72.292L75.477 71.7082ZM73.1198 74.3862C73.4531 74.1767 73.7993 74.0123 74.1521 73.8903L72.8447 70.11C72.2059 70.3309 71.5838 70.627 70.9907 70.9999L73.1198 74.3862ZM71.5483 81.2805C70.0784 78.9427 70.782 75.8561 73.1198 74.3862L70.9907 70.9999C66.7827 73.6456 65.5163 79.2016 68.162 83.4095L71.5483 81.2805ZM76.3982 83.5826C74.5282 83.8132 72.613 82.9739 71.5483 81.2805L68.162 83.4095C70.083 86.4649 73.5361 87.966 76.8879 87.5525L76.3982 83.5826ZM79.4107 88.1494C78.8991 87.3357 78.6522 86.4372 78.6429 85.5467L74.6431 85.5883C74.6599 87.1968 75.1083 88.8213 76.0244 90.2785L79.4107 88.1494ZM86.3049 89.7209C83.9672 91.1907 80.8805 90.4871 79.4107 88.1494L76.0244 90.2785C78.6701 94.4864 84.2261 95.7529 88.434 93.1072L86.3049 89.7209ZM88.2155 87.514C87.8273 88.393 87.1832 89.1687 86.3049 89.7209L88.434 93.1072C90.0083 92.1174 91.1744 90.7154 91.8746 89.1298L88.2155 87.514Z"
        fill="#EBAC63"
        mask="url(#path-16-inside-2)"
      />
    </g>
    <g filter="url(#filter10_d)">
      <path
        d="M120.585 42.1671C111.734 39.5341 97.514 47.6411 92.1885 53.6942C91.8515 55.3367 91.5721 57.6434 91.3941 60C93.3094 56.4 110.447 52.4889 118.776 50.9834C120 49 131.65 45.4584 120.585 42.1671Z"
        fill="#A9C1FF"
        stroke="#EBAC63"
        stroke-width="2"
      />
      <path
        d="M91.3942 60C93.3095 56.4 110.447 52.4889 118.776 50.9833C120.644 50.8233 124.943 51.353 127.191 54.7517C127.532 56.0495 126.592 58.8008 120.107 59.4231C111.193 60.1154 92.9298 62.2 91.1833 65C91.1884 63.4658 91.2643 61.7196 91.3942 60Z"
        fill="#FFA8A8"
        stroke="#EBAC63"
        stroke-width="2"
      />
      <path
        d="M91.1833 65C91.1711 68.6779 91.5663 71.1375 92.602 69.0915C93.9284 66.4716 103.436 66.8847 112.334 67.2714C120.709 67.6354 128.545 67.9759 128.508 65.7409C128.41 63.2761 126.593 58.5616 120.107 59.4231C111.193 60.1154 92.9298 62.2 91.1833 65Z"
        fill="#CFFFB8"
        stroke="#EBAC63"
        stroke-width="2"
      />
      <path
        d="M91.2386 48.2109C89.5397 46.8371 86.9891 47.6819 86.4462 49.7982L84.9056 55.8039C84.8434 56.0466 84.6922 56.2571 84.4822 56.3937L79.2845 59.774C77.453 60.9651 77.4682 63.6519 79.3132 64.8222L84.5488 68.1433C84.7604 68.2775 84.9139 68.4863 84.979 68.7283L86.5876 74.7161C87.1545 76.8261 89.7145 77.6419 91.3977 76.2489L96.1741 72.2957C96.3672 72.136 96.6131 72.0545 96.8634 72.0674L103.055 72.3878C105.237 72.5007 106.804 70.3181 105.999 68.2869L103.716 62.5226C103.623 62.2896 103.622 62.0305 103.712 61.7965L105.93 56.0067C106.711 53.9665 105.12 51.8018 102.939 51.9394L96.7514 52.3301C96.5013 52.3459 96.2544 52.2672 96.0596 52.1096L91.2386 48.2109Z"
        fill="#FFDCA8"
        stroke="#EBAC63"
        stroke-width="2"
      />
    </g>
    <g filter="url(#filter11_d)">
      <path
        d="M135.987 72.3089C137.068 71.3328 138.796 71.8027 139.234 73.1918L140.394 76.8689C140.545 77.3469 140.87 77.7508 141.304 78.0008L144.646 79.924C145.908 80.6505 145.995 82.4396 144.81 83.2855L141.671 85.5248C141.263 85.8159 140.979 86.2495 140.876 86.7399L140.079 90.5124C139.778 91.9376 138.104 92.5734 136.933 91.7071L133.833 89.414C133.43 89.1159 132.93 88.98 132.432 89.033L128.598 89.4414C127.149 89.5957 126.027 88.1995 126.489 86.8182L127.712 83.1616C127.871 82.6864 127.846 82.1687 127.642 81.7112L126.068 78.191C125.474 76.8612 126.455 75.3625 127.912 75.3751L131.767 75.4084C132.268 75.4127 132.753 75.2287 133.125 74.8929L135.987 72.3089Z"
        fill="#A9C1FF"
      />
      <path
        d="M140.188 72.891C139.531 70.8073 136.938 70.1025 135.316 71.5667L132.455 74.1507C132.269 74.3186 132.026 74.4106 131.776 74.4084L127.92 74.3751C125.736 74.3562 124.264 76.6043 125.155 78.599L126.729 82.1192C126.831 82.348 126.843 82.6068 126.764 82.8444L125.541 86.501C124.848 88.573 126.531 90.6672 128.704 90.4358L132.538 90.0274C132.787 90.0009 133.037 90.0688 133.238 90.2179L136.338 92.5111C138.094 93.8105 140.606 92.8567 141.058 90.719L141.854 86.9464C141.906 86.7013 142.048 86.4844 142.252 86.3389L145.39 84.0996C147.169 82.8307 147.038 80.147 145.144 79.0573L141.803 77.1341C141.585 77.0091 141.423 76.8071 141.348 76.5681L140.188 72.891Z"
        stroke="#EBAC63"
        stroke-width="2"
      />
    </g>
    <g filter="url(#filter12_d)">
      <path
        d="M84.2366 28.3266C84.6007 26.9163 86.3019 26.3557 87.4331 27.2733L88.0282 27.756C88.4174 28.0717 88.9109 28.2298 89.4111 28.1989L90.1759 28.1518C91.6297 28.0622 92.6886 29.507 92.1654 30.8664L91.8902 31.5814C91.7102 32.0491 91.7124 32.5674 91.8963 33.0336L92.1774 33.7464C92.7119 35.1013 91.6651 36.5548 90.2106 36.4774L89.4454 36.4366C88.945 36.41 88.4528 36.5722 88.0662 36.8911L87.4752 37.3788C86.3517 38.3057 84.6459 37.7593 84.2701 36.3521L84.0724 35.6118C83.9431 35.1276 83.6367 34.7096 83.2139 34.4406L82.5675 34.0292C81.3388 33.2471 81.3313 31.4559 82.5535 30.6636L83.1965 30.2469C83.617 29.9743 83.9199 29.5537 84.0451 29.0685L84.2366 28.3266Z"
        fill="#CFFFB8"
      />
      <path
        d="M88.6581 26.9793L88.0282 27.756L88.6581 26.9793L88.0631 26.4967C86.3663 25.1203 83.8144 25.9612 83.2684 28.0767L83.0769 28.8186C83.0142 29.0612 82.8628 29.2715 82.6525 29.4077L83.0456 30.0141L82.6525 29.4077L82.0096 29.8245C80.1762 31.0129 80.1874 33.6997 82.0306 34.8728L82.677 35.2842C82.8884 35.4187 83.0416 35.6277 83.1063 35.8698L83.3039 36.6101C83.8676 38.7209 86.4264 39.5406 88.1117 38.1501L88.7027 37.6625C88.8959 37.503 89.142 37.4219 89.3923 37.4352L90.1574 37.476C92.3391 37.5921 93.9093 35.4119 93.1077 33.3794L92.8265 32.6667C92.7346 32.4336 92.7335 32.1744 92.8235 31.9406L93.0987 31.2255C93.8834 29.1865 92.2951 27.0193 90.1144 27.1537L89.3496 27.2008C89.0995 27.2163 88.8527 27.1372 88.6581 26.9793Z"
        stroke="#EBAC63"
        stroke-width="2"
      />
    </g>
  </g>
  <defs>
    <filter
      id="filter0_i"
      x="78.5"
      y="8"
      width="58"
      height="12"
      filterUnits="userSpaceOnUse"
      color-interpolation-filters="sRGB"
    >
      <feFlood flood-opacity="0" result="BackgroundImageFix" />
      <feBlend mode="normal" in="SourceGraphic" in2="BackgroundImageFix" result="shape" />
      <feColorMatrix
        in="SourceAlpha"
        type="matrix"
        values="0 0 0 0 0 0 0 0 0 0 0 0 0 0 0 0 0 0 127 0"
        result="hardAlpha"
      />
      <feOffset dy="-1" />
      <feGaussianBlur stdDeviation="1" />
      <feComposite in2="hardAlpha" operator="arithmetic" k2="-1" k3="1" />
      <feColorMatrix type="matrix" values="0 0 0 0 1 0 0 0 0 0.4375 0 0 0 0 0.840802 0 0 0 0.4 0" />
      <feBlend mode="normal" in2="shape" result="effect1_innerShadow" />
    </filter>
    <filter
      id="filter1_f"
      x="79"
      y="8.31433"
      width="56.4644"
      height="12.6857"
      filterUnits="userSpaceOnUse"
      color-interpolation-filters="sRGB"
    >
      <feFlood flood-opacity="0" result="BackgroundImageFix" />
      <feBlend mode="normal" in="SourceGraphic" in2="BackgroundImageFix" result="shape" />
      <feGaussianBlur stdDeviation="0.75" result="effect1_foregroundBlur" />
    </filter>
    <filter
      id="filter2_i"
      x="53.5"
      y="97.5"
      width="107.5"
      height="14.5"
      filterUnits="userSpaceOnUse"
      color-interpolation-filters="sRGB"
    >
      <feFlood flood-opacity="0" result="BackgroundImageFix" />
      <feBlend mode="normal" in="SourceGraphic" in2="BackgroundImageFix" result="shape" />
      <feColorMatrix
        in="SourceAlpha"
        type="matrix"
        values="0 0 0 0 0 0 0 0 0 0 0 0 0 0 0 0 0 0 127 0"
        result="hardAlpha"
      />
      <feOffset />
      <feGaussianBlur stdDeviation="1.5" />
      <feComposite in2="hardAlpha" operator="arithmetic" k2="-1" k3="1" />
      <feColorMatrix type="matrix" values="0 0 0 0 0.976471 0 0 0 0 0.392157 0 0 0 0 0.811765 0 0 0 0.8 0" />
      <feBlend mode="normal" in2="shape" result="effect1_innerShadow" />
    </filter>
    <filter
      id="filter3_i"
      x="1"
      y="76"
      width="28"
      height="26.5"
      filterUnits="userSpaceOnUse"
      color-interpolation-filters="sRGB"
    >
      <feFlood flood-opacity="0" result="BackgroundImageFix" />
      <feBlend mode="normal" in="SourceGraphic" in2="BackgroundImageFix" result="shape" />
      <feColorMatrix
        in="SourceAlpha"
        type="matrix"
        values="0 0 0 0 0 0 0 0 0 0 0 0 0 0 0 0 0 0 127 0"
        result="hardAlpha"
      />
      <feOffset dy="1" />
      <feGaussianBlur stdDeviation="1" />
      <feComposite in2="hardAlpha" operator="arithmetic" k2="-1" k3="1" />
      <feColorMatrix type="matrix" values="0 0 0 0 0.976471 0 0 0 0 0.392157 0 0 0 0 0.811765 0 0 0 0.8 0" />
      <feBlend mode="normal" in2="shape" result="effect1_innerShadow" />
    </filter>
    <filter
      id="filter4_i"
      x="186.5"
      y="76"
      width="26.5"
      height="26.5"
      filterUnits="userSpaceOnUse"
      color-interpolation-filters="sRGB"
    >
      <feFlood flood-opacity="0" result="BackgroundImageFix" />
      <feBlend mode="normal" in="SourceGraphic" in2="BackgroundImageFix" result="shape" />
      <feColorMatrix
        in="SourceAlpha"
        type="matrix"
        values="0 0 0 0 0 0 0 0 0 0 0 0 0 0 0 0 0 0 127 0"
        result="hardAlpha"
      />
      <feOffset dy="1" />
      <feGaussianBlur stdDeviation="1" />
      <feComposite in2="hardAlpha" operator="arithmetic" k2="-1" k3="1" />
      <feColorMatrix type="matrix" values="0 0 0 0 0.976471 0 0 0 0 0.392157 0 0 0 0 0.811765 0 0 0 0.8 0" />
      <feBlend mode="normal" in2="shape" result="effect1_innerShadow" />
    </filter>
    <filter
      id="filter5_f"
      x="54.5"
      y="94.9822"
      width="104"
      height="21.0178"
      filterUnits="userSpaceOnUse"
      color-interpolation-filters="sRGB"
    >
      <feFlood flood-opacity="0" result="BackgroundImageFix" />
      <feBlend mode="normal" in="SourceGraphic" in2="BackgroundImageFix" result="shape" />
      <feGaussianBlur stdDeviation="1.5" result="effect1_foregroundBlur" />
    </filter>
    <filter
      id="filter6_f"
      x="187.591"
      y="76.6708"
      width="23.2852"
      height="23.1176"
      filterUnits="userSpaceOnUse"
      color-interpolation-filters="sRGB"
    >
      <feFlood flood-opacity="0" result="BackgroundImageFix" />
      <feBlend mode="normal" in="SourceGraphic" in2="BackgroundImageFix" result="shape" />
      <feGaussianBlur stdDeviation="1" result="effect1_foregroundBlur" />
    </filter>
    <filter
      id="filter7_f"
      x="2.62378"
      y="76.6708"
      width="23.2847"
      height="23.1176"
      filterUnits="userSpaceOnUse"
      color-interpolation-filters="sRGB"
    >
      <feFlood flood-opacity="0" result="BackgroundImageFix" />
      <feBlend mode="normal" in="SourceGraphic" in2="BackgroundImageFix" result="shape" />
      <feGaussianBlur stdDeviation="1" result="effect1_foregroundBlur" />
    </filter>
    <filter
      id="filter8_d"
      x="106"
      y="27"
      width="36"
      height="33"
      filterUnits="userSpaceOnUse"
      color-interpolation-filters="sRGB"
    >
      <feFlood flood-opacity="0" result="BackgroundImageFix" />
      <feColorMatrix
        in="SourceAlpha"
        type="matrix"
        values="0 0 0 0 0 0 0 0 0 0 0 0 0 0 0 0 0 0 127 0"
        result="hardAlpha"
      />
      <feOffset dx="1" dy="1" />
      <feGaussianBlur stdDeviation="1" />
      <feColorMatrix type="matrix" values="0 0 0 0 0.995833 0 0 0 0 0.643142 0 0 0 0 0.883613 0 0 0 0.4 0" />
      <feBlend mode="normal" in2="BackgroundImageFix" result="effect1_dropShadow" />
      <feBlend mode="normal" in="SourceGraphic" in2="effect1_dropShadow" result="shape" />
    </filter>
    <filter
      id="filter9_d"
      x="67.7803"
      y="62.9737"
      width="35.9014"
      height="32.5153"
      filterUnits="userSpaceOnUse"
      color-interpolation-filters="sRGB"
    >
      <feFlood flood-opacity="0" result="BackgroundImageFix" />
      <feColorMatrix
        in="SourceAlpha"
        type="matrix"
        values="0 0 0 0 0 0 0 0 0 0 0 0 0 0 0 0 0 0 127 0"
        result="hardAlpha"
      />
      <feOffset dx="1" dy="1" />
      <feGaussianBlur stdDeviation="1" />
      <feColorMatrix type="matrix" values="0 0 0 0 0.995833 0 0 0 0 0.643142 0 0 0 0 0.883613 0 0 0 0.4 0" />
      <feBlend mode="normal" in2="BackgroundImageFix" result="effect1_dropShadow" />
      <feBlend mode="normal" in="SourceGraphic" in2="effect1_dropShadow" result="shape" />
    </filter>
    <filter
      id="filter10_d"
      x="75.9199"
      y="39.6563"
      width="56.5889"
      height="41.2841"
      filterUnits="userSpaceOnUse"
      color-interpolation-filters="sRGB"
    >
      <feFlood flood-opacity="0" result="BackgroundImageFix" />
      <feColorMatrix
        in="SourceAlpha"
        type="matrix"
        values="0 0 0 0 0 0 0 0 0 0 0 0 0 0 0 0 0 0 127 0"
        result="hardAlpha"
      />
      <feOffset dx="1" dy="1" />
      <feGaussianBlur stdDeviation="1" />
      <feColorMatrix type="matrix" values="0 0 0 0 0.995833 0 0 0 0 0.643142 0 0 0 0 0.883613 0 0 0 0.4 0" />
      <feBlend mode="normal" in2="BackgroundImageFix" result="effect1_dropShadow" />
      <feBlend mode="normal" in="SourceGraphic" in2="effect1_dropShadow" result="shape" />
    </filter>
    <filter
      id="filter11_d"
      x="122.89"
      y="68.7913"
      width="27.7583"
      height="28.3113"
      filterUnits="userSpaceOnUse"
      color-interpolation-filters="sRGB"
    >
      <feFlood flood-opacity="0" result="BackgroundImageFix" />
      <feColorMatrix
        in="SourceAlpha"
        type="matrix"
        values="0 0 0 0 0 0 0 0 0 0 0 0 0 0 0 0 0 0 127 0"
        result="hardAlpha"
      />
      <feOffset dx="1" dy="1" />
      <feGaussianBlur stdDeviation="1" />
      <feColorMatrix type="matrix" values="0 0 0 0 0.995833 0 0 0 0 0.643142 0 0 0 0 0.883613 0 0 0 0.4 0" />
      <feBlend mode="normal" in2="BackgroundImageFix" result="effect1_dropShadow" />
      <feBlend mode="normal" in="SourceGraphic" in2="effect1_dropShadow" result="shape" />
    </filter>
    <filter
      id="filter12_d"
      x="78.6416"
      y="23.8238"
      width="18.6797"
      height="19.0149"
      filterUnits="userSpaceOnUse"
      color-interpolation-filters="sRGB"
    >
      <feFlood flood-opacity="0" result="BackgroundImageFix" />
      <feColorMatrix
        in="SourceAlpha"
        type="matrix"
        values="0 0 0 0 0 0 0 0 0 0 0 0 0 0 0 0 0 0 127 0"
        result="hardAlpha"
      />
      <feOffset dx="1" dy="1" />
      <feGaussianBlur stdDeviation="1" />
      <feColorMatrix type="matrix" values="0 0 0 0 0.995833 0 0 0 0 0.643142 0 0 0 0 0.883613 0 0 0 0.4 0" />
      <feBlend mode="normal" in2="BackgroundImageFix" result="effect1_dropShadow" />
      <feBlend mode="normal" in="SourceGraphic" in2="effect1_dropShadow" result="shape" />
    </filter>
    <linearGradient id="paint0_linear" x1="16" y1="85" x2="87.5" y2="5.5" gradientUnits="userSpaceOnUse">
      <stop stop-color="#C5E3FF" />
      <stop offset="0.598958" stop-color="#C5E3FF" stop-opacity="0.411704" />
      <stop offset="1" stop-color="#C5E3FF" stop-opacity="0" />
    </linearGradient>
    <linearGradient id="paint1_linear" x1="199" y1="85.5" x2="127.5" y2="6" gradientUnits="userSpaceOnUse">
      <stop stop-color="#FF9AE2" />
      <stop offset="0.861515" stop-color="#FF9AE2" stop-opacity="0" />
    </linearGradient>
  </defs>
</svg>
