<svg width="213" height="163" viewBox="0 0 213 163" fill="none" xmlns="http://www.w3.org/2000/svg">
  <mask id="mask0" style="mask-type: alpha" maskUnits="userSpaceOnUse" x="4" y="9" width="207" height="103">
    <path
      fill-rule="evenodd"
      d="M79.8232 9.70329C79.4017 10.2582 79 10.9929 79 11.5C68.9999 8.5 41.6 31.7 34 44.5C30.0297 51.1867 25.0115 55.6029 20.6242 59.4639C14.5136 64.8414 9.62684 69.1419 10.5 77C8.16662 78.8333 3.69995 83 4.49995 85C7.83328 88.8333 15.4999 96.7 19.4999 97.5C23.4999 97.5 26.8333 92.8333 27.9999 90.5C32.4999 92 47.1999 80.2 49.9999 75C52.7999 69.8 58.8333 63.1667 61.5 60.5C56.6666 71.1667 49.0999 93.5 57.4999 97.5C56.8333 100.833 56.1999 108.7 56.9999 109.5C70.9999 111.5 99.5999 111.5 106 111.5C112.4 111.5 149.5 111 158.5 109.5C159.3 108.7 158.167 100.833 157.5 97.5C165.9 93.5 158.333 71.1667 153.5 60.5C156.167 63.1667 162.2 69.8 165 75C167.8 80.2 182.5 92 187 90.5C188.167 92.8333 191.5 97.5 195.5 97.5C199.5 96.7 207.167 88.8333 210.5 85C211.3 83 206.833 78.8333 204.5 77C205.373 69.1419 200.486 64.8414 194.376 59.4639C189.988 55.6029 184.97 51.1867 181 44.5C173.4 31.7 146 8.5 136 11.5C136 10.961 134.865 10.1647 133.972 9.60059C127.21 11.3248 117.566 13 106.694 13C96.0382 13 86.5623 11.3907 79.8232 9.70329Z"
      fill="black"
    />
  </mask>
  <g mask="url(#mask0)">
    <rect width="213" height="163" fill="#FFF6E4" />
    <g filter="url(#filter0_df)">
      <circle cx="126" cy="15" r="8" stroke="#FF7A9A" stroke-width="6" />
      <circle cx="99" cy="100" r="8" stroke="#FF7A9A" stroke-width="6" />
      <path
        d="M80.9388 41.3745L70.7729 35.7357C69.1439 34.8321 67.2728 36.4505 67.9323 38.1927L74.243 54.864C74.9041 56.6104 77.3855 56.5785 78.0015 54.8158L81.8567 43.7832C82.1779 42.8639 81.7904 41.8469 80.9388 41.3745Z"
        fill="#CCB4FF"
      />
      <path
        d="M178.939 35.3745L168.773 29.7357C167.144 28.8321 165.273 30.4505 165.932 32.1927L172.243 48.864C172.904 50.6104 175.386 50.5785 176.002 48.8158L179.857 37.7832C180.178 36.8639 179.79 35.8469 178.939 35.3745Z"
        fill="#CCB4FF"
      />
      <path
        d="M137.902 9.02231L127.145 13.4305C125.421 14.1369 125.514 16.609 127.286 17.1836L144.243 22.6821C146.019 23.2581 147.546 21.3015 146.555 19.7186L140.355 9.81195C139.839 8.98646 138.803 8.65304 137.902 9.02231Z"
        fill="#A5A8BC"
      />
      <path
        d="M154.807 45.1101L144.05 49.5183C142.326 50.2247 142.42 52.6967 144.192 53.2714L161.148 58.7699C162.924 59.3459 164.451 57.3893 163.461 55.8064L157.261 45.8997C156.744 45.0742 155.708 44.7408 154.807 45.1101Z"
        fill="#A5A8BC"
      />
      <path
        d="M191.28 64.5132L200.808 71.1724C202.335 72.2395 204.364 70.8231 203.888 69.0221L199.334 51.7878C198.857 49.9825 196.385 49.7578 195.59 51.4475L190.616 62.0226C190.201 62.9037 190.481 63.9554 191.28 64.5132Z"
        fill="#A5A8BC"
      />
      <path
        d="M97.9388 60.3745L87.7729 54.7357C86.1439 53.8321 84.2728 55.4505 84.9323 57.1927L91.243 73.864C91.9041 75.6104 94.3855 75.5785 95.0015 73.8158L98.8567 62.7832C99.1779 61.8639 98.7904 60.8469 97.9388 60.3745Z"
        fill="#A5A8BC"
      />
      <path
        d="M36.0768 67.9675L40.5219 78.7091C41.2342 80.4304 43.706 80.3288 44.2745 78.5548L49.7148 61.5794C50.2847 59.8012 48.3229 58.2813 46.7434 59.2773L36.858 65.5111C36.0343 66.0305 35.7045 67.0677 36.0768 67.9675Z"
        fill="#A5A8BC"
      />
      <path
        d="M117.466 97.3264L122.566 107.773C123.383 109.447 125.844 109.193 126.302 107.387L130.684 90.1087C131.143 88.2987 129.091 86.9028 127.576 87.9944L118.095 94.8264C117.305 95.3957 117.039 96.4513 117.466 97.3264Z"
        fill="#A5A8BC"
      />
      <path
        fill-rule="evenodd"
        d="M98.2711 24.0727C99.4851 22.928 101.409 22.9969 102.569 24.2267C103.915 25.6544 104.793 27.7337 104.959 29.8303C105.13 31.9992 104.55 34.5106 102.529 36.4169C101.167 37.7016 99.6121 38.3187 97.9506 38.2574C96.5361 38.2053 95.3132 37.6486 94.6391 37.3417C94.6256 37.3356 94.6123 37.3295 94.5992 37.3236C94.5357 37.2947 94.4763 37.2676 94.4203 37.242C94.1335 37.1111 93.9365 37.0213 93.7434 36.9453C93.7616 37.3309 93.8742 37.8463 94.0958 38.7646C94.1035 38.7965 94.1114 38.8292 94.1195 38.8624C94.3193 39.6884 94.6194 40.9285 94.605 42.1702C94.5882 43.617 94.1502 45.2525 92.7377 46.5844C90.253 48.9274 87.4564 49.378 84.9514 48.6188C82.7295 47.9454 81.0471 46.4194 80.0995 45.4145C78.9399 44.1847 78.9839 42.2598 80.1979 41.1151C81.4119 39.9703 83.3361 40.0393 84.4957 41.269C85.1812 41.996 85.9594 42.5901 86.6445 42.7977C86.9355 42.8859 87.1698 42.8926 87.3918 42.8405C87.6124 42.7888 87.995 42.6379 88.5178 42.1503C88.5214 42.1233 88.5251 42.0814 88.5258 42.021C88.5304 41.6292 88.4248 41.1054 88.1871 40.1205C88.1758 40.0734 88.1639 40.0247 88.1517 39.9745C87.9556 39.1666 87.6631 37.9616 87.6612 36.7708C87.6589 35.3494 88.0614 33.7 89.4788 32.3635C90.8446 31.0758 92.432 30.6007 94.0404 30.7923C95.2027 30.9308 96.2955 31.438 96.8859 31.712C96.9481 31.7409 97.0048 31.7672 97.0553 31.7902C97.7187 32.0919 97.9593 32.16 98.0609 32.1741C98.072 32.1679 98.0864 32.1592 98.1042 32.1475C98.1528 32.1154 98.2284 32.0588 98.3295 31.9636C98.7502 31.5668 98.9584 30.9987 98.8979 30.2309C98.8317 29.3907 98.4594 28.6762 98.1727 28.3721C97.0131 27.1424 97.0572 25.2174 98.2711 24.0727ZM88.5106 42.1896C88.5105 42.1896 88.5106 42.1891 88.5109 42.1884L88.5106 42.1896Z"
        fill="#3CD2DC"
      />
      <path
        fill-rule="evenodd"
        d="M75.2021 29.8588C76.8579 29.6529 78.0311 28.1262 77.8225 26.4488C77.5803 24.5014 76.5376 22.4996 75.0274 21.0361C73.465 19.522 71.1606 18.3677 68.4032 18.7106C66.545 18.9416 65.0788 19.7462 64.0671 21.0656C63.2058 22.1888 62.8554 23.486 62.6622 24.201C62.6584 24.2154 62.6545 24.2295 62.6508 24.2434C62.6326 24.3107 62.6156 24.3737 62.5996 24.4332C62.5177 24.7376 62.4614 24.9467 62.3968 25.1439C62.1113 24.8841 61.7859 24.4688 61.2195 23.7128C61.1998 23.6865 61.1797 23.6597 61.1592 23.6322C60.6501 22.9518 59.8857 21.9303 58.9197 21.15C57.7941 20.2409 56.2546 19.5361 54.328 19.7757C50.9389 20.1971 48.8094 22.065 47.7979 24.4791C46.9008 26.6206 47.0045 28.8896 47.175 30.2602C47.3836 31.9376 48.895 33.1305 50.5508 32.9245C52.2066 32.7186 53.3798 31.1919 53.1712 29.5145C53.0479 28.523 53.0861 27.5447 53.3627 26.8844C53.4802 26.6039 53.6243 26.4191 53.806 26.2813C53.9864 26.1443 54.3465 25.9456 55.0555 25.8535C55.0786 25.8679 55.1133 25.8918 55.1602 25.9297C55.4651 26.1759 55.8015 26.5911 56.4089 27.4019C56.438 27.4407 56.468 27.4808 56.4989 27.5223C56.9964 28.1882 57.7386 29.1817 58.655 29.942C59.7489 30.8497 61.2764 31.5907 63.2097 31.3502C65.0724 31.1185 66.4502 30.198 67.3276 28.8365C67.9617 27.8525 68.2673 26.6872 68.4324 26.0575C68.4498 25.9912 68.4657 25.9308 68.4802 25.8772C68.6704 25.1738 68.7713 24.9449 68.8251 24.8577C68.837 24.8531 68.8529 24.8474 68.8733 24.8412C68.929 24.8242 69.0208 24.802 69.1586 24.7849C69.7325 24.7135 70.3029 24.9151 70.856 25.4511C71.4612 26.0376 71.7747 26.7799 71.8262 27.1945C72.0348 28.8719 73.5463 30.0647 75.2021 29.8588ZM55.0206 25.834C55.0206 25.834 55.021 25.8342 55.0218 25.8345L55.0206 25.834Z"
        fill="#3CD2DC"
      />
      <path
        fill-rule="evenodd"
        d="M138.485 62.2211C140.011 61.5467 141.802 62.2533 142.486 63.7994C143.279 65.5944 143.413 67.8475 142.87 69.8791C142.308 71.9809 140.924 74.1555 138.383 75.2786C136.67 76.0354 134.999 76.0989 133.453 75.4871C132.137 74.9663 131.169 74.0336 130.636 73.5195C130.626 73.5092 130.615 73.4991 130.605 73.4891C130.554 73.4407 130.508 73.3954 130.463 73.3526C130.236 73.1336 130.081 72.9831 129.924 72.8471C129.813 73.2167 129.747 73.7402 129.65 74.6798C129.646 74.7125 129.643 74.7459 129.639 74.78C129.552 75.6253 129.422 76.8944 128.994 78.0603C128.496 79.4187 127.537 80.8145 125.762 81.5992C122.638 82.9796 119.851 82.4718 117.743 80.9208C115.872 79.545 114.795 77.5453 114.237 76.2819C113.554 74.7358 114.237 72.9358 115.763 72.2614C117.29 71.587 119.081 72.2936 119.764 73.8397C120.168 74.7536 120.703 75.5732 121.28 75.9974C121.525 76.1776 121.743 76.2621 121.97 76.287C122.195 76.3117 122.606 76.2971 123.262 76.0117C123.274 75.9875 123.292 75.9492 123.313 75.8925C123.447 75.5246 123.523 74.9956 123.627 73.9879C123.632 73.9397 123.637 73.8898 123.642 73.8383C123.727 73.0114 123.853 71.7777 124.248 70.6545C124.72 69.3137 125.649 67.8929 127.431 67.1055C129.148 66.3469 130.803 66.4283 132.256 67.1453C133.305 67.6635 134.166 68.506 134.632 68.9613C134.681 69.0092 134.725 69.0529 134.765 69.0914C135.29 69.5971 135.494 69.7416 135.585 69.7887C135.598 69.7866 135.614 69.7832 135.635 69.7781C135.692 69.764 135.782 69.7359 135.909 69.6798C136.438 69.446 136.823 68.9799 137.022 68.2358C137.24 67.4217 137.128 66.6239 136.959 66.2416C136.275 64.6956 136.959 62.8955 138.485 62.2211ZM123.242 76.0463C123.242 76.0463 123.242 76.046 123.243 76.0453L123.242 76.0463Z"
        fill="#3CD2DC"
      />
      <path
        fill-rule="evenodd"
        d="M185.794 70.7372C186.5 69.2255 188.314 68.58 189.846 69.2955C191.623 70.1262 193.206 71.7352 194.133 73.623C195.092 75.576 195.48 78.124 194.304 80.6414C193.511 82.3379 192.294 83.4848 190.727 84.0405C189.393 84.5136 188.05 84.4471 187.311 84.4104C187.296 84.4097 187.281 84.409 187.267 84.4083C187.197 84.4048 187.132 84.4015 187.071 84.3984C186.756 84.3826 186.54 84.3717 186.332 84.3723C186.491 84.7239 186.786 85.1615 187.33 85.9334C187.349 85.9602 187.369 85.9876 187.389 86.0156C187.879 86.7096 188.615 87.7517 189.06 88.9112C189.577 90.2622 189.773 91.944 188.952 93.7029C187.506 96.7971 185.073 98.2472 182.464 98.4652C180.151 98.6586 178.024 97.8604 176.773 97.2758C175.241 96.5603 174.572 94.7548 175.279 93.2431C175.985 91.7314 177.799 91.0859 179.33 91.8014C180.236 92.2243 181.178 92.4896 181.892 92.4299C182.195 92.4046 182.415 92.3245 182.602 92.1942C182.788 92.0647 183.088 91.7834 183.394 91.1374C183.387 91.111 183.375 91.0706 183.354 91.0143C183.214 90.6484 182.922 90.2004 182.338 89.3726C182.31 89.333 182.281 89.2921 182.251 89.2499C181.771 88.5713 181.055 87.559 180.614 86.4529C180.088 85.1325 179.854 83.4509 180.678 81.6859C181.473 79.9853 182.773 78.9583 184.339 78.5434C185.471 78.2435 186.673 78.3119 187.323 78.3489C187.392 78.3528 187.454 78.3564 187.51 78.3591C188.237 78.395 188.486 78.3695 188.586 78.3452C188.594 78.3353 188.604 78.322 188.616 78.3044C188.65 78.2568 188.699 78.1763 188.758 78.0504C189.003 77.5265 188.987 76.9217 188.647 76.2303C188.276 75.4738 187.666 74.9468 187.288 74.7699C185.756 74.0544 185.088 72.2489 185.794 70.7372ZM183.402 91.1765C183.402 91.1765 183.402 91.1761 183.402 91.1753L183.402 91.1765Z"
        fill="#3CD2DC"
      />
      <path
        fill-rule="evenodd"
        d="M28.5093 45.6125C26.8753 45.2742 25.273 46.3418 24.9303 47.997C24.5325 49.9186 24.875 52.1496 25.8335 54.0215C26.8251 55.958 28.635 57.7929 31.3559 58.3563C33.1896 58.7359 34.8368 58.4463 36.2195 57.523C37.3966 56.737 38.1461 55.6217 38.5592 55.007C38.5675 54.9947 38.5756 54.9825 38.5836 54.9706C38.6226 54.9128 38.6589 54.8585 38.6932 54.8074C38.8688 54.5456 38.9894 54.3658 39.1141 54.1998C39.3007 54.5377 39.475 55.0356 39.7678 55.9338C39.778 55.965 39.7884 55.9969 39.799 56.0295C40.0619 56.8376 40.4566 58.0509 41.1199 59.1007C41.8927 60.3239 43.1232 61.4869 45.0244 61.8805C48.3687 62.5728 50.9863 61.4902 52.7212 59.5304C54.2602 57.7919 54.8927 55.6104 55.1727 54.2578C55.5153 52.6026 54.4685 50.9866 52.8346 50.6484C51.2007 50.3101 49.5984 51.3777 49.2557 53.0329C49.0531 54.0113 48.7019 54.9252 48.2274 55.4613C48.0259 55.6889 47.8299 55.8175 47.6136 55.8895C47.3986 55.9611 46.9937 56.0332 46.2929 55.8921C46.2757 55.8711 46.2505 55.8373 46.2182 55.7863C46.0089 55.455 45.8241 54.9536 45.5102 53.9904C45.4951 53.9443 45.4797 53.8966 45.4637 53.8474C45.2072 53.0567 44.8245 51.8772 44.2017 50.8623C43.4584 49.6507 42.2508 48.4572 40.3431 48.0623C38.505 47.6819 36.9042 48.1096 35.6351 49.1161C34.7179 49.8435 34.0533 50.8483 33.6942 51.3912C33.6564 51.4484 33.6219 51.5005 33.5909 51.5466C33.1843 52.1513 33.0151 52.3355 32.936 52.4008C32.9233 52.4013 32.9064 52.4015 32.8851 52.4008C32.827 52.399 32.7329 52.3905 32.5969 52.3623C32.0306 52.2451 31.5554 51.8705 31.2044 51.1849C30.8203 50.4348 30.7626 49.6311 30.8473 49.2219C31.19 47.5667 30.1432 45.9507 28.5093 45.6125ZM46.3196 55.9218C46.3196 55.9218 46.3193 55.9215 46.3187 55.9209L46.3196 55.9218Z"
        fill="#3CD2DC"
      />
      <path
        fill-rule="evenodd"
        d="M149.775 29.7515C148.242 29.0917 147.542 27.2983 148.21 25.7457C148.986 23.9433 150.546 22.3119 152.404 21.3278C154.327 20.3099 156.862 19.8443 159.414 20.943C161.134 21.6833 162.318 22.8651 162.921 24.4144C163.435 25.7333 163.41 27.0767 163.395 27.8172C163.395 27.8321 163.395 27.8467 163.395 27.8611C163.393 27.9308 163.392 27.9961 163.391 28.0576C163.385 28.3728 163.38 28.5893 163.387 28.7967C163.734 28.6269 164.162 28.3189 164.917 27.7509C164.943 27.7312 164.97 27.711 164.998 27.6904C165.676 27.1791 166.695 26.4114 167.841 25.9316C169.175 25.3727 170.85 25.1254 172.633 25.893C175.77 27.2434 177.294 29.6312 177.592 32.2317C177.856 34.5384 177.123 36.6884 176.577 37.957C175.909 39.5096 174.124 40.2333 172.592 39.5736C171.059 38.9138 170.359 37.1204 171.027 35.5679C171.422 34.6501 171.658 33.7 171.577 32.9887C171.542 32.6866 171.456 32.469 171.32 32.2859C171.185 32.104 170.894 31.8127 170.239 31.5265C170.213 31.5339 170.173 31.5471 170.117 31.5704C169.756 31.7218 169.317 32.0266 168.507 32.6358C168.469 32.6649 168.429 32.6951 168.387 32.7262C167.724 33.2269 166.734 33.9739 165.642 34.4483C164.338 35.0147 162.664 35.3001 160.875 34.5297C159.151 33.7875 158.085 32.5191 157.622 30.9669C157.288 29.845 157.319 28.6408 157.336 27.99C157.338 27.9215 157.34 27.8591 157.341 27.8035C157.354 27.0749 157.321 26.827 157.294 26.7282C157.284 26.7205 157.27 26.7106 157.252 26.699C157.204 26.6672 157.122 26.6202 156.994 26.5653C156.463 26.3366 155.859 26.3711 155.178 26.7314C154.433 27.1258 153.925 27.7511 153.76 28.1349C153.092 29.6875 151.308 30.4112 149.775 29.7515ZM170.278 31.5175C170.278 31.5175 170.278 31.5176 170.277 31.5177L170.278 31.5175Z"
        fill="#3CD2DC"
      />
      <path
        fill-rule="evenodd"
        d="M56.8937 101.92C55.2955 101.44 54.394 99.7385 54.88 98.1196C55.4442 96.2401 56.8067 94.4406 58.5403 93.2501C60.3338 92.0184 62.7987 91.2654 65.46 92.0643C67.2534 92.6027 68.5646 93.641 69.3416 95.1109C70.003 96.3622 70.1317 97.6998 70.2027 98.437C70.2041 98.4518 70.2055 98.4663 70.2069 98.4806C70.2136 98.55 70.2198 98.615 70.2256 98.6763C70.2555 98.9902 70.2761 99.2057 70.3068 99.4109C70.6317 99.2025 71.0219 98.8475 71.7067 98.1967C71.7305 98.1741 71.7548 98.151 71.7796 98.1274C72.3953 97.5416 73.3196 96.6622 74.4024 96.0543C75.6641 95.3461 77.2998 94.9084 79.1592 95.4666C82.4302 96.4486 84.2177 98.646 84.8114 101.195C85.3381 103.457 84.8566 105.676 84.4595 106.999C83.9735 108.618 82.284 109.542 80.6859 109.062C79.0878 108.582 78.1862 106.881 78.6722 105.262C78.9595 104.305 79.0853 103.334 78.9229 102.637C78.854 102.341 78.7428 102.134 78.5867 101.968C78.4317 101.803 78.1099 101.547 77.4263 101.337C77.4011 101.348 77.3629 101.365 77.3103 101.395C76.9686 101.587 76.5675 101.94 75.8331 102.638C75.798 102.671 75.7617 102.706 75.7243 102.742C75.1225 103.315 74.2247 104.17 73.1941 104.767C71.964 105.479 70.334 105.954 68.4681 105.394C66.6703 104.854 65.4657 103.717 64.8282 102.228C64.3675 101.151 64.2609 99.9515 64.2034 99.3031C64.1973 99.2348 64.1918 99.1726 64.1864 99.1173C64.1164 98.3919 64.0552 98.1494 64.0167 98.0544C64.0057 98.0479 63.991 98.0397 63.9719 98.0302C63.9199 98.0041 63.8331 97.9669 63.7001 97.9269C63.1462 97.7607 62.5501 97.8641 61.9152 98.3001C61.2205 98.7772 60.7874 99.4567 60.6673 99.8569C60.1813 101.476 58.4918 102.399 56.8937 101.92ZM77.4639 101.324C77.4639 101.324 77.4635 101.324 77.4627 101.324L77.4639 101.324Z"
        fill="#3CD2DC"
      />
      <path
        d="M91.3774 69.2573L83.635 77.9288C82.3943 79.3184 83.56 81.5003 85.4048 81.2414L103.058 78.7638C104.907 78.5043 105.423 76.0769 103.84 75.0873L93.9293 68.8933C93.1035 68.3772 92.026 68.5309 91.3774 69.2573Z"
        fill="#CCB4FF"
      />
      <path
        d="M49.3774 86.2573L41.635 94.9288C40.3943 96.3184 41.56 98.5003 43.4048 98.2414L61.0576 95.7638C62.9068 95.5043 63.4231 93.0769 61.8396 92.0873L51.9293 85.8933C51.1035 85.3772 50.026 85.5309 49.3774 86.2573Z"
        fill="#CCB4FF"
      />
      <path
        d="M135.736 49.3788L125.708 43.4989C124.101 42.5566 124.542 40.1223 126.377 39.8031L143.939 36.7489C145.779 36.429 147.015 38.5811 145.811 40.0087L138.277 48.9429C137.649 49.6873 136.577 49.8714 135.736 49.3788Z"
        fill="#CCB4FF"
      />
      <path
        d="M139.334 101.771L128.219 98.3668C126.438 97.8213 126.304 95.351 128.016 94.6165L144.397 87.588C146.113 86.8517 147.813 88.6602 146.971 90.3272L141.705 100.76C141.266 101.629 140.265 102.056 139.334 101.771Z"
        fill="#CCB4FF"
      />
      <path
        d="M175.369 76.9706L169.77 66.7829C168.873 65.1504 170.498 63.2856 172.238 63.9519L188.885 70.3272C190.629 70.995 190.587 73.4763 188.822 74.0855L177.775 77.8978C176.854 78.2155 175.838 77.824 175.369 76.9706Z"
        fill="#CCB4FF"
      />
      <path
        d="M65.2236 20.4755L75.7643 15.573C77.4534 14.7873 77.2456 12.3222 75.4488 11.8305L58.2554 7.12469C56.4543 6.63174 55.0201 8.65703 56.0831 10.1923L62.7359 19.8006C63.2902 20.6012 64.3407 20.8862 65.2236 20.4755Z"
        fill="#CCB4FF"
      />
      <path
        d="M20.746 89.6735L32.2655 91.2365C34.1115 91.487 35.2672 89.2997 34.0202 87.9158L22.0871 74.6734C20.8371 73.2862 18.5366 74.2169 18.6026 76.083L19.0162 87.7624C19.0507 88.7356 19.7811 89.5426 20.746 89.6735Z"
        fill="#CCB4FF"
      />
      <path
        d="M29.5319 42.9222L35.2054 53.0687C36.1146 54.6947 38.5574 54.304 38.9141 52.4756L42.3271 34.9796C42.6846 33.1468 40.5582 31.8674 39.1064 33.0417L30.0198 40.3911C29.2627 41.0035 29.0567 42.0722 29.5319 42.9222Z"
        fill="#CCB4FF"
      />
      <path
        d="M57.0768 15.9675L61.5219 26.7091C62.2342 28.4304 64.706 28.3288 65.2745 26.5548L70.7148 9.57945C71.2847 7.80122 69.3229 6.28131 67.7434 7.27734L57.858 13.5111C57.0343 14.0305 56.7045 15.0677 57.0768 15.9675Z"
        fill="#A5A8BC"
      />
      <circle cx="161" cy="82" r="8" stroke="#FF7A9A" stroke-width="6" />
      <circle cx="110" cy="52" r="8" stroke="#FF7A9A" stroke-width="6" />
      <circle cx="65" cy="74" r="8" stroke="#FF7A9A" stroke-width="6" />
      <circle cx="15" cy="63" r="8" stroke="#FF7A9A" stroke-width="6" />
    </g>
    <g filter="url(#filter1_i)">
      <path
        d="M106.5 20C94.9 20 83.6667 14.3333 79 11.5L78.5 10L79.5 9H133.5L136.5 10L136 11.5C130.833 14.3333 118.1 20 106.5 20Z"
        fill="#4C5670"
      />
    </g>
    <g filter="url(#filter2_i)">
      <path
        d="M107 101C90.6 101 66.8333 98.6667 57 97.5L53.5 112H161L157.5 97.5C147.667 98.6667 123.4 101 107 101Z"
        fill="#4C5670"
      />
    </g>
    <g filter="url(#filter3_i)">
      <path d="M1 86L9.5 76C14.1667 80.1667 25.8 89.8 29 91L20.5 101.5L1 86Z" fill="#4C5670" />
    </g>
    <g filter="url(#filter4_i)">
      <path d="M213 85L205 76.5C200.333 80.6667 189.2 89.8 186 91L193 102.5L213 85Z" fill="#4C5670" />
    </g>
  </g>
  <defs>
    <filter
      id="filter0_df"
      x="3"
      y="3"
      width="203.958"
      height="111"
      filterUnits="userSpaceOnUse"
      color-interpolation-filters="sRGB"
    >
      <feFlood flood-opacity="0" result="BackgroundImageFix" />
      <feColorMatrix
        in="SourceAlpha"
        type="matrix"
        values="0 0 0 0 0 0 0 0 0 0 0 0 0 0 0 0 0 0 127 0"
        result="hardAlpha"
      />
      <feOffset dx="1" dy="1" />
      <feGaussianBlur stdDeviation="1" />
      <feColorMatrix type="matrix" values="0 0 0 0 0.933333 0 0 0 0 0.851667 0 0 0 0 0.688333 0 0 0 1 0" />
      <feBlend mode="normal" in2="BackgroundImageFix" result="effect1_dropShadow" />
      <feBlend mode="normal" in="SourceGraphic" in2="effect1_dropShadow" result="shape" />
      <feGaussianBlur stdDeviation="0.15" result="effect2_foregroundBlur" />
    </filter>
    <filter
      id="filter1_i"
      x="78.5"
      y="5"
      width="58"
      height="15"
      filterUnits="userSpaceOnUse"
      color-interpolation-filters="sRGB"
    >
      <feFlood flood-opacity="0" result="BackgroundImageFix" />
      <feBlend mode="normal" in="SourceGraphic" in2="BackgroundImageFix" result="shape" />
      <feColorMatrix
        in="SourceAlpha"
        type="matrix"
        values="0 0 0 0 0 0 0 0 0 0 0 0 0 0 0 0 0 0 127 0"
        result="hardAlpha"
      />
      <feOffset dy="-4" />
      <feGaussianBlur stdDeviation="2" />
      <feComposite in2="hardAlpha" operator="arithmetic" k2="-1" k3="1" />
      <feColorMatrix type="matrix" values="0 0 0 0 0.14902 0 0 0 0 0.192157 0 0 0 0 0.313726 0 0 0 0.3 0" />
      <feBlend mode="normal" in2="shape" result="effect1_innerShadow" />
    </filter>
    <filter
      id="filter2_i"
      x="53.5"
      y="97.5"
      width="107.5"
      height="18.5"
      filterUnits="userSpaceOnUse"
      color-interpolation-filters="sRGB"
    >
      <feFlood flood-opacity="0" result="BackgroundImageFix" />
      <feBlend mode="normal" in="SourceGraphic" in2="BackgroundImageFix" result="shape" />
      <feColorMatrix
        in="SourceAlpha"
        type="matrix"
        values="0 0 0 0 0 0 0 0 0 0 0 0 0 0 0 0 0 0 127 0"
        result="hardAlpha"
      />
      <feOffset dy="4" />
      <feGaussianBlur stdDeviation="2" />
      <feComposite in2="hardAlpha" operator="arithmetic" k2="-1" k3="1" />
      <feColorMatrix type="matrix" values="0 0 0 0 0.14902 0 0 0 0 0.192157 0 0 0 0 0.313726 0 0 0 0.3 0" />
      <feBlend mode="normal" in2="shape" result="effect1_innerShadow" />
    </filter>
    <filter
      id="filter3_i"
      x="1"
      y="76"
      width="28"
      height="29.5"
      filterUnits="userSpaceOnUse"
      color-interpolation-filters="sRGB"
    >
      <feFlood flood-opacity="0" result="BackgroundImageFix" />
      <feBlend mode="normal" in="SourceGraphic" in2="BackgroundImageFix" result="shape" />
      <feColorMatrix
        in="SourceAlpha"
        type="matrix"
        values="0 0 0 0 0 0 0 0 0 0 0 0 0 0 0 0 0 0 127 0"
        result="hardAlpha"
      />
      <feOffset dy="4" />
      <feGaussianBlur stdDeviation="2" />
      <feComposite in2="hardAlpha" operator="arithmetic" k2="-1" k3="1" />
      <feColorMatrix type="matrix" values="0 0 0 0 0.147135 0 0 0 0 0.19307 0 0 0 0 0.3125 0 0 0 0.3 0" />
      <feBlend mode="normal" in2="shape" result="effect1_innerShadow" />
    </filter>
    <filter
      id="filter4_i"
      x="186"
      y="76.5"
      width="27"
      height="30"
      filterUnits="userSpaceOnUse"
      color-interpolation-filters="sRGB"
    >
      <feFlood flood-opacity="0" result="BackgroundImageFix" />
      <feBlend mode="normal" in="SourceGraphic" in2="BackgroundImageFix" result="shape" />
      <feColorMatrix
        in="SourceAlpha"
        type="matrix"
        values="0 0 0 0 0 0 0 0 0 0 0 0 0 0 0 0 0 0 127 0"
        result="hardAlpha"
      />
      <feOffset dy="4" />
      <feGaussianBlur stdDeviation="2" />
      <feComposite in2="hardAlpha" operator="arithmetic" k2="-1" k3="1" />
      <feColorMatrix type="matrix" values="0 0 0 0 0.147135 0 0 0 0 0.19307 0 0 0 0 0.3125 0 0 0 0.3 0" />
      <feBlend mode="normal" in2="shape" result="effect1_innerShadow" />
    </filter>
  </defs>
</svg>
