<svg width="247" height="317" viewBox="0 0 247 317" fill="none" xmlns="http://www.w3.org/2000/svg">
  <ellipse cx="38" cy="101" fill="#57280D" rx="22" ry="19" />
  <ellipse cx="207" cy="101" fill="#57280D" rx="22" ry="19" />
  <path
    d="M122 0C91 0 39.5 11.2 39.5 82C39.6088 82 39.7165 82 39.823 82C37.9778 93.0563 37.4095 104.025 38.6942 113.5C41.8942 137.1 72.3609 155 87.1943 161C92.0276 163 105.894 167 122.694 167C139.494 167 153.361 163 158.194 161C173.028 155 203.494 137.1 206.694 113.5C207.99 103.946 207.392 92.8824 205.5 81.7417C205.375 11.1727 153.962 0 123 0H122Z"
    fill="#84401A"
  />
  <path
    d="M99.3531 164.521C88.4733 166.609 70.11 175.194 52.5 199C37.5708 219.182 27.8327 231.609 20.5453 240.112C19.8737 240.038 19.1913 240 18.5 240C8.2827 240 0 248.283 0 258.5C0 268.717 8.2827 277 18.5 277C28.7173 277 37 268.717 37 258.5C37 255.965 36.49 253.549 35.567 251.348C49.4176 237.375 69.5204 217.542 81.8526 210.5C77.6494 224.573 67.1811 282.514 81.8526 317.5H117.5L123.75 294.5L130.5 317.5H165.647C180.319 282.514 169.851 224.573 165.647 210.5C177.409 217.216 197.274 236.603 211.588 250.989C210.567 253.285 210 255.826 210 258.5C210 268.717 218.283 277 228.5 277C238.717 277 247 268.717 247 258.5C247 248.283 238.717 240 228.5 240C228.035 240 227.574 240.017 227.118 240.051C219.383 231.008 209.073 218.025 195 199C176.741 174.317 157.672 165.997 146.975 164.316Z"
    fill="#84401A"
  />
  <path
    d="M154.094 166.12C153.12 171.652 150.646 180.035 149.476 184C149.054 185.429 148.749 187.949 148.395 190.872C147.51 198.173 146.321 207.985 142.25 209.584C136.549 211.822 130.083 213 123.5 213C116.917 213 110.451 211.822 104.75 209.584C99.0492 207.346 97.4999 194.5 97.4999 185C97.4999 179.367 95.7334 174.428 94.2954 170.408C93.7562 168.901 93.2632 167.523 92.9268 166.285C95.2724 165.462 97.4296 164.89 99.353 164.521C105.702 165.875 113.786 167 122.694 167C132.048 167 140.493 165.76 146.975 164.316C149.054 164.642 151.45 165.22 154.094 166.12Z"
    fill="#700000"
    fill-opacity="0.1"
    filter="url(#simpleBlurFilter_0)"
    style="mix-blend-mode: hard-light"
  />
  <defs>
    <filter id="simpleBlurFilter_0">
      <feGaussianBlur stdDeviation="1" />
    </filter>
  </defs>
</svg>
