<svg width="213" height="163" viewBox="0 0 213 163" fill="none" xmlns="http://www.w3.org/2000/svg">
  <mask id="mask0" style="mask-type:alpha" maskUnits="userSpaceOnUse" x="56" y="10" width="103" height="105">
    <path
      d="M107.5 17.5C93 17.5 88.6666 13 82.4999 10.5C79.6666 11.1667 72.8999 13.4 70.4999 15C70.2053 27.4692 69.8464 52.163 64.9999 57C64 62 56.5051 103.077 57 110.5C68 113 93.8999 114.5 107.5 114.5C121.1 114.5 147 113 158 110.5C159.2 104.5 153.333 72 150.5 57C146.5 51 145.167 26.5 145 15C142.6 13.4 135.333 11.1667 132.5 10.5C126.333 13 122 17.5 107.5 17.5Z"
      fill="black" />
  </mask>
  <g mask="url(#mask0)">
    <rect width="213" height="163" fill="#FFE68C" />
    <rect x="132.059" y="80.6078" width="2.35294" height="20.3922" rx="1.17647" fill="#EEAC48" />
    <path fill-rule="evenodd"
      d="M141.471 68.451V88.3725C141.471 90.5817 139.68 92.3726 137.471 92.3726H129C126.791 92.3726 125 90.5817 125 88.3726V68.451V68.0588H125.011C125.237 64.1261 128.832 61 133.235 61C137.638 61 141.234 64.1261 141.459 68.0588H141.471V68.451Z"
      fill="#B5EDFF" />
    <rect x="128.137" y="67.2745" width="3.13725" height="20.3922" rx="1.56863" fill="#8CDDF7" />
    <rect x="135.196" y="67.2745" width="3.13725" height="20.3922" rx="1.56863" fill="#8CDDF7" />
    <rect width="2.35294" height="20.3922" rx="1.17647" transform="matrix(1 0 0 -1 107.059 34.3922)" fill="#EEAC48" />
    <path fill-rule="evenodd"
      d="M116.471 46.549V26.6275C116.471 24.4183 114.68 22.6274 112.471 22.6274H104C101.791 22.6274 100 24.4183 100 26.6274V46.549V46.9412H100.011C100.237 50.8739 103.832 54 108.235 54C112.638 54 116.234 50.8739 116.459 46.9412H116.471V46.549Z"
      fill="#B5EDFF" />
    <rect width="3.13725" height="20.3922" rx="1.56863" transform="matrix(1 0 0 -1 103.137 47.7255)" fill="#8CDDF7" />
    <rect width="3.13725" height="20.3922" rx="1.56863" transform="matrix(1 0 0 -1 110.196 47.7255)" fill="#8CDDF7" />
    <rect width="2.35294" height="20.3922" rx="1.17647" transform="matrix(1 0 0 -1 57.0588 73.3922)" fill="#EEAC48" />
    <path fill-rule="evenodd"
      d="M66.4706 85.549V65.6275C66.4706 63.4183 64.6797 61.6274 62.4706 61.6274H54C51.7909 61.6274 50 63.4183 50 65.6274V85.549V85.9412H50.0112C50.2366 89.8739 53.8325 93 58.2353 93C62.6381 93 66.234 89.8739 66.4594 85.9412H66.4706V85.549Z"
      fill="#B5EDFF" />
    <rect width="3.13725" height="20.3922" rx="1.56863" transform="matrix(1 0 0 -1 60.196 86.7255)" fill="#8CDDF7" />
    <rect width="2.35294" height="20.3922" rx="1.17647" transform="matrix(1 0 0 -1 107.059 124.392)" fill="#EEAC48" />
    <path fill-rule="evenodd"
      d="M116.471 136.549V116.627C116.471 114.418 114.68 112.627 112.471 112.627H104C101.791 112.627 100 114.418 100 116.627V136.549V136.941H100.011C100.237 140.874 103.832 144 108.235 144C112.638 144 116.234 140.874 116.459 136.941H116.471V136.549Z"
      fill="#B5EDFF" />
    <rect x="82.0588" y="106.608" width="2.35294" height="20.3922" rx="1.17647" fill="#EEAC48" />
    <path fill-rule="evenodd"
      d="M91.4706 94.451V114.373C91.4706 116.582 89.6797 118.373 87.4706 118.373H79C76.7909 118.373 75 116.582 75 114.373V94.451V94.0588H75.0112C75.2366 90.1261 78.8325 87 83.2353 87C87.6381 87 91.234 90.1261 91.4594 94.0588H91.4706V94.451Z"
      fill="#FFB5B5" />
    <rect x="78.1375" y="93.2745" width="3.13725" height="20.3922" rx="1.56863" fill="#F78C8C" />
    <rect x="85.196" y="93.2745" width="3.13725" height="20.3922" rx="1.56863" fill="#F78C8C" />
    <rect x="132.059" y="35.6078" width="2.35294" height="20.3922" rx="1.17647" fill="#EEAC48" />
    <path fill-rule="evenodd"
      d="M141.471 23.451V43.3726C141.471 45.5817 139.68 47.3726 137.471 47.3726H129C126.791 47.3726 125 45.5817 125 43.3726V23.451V23.0588H125.011C125.237 19.1261 128.832 16 133.235 16C137.638 16 141.234 19.1261 141.459 23.0588H141.471V23.451Z"
      fill="#FFB5B5" />
    <rect x="128.137" y="22.2745" width="3.13725" height="20.3922" rx="1.56863" fill="#F78C8C" />
    <rect x="135.196" y="22.2745" width="3.13725" height="20.3922" rx="1.56863" fill="#F78C8C" />
    <path fill-rule="evenodd"
      d="M141.471 113.451V133.373C141.471 135.582 139.68 137.373 137.471 137.373H129C126.791 137.373 125 135.582 125 133.373V113.451V113.059H125.011C125.237 109.126 128.832 106 133.235 106C137.638 106 141.234 109.126 141.459 113.059H141.471V113.451Z"
      fill="#FFB5B5" />
    <rect x="128.137" y="112.275" width="3.13725" height="20.3922" rx="1.56863" fill="#F78C8C" />
    <rect x="135.196" y="112.275" width="3.13725" height="20.3922" rx="1.56863" fill="#F78C8C" />
    <rect x="82.0588" y="61.6078" width="2.35294" height="20.3922" rx="1.17647" fill="#EEAC48" />
    <path fill-rule="evenodd"
      d="M91.4706 49.451V69.3725C91.4706 71.5817 89.6797 73.3726 87.4706 73.3726H79C76.7909 73.3726 75 71.5817 75 69.3726V49.451V49.0588H75.0112C75.2366 45.1261 78.8325 42 83.2353 42C87.6381 42 91.234 45.1261 91.4594 49.0588H91.4706V49.451Z"
      fill="#B6FFB5" />
    <rect x="78.1372" y="48.2745" width="3.13725" height="20.3922" rx="1.56863" fill="#8BF789" />
    <rect x="85.196" y="48.2745" width="3.13725" height="20.3922" rx="1.56863" fill="#8BF789" />
    <rect width="2.35294" height="20.3922" rx="1.17647" transform="matrix(1 0 0 -1 157.059 88.3922)" fill="#EEAC48" />
    <path fill-rule="evenodd"
      d="M166.471 100.549V80.6275C166.471 78.4183 164.68 76.6274 162.471 76.6274H154C151.791 76.6274 150 78.4183 150 80.6274V100.549V100.941H150.011C150.237 104.874 153.832 108 158.235 108C162.638 108 166.234 104.874 166.459 100.941H166.471V100.549Z"
      fill="#B6FFB5" />
    <rect width="3.13725" height="20.3922" rx="1.56863" transform="matrix(1 0 0 -1 153.137 101.725)" fill="#8BF789" />
    <rect width="2.35294" height="20.3922" rx="1.17647" transform="matrix(1 0 0 -1 107.059 79.3922)" fill="#EEAC48" />
    <path fill-rule="evenodd"
      d="M116.471 91.549V71.6275C116.471 69.4183 114.68 67.6274 112.471 67.6274H104C101.791 67.6274 100 69.4183 100 71.6274V91.549V91.9412H100.011C100.237 95.8739 103.832 99 108.235 99C112.638 99 116.234 95.8739 116.459 91.9412H116.471V91.549Z"
      fill="#F0B5FF" />
    <rect width="3.13725" height="20.3922" rx="1.56863" transform="matrix(1 0 0 -1 103.137 92.7255)" fill="#E189F7" />
    <rect width="3.13725" height="20.3922" rx="1.56863" transform="matrix(1 0 0 -1 110.196 92.7255)" fill="#E189F7" />
    <rect width="2.35294" height="20.3922" rx="1.17647" transform="matrix(1 0 0 -1 57.0588 118.392)" fill="#EEAC48" />
    <path fill-rule="evenodd"
      d="M66.4706 130.549V110.627C66.4706 108.418 64.6797 106.627 62.4706 106.627H54C51.7909 106.627 50 108.418 50 110.627V130.549V130.941H50.0112C50.2366 134.874 53.8325 138 58.2353 138C62.6381 138 66.234 134.874 66.4594 130.941H66.4706V130.549Z"
      fill="#F0B5FF" />
    <rect width="3.13725" height="20.3922" rx="1.56863" transform="matrix(1 0 0 -1 60.196 131.725)" fill="#E189F7" />
    <rect x="82.0588" y="16.6078" width="2.35294" height="20.3922" rx="1.17647" fill="#EEAC48" />
    <path fill-rule="evenodd"
      d="M91.4706 4.45098V24.3725C91.4706 26.5817 89.6797 28.3726 87.4706 28.3726H79C76.7909 28.3726 75 26.5817 75 24.3726V4.45098V4.05882H75.0112C75.2366 0.126053 78.8325 -3 83.2353 -3C87.6381 -3 91.234 0.126053 91.4594 4.05882H91.4706V4.45098Z"
      fill="#F0B5FF" />
    <rect x="78.1372" y="3.27454" width="3.13725" height="20.3922" rx="1.56863" fill="#E189F7" />
    <rect x="85.196" y="3.27454" width="3.13725" height="20.3922" rx="1.56863" fill="#E189F7" />
    <path d="M108 19.5C93.2 19.5 82.8333 13.8333 79.5 11L85 8.5H131L135.5 10C132.5 13.1667 122.8 19.5 108 19.5Z"
      fill="#FFFBEB" />
    <path d="M68 57.5C72 54.7 72.6667 25.6667 72.5 11.5L68 13.5L63.5 59C63.3333 59.6667 64 60.3 68 57.5Z"
      fill="#FFFBEB" />
    <path
      d="M147.523 57.5C143.523 54.7 142.856 25.6667 143.023 11.5L147.523 13.5L152.023 59C152.19 59.6667 151.523 60.3 147.523 57.5Z"
      fill="#FFFBEB" />
  </g>
</svg>
