<svg width="213" height="163" viewBox="0 0 213 163" fill="none" xmlns="http://www.w3.org/2000/svg">
  <mask id="mask0" style="mask-type: alpha" maskUnits="userSpaceOnUse" x="56" y="10" width="103" height="105">
    <path
      d="M107.5 17.5C93 17.5 88.6666 13 82.4999 10.5C79.6666 11.1667 72.8999 13.4 70.4999 15C70.2053 27.4692 69.8464 52.163 64.9999 57C64 62 56.5051 103.077 57 110.5C68 113 93.8999 114.5 107.5 114.5C121.1 114.5 147 113 158 110.5C159.2 104.5 153.333 72 150.5 57C146.5 51 145.167 26.5 145 15C142.6 13.4 135.333 11.1667 132.5 10.5C126.333 13 122 17.5 107.5 17.5Z"
      fill="black"
    />
  </mask>
  <g mask="url(#mask0)">
    <rect width="213" height="163" fill="#FFE072" />
    <rect
      x="64.4592"
      y="36.8577"
      width="9"
      height="119.213"
      transform="rotate(-45 64.4592 36.8577)"
      fill="#3B7D24"
      fill-opacity="0.8"
    />
    <rect
      x="92.2915"
      y="12.364"
      width="9"
      height="93.0097"
      transform="rotate(-45 92.2915 12.364)"
      fill="#3B7D24"
      fill-opacity="0.8"
    />
    <rect
      x="55.8232"
      y="80.5476"
      width="9"
      height="59.7245"
      transform="rotate(-45 55.8232 80.5476)"
      fill="#3B7D24"
      fill-opacity="0.8"
    />
    <rect
      x="151.349"
      y="17.6813"
      width="9"
      height="134.6"
      transform="rotate(45 151.349 17.6813)"
      fill="#3B7D24"
      fill-opacity="0.8"
    />
    <rect
      x="156.449"
      y="64.9068"
      width="9"
      height="72.9442"
      transform="rotate(45 156.449 64.9068)"
      fill="#3B7D24"
      fill-opacity="0.8"
    />
    <rect
      x="108.464"
      y="8.24085"
      width="9"
      height="74.6543"
      transform="rotate(45 108.464 8.24085)"
      fill="#3B7D24"
      fill-opacity="0.8"
    />
    <rect
      x="60.7847"
      y="57.2247"
      width="6"
      height="95.0773"
      transform="rotate(-45 60.7847 57.2247)"
      fill="#FFA825"
      fill-opacity="0.8"
    />
    <rect
      x="54.3459"
      y="102.723"
      width="6"
      height="22.8983"
      transform="rotate(-45 54.3459 102.723)"
      fill="#FFA825"
      fill-opacity="0.8"
    />
    <rect
      x="69.9214"
      y="14.0355"
      width="6"
      height="130.308"
      transform="rotate(-45 69.9214 14.0355)"
      fill="#FFA825"
      fill-opacity="0.8"
    />
    <rect
      x="120.789"
      y="12.5773"
      width="6"
      height="42.0196"
      transform="rotate(-45 120.789 12.5773)"
      fill="#FFA825"
      fill-opacity="0.8"
    />
    <rect
      x="83.571"
      y="122.229"
      width="6"
      height="102.688"
      transform="rotate(-135 83.571 122.229)"
      fill="#FFA825"
      fill-opacity="0.8"
    />
    <rect
      x="136.855"
      y="121.43"
      width="6"
      height="41.3114"
      transform="rotate(-135 136.855 121.43)"
      fill="#FFA825"
      fill-opacity="0.8"
    />
    <rect
      x="58.2427"
      y="95.231"
      width="6"
      height="118.672"
      transform="rotate(-135 58.2427 95.231)"
      fill="#FFA825"
      fill-opacity="0.8"
    />
    <rect
      x="69.9714"
      y="31.1765"
      width="6"
      height="28.3278"
      transform="rotate(-135 69.9714 31.1765)"
      fill="#FFA825"
      fill-opacity="0.8"
    />
  </g>
</svg>
