<svg width="213" height="163" viewBox="0 0 213 163" fill="none" xmlns="http://www.w3.org/2000/svg">
  <mask id="mask0" style="mask-type: alpha" maskUnits="userSpaceOnUse" x="56" y="10" width="103" height="105">
    <path
      d="M107.5 114.5C93.8999 114.5 68 113 57 110.5C56.5051 103.077 64 62 64.9999 57C69.8464 52.163 70.2053 27.4692 70.4999 15C72.8999 13.4 79.6666 11.1667 82.4999 10.5C85 11.1667 90 12.3 90 15.5C90 12.5 98.5 13.3 98.5 16.5C98.5 14 107.5 14 107.5 18C107.5 14 116.5 14.0001 116.5 16.5001C116.5 13.3001 125 12.5001 125 15.5001C125 12.7001 130 11 132.5 10.5C135.333 11.1667 142.6 13.4 145 15C145.167 26.5 146.5 51 150.5 57C153.333 72 159.2 104.5 158 110.5C147 113 121.1 114.5 107.5 114.5Z"
      fill="#FFFCEA"
    />
  </mask>
  <g mask="url(#mask0)">
    <rect x="66" y="8" width="83" height="50" fill="#FFECEC" />
    <g filter="url(#filter0_d)">
      <path d="M81.5 9.5C89.1667 16.8333 106 33 108 33C110.5 33 134 10.5 134 9.5" stroke="#FFDC99" />
      <path
        d="M111.378 30.3094C109.576 29.2389 108.375 31.2015 108 32.3166C107.625 31.2015 106.424 29.2389 104.622 30.3094C102.37 31.6476 106.874 37 108 37C109.126 37 113.63 31.6476 111.378 30.3094Z"
        fill="#FFA7A7"
      />
    </g>
  </g>
  <mask id="mask1" style="mask-type: alpha" maskUnits="userSpaceOnUse" x="56" y="10" width="103" height="105">
    <path
      d="M107.5 114.5C93.8999 114.5 68 113 57 110.5C56.5051 103.077 64 62 64.9999 57C67.0407 45.8 74.517 41.3334 78 40.5C79.6 38.1 75.3333 21.8334 73 14C75.4 12.4 79.6666 11.1667 82.4999 10.5C84.5 18 88 34.9 88 38.5C92.5 38.5 102.4 42.2001 108 49C113.6 42.2001 123.5 38.5 128 38.5C128 34.9 131.5 18 133.5 10.5C136.333 11.1667 140.6 12.4 143 14C140.667 21.8333 136.4 38.1 138 40.5C141.483 41.3333 148.959 45.8 151 57C153.833 72 159.2 104.5 158 110.5C147 113 121.1 114.5 107.5 114.5Z"
      fill="black"
    />
  </mask>
  <g mask="url(#mask1)">
    <rect width="213" height="163" fill="#FFA7A7" />
    <rect x="91" y="38" width="3" height="80" fill="#FFCFCF" fill-opacity="0.6" />
    <rect x="72" y="9" width="3" height="109" fill="#FFCFCF" fill-opacity="0.6" />
    <rect x="110" y="42" width="3" height="76" fill="#FFCFCF" fill-opacity="0.6" />
    <rect x="129" y="7" width="3" height="109" fill="#FFCFCF" fill-opacity="0.6" />
    <rect x="148" y="43" width="3" height="74" fill="#FFCFCF" fill-opacity="0.6" />
    <rect x="97" y="39" width="3" height="81" fill="#FFCFCF" fill-opacity="0.6" />
    <rect x="78" y="6" width="3" height="109" fill="#FFCFCF" fill-opacity="0.6" />
    <rect x="59" y="11" width="3" height="109" fill="#FFCFCF" fill-opacity="0.6" />
    <rect x="168" y="54" width="3" height="109" transform="rotate(90 168 54)" fill="#FFCFCF" fill-opacity="0.6" />
    <rect x="168" y="111" width="3" height="109" transform="rotate(90 168 111)" fill="#FFCFCF" fill-opacity="0.6" />
    <rect x="168" y="35" width="3" height="109" transform="rotate(90 168 35)" fill="#FFCFCF" fill-opacity="0.6" />
    <rect x="162" y="92" width="3" height="109" transform="rotate(90 162 92)" fill="#FFCFCF" fill-opacity="0.6" />
    <rect x="168" y="16" width="3" height="109" transform="rotate(90 168 16)" fill="#FFCFCF" fill-opacity="0.6" />
    <rect x="168" y="73" width="3" height="109" transform="rotate(90 168 73)" fill="#FFCFCF" fill-opacity="0.6" />
    <rect x="166" y="60" width="3" height="109" transform="rotate(90 166 60)" fill="#FFCFCF" fill-opacity="0.6" />
    <rect x="166" y="41" width="3" height="109" transform="rotate(90 166 41)" fill="#FFCFCF" fill-opacity="0.6" />
    <rect x="162" y="98" width="3" height="109" transform="rotate(90 162 98)" fill="#FFCFCF" fill-opacity="0.6" />
    <rect x="166" y="22" width="3" height="109" transform="rotate(90 166 22)" fill="#FFCFCF" fill-opacity="0.6" />
    <rect x="166" y="79" width="3" height="109" transform="rotate(90 166 79)" fill="#FFCFCF" fill-opacity="0.6" />
    <rect x="116" y="39" width="3" height="81" fill="#FFCFCF" fill-opacity="0.6" />
    <rect x="135" y="9" width="3" height="109" fill="#FFCFCF" fill-opacity="0.6" />
    <rect x="154" y="44" width="3" height="74" fill="#FFCFCF" fill-opacity="0.6" />
  </g>
  <defs>
    <filter
      id="filter0_d"
      x="78.1543"
      y="6.13867"
      width="61.3457"
      height="35.8613"
      filterUnits="userSpaceOnUse"
      color-interpolation-filters="sRGB"
    >
      <feFlood flood-opacity="0" result="BackgroundImageFix" />
      <feColorMatrix
        in="SourceAlpha"
        type="matrix"
        values="0 0 0 0 0 0 0 0 0 0 0 0 0 0 0 0 0 0 127 0"
        result="hardAlpha"
      />
      <feOffset dx="1" dy="1" />
      <feGaussianBlur stdDeviation="2" />
      <feColorMatrix type="matrix" values="0 0 0 0 1 0 0 0 0 0.654902 0 0 0 0 0.654902 0 0 0 0.5 0" />
      <feBlend mode="normal" in2="BackgroundImageFix" result="effect1_dropShadow" />
      <feBlend mode="normal" in="SourceGraphic" in2="effect1_dropShadow" result="shape" />
    </filter>
  </defs>
</svg>
