<svg width="134" height="59" viewBox="0 0 134 59" fill="none" xmlns="http://www.w3.org/2000/svg">
  <path
    d="M15.2068 13.2486C9.01482 14.867 6.69488 17.2486 6.2068 19.2486C5.71871 21.2485 5.4568 24.2486 7.2068 31.2486C8.7068 37.2486 10.7068 45.2486 20.7068 48.2486C30.7068 51.2486 36.8935 49.2486 40.3932 47.691C44.2961 45.9541 46.2921 43.9893 46.804 38.7943C47.3159 33.5993 44.6168 22.4094 36.8935 16.7879C29.1702 11.1665 22.9619 11.2216 15.2068 13.2486Z"
    fill="white"
    stroke="#8C501D"
    stroke-width="2"
  />
  <path
    d="M30.7962 13.3589C23.9989 15.378 19 22.1748 19 30.2486C19 39.9136 26.1634 47.7486 35 47.7486C39.0847 47.7486 42.8118 46.0745 45.6392 43.3194C46.2367 42.1411 46.6182 40.6807 46.8041 38.7944C47.316 33.5994 44.6168 22.4095 36.8935 16.788C34.7676 15.2406 32.7564 14.1233 30.7962 13.3589Z"
    fill="#8C501D"
  />
  <path
    d="M117.849 13.2486C124.041 14.867 126.361 17.2486 126.849 19.2486C127.338 21.2485 127.599 24.2486 125.849 31.2486C124.349 37.2486 122.349 45.2486 112.349 48.2486C102.349 51.2486 96.1628 49.2486 92.6631 47.691C88.7601 45.9541 86.7641 43.9893 86.2522 38.7943C85.7404 33.5993 88.4395 22.4094 96.1628 16.7879C103.886 11.1665 110.094 11.2216 117.849 13.2486Z"
    fill="white"
    stroke="#8C501D"
    stroke-width="2"
  />
  <path
    d="M120.259 13.981C119.53 13.7236 118.729 13.4784 117.849 13.2485C117.365 13.1221 116.888 13.0033 116.415 12.893C115.739 12.7977 115.049 12.7485 114.349 12.7485C105.513 12.7485 98.3494 20.5836 98.3494 30.2485C98.3494 39.73 105.243 47.4503 113.848 47.7401C122.556 44.4206 124.427 36.936 125.849 31.2485C127.567 24.3779 127.346 21.3608 126.876 19.3604C125.151 16.989 122.875 15.1186 120.259 13.981Z"
    fill="#8C501D"
  />
</svg>
