<svg width="134" height="59" viewBox="0 0 134 59" fill="none" xmlns="http://www.w3.org/2000/svg">
  <circle r="19.5" transform="matrix(1 0 0 -1 28.5 29.5)" fill="white" stroke="#8C501D" stroke-width="2" />
  <circle r="15" transform="matrix(1 0 0 -1 34 29)" fill="#8C501D" />
  <line x1="17.366" y1="46.7057" x2="14.866" y2="51.0359" stroke="#8C501D" stroke-width="2" stroke-linecap="round" />
  <line
    x1="1"
    y1="-1"
    x2="6"
    y2="-1"
    transform="matrix(0 1 1 0 29 49)"
    stroke="#8C501D"
    stroke-width="2"
    stroke-linecap="round"
  />
  <line
    x1="1"
    y1="-1"
    x2="6"
    y2="-1"
    transform="matrix(0.5 0.866025 0.866025 -0.5 40 45.3397)"
    stroke="#8C501D"
    stroke-width="2"
    stroke-linecap="round"
  />
  <circle r="19.5" transform="matrix(1 0 0 -1 104.5 29.5)" fill="white" stroke="#8C501D" stroke-width="2" />
  <circle r="15" transform="matrix(1 0 0 -1 110 29)" fill="#8C501D" />
  <line x1="93.366" y1="46.7057" x2="90.866" y2="51.0359" stroke="#8C501D" stroke-width="2" stroke-linecap="round" />
  <line
    x1="1"
    y1="-1"
    x2="6"
    y2="-1"
    transform="matrix(0 1 1 0 105 49)"
    stroke="#8C501D"
    stroke-width="2"
    stroke-linecap="round"
  />
  <line
    x1="1"
    y1="-1"
    x2="6"
    y2="-1"
    transform="matrix(0.5 0.866025 0.866025 -0.5 116 45.3397)"
    stroke="#8C501D"
    stroke-width="2"
    stroke-linecap="round"
  />
</svg>
