<svg width="134" height="59" viewBox="0 0 134 59" fill="none" xmlns="http://www.w3.org/2000/svg">
  <path
    fill-rule="evenodd"
    d="M41.8617 16.2127C42.0063 16.7417 41.7328 17.2991 41.2509 17.4578L13.9041 26.4623L13.8905 26.4663C12.6604 26.8263 10.7451 27.0817 8.99134 26.6227C8.10405 26.3905 7.21831 25.9647 6.49249 25.2337C5.7562 24.4921 5.23071 23.4819 5.01485 22.1789C4.92484 21.6355 5.25321 21.1149 5.74828 21.0161C6.24336 20.9174 6.71767 21.2778 6.80768 21.8211C6.95627 22.7181 7.29634 23.3288 7.72456 23.7601C8.16326 24.202 8.74099 24.5012 9.41398 24.6773C10.775 25.0335 12.36 24.842 13.4078 24.5376L40.7272 15.5422C41.2092 15.3835 41.7172 15.6837 41.8617 16.2127Z"
    fill="#8C501D"
  />
  <path
    d="M27.3224 50.0001C37.6378 50.0001 46.0002 40.8219 46.0002 29.5001C46.0002 24.6421 44.4606 20.1788 41.8877 16.6659C41.8318 17.0293 41.5943 17.3448 41.2509 17.4579L13.9041 26.4623L13.8905 26.4663C12.6603 26.8263 10.7451 27.0818 8.99133 26.6228C8.93845 26.6089 8.88558 26.5944 8.83274 26.5792C8.70874 27.5332 8.64459 28.5084 8.64459 29.5001C8.64459 40.8219 17.0069 50.0001 27.3224 50.0001Z"
    fill="#8C501D"
  />
  <path
    fill-rule="evenodd"
    d="M13.6503 26.5328C13.2365 27.2607 13.0002 28.1028 13.0002 28.9999C13.0002 31.7614 15.2388 34 18.0002 34C20.7616 34 23.0002 31.7614 23.0002 28.9999C23.0002 26.9692 21.7895 25.2212 20.0506 24.4384L13.9041 26.4622L13.8905 26.4662C13.8131 26.4888 13.7329 26.5111 13.6503 26.5328Z"
    fill="white"
  />
  <path
    d="M9.17938 24.6096C11.1775 15.649 18.5425 9 27.3224 9C32.7061 9 37.5579 11.5 40.9664 15.5001C40.8872 15.5023 40.8069 15.516 40.7273 15.5422L13.4078 24.5376C12.36 24.842 10.775 25.0335 9.414 24.6773C9.33444 24.6564 9.25621 24.6339 9.17938 24.6096Z"
    fill="#FFAFA4"
  />
  <path
    fill-rule="evenodd"
    d="M92.1385 16.2127C91.9939 16.7417 92.2674 17.2991 92.7494 17.4578L120.096 26.4623L120.11 26.4663C121.34 26.8263 123.255 27.0817 125.009 26.6227C125.896 26.3905 126.782 25.9647 127.508 25.2337C128.244 24.4921 128.77 23.4819 128.985 22.1789C129.075 21.6355 128.747 21.1149 128.252 21.0161C127.757 20.9174 127.283 21.2778 127.193 21.8211C127.044 22.7181 126.704 23.3288 126.276 23.7601C125.837 24.202 125.259 24.5012 124.586 24.6773C123.225 25.0335 121.64 24.842 120.592 24.5376L93.273 15.5422C92.791 15.3835 92.2831 15.6837 92.1385 16.2127Z"
    fill="#8C501D"
  />
  <path
    d="M106.678 50.0001C96.3625 50.0001 88.0001 40.8219 88.0001 29.5001C88.0001 24.6421 89.5397 20.1788 92.1126 16.6659C92.1685 17.0293 92.4061 17.3448 92.7494 17.4579L120.096 26.4623L120.11 26.4663C121.34 26.8263 123.255 27.0818 125.009 26.6228C125.062 26.6089 125.115 26.5944 125.168 26.5792C125.292 27.5332 125.356 28.5084 125.356 29.5001C125.356 40.8219 116.993 50.0001 106.678 50.0001Z"
    fill="#8C501D"
  />
  <path
    d="M124.821 24.6096C122.823 15.649 115.458 9 106.678 9C101.294 9 96.4426 11.5 93.034 15.5001C93.1133 15.5023 93.1936 15.516 93.2732 15.5422L120.593 24.5376C121.64 24.842 123.225 25.0335 124.586 24.6773C124.666 24.6564 124.744 24.6339 124.821 24.6096Z"
    fill="#FFAFA4"
  />
  <circle cx="98.0002" cy="29" r="5" fill="white" />
</svg>
