<svg width="134" height="59" viewBox="0 0 134 59" fill="none" xmlns="http://www.w3.org/2000/svg">
  <path
    d="M15.7104 26.3661C17.476 28.8885 23.2411 33.7379 32.1772 32.9561C41.1133 32.1742 45.5107 26.4358 46.5924 23.6643"
    stroke="#8C501D" stroke-width="4" stroke-linecap="round" />
  <path
    d="M86.4076 23.6643C87.7083 26.455 92.5438 32.2317 101.48 33.0135C110.416 33.7953 115.743 28.9077 117.29 26.3661"
    stroke="#8C501D" stroke-width="4" stroke-linecap="round" />
  <line x1="31.5" y1="40.5" x2="31.5" y2="33.5" stroke="#8C501D" stroke-width="3" stroke-linecap="round" />
  <line x1="43.451" y1="37.7811" x2="39.951" y2="31.7189" stroke="#8C501D" stroke-width="3" stroke-linecap="round" />
  <line x1="18.951" y1="39.2811" x2="22.451" y2="33.2189" stroke="#8C501D" stroke-width="3" stroke-linecap="round" />
  <line x1="1.5" y1="-1.5" x2="8.5" y2="-1.5" transform="matrix(0 -1 -1 0 100.5 42)" stroke="#8C501D" stroke-width="3"
    stroke-linecap="round" />
  <line x1="1.5" y1="-1.5" x2="8.5" y2="-1.5" transform="matrix(0.5 -0.866025 -0.866025 -0.5 88 38.3301)"
    stroke="#8C501D" stroke-width="3" stroke-linecap="round" />
  <line x1="1.5" y1="-1.5" x2="8.5" y2="-1.5" transform="matrix(-0.5 -0.866025 -0.866025 0.5 114 41.3301)"
    stroke="#8C501D" stroke-width="3" stroke-linecap="round" />
</svg>
