<svg width="256" height="193" viewBox="0 0 256 193" fill="none" xmlns="http://www.w3.org/2000/svg">
  <path
    d="M41.1569 112.824C49.5 100.052 63 62.178 76.5 44.5519C83.8089 35.0091 95.7871 18.5519 148 18.5519C199.246 18.5519 209.882 34.223 217.5 44.5519C230.5 62.178 246 100.052 254.843 112.824C264.756 127.141 287.718 156.45 213.266 191.552C218.584 167.817 225.353 114.73 209.882 92.2649C200.374 90.7606 180.585 87.7519 177.491 87.7519C175.718 80.7316 172.173 65.7884 172.173 62.178C170.722 70.2012 167.532 86.5484 166.371 87.7519C164.921 89.2562 150.901 88.7548 148 88.7548C145.099 88.7548 131.079 89.2562 129.629 87.7519C128.468 86.5484 125.278 70.2012 123.827 62.178C123.827 65.7884 120.282 80.7316 118.509 87.7519C115.415 87.7519 95.6259 90.7606 86.118 92.2649C70.6475 114.73 77.4159 167.817 82.7338 191.552C8.28206 156.45 31.6337 127.403 41.1569 112.824Z"
    fill="#161515"
    transform="translate(-20, -8.5)"
  />
</svg>
