<svg width="187" height="135" viewBox="0 0 187 135" fill="none" xmlns="http://www.w3.org/2000/svg">
  <path
    fill-rule="evenodd"
    d="M170.605 37.9447C172.768 34.8523 174 31.2907 174 27.5C174 15.6259 161.912 6 147 6C132.088 6 120 15.6259 120 27.5C120 31.1485 121.141 34.5847 123.155 37.5946C75.7144 47.0133 63.5 86.4877 63.5 121L68 120.5C69.0874 119.413 70.8044 105.652 71.7371 97.0025C71.6176 102.01 73.2363 109.264 74.5 108C75.7 106.8 85.6667 103.5 90.5 102C92.0273 99.7091 93.263 87.213 93.5392 82.7699C94.0441 86.5397 97.2497 95.4783 99 100C102.2 98.8 117.333 97.1667 124.5 96.5C125.3 95.3 127.833 79.3333 129 71.5C130.2 73.9 132.5 89.1667 133.5 96.5C134.053 96.5 135.367 96.4321 137.026 96.3463L137.026 96.3462L137.027 96.3462C139.868 96.1993 143.722 96 146.5 96C149.128 96 152.72 96.1784 155.612 96.3221H155.612H155.612C157.562 96.4189 159.195 96.5 160 96.5C161 89.1667 163.3 73.9 164.5 71.5C165.667 79.3333 168.2 95.3 169 96.5C176.167 97.1667 191.3 98.8 194.5 100C196.25 95.4783 199.456 86.5397 199.961 82.7699C200.237 87.213 201.473 99.7091 203 102C207.833 103.5 217.8 106.8 219 108C220.264 109.264 221.882 102.01 221.763 97.0025C222.696 105.652 224.413 119.413 225.5 120.5L230 121C230 86.8997 216.958 47.9551 170.605 37.9447ZM93.5 81.5C93.4501 81.7996 93.4671 82.2321 93.5392 82.7699C93.6246 81.3947 93.6182 80.7909 93.5 81.5ZM71.7371 97.0025C71.8337 96.107 71.9218 95.2662 72 94.5C71.8425 95.2088 71.7594 96.0664 71.7371 97.0025Z"
    fill="#161515"
    transform="translate(-53.5, 4)"
  />
</svg>
