<svg width="295" height="331" viewBox="0 0 295 331" fill="none" xmlns="http://www.w3.org/2000/svg">
  <path
    fill-rule="evenodd"
    d="M171.984 35.6663C173.284 33.1484 174 30.3908 174 27.5C174 15.6259 161.912 6 147 6C132.088 6 120 15.6259 120 27.5C120 30.3054 120.675 32.9853 121.902 35.4424C81.3575 45.8759 63.5 82.5451 63.5 121C62.5 121.333 59.5 125.8 55.5 141C52.2262 153.44 59.67 164.38 65.9019 173.539C69.1878 178.368 72.1369 182.702 73 186.5C75 195.3 70.8333 204.833 68.5 208.5C67.1666 209.167 65.7 210.1 70.5 208.5C76.5 206.5 87.5 200.5 86.5 183C85.9596 173.544 82.4997 167.592 79.1964 161.909C76.3862 157.075 73.6895 152.435 73 146C71.8 134.8 79.5 114.333 83.5 105.5C105.5 105.5 118 76.8333 121.5 62.5C121.5 88.5 180.5 102 210 105.5C214 114.333 221.7 134.8 220.5 146C219.811 152.435 217.114 157.075 214.304 161.909C211 167.592 207.54 173.544 207 183C206 200.5 217 206.5 223 208.5C227.8 210.1 226.333 209.167 225 208.5C222.667 204.833 218.5 195.3 220.5 186.5C221.363 182.702 224.312 178.368 227.598 173.539C233.83 164.38 241.274 153.44 238 141C234 125.8 231 121.333 230 121C230 82.8154 212.041 46.3916 171.984 35.6663Z"
    fill="#161515"
  />
</svg>
