<svg width="295" height="331" viewBox="0 0 295 331" fill="none" xmlns="http://www.w3.org/2000/svg">
  <path
    fill-rule="evenodd"
    d="M95.9999 61.5C95.9999 68.3333 96.7999 82.6 99.9999 85C103.2 87.4 132 92 147 92C162 92 189.971 87.4 193.171 85C196.371 82.6 197.171 68.3333 197.171 61.5C205.442 85.5249 216.679 128.769 219.955 172.015C208.881 184.733 192.071 194.005 182.194 198C177.361 200 163.494 204 146.694 204C129.894 204 116.028 200 111.194 198C101.257 193.981 84.3044 184.621 73.2331 171.784C76.5315 128.615 87.7438 85.4821 95.9999 61.5ZM81.0989 254.432C81.1228 254.497 81.1467 254.562 81.1707 254.626C68.4471 254.251 40.8999 246.6 32.4999 219C21.9999 184.5 38.364 63.233 78.4999 39C105 23 119 23 146.5 23C174 23 188 23 214.5 39C254.636 63.233 271.171 184.5 260.671 219C252.271 246.6 224.724 254.251 212 254.626C212.057 254.472 212.115 254.317 212.171 254.162L212 254.5C202.5 248 178.2 234.5 147 234.5C115.908 234.5 90.6747 247.907 81.0989 254.432Z"
    fill="#161515"
  />
</svg>
