<svg width="213" height="163" viewBox="0 0 213 163" fill="none" xmlns="http://www.w3.org/2000/svg">
  <mask id="mask0" style="mask-type: alpha" maskUnits="userSpaceOnUse" x="31" y="10" width="153" height="80">
    <path
      d="M31 45.5C37.8 31.5 69 10 80.5 10C86.6667 12.5 93 17.5 107.5 17.5C122 17.5 128 12.5 134 10C145.5 10 176.7 31.5 183.5 45.5C181.333 55 168 66.5 164 68.5C161 66.5 154.6 62.1 153 60.5C151 58.5 158 78 157.5 85.5C146.5 87.5 120.1 89.5 106.5 89.5C92.9 89.5 68 88 57 85.5C56.5 78 63.5 58.5 61.5 60.5C59.9 62.1 53.5 66.5 50.5 68.5C46.5 66.5 33.1667 55 31 45.5Z"
      fill="black"
    />
  </mask>
  <g mask="url(#mask0)">
    <rect width="213" height="163" fill="#A51C45" />
  </g>
</svg>
