<svg width="213" height="163" viewBox="0 0 213 163" fill="none" xmlns="http://www.w3.org/2000/svg">
  <mask id="mask0" style="mask-type:alpha" maskUnits="userSpaceOnUse" x="31" y="10" width="153" height="80">
    <path
      d="M31 45.5C37.8 31.5 69 10 80.5 10C86.6667 12.5 92.5 25.5 107 25.5C121.5 25.5 128 12.5 134 10C145.5 10 176.7 31.5 183.5 45.5C181.333 55 168 66.5 164 68.5C161 66.5 154.6 62.1 153 60.5C151 58.5 158 78 157.5 85.5C146.5 87.5 120.1 89.5 106.5 89.5C92.9 89.5 68 88 57 85.5C56.5 78 63.5 58.5 61.5 60.5C59.9 62.1 53.5 66.5 50.5 68.5C46.5 66.5 33.1667 55 31 45.5Z"
      fill="black" />
  </mask>
  <g mask="url(#mask0)">
    <rect width="213" height="163" fill="#FF7D6B" />
    <ellipse cx="85" cy="27.5" rx="3" ry="5.5" fill="#FFF8E0" />
    <ellipse cx="85" cy="36.5" rx="3" ry="5.5" fill="#FFF8E0" />
    <ellipse cx="88.2631" cy="30.3481" rx="3" ry="5.5" transform="rotate(-120 88.2631 30.3481)" fill="#FFF8E0" />
    <ellipse rx="3" ry="5.5" transform="matrix(0.5 -0.866025 -0.866025 -0.5 81.2632 30.3481)" fill="#FFF8E0" />
    <ellipse cx="81.2631" cy="34.3481" rx="3" ry="5.5" transform="rotate(-120 81.2631 34.3481)" fill="#FFF8E0" />
    <ellipse cx="88.2632" cy="34.3481" rx="3" ry="5.5" transform="rotate(120 88.2632 34.3481)" fill="#FFF8E0" />
    <circle cx="85" cy="32" r="3" fill="#FFD029" />
    <ellipse cx="34.5607" cy="37.4084" rx="0.768192" ry="1.40835" fill="#FFF8E0" />
    <ellipse cx="34.5607" cy="39.7129" rx="0.768192" ry="1.40835" fill="#FFF8E0" />
    <ellipse cx="35.3961" cy="38.1377" rx="0.768192" ry="1.40835" transform="rotate(-120 35.3961 38.1377)"
      fill="#FFF8E0" />
    <ellipse rx="0.768192" ry="1.40835" transform="matrix(0.5 -0.866025 -0.866025 -0.5 33.6039 38.1377)"
      fill="#FFF8E0" />
    <ellipse cx="33.6039" cy="39.1619" rx="0.768192" ry="1.40835" transform="rotate(-120 33.6039 39.1619)"
      fill="#FFF8E0" />
    <ellipse cx="35.3962" cy="39.1619" rx="0.768192" ry="1.40835" transform="rotate(120 35.3962 39.1619)"
      fill="#FFF8E0" />
    <circle cx="34.5607" cy="38.5606" r="0.768192" fill="#FFD029" />
    <ellipse cx="41.5607" cy="49.4084" rx="0.768192" ry="1.40835" fill="#FFF8E0" />
    <ellipse cx="41.5607" cy="51.7129" rx="0.768192" ry="1.40835" fill="#FFF8E0" />
    <ellipse cx="42.3961" cy="50.1377" rx="0.768192" ry="1.40835" transform="rotate(-120 42.3961 50.1377)"
      fill="#FFF8E0" />
    <ellipse rx="0.768192" ry="1.40835" transform="matrix(0.5 -0.866025 -0.866025 -0.5 40.6039 50.1377)"
      fill="#FFF8E0" />
    <ellipse cx="40.6039" cy="51.1619" rx="0.768192" ry="1.40835" transform="rotate(-120 40.6039 51.1619)"
      fill="#FFF8E0" />
    <ellipse cx="42.3962" cy="51.1619" rx="0.768192" ry="1.40835" transform="rotate(120 42.3962 51.1619)"
      fill="#FFF8E0" />
    <circle cx="41.5607" cy="50.5606" r="0.768192" fill="#FFD029" />
    <ellipse cx="51.5607" cy="58.4084" rx="0.768192" ry="1.40835" fill="#FFF8E0" />
    <ellipse cx="51.5607" cy="60.7129" rx="0.768192" ry="1.40835" fill="#FFF8E0" />
    <ellipse cx="52.3961" cy="59.1376" rx="0.768192" ry="1.40835" transform="rotate(-120 52.3961 59.1376)"
      fill="#FFF8E0" />
    <ellipse rx="0.768192" ry="1.40835" transform="matrix(0.5 -0.866025 -0.866025 -0.5 50.6039 59.1376)"
      fill="#FFF8E0" />
    <ellipse cx="50.6039" cy="60.1619" rx="0.768192" ry="1.40835" transform="rotate(-120 50.6039 60.1619)"
      fill="#FFF8E0" />
    <ellipse cx="52.3962" cy="60.1619" rx="0.768192" ry="1.40835" transform="rotate(120 52.3962 60.1619)"
      fill="#FFF8E0" />
    <circle cx="51.5607" cy="59.5606" r="0.768192" fill="#FFD029" />
    <ellipse cx="38.0212" cy="43.459" rx="0.768192" ry="1.40835" transform="rotate(28.4797 38.0212 43.459)"
      fill="#FFF8E0" />
    <ellipse cx="36.9224" cy="45.4846" rx="0.768192" ry="1.40835" transform="rotate(28.4797 36.9224 45.4846)"
      fill="#FFF8E0" />
    <ellipse cx="38.408" cy="44.4984" rx="0.768192" ry="1.40835" transform="rotate(-91.5203 38.408 44.4984)"
      fill="#FFF8E0" />
    <ellipse rx="0.768192" ry="1.40835" transform="matrix(0.852455 -0.522801 -0.522801 -0.852455 36.8326 43.6437)"
      fill="#FFF8E0" />
    <ellipse cx="36.344" cy="44.544" rx="0.768192" ry="1.40835" transform="rotate(-91.5203 36.344 44.544)"
      fill="#FFF8E0" />
    <ellipse cx="37.9197" cy="45.3988" rx="0.768192" ry="1.40835" transform="rotate(148.48 37.9197 45.3988)"
      fill="#FFF8E0" />
    <circle cx="37.4718" cy="44.4718" r="0.768192" transform="rotate(28.4797 37.4718 44.4718)" fill="#FFD029" />
    <ellipse cx="47.0212" cy="54.459" rx="0.768192" ry="1.40835" transform="rotate(28.4797 47.0212 54.459)"
      fill="#FFF8E0" />
    <ellipse cx="45.9224" cy="56.4846" rx="0.768192" ry="1.40835" transform="rotate(28.4797 45.9224 56.4846)"
      fill="#FFF8E0" />
    <ellipse cx="47.408" cy="55.4984" rx="0.768192" ry="1.40835" transform="rotate(-91.5203 47.408 55.4984)"
      fill="#FFF8E0" />
    <ellipse rx="0.768192" ry="1.40835" transform="matrix(0.852455 -0.522801 -0.522801 -0.852455 45.8326 54.6437)"
      fill="#FFF8E0" />
    <ellipse cx="45.344" cy="55.544" rx="0.768192" ry="1.40835" transform="rotate(-91.5203 45.344 55.544)"
      fill="#FFF8E0" />
    <ellipse cx="46.9197" cy="56.3988" rx="0.768192" ry="1.40835" transform="rotate(148.48 46.9197 56.3988)"
      fill="#FFF8E0" />
    <circle cx="46.4718" cy="55.4718" r="0.768192" transform="rotate(28.4797 46.4718 55.4718)" fill="#FFD029" />
    <ellipse cx="57.0212" cy="62.459" rx="0.768192" ry="1.40835" transform="rotate(28.4797 57.0212 62.459)"
      fill="#FFF8E0" />
    <ellipse cx="55.9224" cy="64.4847" rx="0.768192" ry="1.40835" transform="rotate(28.4797 55.9224 64.4847)"
      fill="#FFF8E0" />
    <ellipse cx="57.408" cy="63.4984" rx="0.768192" ry="1.40835" transform="rotate(-91.5203 57.408 63.4984)"
      fill="#FFF8E0" />
    <ellipse rx="0.768192" ry="1.40835" transform="matrix(0.852455 -0.522801 -0.522801 -0.852455 55.8326 62.6437)"
      fill="#FFF8E0" />
    <ellipse cx="55.344" cy="63.544" rx="0.768192" ry="1.40835" transform="rotate(-91.5203 55.344 63.544)"
      fill="#FFF8E0" />
    <ellipse cx="56.9197" cy="64.3988" rx="0.768192" ry="1.40835" transform="rotate(148.48 56.9197 64.3988)"
      fill="#FFF8E0" />
    <circle cx="56.4718" cy="63.4718" r="0.768192" transform="rotate(28.4797 56.4718 63.4718)" fill="#FFD029" />
    <ellipse rx="0.768192" ry="1.40835" transform="matrix(-1 0 0 1 179.276 37.4084)" fill="#FFF8E0" />
    <ellipse rx="0.768192" ry="1.40835" transform="matrix(-1 0 0 1 179.276 39.7129)" fill="#FFF8E0" />
    <ellipse rx="0.768192" ry="1.40835" transform="matrix(0.5 -0.866025 -0.866025 -0.5 178.441 38.1377)"
      fill="#FFF8E0" />
    <ellipse cx="180.233" cy="38.1377" rx="0.768192" ry="1.40835" transform="rotate(-120 180.233 38.1377)"
      fill="#FFF8E0" />
    <ellipse rx="0.768192" ry="1.40835" transform="matrix(0.5 -0.866025 -0.866025 -0.5 180.233 39.1619)"
      fill="#FFF8E0" />
    <ellipse rx="0.768192" ry="1.40835" transform="matrix(0.5 0.866025 0.866025 -0.5 178.441 39.1619)" fill="#FFF8E0" />
    <circle r="0.768192" transform="matrix(-1 0 0 1 179.276 38.5606)" fill="#FFD029" />
    <ellipse rx="0.768192" ry="1.40835" transform="matrix(-1 0 0 1 172.276 49.4084)" fill="#FFF8E0" />
    <ellipse rx="0.768192" ry="1.40835" transform="matrix(-1 0 0 1 172.276 51.7129)" fill="#FFF8E0" />
    <ellipse rx="0.768192" ry="1.40835" transform="matrix(0.5 -0.866025 -0.866025 -0.5 171.441 50.1377)"
      fill="#FFF8E0" />
    <ellipse cx="173.233" cy="50.1377" rx="0.768192" ry="1.40835" transform="rotate(-120 173.233 50.1377)"
      fill="#FFF8E0" />
    <ellipse rx="0.768192" ry="1.40835" transform="matrix(0.5 -0.866025 -0.866025 -0.5 173.233 51.1619)"
      fill="#FFF8E0" />
    <ellipse rx="0.768192" ry="1.40835" transform="matrix(0.5 0.866025 0.866025 -0.5 171.441 51.1619)" fill="#FFF8E0" />
    <circle r="0.768192" transform="matrix(-1 0 0 1 172.276 50.5606)" fill="#FFD029" />
    <ellipse rx="0.768192" ry="1.40835" transform="matrix(-1 0 0 1 162.276 58.4084)" fill="#FFF8E0" />
    <ellipse rx="0.768192" ry="1.40835" transform="matrix(-1 0 0 1 162.276 60.7129)" fill="#FFF8E0" />
    <ellipse rx="0.768192" ry="1.40835" transform="matrix(0.5 -0.866025 -0.866025 -0.5 161.441 59.1376)"
      fill="#FFF8E0" />
    <ellipse cx="163.233" cy="59.1376" rx="0.768192" ry="1.40835" transform="rotate(-120 163.233 59.1376)"
      fill="#FFF8E0" />
    <ellipse rx="0.768192" ry="1.40835" transform="matrix(0.5 -0.866025 -0.866025 -0.5 163.233 60.1619)"
      fill="#FFF8E0" />
    <ellipse rx="0.768192" ry="1.40835" transform="matrix(0.5 0.866025 0.866025 -0.5 161.441 60.1619)" fill="#FFF8E0" />
    <circle r="0.768192" transform="matrix(-1 0 0 1 162.276 59.5606)" fill="#FFD029" />
    <ellipse rx="0.768192" ry="1.40835" transform="matrix(-0.878986 0.476847 0.476847 0.878986 175.816 43.459)"
      fill="#FFF8E0" />
    <ellipse rx="0.768192" ry="1.40835" transform="matrix(-0.878986 0.476847 0.476847 0.878986 176.915 45.4846)"
      fill="#FFF8E0" />
    <ellipse rx="0.768192" ry="1.40835" transform="matrix(0.0265319 -0.999648 -0.999648 -0.0265319 175.429 44.4984)"
      fill="#FFF8E0" />
    <ellipse cx="177.005" cy="43.6437" rx="0.768192" ry="1.40835" transform="rotate(-148.48 177.005 43.6437)"
      fill="#FFF8E0" />
    <ellipse rx="0.768192" ry="1.40835" transform="matrix(0.0265319 -0.999648 -0.999648 -0.0265319 177.493 44.544)"
      fill="#FFF8E0" />
    <ellipse rx="0.768192" ry="1.40835" transform="matrix(0.852455 0.522801 0.522801 -0.852455 175.918 45.3987)"
      fill="#FFF8E0" />
    <circle r="0.768192" transform="matrix(-0.878986 0.476847 0.476847 0.878986 176.365 44.4718)" fill="#FFD029" />
    <ellipse rx="0.768192" ry="1.40835" transform="matrix(-0.878986 0.476847 0.476847 0.878986 166.816 54.459)"
      fill="#FFF8E0" />
    <ellipse rx="0.768192" ry="1.40835" transform="matrix(-0.878986 0.476847 0.476847 0.878986 167.915 56.4846)"
      fill="#FFF8E0" />
    <ellipse rx="0.768192" ry="1.40835" transform="matrix(0.0265319 -0.999648 -0.999648 -0.0265319 166.429 55.4984)"
      fill="#FFF8E0" />
    <ellipse cx="168.005" cy="54.6437" rx="0.768192" ry="1.40835" transform="rotate(-148.48 168.005 54.6437)"
      fill="#FFF8E0" />
    <ellipse rx="0.768192" ry="1.40835" transform="matrix(0.0265319 -0.999648 -0.999648 -0.0265319 168.493 55.544)"
      fill="#FFF8E0" />
    <ellipse rx="0.768192" ry="1.40835" transform="matrix(0.852455 0.522801 0.522801 -0.852455 166.918 56.3987)"
      fill="#FFF8E0" />
    <circle r="0.768192" transform="matrix(-0.878986 0.476847 0.476847 0.878986 167.365 55.4718)" fill="#FFD029" />
    <ellipse rx="0.768192" ry="1.40835" transform="matrix(-0.878986 0.476847 0.476847 0.878986 156.816 62.459)"
      fill="#FFF8E0" />
    <ellipse rx="0.768192" ry="1.40835" transform="matrix(-0.878986 0.476847 0.476847 0.878986 157.915 64.4847)"
      fill="#FFF8E0" />
    <ellipse rx="0.768192" ry="1.40835" transform="matrix(0.0265319 -0.999648 -0.999648 -0.0265319 156.429 63.4984)"
      fill="#FFF8E0" />
    <ellipse cx="158.005" cy="62.6437" rx="0.768192" ry="1.40835" transform="rotate(-148.48 158.005 62.6437)"
      fill="#FFF8E0" />
    <ellipse rx="0.768192" ry="1.40835" transform="matrix(0.0265319 -0.999648 -0.999648 -0.0265319 158.493 63.544)"
      fill="#FFF8E0" />
    <ellipse rx="0.768192" ry="1.40835" transform="matrix(0.852455 0.522801 0.522801 -0.852455 156.918 64.3987)"
      fill="#FFF8E0" />
    <circle r="0.768192" transform="matrix(-0.878986 0.476847 0.476847 0.878986 157.365 63.4718)" fill="#FFD029" />
    <ellipse cx="129" cy="27.5" rx="3" ry="5.5" fill="#FFF8E0" />
    <ellipse cx="129" cy="36.5" rx="3" ry="5.5" fill="#FFF8E0" />
    <ellipse cx="132.263" cy="30.3481" rx="3" ry="5.5" transform="rotate(-120 132.263 30.3481)" fill="#FFF8E0" />
    <ellipse rx="3" ry="5.5" transform="matrix(0.5 -0.866025 -0.866025 -0.5 125.263 30.3481)" fill="#FFF8E0" />
    <ellipse cx="125.263" cy="34.3481" rx="3" ry="5.5" transform="rotate(-120 125.263 34.3481)" fill="#FFF8E0" />
    <ellipse cx="132.263" cy="34.3481" rx="3" ry="5.5" transform="rotate(120 132.263 34.3481)" fill="#FFF8E0" />
    <circle cx="129" cy="32" r="3" fill="#FFD029" />
    <ellipse cx="111.5" cy="41" rx="3" ry="5.5" transform="rotate(90 111.5 41)" fill="#FFF8E0" />
    <ellipse cx="102.5" cy="41" rx="3" ry="5.5" transform="rotate(90 102.5 41)" fill="#FFF8E0" />
    <ellipse cx="108.652" cy="44.2631" rx="3" ry="5.5" transform="rotate(-30 108.652 44.2631)" fill="#FFF8E0" />
    <ellipse rx="3" ry="5.5" transform="matrix(0.866025 0.5 0.5 -0.866025 108.652 37.2632)" fill="#FFF8E0" />
    <ellipse cx="104.652" cy="37.2631" rx="3" ry="5.5" transform="rotate(-30 104.652 37.2631)" fill="#FFF8E0" />
    <ellipse cx="104.652" cy="44.2632" rx="3" ry="5.5" transform="rotate(-150 104.652 44.2632)" fill="#FFF8E0" />
    <circle cx="107" cy="41" r="3" transform="rotate(90 107 41)" fill="#FFD029" />
    <ellipse cx="152.5" cy="13" rx="3" ry="5.5" transform="rotate(90 152.5 13)" fill="#FFF8E0" />
    <ellipse cx="143.5" cy="13" rx="3" ry="5.5" transform="rotate(90 143.5 13)" fill="#FFF8E0" />
    <ellipse cx="149.652" cy="16.2631" rx="3" ry="5.5" transform="rotate(-30 149.652 16.2631)" fill="#FFF8E0" />
    <ellipse rx="3" ry="5.5" transform="matrix(0.866025 0.5 0.5 -0.866025 149.652 9.26323)" fill="#FFF8E0" />
    <ellipse cx="145.652" cy="9.26314" rx="3" ry="5.5" transform="rotate(-30 145.652 9.26314)" fill="#FFF8E0" />
    <ellipse cx="145.652" cy="16.2632" rx="3" ry="5.5" transform="rotate(-150 145.652 16.2632)" fill="#FFF8E0" />
    <circle cx="148" cy="13" r="3" transform="rotate(90 148 13)" fill="#FFD029" />
    <ellipse rx="3" ry="5.5" transform="matrix(4.37114e-08 1 1 -4.37114e-08 63.5 13)" fill="#FFF8E0" />
    <ellipse rx="3" ry="5.5" transform="matrix(4.37114e-08 1 1 -4.37114e-08 72.5 13)" fill="#FFF8E0" />
    <ellipse rx="3" ry="5.5" transform="matrix(-0.866025 -0.5 -0.5 0.866025 66.3482 16.2631)" fill="#FFF8E0" />
    <ellipse cx="66.3482" cy="9.26323" rx="3" ry="5.5" transform="rotate(150 66.3482 9.26323)" fill="#FFF8E0" />
    <ellipse rx="3" ry="5.5" transform="matrix(-0.866025 -0.5 -0.5 0.866025 70.3482 9.26314)" fill="#FFF8E0" />
    <ellipse rx="3" ry="5.5" transform="matrix(0.866025 -0.5 -0.5 -0.866025 70.3481 16.2632)" fill="#FFF8E0" />
    <circle r="3" transform="matrix(4.37114e-08 1 1 -4.37114e-08 68 13)" fill="#FFD029" />
    <path
      d="M118.38 57.5109C121.023 55.4124 125.112 50.0727 120.322 45.5013C115.76 47.7613 117.127 54.4493 118.38 57.5109Z"
      fill="#23B429" />
    <path
      d="M132.913 50.569C129.615 51.2858 122.893 51.069 122.388 44.4671C127.026 42.3673 131.337 47.6601 132.913 50.569Z"
      fill="#23B429" />
    <path
      d="M94.7902 57.5109C92.1472 55.4124 88.0587 50.0727 92.8485 45.5013C97.4106 47.7613 96.0439 54.4493 94.7902 57.5109Z"
      fill="#23B429" />
    <path
      d="M80.2578 50.569C83.5555 51.2858 90.2773 51.069 90.7824 44.4671C86.1444 42.3673 81.8335 47.6601 80.2578 50.569Z"
      fill="#23B429" />
    <path
      d="M145.952 40.1892C147.693 37.2984 149.654 30.8654 143.567 28.2597C140.084 31.9736 143.706 37.7602 145.952 40.1892Z"
      fill="#23B429" />
    <path
      d="M157.135 28.5999C154.297 30.4256 147.924 32.5753 145.14 26.5678C148.75 22.9774 154.641 26.4265 157.135 28.5999Z"
      fill="#23B429" />
    <path
      d="M69.1929 40.1892C67.4516 37.2984 65.4907 30.8654 71.5776 28.2597C75.0601 31.9736 71.4389 37.7602 69.1929 40.1892Z"
      fill="#23B429" />
    <path
      d="M58.0095 28.5999C60.8477 30.4256 67.2201 32.5753 70.0041 26.5678C66.3944 22.9774 60.5037 26.4265 58.0095 28.5999Z"
      fill="#23B429" />
  </g>
</svg>
