<svg width="213" height="163" viewBox="0 0 213 163" fill="none" xmlns="http://www.w3.org/2000/svg">
  <mask id="mask0" style="mask-type: alpha" maskUnits="userSpaceOnUse" x="56" y="10" width="103" height="105">
    <path
      d="M107.5 17.5C93 17.5 88.6666 13 82.4999 10.5C79.6666 11.1667 72.8999 13.4 70.4999 15C70.2053 27.4692 69.8464 52.163 64.9999 57C64 62 56.5051 103.077 57 110.5C68 113 93.8999 114.5 107.5 114.5C121.1 114.5 147 113 158 110.5C159.2 104.5 153.333 72 150.5 57C146.5 51 145.167 26.5 145 15C142.6 13.4 135.333 11.1667 132.5 10.5C126.333 13 122 17.5 107.5 17.5Z"
      fill="black"
    />
  </mask>
  <g mask="url(#mask0)">
    <rect width="213" height="163" fill="#67A3FD" />
  </g>
</svg>
