<svg width="213" height="163" viewBox="0 0 213 163" fill="none" xmlns="http://www.w3.org/2000/svg">
  <mask id="mask0" style="mask-type: alpha" maskUnits="userSpaceOnUse" x="56" y="10" width="103" height="105">
    <path
      d="M107.5 17.5C93 17.5 88.6666 13 82.4999 10.5C79.6666 11.1667 72.8999 13.4 70.4999 15C70.2053 27.4692 69.8464 52.163 64.9999 57C64 62 56.5051 103.077 57 110.5C68 113 93.8999 114.5 107.5 114.5C121.1 114.5 147 113 158 110.5C159.2 104.5 153.333 72 150.5 57C146.5 51 145.167 26.5 145 15C142.6 13.4 135.333 11.1667 132.5 10.5C126.333 13 122 17.5 107.5 17.5Z"
      fill="black"
    />
  </mask>
  <g mask="url(#mask0)">
    <rect width="213" height="163" fill="#4A4A4A" />
    <g filter="url(#filter0_f)">
      <path
        d="M98.7993 41.3603C100.143 35.4967 93.7616 38.5098 91.6625 41.3602C90.5848 42.8238 90.4833 44 91.2427 46.2467C95.6087 48.8528 98.0996 44.075 98.7993 41.3603Z"
        fill="#525252"
      />
      <path
        d="M89.3208 41.3603C87.2217 38.5098 80.8407 35.4967 82.184 41.3603C82.8837 44.075 85.3746 48.8528 89.7406 46.2467C90.5 44 90.3985 42.8238 89.3208 41.3603Z"
        fill="#525252"
      />
      <path
        d="M98.7993 32.3603C100.143 26.4967 93.7616 29.5098 91.6625 32.3602C90.5848 33.8238 90.4833 35 91.2427 37.2467C95.6087 39.8528 98.0996 35.075 98.7993 32.3603Z"
        fill="#525252"
      />
      <path
        d="M89.3208 32.3603C87.2217 29.5098 80.8407 26.4967 82.184 32.3603C82.8837 35.075 85.3746 39.8528 89.7406 37.2467C90.5 35 90.3985 33.8238 89.3208 32.3603Z"
        fill="#525252"
      />
      <path
        d="M98.7993 23.3603C100.143 17.4967 93.7616 20.5098 91.6625 23.3602C90.5848 24.8238 90.4833 26 91.2427 28.2467C95.6087 30.8528 98.0996 26.075 98.7993 23.3603Z"
        fill="#525252"
      />
      <path
        d="M89.3208 23.3603C87.2217 20.5098 80.8407 17.4967 82.184 23.3603C82.8837 26.075 85.3746 30.8528 89.7406 28.2467C90.5 26 90.3985 24.8238 89.3208 23.3603Z"
        fill="#525252"
      />
      <path
        d="M98.7993 14.3603C100.143 8.4967 93.7616 11.5098 91.6625 14.3602C90.5848 15.8238 90.4833 17 91.2427 19.2467C95.6087 21.8528 98.0996 17.075 98.7993 14.3603Z"
        fill="#525252"
      />
      <path
        d="M89.3208 14.3603C87.2217 11.5098 80.8407 8.49673 82.184 14.3603C82.8837 17.075 85.3746 21.8528 89.7406 19.2467C90.5 17 90.3985 15.8238 89.3208 14.3603Z"
        fill="#525252"
      />
      <path
        d="M98.7993 50.3603C100.143 44.4967 93.7616 47.5098 91.6625 50.3602C90.5848 51.8238 90.4833 53 91.2427 55.2467C95.6087 57.8528 98.0996 53.075 98.7993 50.3603Z"
        fill="#525252"
      />
      <path
        d="M89.3208 50.3603C87.2217 47.5098 80.8407 44.4967 82.184 50.3603C82.8837 53.075 85.3746 57.8528 89.7406 55.2467C90.5 53 90.3985 51.8238 89.3208 50.3603Z"
        fill="#525252"
      />
      <path
        d="M98.7993 59.3603C100.143 53.4967 93.7616 56.5098 91.6625 59.3602C90.5848 60.8238 90.4833 62 91.2427 64.2467C95.6087 66.8528 98.0996 62.075 98.7993 59.3603Z"
        fill="#525252"
      />
      <path
        d="M89.3208 59.3603C87.2217 56.5098 80.8407 53.4967 82.184 59.3603C82.8837 62.075 85.3746 66.8528 89.7406 64.2467C90.5 62 90.3985 60.8238 89.3208 59.3603Z"
        fill="#525252"
      />
      <path
        d="M98.7993 68.3603C100.143 62.4967 93.7616 65.5098 91.6625 68.3602C90.5848 69.8238 90.4833 71 91.2427 73.2467C95.6087 75.8528 98.0996 71.075 98.7993 68.3603Z"
        fill="#525252"
      />
      <path
        d="M89.3208 68.3603C87.2217 65.5098 80.8407 62.4967 82.184 68.3603C82.8837 71.075 85.3746 75.8528 89.7406 73.2467C90.5 71 90.3985 69.8238 89.3208 68.3603Z"
        fill="#525252"
      />
      <path
        d="M98.7993 77.3603C100.143 71.4967 93.7616 74.5098 91.6625 77.3602C90.5848 78.8238 90.4833 80 91.2427 82.2467C95.6087 84.8528 98.0996 80.075 98.7993 77.3603Z"
        fill="#525252"
      />
      <path
        d="M89.3208 77.3603C87.2217 74.5098 80.8407 71.4967 82.184 77.3603C82.8837 80.075 85.3746 84.8528 89.7406 82.2467C90.5 80 90.3985 78.8238 89.3208 77.3603Z"
        fill="#525252"
      />
      <path
        d="M98.7993 86.3603C100.143 80.4967 93.7616 83.5098 91.6625 86.3602C90.5848 87.8238 90.4833 89 91.2427 91.2467C95.6087 93.8528 98.0996 89.075 98.7993 86.3603Z"
        fill="#525252"
      />
      <path
        d="M89.3208 86.3603C87.2217 83.5098 80.8407 80.4967 82.184 86.3603C82.8837 89.075 85.3746 93.8528 89.7406 91.2467C90.5 89 90.3985 87.8238 89.3208 86.3603Z"
        fill="#525252"
      />
      <path
        d="M98.7993 95.3603C100.143 89.4967 93.7616 92.5098 91.6625 95.3602C90.5848 96.8238 90.4833 98 91.2427 100.247C95.6087 102.853 98.0996 98.075 98.7993 95.3603Z"
        fill="#525252"
      />
      <path
        d="M89.3208 95.3603C87.2217 92.5098 80.8407 89.4967 82.184 95.3603C82.8837 98.075 85.3746 102.853 89.7406 100.247C90.5 98 90.3985 96.8238 89.3208 95.3603Z"
        fill="#525252"
      />
      <path
        d="M98.7993 104.36C100.143 98.4967 93.7616 101.51 91.6625 104.36C90.5848 105.824 90.4833 107 91.2427 109.247C95.6087 111.853 98.0996 107.075 98.7993 104.36Z"
        fill="#525252"
      />
      <path
        d="M89.3208 104.36C87.2217 101.51 80.8407 98.4967 82.184 104.36C82.8837 107.075 85.3746 111.853 89.7406 109.247C90.5 107 90.3985 105.824 89.3208 104.36Z"
        fill="#525252"
      />
      <path
        d="M98.7993 113.36C100.143 107.497 93.7616 110.51 91.6625 113.36C90.5848 114.824 90.4833 116 91.2427 118.247C95.6087 120.853 98.0996 116.075 98.7993 113.36Z"
        fill="#525252"
      />
      <path
        d="M89.3208 113.36C87.2217 110.51 80.8407 107.497 82.184 113.36C82.8837 116.075 85.3746 120.853 89.7406 118.247C90.5 116 90.3985 114.824 89.3208 113.36Z"
        fill="#525252"
      />
      <path
        d="M80.7993 41.3603C82.1427 35.4967 75.7616 38.5098 73.6625 41.3602C72.5848 42.8238 72.4833 44 73.2427 46.2467C77.6087 48.8528 80.0996 44.075 80.7993 41.3603Z"
        fill="#525252"
      />
      <path
        d="M71.3208 41.3603C69.2217 38.5098 62.8407 35.4967 64.184 41.3603C64.8837 44.075 67.3746 48.8528 71.7406 46.2467C72.5 44 72.3985 42.8238 71.3208 41.3603Z"
        fill="#525252"
      />
      <path
        d="M80.7993 32.3603C82.1427 26.4967 75.7616 29.5098 73.6625 32.3602C72.5848 33.8238 72.4833 35 73.2427 37.2467C77.6087 39.8528 80.0996 35.075 80.7993 32.3603Z"
        fill="#525252"
      />
      <path
        d="M71.3208 32.3603C69.2217 29.5098 62.8407 26.4967 64.184 32.3603C64.8837 35.075 67.3746 39.8528 71.7406 37.2467C72.5 35 72.3985 33.8238 71.3208 32.3603Z"
        fill="#525252"
      />
      <path
        d="M80.7993 23.3603C82.1427 17.4967 75.7616 20.5098 73.6625 23.3602C72.5848 24.8238 72.4833 26 73.2427 28.2467C77.6087 30.8528 80.0996 26.075 80.7993 23.3603Z"
        fill="#525252"
      />
      <path
        d="M71.3208 23.3603C69.2217 20.5098 62.8407 17.4967 64.184 23.3603C64.8837 26.075 67.3746 30.8528 71.7406 28.2467C72.5 26 72.3985 24.8238 71.3208 23.3603Z"
        fill="#525252"
      />
      <path
        d="M80.7993 14.3603C82.1427 8.4967 75.7616 11.5098 73.6625 14.3602C72.5848 15.8238 72.4833 17 73.2427 19.2467C77.6087 21.8528 80.0996 17.075 80.7993 14.3603Z"
        fill="#525252"
      />
      <path
        d="M71.3208 14.3603C69.2217 11.5098 62.8407 8.49673 64.184 14.3603C64.8837 17.075 67.3746 21.8528 71.7406 19.2467C72.5 17 72.3985 15.8238 71.3208 14.3603Z"
        fill="#525252"
      />
      <path
        d="M80.7993 50.3603C82.1427 44.4967 75.7616 47.5098 73.6625 50.3602C72.5848 51.8238 72.4833 53 73.2427 55.2467C77.6087 57.8528 80.0996 53.075 80.7993 50.3603Z"
        fill="#525252"
      />
      <path
        d="M71.3208 50.3603C69.2217 47.5098 62.8407 44.4967 64.184 50.3603C64.8837 53.075 67.3746 57.8528 71.7406 55.2467C72.5 53 72.3985 51.8238 71.3208 50.3603Z"
        fill="#525252"
      />
      <path
        d="M80.7993 59.3603C82.1427 53.4967 75.7616 56.5098 73.6625 59.3602C72.5848 60.8238 72.4833 62 73.2427 64.2467C77.6087 66.8528 80.0996 62.075 80.7993 59.3603Z"
        fill="#525252"
      />
      <path
        d="M71.3208 59.3603C69.2217 56.5098 62.8407 53.4967 64.184 59.3603C64.8837 62.075 67.3746 66.8528 71.7406 64.2467C72.5 62 72.3985 60.8238 71.3208 59.3603Z"
        fill="#525252"
      />
      <path
        d="M80.7993 68.3603C82.1427 62.4967 75.7616 65.5098 73.6625 68.3602C72.5848 69.8238 72.4833 71 73.2427 73.2467C77.6087 75.8528 80.0996 71.075 80.7993 68.3603Z"
        fill="#525252"
      />
      <path
        d="M71.3208 68.3603C69.2217 65.5098 62.8407 62.4967 64.184 68.3603C64.8837 71.075 67.3746 75.8528 71.7406 73.2467C72.5 71 72.3985 69.8238 71.3208 68.3603Z"
        fill="#525252"
      />
      <path
        d="M62.7993 68.3603C64.1427 62.4967 57.7616 65.5098 55.6625 68.3602C54.5848 69.8238 54.4833 71 55.2427 73.2467C59.6087 75.8528 62.0996 71.075 62.7993 68.3603Z"
        fill="#525252"
      />
      <path
        d="M53.3208 68.3603C51.2217 65.5098 44.8407 62.4967 46.184 68.3603C46.8837 71.075 49.3746 75.8528 53.7406 73.2467C54.5 71 54.3985 69.8238 53.3208 68.3603Z"
        fill="#525252"
      />
      <path
        d="M170.799 68.3603C172.143 62.4967 165.762 65.5098 163.663 68.3602C162.585 69.8238 162.483 71 163.243 73.2467C167.609 75.8528 170.1 71.075 170.799 68.3603Z"
        fill="#525252"
      />
      <path
        d="M161.321 68.3603C159.222 65.5098 152.841 62.4967 154.184 68.3603C154.884 71.075 157.375 75.8528 161.741 73.2467C162.5 71 162.399 69.8238 161.321 68.3603Z"
        fill="#525252"
      />
      <path
        d="M80.7993 77.3603C82.1427 71.4967 75.7616 74.5098 73.6625 77.3602C72.5848 78.8238 72.4833 80 73.2427 82.2467C77.6087 84.8528 80.0996 80.075 80.7993 77.3603Z"
        fill="#525252"
      />
      <path
        d="M71.3208 77.3603C69.2217 74.5098 62.8407 71.4967 64.184 77.3603C64.8837 80.075 67.3746 84.8528 71.7406 82.2467C72.5 80 72.3985 78.8238 71.3208 77.3603Z"
        fill="#525252"
      />
      <path
        d="M62.7993 77.3603C64.1427 71.4967 57.7616 74.5098 55.6625 77.3602C54.5848 78.8238 54.4833 80 55.2427 82.2467C59.6087 84.8528 62.0996 80.075 62.7993 77.3603Z"
        fill="#525252"
      />
      <path
        d="M53.3208 77.3603C51.2217 74.5098 44.8407 71.4967 46.184 77.3603C46.8837 80.075 49.3746 84.8528 53.7406 82.2467C54.5 80 54.3985 78.8238 53.3208 77.3603Z"
        fill="#525252"
      />
      <path
        d="M170.799 77.3603C172.143 71.4967 165.762 74.5098 163.663 77.3602C162.585 78.8238 162.483 80 163.243 82.2467C167.609 84.8528 170.1 80.075 170.799 77.3603Z"
        fill="#525252"
      />
      <path
        d="M161.321 77.3603C159.222 74.5098 152.841 71.4967 154.184 77.3603C154.884 80.075 157.375 84.8528 161.741 82.2467C162.5 80 162.399 78.8238 161.321 77.3603Z"
        fill="#525252"
      />
      <path
        d="M80.7993 86.3603C82.1427 80.4967 75.7616 83.5098 73.6625 86.3602C72.5848 87.8238 72.4833 89 73.2427 91.2467C77.6087 93.8528 80.0996 89.075 80.7993 86.3603Z"
        fill="#525252"
      />
      <path
        d="M71.3208 86.3603C69.2217 83.5098 62.8407 80.4967 64.184 86.3603C64.8837 89.075 67.3746 93.8528 71.7406 91.2467C72.5 89 72.3985 87.8238 71.3208 86.3603Z"
        fill="#525252"
      />
      <path
        d="M62.7993 86.3603C64.1427 80.4967 57.7616 83.5098 55.6625 86.3602C54.5848 87.8238 54.4833 89 55.2427 91.2467C59.6087 93.8528 62.0996 89.075 62.7993 86.3603Z"
        fill="#525252"
      />
      <path
        d="M53.3208 86.3603C51.2217 83.5098 44.8407 80.4967 46.184 86.3603C46.8837 89.075 49.3746 93.8528 53.7406 91.2467C54.5 89 54.3985 87.8238 53.3208 86.3603Z"
        fill="#525252"
      />
      <path
        d="M170.799 86.3603C172.143 80.4967 165.762 83.5098 163.663 86.3602C162.585 87.8238 162.483 89 163.243 91.2467C167.609 93.8528 170.1 89.075 170.799 86.3603Z"
        fill="#525252"
      />
      <path
        d="M161.321 86.3603C159.222 83.5098 152.841 80.4967 154.184 86.3603C154.884 89.075 157.375 93.8528 161.741 91.2467C162.5 89 162.399 87.8238 161.321 86.3603Z"
        fill="#525252"
      />
      <path
        d="M80.7993 95.3603C82.1427 89.4967 75.7616 92.5098 73.6625 95.3602C72.5848 96.8238 72.4833 98 73.2427 100.247C77.6087 102.853 80.0996 98.075 80.7993 95.3603Z"
        fill="#525252"
      />
      <path
        d="M71.3208 95.3603C69.2217 92.5098 62.8407 89.4967 64.184 95.3603C64.8837 98.075 67.3746 102.853 71.7406 100.247C72.5 98 72.3985 96.8238 71.3208 95.3603Z"
        fill="#525252"
      />
      <path
        d="M62.7993 95.3603C64.1427 89.4967 57.7616 92.5098 55.6625 95.3602C54.5848 96.8238 54.4833 98 55.2427 100.247C59.6087 102.853 62.0996 98.075 62.7993 95.3603Z"
        fill="#525252"
      />
      <path
        d="M53.3208 95.3603C51.2217 92.5098 44.8407 89.4967 46.184 95.3603C46.8837 98.075 49.3746 102.853 53.7406 100.247C54.5 98 54.3985 96.8238 53.3208 95.3603Z"
        fill="#525252"
      />
      <path
        d="M170.799 95.3603C172.143 89.4967 165.762 92.5098 163.663 95.3602C162.585 96.8238 162.483 98 163.243 100.247C167.609 102.853 170.1 98.075 170.799 95.3603Z"
        fill="#525252"
      />
      <path
        d="M161.321 95.3603C159.222 92.5098 152.841 89.4967 154.184 95.3603C154.884 98.075 157.375 102.853 161.741 100.247C162.5 98 162.399 96.8238 161.321 95.3603Z"
        fill="#525252"
      />
      <path
        d="M80.7993 104.36C82.1427 98.4967 75.7616 101.51 73.6625 104.36C72.5848 105.824 72.4833 107 73.2427 109.247C77.6087 111.853 80.0996 107.075 80.7993 104.36Z"
        fill="#525252"
      />
      <path
        d="M71.3208 104.36C69.2217 101.51 62.8407 98.4967 64.184 104.36C64.8837 107.075 67.3746 111.853 71.7406 109.247C72.5 107 72.3985 105.824 71.3208 104.36Z"
        fill="#525252"
      />
      <path
        d="M62.7993 104.36C64.1427 98.4967 57.7616 101.51 55.6625 104.36C54.5848 105.824 54.4833 107 55.2427 109.247C59.6087 111.853 62.0996 107.075 62.7993 104.36Z"
        fill="#525252"
      />
      <path
        d="M53.3208 104.36C51.2217 101.51 44.8407 98.4967 46.184 104.36C46.8837 107.075 49.3746 111.853 53.7406 109.247C54.5 107 54.3985 105.824 53.3208 104.36Z"
        fill="#525252"
      />
      <path
        d="M170.799 104.36C172.143 98.4967 165.762 101.51 163.663 104.36C162.585 105.824 162.483 107 163.243 109.247C167.609 111.853 170.1 107.075 170.799 104.36Z"
        fill="#525252"
      />
      <path
        d="M161.321 104.36C159.222 101.51 152.841 98.4967 154.184 104.36C154.884 107.075 157.375 111.853 161.741 109.247C162.5 107 162.399 105.824 161.321 104.36Z"
        fill="#525252"
      />
      <path
        d="M80.7993 113.36C82.1427 107.497 75.7616 110.51 73.6625 113.36C72.5848 114.824 72.4833 116 73.2427 118.247C77.6087 120.853 80.0996 116.075 80.7993 113.36Z"
        fill="#525252"
      />
      <path
        d="M71.3208 113.36C69.2217 110.51 62.8407 107.497 64.184 113.36C64.8837 116.075 67.3746 120.853 71.7406 118.247C72.5 116 72.3985 114.824 71.3208 113.36Z"
        fill="#525252"
      />
      <path
        d="M62.7993 113.36C64.1427 107.497 57.7616 110.51 55.6625 113.36C54.5848 114.824 54.4833 116 55.2427 118.247C59.6087 120.853 62.0996 116.075 62.7993 113.36Z"
        fill="#525252"
      />
      <path
        d="M53.3208 113.36C51.2217 110.51 44.8407 107.497 46.184 113.36C46.8837 116.075 49.3746 120.853 53.7406 118.247C54.5 116 54.3985 114.824 53.3208 113.36Z"
        fill="#525252"
      />
      <path
        d="M170.799 113.36C172.143 107.497 165.762 110.51 163.663 113.36C162.585 114.824 162.483 116 163.243 118.247C167.609 120.853 170.1 116.075 170.799 113.36Z"
        fill="#525252"
      />
      <path
        d="M161.321 113.36C159.222 110.51 152.841 107.497 154.184 113.36C154.884 116.075 157.375 120.853 161.741 118.247C162.5 116 162.399 114.824 161.321 113.36Z"
        fill="#525252"
      />
      <path
        d="M116.799 41.3603C118.143 35.4967 111.762 38.5098 109.663 41.3602C108.585 42.8238 108.483 44 109.243 46.2467C113.609 48.8528 116.1 44.075 116.799 41.3603Z"
        fill="#525252"
      />
      <path
        d="M107.321 41.3603C105.222 38.5098 98.8407 35.4967 100.184 41.3603C100.884 44.075 103.375 48.8528 107.741 46.2467C108.5 44 108.399 42.8238 107.321 41.3603Z"
        fill="#525252"
      />
      <path
        d="M116.799 32.3603C118.143 26.4967 111.762 29.5098 109.663 32.3602C108.585 33.8238 108.483 35 109.243 37.2467C113.609 39.8528 116.1 35.075 116.799 32.3603Z"
        fill="#525252"
      />
      <path
        d="M107.321 32.3603C105.222 29.5098 98.8407 26.4967 100.184 32.3603C100.884 35.075 103.375 39.8528 107.741 37.2467C108.5 35 108.399 33.8238 107.321 32.3603Z"
        fill="#525252"
      />
      <path
        d="M116.799 23.3603C118.143 17.4967 111.762 20.5098 109.663 23.3602C108.585 24.8238 108.483 26 109.243 28.2467C113.609 30.8528 116.1 26.075 116.799 23.3603Z"
        fill="#525252"
      />
      <path
        d="M107.321 23.3603C105.222 20.5098 98.8407 17.4967 100.184 23.3603C100.884 26.075 103.375 30.8528 107.741 28.2467C108.5 26 108.399 24.8238 107.321 23.3603Z"
        fill="#525252"
      />
      <path
        d="M116.799 14.3603C118.143 8.4967 111.762 11.5098 109.663 14.3602C108.585 15.8238 108.483 17 109.243 19.2467C113.609 21.8528 116.1 17.075 116.799 14.3603Z"
        fill="#525252"
      />
      <path
        d="M107.321 14.3603C105.222 11.5098 98.8407 8.49673 100.184 14.3603C100.884 17.075 103.375 21.8528 107.741 19.2467C108.5 17 108.399 15.8238 107.321 14.3603Z"
        fill="#525252"
      />
      <path
        d="M116.799 50.3603C118.143 44.4967 111.762 47.5098 109.663 50.3602C108.585 51.8238 108.483 53 109.243 55.2467C113.609 57.8528 116.1 53.075 116.799 50.3603Z"
        fill="#525252"
      />
      <path
        d="M107.321 50.3603C105.222 47.5098 98.8407 44.4967 100.184 50.3603C100.884 53.075 103.375 57.8528 107.741 55.2467C108.5 53 108.399 51.8238 107.321 50.3603Z"
        fill="#525252"
      />
      <path
        d="M116.799 59.3603C118.143 53.4967 111.762 56.5098 109.663 59.3602C108.585 60.8238 108.483 62 109.243 64.2467C113.609 66.8528 116.1 62.075 116.799 59.3603Z"
        fill="#525252"
      />
      <path
        d="M107.321 59.3603C105.222 56.5098 98.8407 53.4967 100.184 59.3603C100.884 62.075 103.375 66.8528 107.741 64.2467C108.5 62 108.399 60.8238 107.321 59.3603Z"
        fill="#525252"
      />
      <path
        d="M116.799 68.3603C118.143 62.4967 111.762 65.5098 109.663 68.3602C108.585 69.8238 108.483 71 109.243 73.2467C113.609 75.8528 116.1 71.075 116.799 68.3603Z"
        fill="#525252"
      />
      <path
        d="M107.321 68.3603C105.222 65.5098 98.8407 62.4967 100.184 68.3603C100.884 71.075 103.375 75.8528 107.741 73.2467C108.5 71 108.399 69.8238 107.321 68.3603Z"
        fill="#525252"
      />
      <path
        d="M116.799 77.3603C118.143 71.4967 111.762 74.5098 109.663 77.3602C108.585 78.8238 108.483 80 109.243 82.2467C113.609 84.8528 116.1 80.075 116.799 77.3603Z"
        fill="#525252"
      />
      <path
        d="M107.321 77.3603C105.222 74.5098 98.8407 71.4967 100.184 77.3603C100.884 80.075 103.375 84.8528 107.741 82.2467C108.5 80 108.399 78.8238 107.321 77.3603Z"
        fill="#525252"
      />
      <path
        d="M116.799 86.3603C118.143 80.4967 111.762 83.5098 109.663 86.3602C108.585 87.8238 108.483 89 109.243 91.2467C113.609 93.8528 116.1 89.075 116.799 86.3603Z"
        fill="#525252"
      />
      <path
        d="M107.321 86.3603C105.222 83.5098 98.8407 80.4967 100.184 86.3603C100.884 89.075 103.375 93.8528 107.741 91.2467C108.5 89 108.399 87.8238 107.321 86.3603Z"
        fill="#525252"
      />
      <path
        d="M116.799 95.3603C118.143 89.4967 111.762 92.5098 109.663 95.3602C108.585 96.8238 108.483 98 109.243 100.247C113.609 102.853 116.1 98.075 116.799 95.3603Z"
        fill="#525252"
      />
      <path
        d="M107.321 95.3603C105.222 92.5098 98.8407 89.4967 100.184 95.3603C100.884 98.075 103.375 102.853 107.741 100.247C108.5 98 108.399 96.8238 107.321 95.3603Z"
        fill="#525252"
      />
      <path
        d="M116.799 104.36C118.143 98.4967 111.762 101.51 109.663 104.36C108.585 105.824 108.483 107 109.243 109.247C113.609 111.853 116.1 107.075 116.799 104.36Z"
        fill="#525252"
      />
      <path
        d="M107.321 104.36C105.222 101.51 98.8407 98.4967 100.184 104.36C100.884 107.075 103.375 111.853 107.741 109.247C108.5 107 108.399 105.824 107.321 104.36Z"
        fill="#525252"
      />
      <path
        d="M116.799 113.36C118.143 107.497 111.762 110.51 109.663 113.36C108.585 114.824 108.483 116 109.243 118.247C113.609 120.853 116.1 116.075 116.799 113.36Z"
        fill="#525252"
      />
      <path
        d="M107.321 113.36C105.222 110.51 98.8407 107.497 100.184 113.36C100.884 116.075 103.375 120.853 107.741 118.247C108.5 116 108.399 114.824 107.321 113.36Z"
        fill="#525252"
      />
      <path
        d="M134.799 41.3603C136.143 35.4967 129.762 38.5098 127.663 41.3602C126.585 42.8238 126.483 44 127.243 46.2467C131.609 48.8528 134.1 44.075 134.799 41.3603Z"
        fill="#525252"
      />
      <path
        d="M125.321 41.3603C123.222 38.5098 116.841 35.4967 118.184 41.3603C118.884 44.075 121.375 48.8528 125.741 46.2467C126.5 44 126.399 42.8238 125.321 41.3603Z"
        fill="#525252"
      />
      <path
        d="M134.799 32.3603C136.143 26.4967 129.762 29.5098 127.663 32.3602C126.585 33.8238 126.483 35 127.243 37.2467C131.609 39.8528 134.1 35.075 134.799 32.3603Z"
        fill="#525252"
      />
      <path
        d="M125.321 32.3603C123.222 29.5098 116.841 26.4967 118.184 32.3603C118.884 35.075 121.375 39.8528 125.741 37.2467C126.5 35 126.399 33.8238 125.321 32.3603Z"
        fill="#525252"
      />
      <path
        d="M134.799 23.3603C136.143 17.4967 129.762 20.5098 127.663 23.3602C126.585 24.8238 126.483 26 127.243 28.2467C131.609 30.8528 134.1 26.075 134.799 23.3603Z"
        fill="#525252"
      />
      <path
        d="M125.321 23.3603C123.222 20.5098 116.841 17.4967 118.184 23.3603C118.884 26.075 121.375 30.8528 125.741 28.2467C126.5 26 126.399 24.8238 125.321 23.3603Z"
        fill="#525252"
      />
      <path
        d="M134.799 14.3603C136.143 8.4967 129.762 11.5098 127.663 14.3602C126.585 15.8238 126.483 17 127.243 19.2467C131.609 21.8528 134.1 17.075 134.799 14.3603Z"
        fill="#525252"
      />
      <path
        d="M125.321 14.3603C123.222 11.5098 116.841 8.49673 118.184 14.3603C118.884 17.075 121.375 21.8528 125.741 19.2467C126.5 17 126.399 15.8238 125.321 14.3603Z"
        fill="#525252"
      />
      <path
        d="M134.799 50.3603C136.143 44.4967 129.762 47.5098 127.663 50.3602C126.585 51.8238 126.483 53 127.243 55.2467C131.609 57.8528 134.1 53.075 134.799 50.3603Z"
        fill="#525252"
      />
      <path
        d="M125.321 50.3603C123.222 47.5098 116.841 44.4967 118.184 50.3603C118.884 53.075 121.375 57.8528 125.741 55.2467C126.5 53 126.399 51.8238 125.321 50.3603Z"
        fill="#525252"
      />
      <path
        d="M134.799 59.3603C136.143 53.4967 129.762 56.5098 127.663 59.3602C126.585 60.8238 126.483 62 127.243 64.2467C131.609 66.8528 134.1 62.075 134.799 59.3603Z"
        fill="#525252"
      />
      <path
        d="M125.321 59.3603C123.222 56.5098 116.841 53.4967 118.184 59.3603C118.884 62.075 121.375 66.8528 125.741 64.2467C126.5 62 126.399 60.8238 125.321 59.3603Z"
        fill="#525252"
      />
      <path
        d="M134.799 68.3603C136.143 62.4967 129.762 65.5098 127.663 68.3602C126.585 69.8238 126.483 71 127.243 73.2467C131.609 75.8528 134.1 71.075 134.799 68.3603Z"
        fill="#525252"
      />
      <path
        d="M125.321 68.3603C123.222 65.5098 116.841 62.4967 118.184 68.3603C118.884 71.075 121.375 75.8528 125.741 73.2467C126.5 71 126.399 69.8238 125.321 68.3603Z"
        fill="#525252"
      />
      <path
        d="M134.799 77.3603C136.143 71.4967 129.762 74.5098 127.663 77.3602C126.585 78.8238 126.483 80 127.243 82.2467C131.609 84.8528 134.1 80.075 134.799 77.3603Z"
        fill="#525252"
      />
      <path
        d="M125.321 77.3603C123.222 74.5098 116.841 71.4967 118.184 77.3603C118.884 80.075 121.375 84.8528 125.741 82.2467C126.5 80 126.399 78.8238 125.321 77.3603Z"
        fill="#525252"
      />
      <path
        d="M134.799 86.3603C136.143 80.4967 129.762 83.5098 127.663 86.3602C126.585 87.8238 126.483 89 127.243 91.2467C131.609 93.8528 134.1 89.075 134.799 86.3603Z"
        fill="#525252"
      />
      <path
        d="M125.321 86.3603C123.222 83.5098 116.841 80.4967 118.184 86.3603C118.884 89.075 121.375 93.8528 125.741 91.2467C126.5 89 126.399 87.8238 125.321 86.3603Z"
        fill="#525252"
      />
      <path
        d="M134.799 95.3603C136.143 89.4967 129.762 92.5098 127.663 95.3602C126.585 96.8238 126.483 98 127.243 100.247C131.609 102.853 134.1 98.075 134.799 95.3603Z"
        fill="#525252"
      />
      <path
        d="M125.321 95.3603C123.222 92.5098 116.841 89.4967 118.184 95.3603C118.884 98.075 121.375 102.853 125.741 100.247C126.5 98 126.399 96.8238 125.321 95.3603Z"
        fill="#525252"
      />
      <path
        d="M134.799 104.36C136.143 98.4967 129.762 101.51 127.663 104.36C126.585 105.824 126.483 107 127.243 109.247C131.609 111.853 134.1 107.075 134.799 104.36Z"
        fill="#525252"
      />
      <path
        d="M125.321 104.36C123.222 101.51 116.841 98.4967 118.184 104.36C118.884 107.075 121.375 111.853 125.741 109.247C126.5 107 126.399 105.824 125.321 104.36Z"
        fill="#525252"
      />
      <path
        d="M134.799 113.36C136.143 107.497 129.762 110.51 127.663 113.36C126.585 114.824 126.483 116 127.243 118.247C131.609 120.853 134.1 116.075 134.799 113.36Z"
        fill="#525252"
      />
      <path
        d="M125.321 113.36C123.222 110.51 116.841 107.497 118.184 113.36C118.884 116.075 121.375 120.853 125.741 118.247C126.5 116 126.399 114.824 125.321 113.36Z"
        fill="#525252"
      />
      <path
        d="M152.799 41.3603C154.143 35.4967 147.762 38.5098 145.663 41.3602C144.585 42.8238 144.483 44 145.243 46.2467C149.609 48.8528 152.1 44.075 152.799 41.3603Z"
        fill="#525252"
      />
      <path
        d="M143.321 41.3603C141.222 38.5098 134.841 35.4967 136.184 41.3603C136.884 44.075 139.375 48.8528 143.741 46.2467C144.5 44 144.399 42.8238 143.321 41.3603Z"
        fill="#525252"
      />
      <path
        d="M152.799 32.3603C154.143 26.4967 147.762 29.5098 145.663 32.3602C144.585 33.8238 144.483 35 145.243 37.2467C149.609 39.8528 152.1 35.075 152.799 32.3603Z"
        fill="#525252"
      />
      <path
        d="M143.321 32.3603C141.222 29.5098 134.841 26.4967 136.184 32.3603C136.884 35.075 139.375 39.8528 143.741 37.2467C144.5 35 144.399 33.8238 143.321 32.3603Z"
        fill="#525252"
      />
      <path
        d="M152.799 23.3603C154.143 17.4967 147.762 20.5098 145.663 23.3602C144.585 24.8238 144.483 26 145.243 28.2467C149.609 30.8528 152.1 26.075 152.799 23.3603Z"
        fill="#525252"
      />
      <path
        d="M143.321 23.3603C141.222 20.5098 134.841 17.4967 136.184 23.3603C136.884 26.075 139.375 30.8528 143.741 28.2467C144.5 26 144.399 24.8238 143.321 23.3603Z"
        fill="#525252"
      />
      <path
        d="M152.799 14.3603C154.143 8.4967 147.762 11.5098 145.663 14.3602C144.585 15.8238 144.483 17 145.243 19.2467C149.609 21.8528 152.1 17.075 152.799 14.3603Z"
        fill="#525252"
      />
      <path
        d="M143.321 14.3603C141.222 11.5098 134.841 8.49673 136.184 14.3603C136.884 17.075 139.375 21.8528 143.741 19.2467C144.5 17 144.399 15.8238 143.321 14.3603Z"
        fill="#525252"
      />
      <path
        d="M152.799 50.3603C154.143 44.4967 147.762 47.5098 145.663 50.3602C144.585 51.8238 144.483 53 145.243 55.2467C149.609 57.8528 152.1 53.075 152.799 50.3603Z"
        fill="#525252"
      />
      <path
        d="M143.321 50.3603C141.222 47.5098 134.841 44.4967 136.184 50.3603C136.884 53.075 139.375 57.8528 143.741 55.2467C144.5 53 144.399 51.8238 143.321 50.3603Z"
        fill="#525252"
      />
      <path
        d="M152.799 59.3603C154.143 53.4967 147.762 56.5098 145.663 59.3602C144.585 60.8238 144.483 62 145.243 64.2467C149.609 66.8528 152.1 62.075 152.799 59.3603Z"
        fill="#525252"
      />
      <path
        d="M143.321 59.3603C141.222 56.5098 134.841 53.4967 136.184 59.3603C136.884 62.075 139.375 66.8528 143.741 64.2467C144.5 62 144.399 60.8238 143.321 59.3603Z"
        fill="#525252"
      />
      <path
        d="M152.799 68.3603C154.143 62.4967 147.762 65.5098 145.663 68.3602C144.585 69.8238 144.483 71 145.243 73.2467C149.609 75.8528 152.1 71.075 152.799 68.3603Z"
        fill="#525252"
      />
      <path
        d="M143.321 68.3603C141.222 65.5098 134.841 62.4967 136.184 68.3603C136.884 71.075 139.375 75.8528 143.741 73.2467C144.5 71 144.399 69.8238 143.321 68.3603Z"
        fill="#525252"
      />
      <path
        d="M152.799 77.3603C154.143 71.4967 147.762 74.5098 145.663 77.3602C144.585 78.8238 144.483 80 145.243 82.2467C149.609 84.8528 152.1 80.075 152.799 77.3603Z"
        fill="#525252"
      />
      <path
        d="M143.321 77.3603C141.222 74.5098 134.841 71.4967 136.184 77.3603C136.884 80.075 139.375 84.8528 143.741 82.2467C144.5 80 144.399 78.8238 143.321 77.3603Z"
        fill="#525252"
      />
      <path
        d="M152.799 86.3603C154.143 80.4967 147.762 83.5098 145.663 86.3602C144.585 87.8238 144.483 89 145.243 91.2467C149.609 93.8528 152.1 89.075 152.799 86.3603Z"
        fill="#525252"
      />
      <path
        d="M143.321 86.3603C141.222 83.5098 134.841 80.4967 136.184 86.3603C136.884 89.075 139.375 93.8528 143.741 91.2467C144.5 89 144.399 87.8238 143.321 86.3603Z"
        fill="#525252"
      />
      <path
        d="M152.799 95.3603C154.143 89.4967 147.762 92.5098 145.663 95.3602C144.585 96.8238 144.483 98 145.243 100.247C149.609 102.853 152.1 98.075 152.799 95.3603Z"
        fill="#525252"
      />
      <path
        d="M143.321 95.3603C141.222 92.5098 134.841 89.4967 136.184 95.3603C136.884 98.075 139.375 102.853 143.741 100.247C144.5 98 144.399 96.8238 143.321 95.3603Z"
        fill="#525252"
      />
      <path
        d="M152.799 104.36C154.143 98.4967 147.762 101.51 145.663 104.36C144.585 105.824 144.483 107 145.243 109.247C149.609 111.853 152.1 107.075 152.799 104.36Z"
        fill="#525252"
      />
      <path
        d="M143.321 104.36C141.222 101.51 134.841 98.4967 136.184 104.36C136.884 107.075 139.375 111.853 143.741 109.247C144.5 107 144.399 105.824 143.321 104.36Z"
        fill="#525252"
      />
      <path
        d="M152.799 113.36C154.143 107.497 147.762 110.51 145.663 113.36C144.585 114.824 144.483 116 145.243 118.247C149.609 120.853 152.1 116.075 152.799 113.36Z"
        fill="#525252"
      />
      <path
        d="M143.321 113.36C141.222 110.51 134.841 107.497 136.184 113.36C136.884 116.075 139.375 120.853 143.741 118.247C144.5 116 144.399 114.824 143.321 113.36Z"
        fill="#525252"
      />
    </g>
    <g filter="url(#filter1_i)">
      <path
        d="M107.5 23C95.1 23 80.3333 15.3333 75.5 11L83 9H131L140.5 11C134 15.3333 119.9 23 107.5 23Z"
        fill="#808080"
      />
    </g>
    <g filter="url(#filter2_i)">
      <path
        d="M107 104.5C75 104.5 67.8333 101.5 57 100C56.6667 104.5 56 113.8 56 115C61.2 122.2 127.5 118.333 160 115.5L158.5 100C147.167 101.5 133.5 104.5 107 104.5Z"
        fill="#808080"
      />
    </g>
    <g filter="url(#filter3_f)">
      <path
        d="M57.5 100V114M74.5 102.5V116.5M83.5 104V118M92.5 104V118M101.5 104V118M110.5 104V118M119.5 104V118M128.5 104V118M138 102.5V116.5M147 101V115M155.5 101V115M65.5 101V115"
        stroke="#606060"
        stroke-opacity="0.81"
      />
    </g>
    <g filter="url(#filter4_f)">
      <path
        d="M80.5 14L86.5 11M85 17C85.4 16.6 88.1667 14.1667 89.5 13M89.5 19L93 14M94.5 20.5L96 15M99 22L100 15M104 22.5C104 22.1 104 18 104 16M109 23C109 22.2 108.333 18.3333 108 16.5M113.5 22.5L112.5 16M118.5 21.5L116 16M122.5 19.5L119.5 15M127 18.5C125.8 16.5 124.167 14 123.5 13M131.5 16L125.5 10M135.5 14L129.5 10"
        stroke="#444444"
      />
    </g>
  </g>
  <defs>
    <filter
      id="filter0_f"
      x="44.2"
      y="9.2"
      width="128.583"
      height="111.6"
      filterUnits="userSpaceOnUse"
      color-interpolation-filters="sRGB"
    >
      <feFlood flood-opacity="0" result="BackgroundImageFix" />
      <feBlend mode="normal" in="SourceGraphic" in2="BackgroundImageFix" result="shape" />
      <feGaussianBlur stdDeviation="0.9" result="effect1_foregroundBlur" />
    </filter>
    <filter
      id="filter1_i"
      x="75.5"
      y="7"
      width="65"
      height="16"
      filterUnits="userSpaceOnUse"
      color-interpolation-filters="sRGB"
    >
      <feFlood flood-opacity="0" result="BackgroundImageFix" />
      <feBlend mode="normal" in="SourceGraphic" in2="BackgroundImageFix" result="shape" />
      <feColorMatrix
        in="SourceAlpha"
        type="matrix"
        values="0 0 0 0 0 0 0 0 0 0 0 0 0 0 0 0 0 0 127 0"
        result="hardAlpha"
      />
      <feOffset dy="-2" />
      <feGaussianBlur stdDeviation="2" />
      <feComposite in2="hardAlpha" operator="arithmetic" k2="-1" k3="1" />
      <feColorMatrix type="matrix" values="0 0 0 0 0 0 0 0 0 0 0 0 0 0 0 0 0 0 0.25 0" />
      <feBlend mode="normal" in2="shape" result="effect1_innerShadow" />
    </filter>
    <filter
      id="filter2_i"
      x="56"
      y="100"
      width="104"
      height="21.1122"
      filterUnits="userSpaceOnUse"
      color-interpolation-filters="sRGB"
    >
      <feFlood flood-opacity="0" result="BackgroundImageFix" />
      <feBlend mode="normal" in="SourceGraphic" in2="BackgroundImageFix" result="shape" />
      <feColorMatrix
        in="SourceAlpha"
        type="matrix"
        values="0 0 0 0 0 0 0 0 0 0 0 0 0 0 0 0 0 0 127 0"
        result="hardAlpha"
      />
      <feOffset dy="2" />
      <feGaussianBlur stdDeviation="4" />
      <feComposite in2="hardAlpha" operator="arithmetic" k2="-1" k3="1" />
      <feColorMatrix type="matrix" values="0 0 0 0 0 0 0 0 0 0 0 0 0 0 0 0 0 0 0.25 0" />
      <feBlend mode="normal" in2="shape" result="effect1_innerShadow" />
    </filter>
    <filter
      id="filter3_f"
      x="54.5"
      y="97.5"
      width="104"
      height="23"
      filterUnits="userSpaceOnUse"
      color-interpolation-filters="sRGB"
    >
      <feFlood flood-opacity="0" result="BackgroundImageFix" />
      <feBlend mode="normal" in="SourceGraphic" in2="BackgroundImageFix" result="shape" />
      <feGaussianBlur stdDeviation="1.25" result="effect1_foregroundBlur" />
    </filter>
    <filter
      id="filter4_f"
      x="77.9764"
      y="7.28398"
      width="60.101"
      height="18.016"
      filterUnits="userSpaceOnUse"
      color-interpolation-filters="sRGB"
    >
      <feFlood flood-opacity="0" result="BackgroundImageFix" />
      <feBlend mode="normal" in="SourceGraphic" in2="BackgroundImageFix" result="shape" />
      <feGaussianBlur stdDeviation="1.15" result="effect1_foregroundBlur" />
    </filter>
  </defs>
</svg>
