<svg width="213" height="163" viewBox="0 0 213 163" fill="none" xmlns="http://www.w3.org/2000/svg">
  <mask id="mask0" style="mask-type: alpha" maskUnits="userSpaceOnUse" x="21" y="8" width="173" height="151">
    <path
      d="M153.458 62.7899C153.122 60.9163 152.935 60.0091 153 60.5C153.118 61.391 153.272 62.1478 153.458 62.7899Z"
      fill="black"
    />
    <path
      d="M80.5001 9.99997C48.5001 -2.57492e-05 30.3335 39.7899 32.5001 49.2899C31.6668 49.9565 30.0001 50.2899 31.0001 52.2899C31.5001 55.7899 36.3384 61.6792 39.0001 63.5C41.5001 65.2101 48.0001 67 51.0001 68C52.2001 68.8 52.8334 67 53.0001 66C56.5249 66 59.6654 67.553 61.0426 62.7899C61.3776 60.9162 61.5652 60.0091 61.5001 60.5V69.5C48.1526 82 21 118.5 21 148.5C21 152.5 32 154.5 32 150.5C32 154.5 42.5 156.5 42.5 152.5C42.5 156.5 53 156.5 53 152.5C53 156.5 64.0001 158.5 64.0001 154.5C64.0001 158.5 75 159 75 155C75 159 85.5 159 85.5 155C85.5 159 96.5001 159.5 96.5001 155.5C96.5001 159.5 108 159.5 108 155.5C108 159.5 119 159.5 119 155.5C119 159.5 129 159 129 155C129 159 139.5 158.5 139.5 154.5C139.5 158.5 150.5 158.5 150.5 154.5C150.5 158.5 161.5 156.5 161.5 152.5C161.5 156.5 172 156.5 172 152.5C172 156.5 182.5 154.5 182.5 150.5C182.5 154.5 193.5 152.5 193.5 148.5C193.5 114.9 166.805 81 153.458 70L153 60.5C152.935 60.0091 153.122 60.9163 153.458 62.7899C154.835 67.5531 157.975 66 161.5 66C161.667 67 162.3 68.8 163.5 68C166.5 67 173 65.2102 175.5 63.5C178.162 61.6793 183 55.7899 183.5 52.2899C184.5 50.2899 182.833 49.9566 182 49.2899C184.167 39.7899 166 2.00272e-05 134 10C127.833 12.5 121.5 17.5 107 17.5C92.5 17.5 86.6667 12.5 80.5001 9.99997Z"
      fill="black"
    />
  </mask>
  <g mask="url(#mask0)">
    <rect width="213" height="163" fill="#93EBFF" />
    <g filter="url(#filter0_d)">
      <path
        d="M63.9415 117.82C59.814 115.498 73.1859 83.3148 80.3878 67.5135H134.112C141.314 83.3148 154.686 115.498 150.558 117.82C140.911 121.248 119.343 122.494 107.476 122.494C95.6085 122.494 73.8999 121.825 63.9415 117.82Z"
        fill="#F4FDFF"
      />
    </g>
    <g filter="url(#filter1_i)">
      <path
        d="M53.6367 66.2848C46.4367 64.6848 35.1367 56.2848 32.1367 48.2848C31.3034 48.7848 29.5367 49.8848 29.1367 50.2848C29.9367 63.4848 45.1367 68.1181 52.6367 68.7848L53.6367 66.2848Z"
        fill="#FDFEFF"
      />
    </g>
    <path
      d="M107.97 30.7087C95.057 30.7087 84.7984 32.7174 81.2832 33.7217L87.5244 63.2068H129.492L134.442 33.7217C130.999 32.7174 120.883 30.7087 107.97 30.7087Z"
      fill="#F4FDFF"
    />
    <g filter="url(#filter2_i)">
      <path
        d="M160.878 66.2848C168.078 64.6848 179.378 56.2848 182.378 48.2848C183.212 48.7848 184.978 49.8848 185.378 50.2848C184.578 63.4848 169.378 68.1181 161.878 68.7848L160.878 66.2848Z"
        fill="#FDFEFF"
      />
    </g>
    <g filter="url(#filter3_d)">
      <path
        d="M66.3095 17.4279C67.7058 18.3925 72.0899 13.8295 74.6653 10.3089L73.3164 2.93117C70.4833 2.26316 65.5958 1.29309 62.448 1.86865C58.561 5.62911 64.5642 16.2221 66.3095 17.4279Z"
        fill="#F4FDFF"
      />
    </g>
    <g filter="url(#filter4_d)">
      <path
        d="M70.7109 35.9381C72.1071 36.9027 76.4913 32.3398 79.0667 28.8191L77.7177 21.4414C74.8847 20.7734 69.9972 19.8033 66.8494 20.3789C62.9623 24.1394 68.9655 34.7324 70.7109 35.9381Z"
        fill="#F4FDFF"
      />
    </g>
    <g filter="url(#filter5_d)">
      <path
        d="M76.6347 57.2197C78.031 58.1843 82.4151 53.6213 84.9905 50.1007L83.6415 42.723C80.8085 42.055 75.921 41.0849 72.7732 41.6605C68.8862 45.4209 74.8894 56.0139 76.6347 57.2197Z"
        fill="#F4FDFF"
      />
    </g>
    <g filter="url(#filter6_d)">
      <path
        d="M73.4563 64.8561C74.8526 65.8207 79.9084 62.1515 82.4839 58.6309C82.34 57.8439 81.1709 54.23 80.7812 52.0987C77.9482 51.4307 74.176 51.0007 71.0282 51.5763C67.1412 55.3368 71.711 63.6504 73.4563 64.8561Z"
        fill="#F4FDFF"
      />
    </g>
    <g filter="url(#filter7_d)">
      <path
        d="M64.1733 27.9843C65.5695 28.9488 69.9537 24.3859 72.5291 20.8653L71.1801 13.4876C68.3471 12.8196 63.4596 11.8495 60.3118 12.425C56.4247 16.1855 62.4279 26.7785 64.1733 27.9843Z"
        fill="#F4FDFF"
      />
    </g>
    <g filter="url(#filter8_d)">
      <path
        d="M68.8753 45.3622C70.2715 46.3268 75.3274 42.6576 77.9028 39.1369C77.7589 38.35 76.5898 34.736 76.2001 32.6047C73.3671 31.9367 69.5949 31.5068 66.4471 32.0823C62.5601 35.8428 67.1299 44.1564 68.8753 45.3622Z"
        fill="#F4FDFF"
      />
    </g>
    <g filter="url(#filter9_d)">
      <path
        d="M81.8935 -2.97602C86.6578 3.06558 89.7437 33.1869 91.8288 61.2698L81.8936 61.2698C73.9064 34.266 65.3116 6.96862 67.6298 -0.367992L81.8935 -2.97602Z"
        fill="#F4FDFF"
      />
    </g>
    <g filter="url(#filter10_d)">
      <path
        d="M151.461 17.4279C150.065 18.3925 145.681 13.8295 143.106 10.3089L144.455 2.93117C147.288 2.26316 152.175 1.29309 155.323 1.86865C159.21 5.62911 153.207 16.2221 151.461 17.4279Z"
        fill="#F4FDFF"
      />
    </g>
    <g filter="url(#filter11_d)">
      <path
        d="M147.06 35.9381C145.664 36.9027 141.28 32.3398 138.704 28.8191L140.053 21.4414C142.886 20.7734 147.774 19.8033 150.922 20.3789C154.809 24.1394 148.805 34.7324 147.06 35.9381Z"
        fill="#F4FDFF"
      />
    </g>
    <g filter="url(#filter12_d)">
      <path
        d="M141.136 57.2197C139.74 58.1843 135.356 53.6213 132.78 50.1007L134.129 42.723C136.962 42.055 141.85 41.0849 144.998 41.6605C148.885 45.4209 142.882 56.0139 141.136 57.2197Z"
        fill="#F4FDFF"
      />
    </g>
    <g filter="url(#filter13_d)">
      <path
        d="M144.315 64.8561C142.918 65.8207 137.863 62.1515 135.287 58.6309C135.431 57.8439 136.6 54.23 136.99 52.0987C139.823 51.4307 143.595 51.0007 146.743 51.5763C150.63 55.3368 146.06 63.6504 144.315 64.8561Z"
        fill="#F4FDFF"
      />
    </g>
    <g filter="url(#filter14_d)">
      <path
        d="M153.598 27.9843C152.201 28.9488 147.817 24.3859 145.242 20.8653L146.591 13.4876C149.424 12.8196 154.311 11.8495 157.459 12.425C161.346 16.1855 155.343 26.7785 153.598 27.9843Z"
        fill="#F4FDFF"
      />
    </g>
    <g filter="url(#filter15_d)">
      <path
        d="M148.896 45.3622C147.499 46.3268 142.444 42.6576 139.868 39.1369C140.012 38.35 141.181 34.736 141.571 32.6047C144.404 31.9367 148.176 31.5068 151.324 32.0823C155.211 35.8428 150.641 44.1564 148.896 45.3622Z"
        fill="#F4FDFF"
      />
    </g>
    <g filter="url(#filter16_d)">
      <path
        d="M135.878 -2.97602C131.113 3.06558 128.027 33.1869 125.942 61.2698L135.877 61.2698C143.865 34.266 152.459 6.96862 150.141 -0.367992L135.878 -2.97602Z"
        fill="#F4FDFF"
      />
    </g>
    <g filter="url(#filter17_d)">
      <path
        d="M153.007 60.5564C119.505 59.4109 99.9689 59.5677 61.5014 60.37L60.9673 69.4857C99.4348 68.6834 121.017 68.9107 154.52 70.0563L153.007 60.5564Z"
        fill="#F4FDFF"
      />
    </g>
    <g filter="url(#filter18_dd)">
      <path
        d="M107.13 17.4927C102.725 25.3927 90.5539 34.7866 77.1095 9.16183C63.6651 -16.4629 91.521 4.0388 107.13 17.4927Z"
        fill="#F4FDFF"
      />
    </g>
    <g filter="url(#filter19_dd)">
      <path
        d="M106.5 17.4927C110.905 25.3927 123.075 34.7866 136.52 9.16183C149.964 -16.4629 122.108 4.0388 106.5 17.4927Z"
        fill="#F4FDFF"
      />
    </g>
    <g filter="url(#filter20_i)">
      <path
        d="M107.145 148.166C73.0908 148.166 32.3302 143.221 16.2065 140.749V155.906L107.145 163L196.793 155.906V140.749C181.099 143.221 141.198 148.166 107.145 148.166Z"
        fill="#FDFEFF"
      />
    </g>
    <g filter="url(#filter21_f)">
      <path
        d="M74.2885 115.437C75.2492 115.634 76.804 114.402 77.1691 112.624L78.0819 112.812C77.7168 114.589 78.6598 116.335 79.6205 116.532L74.2885 115.437Z"
        fill="#5B6061"
        stroke="#5B6061"
        stroke-width="0.5"
        stroke-linejoin="round"
      />
      <circle cx="78.6479" cy="106.924" r="3.9592" transform="rotate(11.6088 78.6479 106.924)" fill="#5B6061" />
      <circle cx="74.6562" cy="110.487" r="3.9592" transform="rotate(11.6088 74.6562 110.487)" fill="#5B6061" />
      <circle cx="81.2343" cy="111.839" r="3.9592" transform="rotate(11.6088 81.2343 111.839)" fill="#5B6061" />
    </g>
    <g filter="url(#filter22_f)">
      <path
        d="M92.3896 109.778C91.6934 104.349 98.8629 104.537 99.2531 108.301C100.306 104.666 107.395 105.756 105.745 110.975C104.425 115.15 100.225 118.091 98.2909 119.039C96.5559 117.762 92.9465 114.122 92.3896 109.778Z"
        fill="#FF6262"
      />
      <path
        d="M99.2531 108.301L99.0045 108.327C99.0168 108.446 99.1117 108.539 99.2308 108.55C99.35 108.561 99.46 108.485 99.4933 108.371L99.2531 108.301ZM92.3896 109.778L92.1416 109.81L92.3896 109.778ZM98.2909 119.039L98.1427 119.241C98.2178 119.296 98.3173 119.305 98.401 119.264L98.2909 119.039ZM105.745 110.975L105.506 110.899L105.745 110.975ZM99.5018 108.275C99.2874 106.206 97.225 105.175 95.3911 105.343C94.4615 105.428 93.5528 105.82 92.9224 106.566C92.2888 107.316 91.9603 108.397 92.1416 109.81L92.6375 109.746C92.4707 108.445 92.7773 107.513 93.3044 106.889C93.8347 106.261 94.6123 105.917 95.4368 105.841C97.1112 105.687 98.8287 106.631 99.0045 108.327L99.5018 108.275ZM92.1416 109.81C92.4274 112.038 93.4936 114.074 94.6972 115.707C95.9013 117.34 97.2554 118.587 98.1427 119.241L98.4392 118.838C97.5914 118.214 96.2733 117.002 95.0997 115.41C93.9256 113.818 92.9087 111.861 92.6375 109.746L92.1416 109.81ZM99.4933 108.371C99.9677 106.733 101.826 106.109 103.446 106.559C104.244 106.78 104.948 107.257 105.358 107.969C105.766 108.677 105.902 109.649 105.506 110.899L105.983 111.05C106.413 109.692 106.282 108.57 105.791 107.719C105.304 106.873 104.479 106.326 103.58 106.077C101.805 105.585 99.5918 106.234 99.013 108.231L99.4933 108.371ZM105.506 110.899C104.864 112.932 103.515 114.677 102.077 116.035C100.639 117.393 99.1261 118.351 98.1809 118.815L98.401 119.264C99.3903 118.779 100.945 117.792 102.42 116.399C103.895 115.006 105.306 113.192 105.983 111.05L105.506 110.899Z"
        fill="#FF6262"
      />
    </g>
    <g filter="url(#filter23_f)">
      <path
        d="M117.303 118.654C118.244 118.557 119.316 116.974 119.138 115.235L120.031 115.143C120.21 116.883 121.582 118.215 122.522 118.118L117.303 118.654Z"
        fill="#5B6061"
        stroke="#5B6061"
        stroke-width="0.5"
        stroke-linejoin="round"
      />
      <path
        d="M112.943 113.768C112.302 118.646 119.206 118.346 119.561 114.965C120.596 118.203 127.417 117.095 125.799 112.448C124.504 108.731 120.444 106.173 118.576 105.358C116.912 106.535 113.455 109.865 112.943 113.768Z"
        fill="#5B6061"
      />
      <path
        d="M119.561 114.965L119.313 114.939C119.325 114.821 119.418 114.728 119.536 114.716C119.653 114.704 119.764 114.776 119.799 114.889L119.561 114.965ZM112.943 113.768L113.191 113.8L112.943 113.768ZM118.576 105.358L118.431 105.154C118.503 105.104 118.595 105.094 118.675 105.129L118.576 105.358ZM125.799 112.448L125.563 112.531L125.799 112.448ZM119.81 114.991C119.712 115.928 119.158 116.643 118.419 117.102C117.684 117.56 116.755 117.772 115.862 117.713C114.969 117.654 114.089 117.321 113.474 116.659C112.852 115.99 112.527 115.016 112.695 113.735L113.191 113.8C113.038 114.959 113.336 115.776 113.84 116.318C114.349 116.866 115.098 117.161 115.895 117.214C116.693 117.267 117.516 117.075 118.155 116.678C118.791 116.282 119.234 115.692 119.313 114.939L119.81 114.991ZM112.695 113.735C112.959 111.723 113.979 109.874 115.13 108.388C116.282 106.9 117.58 105.756 118.431 105.154L118.72 105.563C117.907 106.137 116.645 107.247 115.525 108.694C114.404 110.142 113.439 111.909 113.191 113.8L112.695 113.735ZM119.799 114.889C120.03 115.61 120.583 116.099 121.286 116.357C121.992 116.616 122.838 116.636 123.608 116.423C124.378 116.209 125.051 115.768 125.439 115.128C125.822 114.495 125.947 113.634 125.563 112.531L126.035 112.366C126.46 113.586 126.339 114.606 125.866 115.387C125.398 116.16 124.604 116.665 123.742 116.904C122.88 117.144 121.927 117.124 121.114 116.826C120.297 116.526 119.61 115.938 119.323 115.041L119.799 114.889ZM125.563 112.531C124.936 110.729 123.632 109.195 122.24 108.005C120.849 106.815 119.388 105.985 118.476 105.588L118.675 105.129C119.631 105.546 121.135 106.402 122.565 107.625C123.994 108.847 125.368 110.45 126.035 112.366L125.563 112.531Z"
        fill="#5B6061"
      />
    </g>
    <g filter="url(#filter24_f)">
      <path d="M133.265 110.702L136.606 102.36L143.489 108.136L139.996 115.87L133.265 110.702Z" fill="#FF6262" />
      <path
        d="M136.606 102.36L136.927 101.977C136.804 101.874 136.639 101.836 136.484 101.875C136.328 101.914 136.201 102.025 136.141 102.174L136.606 102.36ZM133.265 110.702L132.801 110.516L132.66 110.868L132.961 111.099L133.265 110.702ZM139.996 115.87L139.692 116.267C139.813 116.36 139.97 116.392 140.118 116.355C140.266 116.318 140.389 116.215 140.452 116.076L139.996 115.87ZM143.489 108.136L143.945 108.342C144.037 108.138 143.982 107.897 143.811 107.753L143.489 108.136ZM136.141 102.174L132.801 110.516L133.729 110.888L137.07 102.546L136.141 102.174ZM132.961 111.099L139.692 116.267L140.301 115.473L133.57 110.305L132.961 111.099ZM136.284 102.743L143.168 108.519L143.811 107.753L136.927 101.977L136.284 102.743ZM143.034 107.93L139.54 115.664L140.452 116.076L143.945 108.342L143.034 107.93Z"
        fill="#FF6262"
      />
    </g>
  </g>
  <defs>
    <filter
      id="filter0_d"
      x="59.167"
      y="66.5135"
      width="96.1655"
      height="62.9804"
      filterUnits="userSpaceOnUse"
      color-interpolation-filters="sRGB"
    >
      <feFlood flood-opacity="0" result="BackgroundImageFix" />
      <feColorMatrix
        in="SourceAlpha"
        type="matrix"
        values="0 0 0 0 0 0 0 0 0 0 0 0 0 0 0 0 0 0 127 0"
        result="hardAlpha"
      />
      <feOffset dy="3" />
      <feGaussianBlur stdDeviation="2" />
      <feColorMatrix type="matrix" values="0 0 0 0 0.364948 0 0 0 0 0.851842 0 0 0 0 0.9625 0 0 0 0.4 0" />
      <feBlend mode="normal" in2="BackgroundImageFix" result="effect1_dropShadow" />
      <feBlend mode="normal" in="SourceGraphic" in2="effect1_dropShadow" result="shape" />
    </filter>
    <filter
      id="filter1_i"
      x="27.1367"
      y="48.2848"
      width="26.5"
      height="20.5"
      filterUnits="userSpaceOnUse"
      color-interpolation-filters="sRGB"
    >
      <feFlood flood-opacity="0" result="BackgroundImageFix" />
      <feBlend mode="normal" in="SourceGraphic" in2="BackgroundImageFix" result="shape" />
      <feColorMatrix
        in="SourceAlpha"
        type="matrix"
        values="0 0 0 0 0 0 0 0 0 0 0 0 0 0 0 0 0 0 127 0"
        result="hardAlpha"
      />
      <feOffset dx="-2" />
      <feGaussianBlur stdDeviation="1.5" />
      <feComposite in2="hardAlpha" operator="arithmetic" k2="-1" k3="1" />
      <feColorMatrix type="matrix" values="0 0 0 0 0.43724 0 0 0 0 0.824489 0 0 0 0 0.9125 0 0 0 0.3 0" />
      <feBlend mode="normal" in2="shape" result="effect1_innerShadow" />
    </filter>
    <filter
      id="filter2_i"
      x="160.878"
      y="48.2848"
      width="26.5"
      height="20.5"
      filterUnits="userSpaceOnUse"
      color-interpolation-filters="sRGB"
    >
      <feFlood flood-opacity="0" result="BackgroundImageFix" />
      <feBlend mode="normal" in="SourceGraphic" in2="BackgroundImageFix" result="shape" />
      <feColorMatrix
        in="SourceAlpha"
        type="matrix"
        values="0 0 0 0 0 0 0 0 0 0 0 0 0 0 0 0 0 0 127 0"
        result="hardAlpha"
      />
      <feOffset dx="2" />
      <feGaussianBlur stdDeviation="1.5" />
      <feComposite in2="hardAlpha" operator="arithmetic" k2="-1" k3="1" />
      <feColorMatrix type="matrix" values="0 0 0 0 0.43724 0 0 0 0 0.824489 0 0 0 0 0.9125 0 0 0 0.3 0" />
      <feBlend mode="normal" in2="shape" result="effect1_innerShadow" />
    </filter>
    <filter
      id="filter3_d"
      x="57.1626"
      y="-0.306641"
      width="21.5029"
      height="23.8655"
      filterUnits="userSpaceOnUse"
      color-interpolation-filters="sRGB"
    >
      <feFlood flood-opacity="0" result="BackgroundImageFix" />
      <feColorMatrix
        in="SourceAlpha"
        type="matrix"
        values="0 0 0 0 0 0 0 0 0 0 0 0 0 0 0 0 0 0 127 0"
        result="hardAlpha"
      />
      <feOffset dy="2" />
      <feGaussianBlur stdDeviation="2" />
      <feColorMatrix type="matrix" values="0 0 0 0 0.447292 0 0 0 0 0.856906 0 0 0 0 0.95 0 0 0 0.54 0" />
      <feBlend mode="normal" in2="BackgroundImageFix" result="effect1_dropShadow" />
      <feBlend mode="normal" in="SourceGraphic" in2="effect1_dropShadow" result="shape" />
    </filter>
    <filter
      id="filter4_d"
      x="61.564"
      y="18.2036"
      width="21.5029"
      height="23.8655"
      filterUnits="userSpaceOnUse"
      color-interpolation-filters="sRGB"
    >
      <feFlood flood-opacity="0" result="BackgroundImageFix" />
      <feColorMatrix
        in="SourceAlpha"
        type="matrix"
        values="0 0 0 0 0 0 0 0 0 0 0 0 0 0 0 0 0 0 127 0"
        result="hardAlpha"
      />
      <feOffset dy="2" />
      <feGaussianBlur stdDeviation="2" />
      <feColorMatrix type="matrix" values="0 0 0 0 0.447292 0 0 0 0 0.856906 0 0 0 0 0.95 0 0 0 0.54 0" />
      <feBlend mode="normal" in2="BackgroundImageFix" result="effect1_dropShadow" />
      <feBlend mode="normal" in="SourceGraphic" in2="effect1_dropShadow" result="shape" />
    </filter>
    <filter
      id="filter5_d"
      x="67.4878"
      y="39.4852"
      width="21.5029"
      height="23.8655"
      filterUnits="userSpaceOnUse"
      color-interpolation-filters="sRGB"
    >
      <feFlood flood-opacity="0" result="BackgroundImageFix" />
      <feColorMatrix
        in="SourceAlpha"
        type="matrix"
        values="0 0 0 0 0 0 0 0 0 0 0 0 0 0 0 0 0 0 127 0"
        result="hardAlpha"
      />
      <feOffset dy="2" />
      <feGaussianBlur stdDeviation="2" />
      <feColorMatrix type="matrix" values="0 0 0 0 0.447292 0 0 0 0 0.856906 0 0 0 0 0.95 0 0 0 0.54 0" />
      <feBlend mode="normal" in2="BackgroundImageFix" result="effect1_dropShadow" />
      <feBlend mode="normal" in="SourceGraphic" in2="effect1_dropShadow" result="shape" />
    </filter>
    <filter
      id="filter6_d"
      x="65.5044"
      y="49.3074"
      width="20.9795"
      height="21.7053"
      filterUnits="userSpaceOnUse"
      color-interpolation-filters="sRGB"
    >
      <feFlood flood-opacity="0" result="BackgroundImageFix" />
      <feColorMatrix
        in="SourceAlpha"
        type="matrix"
        values="0 0 0 0 0 0 0 0 0 0 0 0 0 0 0 0 0 0 127 0"
        result="hardAlpha"
      />
      <feOffset dy="2" />
      <feGaussianBlur stdDeviation="2" />
      <feColorMatrix type="matrix" values="0 0 0 0 0.447292 0 0 0 0 0.856906 0 0 0 0 0.95 0 0 0 0.54 0" />
      <feBlend mode="normal" in2="BackgroundImageFix" result="effect1_dropShadow" />
      <feBlend mode="normal" in="SourceGraphic" in2="effect1_dropShadow" result="shape" />
    </filter>
    <filter
      id="filter7_d"
      x="55.0264"
      y="10.2498"
      width="21.5029"
      height="23.8655"
      filterUnits="userSpaceOnUse"
      color-interpolation-filters="sRGB"
    >
      <feFlood flood-opacity="0" result="BackgroundImageFix" />
      <feColorMatrix
        in="SourceAlpha"
        type="matrix"
        values="0 0 0 0 0 0 0 0 0 0 0 0 0 0 0 0 0 0 127 0"
        result="hardAlpha"
      />
      <feOffset dy="2" />
      <feGaussianBlur stdDeviation="2" />
      <feColorMatrix type="matrix" values="0 0 0 0 0.447292 0 0 0 0 0.856906 0 0 0 0 0.95 0 0 0 0.54 0" />
      <feBlend mode="normal" in2="BackgroundImageFix" result="effect1_dropShadow" />
      <feBlend mode="normal" in="SourceGraphic" in2="effect1_dropShadow" result="shape" />
    </filter>
    <filter
      id="filter8_d"
      x="60.9233"
      y="29.8134"
      width="20.9795"
      height="21.7053"
      filterUnits="userSpaceOnUse"
      color-interpolation-filters="sRGB"
    >
      <feFlood flood-opacity="0" result="BackgroundImageFix" />
      <feColorMatrix
        in="SourceAlpha"
        type="matrix"
        values="0 0 0 0 0 0 0 0 0 0 0 0 0 0 0 0 0 0 127 0"
        result="hardAlpha"
      />
      <feOffset dy="2" />
      <feGaussianBlur stdDeviation="2" />
      <feColorMatrix type="matrix" values="0 0 0 0 0.447292 0 0 0 0 0.856906 0 0 0 0 0.95 0 0 0 0.54 0" />
      <feBlend mode="normal" in2="BackgroundImageFix" result="effect1_dropShadow" />
      <feBlend mode="normal" in="SourceGraphic" in2="effect1_dropShadow" result="shape" />
    </filter>
    <filter
      id="filter9_d"
      x="62.2456"
      y="-7.97601"
      width="34.583"
      height="74.2458"
      filterUnits="userSpaceOnUse"
      color-interpolation-filters="sRGB"
    >
      <feFlood flood-opacity="0" result="BackgroundImageFix" />
      <feColorMatrix
        in="SourceAlpha"
        type="matrix"
        values="0 0 0 0 0 0 0 0 0 0 0 0 0 0 0 0 0 0 127 0"
        result="hardAlpha"
      />
      <feOffset />
      <feGaussianBlur stdDeviation="2.5" />
      <feColorMatrix type="matrix" values="0 0 0 0 0.558333 0 0 0 0 0.91821 0 0 0 0 1 0 0 0 0.4 0" />
      <feBlend mode="normal" in2="BackgroundImageFix" result="effect1_dropShadow" />
      <feBlend mode="normal" in="SourceGraphic" in2="effect1_dropShadow" result="shape" />
    </filter>
    <filter
      id="filter10_d"
      x="139.105"
      y="-0.306641"
      width="21.5029"
      height="23.8655"
      filterUnits="userSpaceOnUse"
      color-interpolation-filters="sRGB"
    >
      <feFlood flood-opacity="0" result="BackgroundImageFix" />
      <feColorMatrix
        in="SourceAlpha"
        type="matrix"
        values="0 0 0 0 0 0 0 0 0 0 0 0 0 0 0 0 0 0 127 0"
        result="hardAlpha"
      />
      <feOffset dy="2" />
      <feGaussianBlur stdDeviation="2" />
      <feColorMatrix type="matrix" values="0 0 0 0 0.447292 0 0 0 0 0.856906 0 0 0 0 0.95 0 0 0 0.54 0" />
      <feBlend mode="normal" in2="BackgroundImageFix" result="effect1_dropShadow" />
      <feBlend mode="normal" in="SourceGraphic" in2="effect1_dropShadow" result="shape" />
    </filter>
    <filter
      id="filter11_d"
      x="134.704"
      y="18.2036"
      width="21.5029"
      height="23.8655"
      filterUnits="userSpaceOnUse"
      color-interpolation-filters="sRGB"
    >
      <feFlood flood-opacity="0" result="BackgroundImageFix" />
      <feColorMatrix
        in="SourceAlpha"
        type="matrix"
        values="0 0 0 0 0 0 0 0 0 0 0 0 0 0 0 0 0 0 127 0"
        result="hardAlpha"
      />
      <feOffset dy="2" />
      <feGaussianBlur stdDeviation="2" />
      <feColorMatrix type="matrix" values="0 0 0 0 0.447292 0 0 0 0 0.856906 0 0 0 0 0.95 0 0 0 0.54 0" />
      <feBlend mode="normal" in2="BackgroundImageFix" result="effect1_dropShadow" />
      <feBlend mode="normal" in="SourceGraphic" in2="effect1_dropShadow" result="shape" />
    </filter>
    <filter
      id="filter12_d"
      x="128.78"
      y="39.4852"
      width="21.5029"
      height="23.8655"
      filterUnits="userSpaceOnUse"
      color-interpolation-filters="sRGB"
    >
      <feFlood flood-opacity="0" result="BackgroundImageFix" />
      <feColorMatrix
        in="SourceAlpha"
        type="matrix"
        values="0 0 0 0 0 0 0 0 0 0 0 0 0 0 0 0 0 0 127 0"
        result="hardAlpha"
      />
      <feOffset dy="2" />
      <feGaussianBlur stdDeviation="2" />
      <feColorMatrix type="matrix" values="0 0 0 0 0.447292 0 0 0 0 0.856906 0 0 0 0 0.95 0 0 0 0.54 0" />
      <feBlend mode="normal" in2="BackgroundImageFix" result="effect1_dropShadow" />
      <feBlend mode="normal" in="SourceGraphic" in2="effect1_dropShadow" result="shape" />
    </filter>
    <filter
      id="filter13_d"
      x="131.287"
      y="49.3074"
      width="20.9795"
      height="21.7053"
      filterUnits="userSpaceOnUse"
      color-interpolation-filters="sRGB"
    >
      <feFlood flood-opacity="0" result="BackgroundImageFix" />
      <feColorMatrix
        in="SourceAlpha"
        type="matrix"
        values="0 0 0 0 0 0 0 0 0 0 0 0 0 0 0 0 0 0 127 0"
        result="hardAlpha"
      />
      <feOffset dy="2" />
      <feGaussianBlur stdDeviation="2" />
      <feColorMatrix type="matrix" values="0 0 0 0 0.447292 0 0 0 0 0.856906 0 0 0 0 0.95 0 0 0 0.54 0" />
      <feBlend mode="normal" in2="BackgroundImageFix" result="effect1_dropShadow" />
      <feBlend mode="normal" in="SourceGraphic" in2="effect1_dropShadow" result="shape" />
    </filter>
    <filter
      id="filter14_d"
      x="141.242"
      y="10.2498"
      width="21.5029"
      height="23.8655"
      filterUnits="userSpaceOnUse"
      color-interpolation-filters="sRGB"
    >
      <feFlood flood-opacity="0" result="BackgroundImageFix" />
      <feColorMatrix
        in="SourceAlpha"
        type="matrix"
        values="0 0 0 0 0 0 0 0 0 0 0 0 0 0 0 0 0 0 127 0"
        result="hardAlpha"
      />
      <feOffset dy="2" />
      <feGaussianBlur stdDeviation="2" />
      <feColorMatrix type="matrix" values="0 0 0 0 0.447292 0 0 0 0 0.856906 0 0 0 0 0.95 0 0 0 0.54 0" />
      <feBlend mode="normal" in2="BackgroundImageFix" result="effect1_dropShadow" />
      <feBlend mode="normal" in="SourceGraphic" in2="effect1_dropShadow" result="shape" />
    </filter>
    <filter
      id="filter15_d"
      x="135.868"
      y="29.8134"
      width="20.9795"
      height="21.7053"
      filterUnits="userSpaceOnUse"
      color-interpolation-filters="sRGB"
    >
      <feFlood flood-opacity="0" result="BackgroundImageFix" />
      <feColorMatrix
        in="SourceAlpha"
        type="matrix"
        values="0 0 0 0 0 0 0 0 0 0 0 0 0 0 0 0 0 0 127 0"
        result="hardAlpha"
      />
      <feOffset dy="2" />
      <feGaussianBlur stdDeviation="2" />
      <feColorMatrix type="matrix" values="0 0 0 0 0.447292 0 0 0 0 0.856906 0 0 0 0 0.95 0 0 0 0.54 0" />
      <feBlend mode="normal" in2="BackgroundImageFix" result="effect1_dropShadow" />
      <feBlend mode="normal" in="SourceGraphic" in2="effect1_dropShadow" result="shape" />
    </filter>
    <filter
      id="filter16_d"
      x="120.942"
      y="-7.97601"
      width="34.583"
      height="74.2458"
      filterUnits="userSpaceOnUse"
      color-interpolation-filters="sRGB"
    >
      <feFlood flood-opacity="0" result="BackgroundImageFix" />
      <feColorMatrix
        in="SourceAlpha"
        type="matrix"
        values="0 0 0 0 0 0 0 0 0 0 0 0 0 0 0 0 0 0 127 0"
        result="hardAlpha"
      />
      <feOffset />
      <feGaussianBlur stdDeviation="2.5" />
      <feColorMatrix type="matrix" values="0 0 0 0 0.558333 0 0 0 0 0.91821 0 0 0 0 1 0 0 0 0.4 0" />
      <feBlend mode="normal" in2="BackgroundImageFix" result="effect1_dropShadow" />
      <feBlend mode="normal" in="SourceGraphic" in2="effect1_dropShadow" result="shape" />
    </filter>
    <filter
      id="filter17_d"
      x="57.9673"
      y="57.7327"
      width="99.5527"
      height="16.3235"
      filterUnits="userSpaceOnUse"
      color-interpolation-filters="sRGB"
    >
      <feFlood flood-opacity="0" result="BackgroundImageFix" />
      <feColorMatrix
        in="SourceAlpha"
        type="matrix"
        values="0 0 0 0 0 0 0 0 0 0 0 0 0 0 0 0 0 0 127 0"
        result="hardAlpha"
      />
      <feOffset dy="1" />
      <feGaussianBlur stdDeviation="1.5" />
      <feColorMatrix type="matrix" values="0 0 0 0 0.404688 0 0 0 0 0.828646 0 0 0 0 0.925 0 0 0 0.4 0" />
      <feBlend mode="normal" in2="BackgroundImageFix" result="effect1_dropShadow" />
      <feBlend mode="normal" in="SourceGraphic" in2="effect1_dropShadow" result="shape" />
    </filter>
    <filter
      id="filter18_dd"
      x="69.5493"
      y="-3.07312"
      width="41.5801"
      height="36.9753"
      filterUnits="userSpaceOnUse"
      color-interpolation-filters="sRGB"
    >
      <feFlood flood-opacity="0" result="BackgroundImageFix" />
      <feColorMatrix
        in="SourceAlpha"
        type="matrix"
        values="0 0 0 0 0 0 0 0 0 0 0 0 0 0 0 0 0 0 127 0"
        result="hardAlpha"
      />
      <feOffset dy="4" />
      <feGaussianBlur stdDeviation="2" />
      <feColorMatrix type="matrix" values="0 0 0 0 0.679167 0 0 0 0 0.940587 0 0 0 0 1 0 0 0 0.25 0" />
      <feBlend mode="normal" in2="BackgroundImageFix" result="effect1_dropShadow" />
      <feColorMatrix
        in="SourceAlpha"
        type="matrix"
        values="0 0 0 0 0 0 0 0 0 0 0 0 0 0 0 0 0 0 127 0"
        result="hardAlpha"
      />
      <feOffset dy="4" />
      <feGaussianBlur stdDeviation="2" />
      <feColorMatrix type="matrix" values="0 0 0 0 0.679167 0 0 0 0 0.940587 0 0 0 0 1 0 0 0 0.25 0" />
      <feBlend mode="normal" in2="effect1_dropShadow" result="effect2_dropShadow" />
      <feBlend mode="normal" in="SourceGraphic" in2="effect2_dropShadow" result="shape" />
    </filter>
    <filter
      id="filter19_dd"
      x="102.5"
      y="-3.07312"
      width="41.5801"
      height="36.9753"
      filterUnits="userSpaceOnUse"
      color-interpolation-filters="sRGB"
    >
      <feFlood flood-opacity="0" result="BackgroundImageFix" />
      <feColorMatrix
        in="SourceAlpha"
        type="matrix"
        values="0 0 0 0 0 0 0 0 0 0 0 0 0 0 0 0 0 0 127 0"
        result="hardAlpha"
      />
      <feOffset dy="4" />
      <feGaussianBlur stdDeviation="2" />
      <feColorMatrix type="matrix" values="0 0 0 0 0.679167 0 0 0 0 0.940587 0 0 0 0 1 0 0 0 0.25 0" />
      <feBlend mode="normal" in2="BackgroundImageFix" result="effect1_dropShadow" />
      <feColorMatrix
        in="SourceAlpha"
        type="matrix"
        values="0 0 0 0 0 0 0 0 0 0 0 0 0 0 0 0 0 0 127 0"
        result="hardAlpha"
      />
      <feOffset dy="4" />
      <feGaussianBlur stdDeviation="2" />
      <feColorMatrix type="matrix" values="0 0 0 0 0.679167 0 0 0 0 0.940587 0 0 0 0 1 0 0 0 0.25 0" />
      <feBlend mode="normal" in2="effect1_dropShadow" result="effect2_dropShadow" />
      <feBlend mode="normal" in="SourceGraphic" in2="effect2_dropShadow" result="shape" />
    </filter>
    <filter
      id="filter20_i"
      x="16.2065"
      y="140.749"
      width="180.587"
      height="26.2509"
      filterUnits="userSpaceOnUse"
      color-interpolation-filters="sRGB"
    >
      <feFlood flood-opacity="0" result="BackgroundImageFix" />
      <feBlend mode="normal" in="SourceGraphic" in2="BackgroundImageFix" result="shape" />
      <feColorMatrix
        in="SourceAlpha"
        type="matrix"
        values="0 0 0 0 0 0 0 0 0 0 0 0 0 0 0 0 0 0 127 0"
        result="hardAlpha"
      />
      <feOffset dy="4" />
      <feGaussianBlur stdDeviation="2" />
      <feComposite in2="hardAlpha" operator="arithmetic" k2="-1" k3="1" />
      <feColorMatrix type="matrix" values="0 0 0 0 0.884635 0 0 0 0 0.968451 0 0 0 0 0.9875 0 0 0 0.6 0" />
      <feBlend mode="normal" in2="shape" result="effect1_innerShadow" />
    </filter>
    <filter
      id="filter21_f"
      x="70.4963"
      y="102.764"
      width="14.898"
      height="14.2181"
      filterUnits="userSpaceOnUse"
      color-interpolation-filters="sRGB"
    >
      <feFlood flood-opacity="0" result="BackgroundImageFix" />
      <feBlend mode="normal" in="SourceGraphic" in2="BackgroundImageFix" result="shape" />
      <feGaussianBlur stdDeviation="0.1" result="effect1_foregroundBlur" />
    </filter>
    <filter
      id="filter22_f"
      x="91.8918"
      y="105.125"
      width="14.5509"
      height="14.3642"
      filterUnits="userSpaceOnUse"
      color-interpolation-filters="sRGB"
    >
      <feFlood flood-opacity="0" result="BackgroundImageFix" />
      <feBlend mode="normal" in="SourceGraphic" in2="BackgroundImageFix" result="shape" />
      <feGaussianBlur stdDeviation="0.1" result="effect1_foregroundBlur" />
    </filter>
    <filter
      id="filter23_f"
      x="112.451"
      y="104.908"
      width="14.045"
      height="14.1953"
      filterUnits="userSpaceOnUse"
      color-interpolation-filters="sRGB"
    >
      <feFlood flood-opacity="0" result="BackgroundImageFix" />
      <feBlend mode="normal" in="SourceGraphic" in2="BackgroundImageFix" result="shape" />
      <feGaussianBlur stdDeviation="0.1" result="effect1_foregroundBlur" />
    </filter>
    <filter
      id="filter24_f"
      x="132.46"
      y="101.66"
      width="11.7291"
      height="14.9103"
      filterUnits="userSpaceOnUse"
      color-interpolation-filters="sRGB"
    >
      <feFlood flood-opacity="0" result="BackgroundImageFix" />
      <feBlend mode="normal" in="SourceGraphic" in2="BackgroundImageFix" result="shape" />
      <feGaussianBlur stdDeviation="0.1" result="effect1_foregroundBlur" />
    </filter>
  </defs>
</svg>
